<svg width="862" height="841" viewBox="0 0 862 841" fill="none" xmlns="http://www.w3.org/2000/svg">
<rect x="0.5" y="0.5" width="861" height="840" fill="#111F3B" stroke="#293856"/>
<path d="M191.228 46.9091H188.46V60H191.228V46.9091ZM196.177 54.3239C196.183 53.0582 196.938 52.3168 198.037 52.3168C199.13 52.3168 199.788 53.0327 199.782 54.2344V60H202.505V53.7486C202.505 51.4602 201.163 50.054 199.117 50.054C197.66 50.054 196.605 50.7699 196.164 51.9141H196.049V50.1818H193.454V60H196.177V54.3239ZM213.453 50.1818H210.57L208.537 57.2067H208.435L206.396 50.1818H203.52L206.952 60H210.02L213.453 50.1818ZM214.846 60H217.569V50.1818H214.846V60ZM216.214 48.9162C217.026 48.9162 217.691 48.2962 217.691 47.5355C217.691 46.7812 217.026 46.1612 216.214 46.1612C215.409 46.1612 214.744 46.7812 214.744 47.5355C214.744 48.2962 215.409 48.9162 216.214 48.9162ZM224.973 50.1818H223.126V47.8295H220.403V50.1818H219.06V52.2273H220.403V57.3409C220.39 59.2649 221.7 60.2173 223.675 60.1342C224.379 60.1087 224.877 59.968 225.152 59.8786L224.724 57.8523C224.589 57.8778 224.302 57.9418 224.046 57.9418C223.503 57.9418 223.126 57.7372 223.126 56.983V52.2273H224.973V50.1818ZM231.116 60.1918C233.545 60.1918 235.181 59.0092 235.565 57.1875L233.046 57.0213C232.771 57.7692 232.068 58.1591 231.161 58.1591C229.799 58.1591 228.936 57.2578 228.936 55.794V55.7876H235.622V55.0398C235.622 51.7031 233.602 50.054 231.007 50.054C228.118 50.054 226.245 52.1058 226.245 55.1357C226.245 58.2486 228.092 60.1918 231.116 60.1918ZM228.936 54.1001C228.994 52.9815 229.844 52.0866 231.052 52.0866C232.234 52.0866 233.053 52.9304 233.059 54.1001H228.936ZM237.399 60H240.122V54.4453C240.122 53.2372 241.004 52.4062 242.206 52.4062C242.583 52.4062 243.101 52.4702 243.357 52.5533V50.1371C243.114 50.0795 242.775 50.0412 242.5 50.0412C241.401 50.0412 240.499 50.6804 240.141 51.8949H240.039V50.1818H237.399V60Z" fill="#4079A2"/>
<path d="M621.032 46.9091H618.264V60H621.032V46.9091ZM625.981 54.3239C625.987 53.0582 626.741 52.3168 627.841 52.3168C628.934 52.3168 629.592 53.0327 629.586 54.2344V60H632.309V53.7486C632.309 51.4602 630.966 50.054 628.921 50.054C627.464 50.054 626.409 50.7699 625.968 51.9141H625.853V50.1818H623.258V60H625.981V54.3239ZM643.257 50.1818H640.374L638.341 57.2067H638.239L636.2 50.1818H633.323L636.756 60H639.824L643.257 50.1818ZM644.65 60H647.373V50.1818H644.65V60ZM646.018 48.9162C646.83 48.9162 647.495 48.2962 647.495 47.5355C647.495 46.7812 646.83 46.1612 646.018 46.1612C645.213 46.1612 644.548 46.7812 644.548 47.5355C644.548 48.2962 645.213 48.9162 646.018 48.9162ZM654.777 50.1818H652.929V47.8295H650.206V50.1818H648.864V52.2273H650.206V57.3409C650.194 59.2649 651.504 60.2173 653.479 60.1342C654.182 60.1087 654.681 59.968 654.956 59.8786L654.527 57.8523C654.393 57.8778 654.106 57.9418 653.85 57.9418C653.307 57.9418 652.929 57.7372 652.929 56.983V52.2273H654.777V50.1818ZM660.919 60.1918C663.348 60.1918 664.985 59.0092 665.368 57.1875L662.85 57.0213C662.575 57.7692 661.872 58.1591 660.964 58.1591C659.603 58.1591 658.74 57.2578 658.74 55.794V55.7876H665.426V55.0398C665.426 51.7031 663.406 50.054 660.811 50.054C657.922 50.054 656.049 52.1058 656.049 55.1357C656.049 58.2486 657.896 60.1918 660.919 60.1918ZM658.74 54.1001C658.797 52.9815 659.647 52.0866 660.856 52.0866C662.038 52.0866 662.856 52.9304 662.863 54.1001H658.74ZM671.677 60.1918C674.106 60.1918 675.743 59.0092 676.126 57.1875L673.608 57.0213C673.333 57.7692 672.63 58.1591 671.722 58.1591C670.361 58.1591 669.498 57.2578 669.498 55.794V55.7876H676.184V55.0398C676.184 51.7031 674.164 50.054 671.569 50.054C668.679 50.054 666.807 52.1058 666.807 55.1357C666.807 58.2486 668.654 60.1918 671.677 60.1918ZM669.498 54.1001C669.555 52.9815 670.405 52.0866 671.613 52.0866C672.796 52.0866 673.614 52.9304 673.62 54.1001H669.498Z" fill="#4079A2"/>
<rect x="31.5" y="26.5" width="368" height="788" rx="8.5" stroke="#294C6F" stroke-width="3" stroke-dasharray="6 6"/>
<rect x="462.5" y="26.5" width="368" height="788" rx="8.5" stroke="#294C6F" stroke-width="3" stroke-dasharray="6 6"/>
<circle cx="216" cy="123" r="22" stroke="#7CA2C1" stroke-width="6"/>
<circle cx="647" cy="123" r="22" stroke="#7CA2C1" stroke-width="6"/>
<circle cx="216" cy="770" r="23.5" stroke="#369FAB" stroke-width="3" stroke-dasharray="6 6"/>
<circle cx="216" cy="770" r="17.5" stroke="#369FAB" stroke-width="3"/>
<rect x="577" y="293" width="140" height="50" rx="5" fill="#294C6F"/>
<rect x="577" y="473" width="140" height="50" rx="5" fill="#294C6F"/>
<rect x="154" y="201" width="123" height="50" rx="5" fill="#369FAB"/>
<rect x="165" y="215" width="33" height="21" rx="3" fill="white" stroke="#369FAB" stroke-width="2"/>
<path d="M165 216L179.813 229.186C180.969 230.215 182.717 230.196 183.85 229.143L198 216" stroke="#369FAB" stroke-width="2" stroke-linejoin="round"/>
<path d="M207.434 230H208.608V222.364H207.434V230ZM208.031 221.091C208.488 221.091 208.866 220.733 208.866 220.295C208.866 219.858 208.488 219.5 208.031 219.5C207.573 219.5 207.196 219.858 207.196 220.295C207.196 220.733 207.573 221.091 208.031 221.091ZM211.93 225.406C211.93 224.074 212.755 223.318 213.879 223.318C214.967 223.318 215.629 224.029 215.629 225.227V230H216.802V225.148C216.802 223.199 215.763 222.264 214.217 222.264C213.063 222.264 212.347 222.781 211.989 223.557H211.89V222.364H210.756V230H211.93V225.406ZM224.917 222.364H223.644L221.536 228.449H221.457L219.349 222.364H218.076L220.9 230H222.093L224.917 222.364ZM226.465 230H227.639V222.364H226.465V230ZM227.062 221.091C227.519 221.091 227.897 220.733 227.897 220.295C227.897 219.858 227.519 219.5 227.062 219.5C226.605 219.5 226.227 219.858 226.227 220.295C226.227 220.733 226.605 221.091 227.062 221.091ZM233.109 222.364H231.478V220.534H230.305V222.364H229.151V223.358H230.305V228.131C230.305 229.463 231.379 230.099 232.373 230.099C232.81 230.099 233.089 230.02 233.248 229.96L233.009 228.906C232.91 228.926 232.751 228.966 232.492 228.966C231.975 228.966 231.478 228.807 231.478 227.812V223.358H233.109V222.364ZM237.121 230.179C238.453 230.179 239.149 229.463 239.388 228.966H239.448V230H240.621V224.969C240.621 222.543 238.771 222.264 237.797 222.264C236.644 222.264 235.331 222.662 234.734 224.054L235.848 224.452C236.107 223.895 236.718 223.298 237.837 223.298C238.916 223.298 239.448 223.87 239.448 224.849V224.889C239.448 225.456 238.871 225.406 237.479 225.585C236.062 225.769 234.516 226.082 234.516 227.832C234.516 229.324 235.669 230.179 237.121 230.179ZM237.3 229.125C236.365 229.125 235.689 228.707 235.689 227.892C235.689 226.997 236.504 226.719 237.419 226.599C237.916 226.54 239.249 226.401 239.448 226.162V227.236C239.448 228.19 238.692 229.125 237.3 229.125ZM246.083 222.364H244.453V220.534H243.279V222.364H242.126V223.358H243.279V228.131C243.279 229.463 244.353 230.099 245.348 230.099C245.785 230.099 246.063 230.02 246.223 229.96L245.984 228.906C245.884 228.926 245.725 228.966 245.467 228.966C244.95 228.966 244.453 228.807 244.453 227.812V223.358H246.083V222.364ZM247.848 230H249.022V222.364H247.848V230ZM248.445 221.091C248.902 221.091 249.28 220.733 249.28 220.295C249.28 219.858 248.902 219.5 248.445 219.5C247.987 219.5 247.61 219.858 247.61 220.295C247.61 220.733 247.987 221.091 248.445 221.091ZM254.273 230.159C256.341 230.159 257.733 228.588 257.733 226.222C257.733 223.835 256.341 222.264 254.273 222.264C252.205 222.264 250.813 223.835 250.813 226.222C250.813 228.588 252.205 230.159 254.273 230.159ZM254.273 229.105C252.702 229.105 251.986 227.753 251.986 226.222C251.986 224.69 252.702 223.318 254.273 223.318C255.844 223.318 256.56 224.69 256.56 226.222C256.56 227.753 255.844 229.105 254.273 229.105ZM260.697 225.406C260.697 224.074 261.523 223.318 262.646 223.318C263.735 223.318 264.396 224.029 264.396 225.227V230H265.57V225.148C265.57 223.199 264.53 222.264 262.984 222.264C261.831 222.264 261.115 222.781 260.757 223.557H260.658V222.364H259.524V230H260.697V225.406Z" fill="white"/>
<rect x="579" y="559" width="136" height="50" rx="5" fill="#369FAB"/>
<rect x="590" y="573" width="33" height="21" rx="3" fill="white" stroke="#369FAB" stroke-width="2"/>
<path d="M590 574L604.813 587.186C605.969 588.215 607.717 588.196 608.85 587.143L623 574" stroke="#369FAB" stroke-width="2" stroke-linejoin="round"/>
<path d="M635.44 588.159C637.13 588.159 638.244 587.125 638.443 585.773H637.269C637.051 586.608 636.355 587.105 635.44 587.105C634.048 587.105 633.153 585.952 633.153 584.182C633.153 582.452 634.068 581.318 635.44 581.318C636.474 581.318 637.09 581.955 637.269 582.651H638.443C638.244 581.219 637.031 580.264 635.42 580.264C633.352 580.264 631.98 581.895 631.98 584.222C631.98 586.509 633.292 588.159 635.44 588.159ZM643.26 588.159C645.328 588.159 646.72 586.588 646.72 584.222C646.72 581.835 645.328 580.264 643.26 580.264C641.192 580.264 639.8 581.835 639.8 584.222C639.8 586.588 641.192 588.159 643.26 588.159ZM643.26 587.105C641.689 587.105 640.973 585.753 640.973 584.222C640.973 582.69 641.689 581.318 643.26 581.318C644.831 581.318 645.547 582.69 645.547 584.222C645.547 585.753 644.831 587.105 643.26 587.105ZM649.685 583.406C649.685 582.074 650.51 581.318 651.634 581.318C652.722 581.318 653.384 582.029 653.384 583.227V588H654.557V583.148C654.557 581.199 653.518 580.264 651.972 580.264C650.818 580.264 650.102 580.781 649.744 581.557H649.645V580.364H648.511V588H649.685V583.406ZM657.874 583.406C657.874 582.074 658.699 581.318 659.823 581.318C660.912 581.318 661.573 582.029 661.573 583.227V588H662.746V583.148C662.746 581.199 661.707 580.264 660.161 580.264C659.008 580.264 658.292 580.781 657.934 581.557H657.834V580.364H656.701V588H657.874V583.406ZM668.092 588.159C669.643 588.159 670.777 587.384 671.135 586.23L670.001 585.912C669.703 586.707 669.012 587.105 668.092 587.105C666.715 587.105 665.765 586.215 665.711 584.58H671.254V584.082C671.254 581.239 669.564 580.264 667.973 580.264C665.904 580.264 664.532 581.895 664.532 584.241C664.532 586.588 665.885 588.159 668.092 588.159ZM665.711 583.565C665.79 582.377 666.63 581.318 667.973 581.318C669.245 581.318 670.061 582.273 670.061 583.565H665.711ZM676.141 588.159C677.831 588.159 678.945 587.125 679.144 585.773H677.971C677.752 586.608 677.056 587.105 676.141 587.105C674.749 587.105 673.854 585.952 673.854 584.182C673.854 582.452 674.769 581.318 676.141 581.318C677.175 581.318 677.792 581.955 677.971 582.651H679.144C678.945 581.219 677.732 580.264 676.121 580.264C674.053 580.264 672.681 581.895 672.681 584.222C672.681 586.509 673.993 588.159 676.141 588.159ZM684.18 580.364H682.549V578.534H681.376V580.364H680.223V581.358H681.376V586.131C681.376 587.463 682.45 588.099 683.444 588.099C683.882 588.099 684.16 588.02 684.319 587.96L684.081 586.906C683.981 586.926 683.822 586.966 683.564 586.966C683.047 586.966 682.549 586.807 682.549 585.812V581.358H684.18V580.364ZM685.945 588H687.118V580.364H685.945V588ZM686.542 579.091C686.999 579.091 687.377 578.733 687.377 578.295C687.377 577.858 686.999 577.5 686.542 577.5C686.084 577.5 685.706 577.858 685.706 578.295C685.706 578.733 686.084 579.091 686.542 579.091ZM692.369 588.159C694.438 588.159 695.83 586.588 695.83 584.222C695.83 581.835 694.438 580.264 692.369 580.264C690.301 580.264 688.909 581.835 688.909 584.222C688.909 586.588 690.301 588.159 692.369 588.159ZM692.369 587.105C690.798 587.105 690.083 585.753 690.083 584.222C690.083 582.69 690.798 581.318 692.369 581.318C693.941 581.318 694.656 582.69 694.656 584.222C694.656 585.753 693.941 587.105 692.369 587.105ZM698.794 583.406C698.794 582.074 699.619 581.318 700.743 581.318C701.832 581.318 702.493 582.029 702.493 583.227V588H703.666V583.148C703.666 581.199 702.627 580.264 701.081 580.264C699.928 580.264 699.212 580.781 698.854 581.557H698.754V580.364H697.621V588H698.794V583.406Z" fill="white"/>
<rect x="585" y="201" width="123" height="50" rx="5" fill="#4079A2"/>
<rect x="596" y="215" width="33" height="21" rx="3" fill="#4079A1" stroke="white" stroke-width="2"/>
<path d="M596 216L610.813 229.186C611.969 230.215 613.717 230.196 614.85 229.143L629 216" stroke="white" stroke-width="2" stroke-linejoin="round"/>
<path d="M638.074 221H639.247V216.168C639.247 215.134 640.062 214.378 641.176 214.378C641.489 214.378 641.812 214.438 641.892 214.457V213.264C641.758 213.254 641.45 213.244 641.276 213.244C640.361 213.244 639.565 213.761 639.287 214.517H639.207V213.364H638.074V221ZM646.252 221.159C647.803 221.159 648.937 220.384 649.295 219.23L648.161 218.912C647.863 219.707 647.172 220.105 646.252 220.105C644.875 220.105 643.925 219.215 643.871 217.58H649.414V217.082C649.414 214.239 647.724 213.264 646.133 213.264C644.065 213.264 642.692 214.895 642.692 217.241C642.692 219.588 644.045 221.159 646.252 221.159ZM643.871 216.565C643.95 215.377 644.79 214.318 646.133 214.318C647.406 214.318 648.221 215.273 648.221 216.565H643.871ZM654.301 221.159C655.991 221.159 657.105 220.125 657.304 218.773H656.131C655.912 219.608 655.216 220.105 654.301 220.105C652.909 220.105 652.014 218.952 652.014 217.182C652.014 215.452 652.929 214.318 654.301 214.318C655.335 214.318 655.952 214.955 656.131 215.651H657.304C657.105 214.219 655.892 213.264 654.281 213.264C652.213 213.264 650.841 214.895 650.841 217.222C650.841 219.509 652.153 221.159 654.301 221.159ZM662.221 221.159C663.772 221.159 664.906 220.384 665.263 219.23L664.13 218.912C663.832 219.707 663.141 220.105 662.221 220.105C660.844 220.105 659.894 219.215 659.839 217.58H665.383V217.082C665.383 214.239 663.692 213.264 662.102 213.264C660.033 213.264 658.661 214.895 658.661 217.241C658.661 219.588 660.013 221.159 662.221 221.159ZM659.839 216.565C659.919 215.377 660.759 214.318 662.102 214.318C663.374 214.318 664.19 215.273 664.19 216.565H659.839ZM667.168 221H668.341V213.364H667.168V221ZM667.764 212.091C668.222 212.091 668.599 211.733 668.599 211.295C668.599 210.858 668.222 210.5 667.764 210.5C667.307 210.5 666.929 210.858 666.929 211.295C666.929 211.733 667.307 212.091 667.764 212.091ZM676.734 213.364H675.461L673.354 219.449H673.274L671.166 213.364H669.893L672.717 221H673.91L676.734 213.364ZM681.211 221.159C682.762 221.159 683.896 220.384 684.254 219.23L683.12 218.912C682.822 219.707 682.131 220.105 681.211 220.105C679.834 220.105 678.884 219.215 678.83 217.58H684.373V217.082C684.373 214.239 682.683 213.264 681.092 213.264C679.024 213.264 677.651 214.895 677.651 217.241C677.651 219.588 679.004 221.159 681.211 221.159ZM678.83 216.565C678.909 215.377 679.749 214.318 681.092 214.318C682.365 214.318 683.18 215.273 683.18 216.565H678.83ZM638.074 238H639.247V230.364H638.074V238ZM638.67 229.091C639.128 229.091 639.506 228.733 639.506 228.295C639.506 227.858 639.128 227.5 638.67 227.5C638.213 227.5 637.835 227.858 637.835 228.295C637.835 228.733 638.213 229.091 638.67 229.091ZM642.569 233.406C642.569 232.074 643.395 231.318 644.518 231.318C645.607 231.318 646.268 232.029 646.268 233.227V238H647.442V233.148C647.442 231.199 646.403 230.264 644.856 230.264C643.703 230.264 642.987 230.781 642.629 231.557H642.53V230.364H641.396V238H642.569V233.406ZM655.556 230.364H654.284L652.176 236.449H652.096L649.988 230.364H648.716L651.539 238H652.733L655.556 230.364ZM657.105 238H658.278V230.364H657.105V238ZM657.702 229.091C658.159 229.091 658.537 228.733 658.537 228.295C658.537 227.858 658.159 227.5 657.702 227.5C657.244 227.5 656.866 227.858 656.866 228.295C656.866 228.733 657.244 229.091 657.702 229.091ZM663.748 230.364H662.118V228.534H660.944V230.364H659.791V231.358H660.944V236.131C660.944 237.463 662.018 238.099 663.013 238.099C663.45 238.099 663.729 238.02 663.888 237.96L663.649 236.906C663.55 236.926 663.39 236.966 663.132 236.966C662.615 236.966 662.118 236.807 662.118 235.812V231.358H663.748V230.364ZM667.76 238.179C669.093 238.179 669.789 237.463 670.028 236.966H670.087V238H671.26V232.969C671.26 230.543 669.411 230.264 668.437 230.264C667.283 230.264 665.971 230.662 665.374 232.054L666.488 232.452C666.746 231.895 667.358 231.298 668.476 231.298C669.555 231.298 670.087 231.87 670.087 232.849V232.889C670.087 233.456 669.51 233.406 668.118 233.585C666.702 233.769 665.155 234.082 665.155 235.832C665.155 237.324 666.309 238.179 667.76 238.179ZM667.939 237.125C667.005 237.125 666.329 236.707 666.329 235.892C666.329 234.997 667.144 234.719 668.059 234.599C668.556 234.54 669.888 234.401 670.087 234.162V235.236C670.087 236.19 669.331 237.125 667.939 237.125ZM676.723 230.364H675.092V228.534H673.919V230.364H672.766V231.358H673.919V236.131C673.919 237.463 674.993 238.099 675.987 238.099C676.425 238.099 676.703 238.02 676.862 237.96L676.624 236.906C676.524 236.926 676.365 236.966 676.107 236.966C675.589 236.966 675.092 236.807 675.092 235.812V231.358H676.723V230.364ZM678.488 238H679.661V230.364H678.488V238ZM679.085 229.091C679.542 229.091 679.92 228.733 679.92 228.295C679.92 227.858 679.542 227.5 679.085 227.5C678.627 227.5 678.249 227.858 678.249 228.295C678.249 228.733 678.627 229.091 679.085 229.091ZM684.912 238.159C686.981 238.159 688.373 236.588 688.373 234.222C688.373 231.835 686.981 230.264 684.912 230.264C682.844 230.264 681.452 231.835 681.452 234.222C681.452 236.588 682.844 238.159 684.912 238.159ZM684.912 237.105C683.341 237.105 682.626 235.753 682.626 234.222C682.626 232.69 683.341 231.318 684.912 231.318C686.483 231.318 687.199 232.69 687.199 234.222C687.199 235.753 686.483 237.105 684.912 237.105ZM691.337 233.406C691.337 232.074 692.162 231.318 693.286 231.318C694.375 231.318 695.036 232.029 695.036 233.227V238H696.209V233.148C696.209 231.199 695.17 230.264 693.624 230.264C692.471 230.264 691.755 230.781 691.397 231.557H691.297V230.364H690.164V238H691.337V233.406Z" fill="white"/>
<rect x="148" y="559" width="136" height="50" rx="5" fill="#4079A2"/>
<rect x="159" y="573" width="33" height="21" rx="3" fill="#4079A1" stroke="white" stroke-width="2"/>
<path d="M159 574L173.813 587.186C174.969 588.215 176.717 588.196 177.85 587.143L192 574" stroke="white" stroke-width="2" stroke-linejoin="round"/>
<path d="M201.074 580H202.247V575.168C202.247 574.134 203.062 573.378 204.176 573.378C204.489 573.378 204.812 573.438 204.892 573.457V572.264C204.758 572.254 204.45 572.244 204.276 572.244C203.361 572.244 202.565 572.761 202.287 573.517H202.207V572.364H201.074V580ZM209.252 580.159C210.803 580.159 211.937 579.384 212.295 578.23L211.161 577.912C210.863 578.707 210.172 579.105 209.252 579.105C207.875 579.105 206.925 578.215 206.871 576.58H212.414V576.082C212.414 573.239 210.724 572.264 209.133 572.264C207.065 572.264 205.692 573.895 205.692 576.241C205.692 578.588 207.045 580.159 209.252 580.159ZM206.871 575.565C206.95 574.377 207.79 573.318 209.133 573.318C210.406 573.318 211.221 574.273 211.221 575.565H206.871ZM217.301 580.159C218.991 580.159 220.105 579.125 220.304 577.773H219.131C218.912 578.608 218.216 579.105 217.301 579.105C215.909 579.105 215.014 577.952 215.014 576.182C215.014 574.452 215.929 573.318 217.301 573.318C218.335 573.318 218.952 573.955 219.131 574.651H220.304C220.105 573.219 218.892 572.264 217.281 572.264C215.213 572.264 213.841 573.895 213.841 576.222C213.841 578.509 215.153 580.159 217.301 580.159ZM225.221 580.159C226.772 580.159 227.906 579.384 228.263 578.23L227.13 577.912C226.832 578.707 226.141 579.105 225.221 579.105C223.844 579.105 222.894 578.215 222.839 576.58H228.383V576.082C228.383 573.239 226.692 572.264 225.102 572.264C223.033 572.264 221.661 573.895 221.661 576.241C221.661 578.588 223.013 580.159 225.221 580.159ZM222.839 575.565C222.919 574.377 223.759 573.318 225.102 573.318C226.374 573.318 227.19 574.273 227.19 575.565H222.839ZM230.168 580H231.341V572.364H230.168V580ZM230.764 571.091C231.222 571.091 231.599 570.733 231.599 570.295C231.599 569.858 231.222 569.5 230.764 569.5C230.307 569.5 229.929 569.858 229.929 570.295C229.929 570.733 230.307 571.091 230.764 571.091ZM239.734 572.364H238.461L236.354 578.449H236.274L234.166 572.364H232.893L235.717 580H236.91L239.734 572.364ZM244.211 580.159C245.762 580.159 246.896 579.384 247.254 578.23L246.12 577.912C245.822 578.707 245.131 579.105 244.211 579.105C242.834 579.105 241.884 578.215 241.83 576.58H247.373V576.082C247.373 573.239 245.683 572.264 244.092 572.264C242.024 572.264 240.651 573.895 240.651 576.241C240.651 578.588 242.004 580.159 244.211 580.159ZM241.83 575.565C241.909 574.377 242.749 573.318 244.092 573.318C245.365 573.318 246.18 574.273 246.18 575.565H241.83ZM204.176 597.159C205.866 597.159 206.98 596.125 207.179 594.773H206.006C205.787 595.608 205.091 596.105 204.176 596.105C202.784 596.105 201.889 594.952 201.889 593.182C201.889 591.452 202.804 590.318 204.176 590.318C205.21 590.318 205.827 590.955 206.006 591.651H207.179C206.98 590.219 205.767 589.264 204.156 589.264C202.088 589.264 200.716 590.895 200.716 593.222C200.716 595.509 202.028 597.159 204.176 597.159ZM211.996 597.159C214.065 597.159 215.457 595.588 215.457 593.222C215.457 590.835 214.065 589.264 211.996 589.264C209.928 589.264 208.536 590.835 208.536 593.222C208.536 595.588 209.928 597.159 211.996 597.159ZM211.996 596.105C210.425 596.105 209.71 594.753 209.71 593.222C209.71 591.69 210.425 590.318 211.996 590.318C213.567 590.318 214.283 591.69 214.283 593.222C214.283 594.753 213.567 596.105 211.996 596.105ZM218.421 592.406C218.421 591.074 219.246 590.318 220.37 590.318C221.459 590.318 222.12 591.029 222.12 592.227V597H223.293V592.148C223.293 590.199 222.254 589.264 220.708 589.264C219.555 589.264 218.839 589.781 218.481 590.557H218.381V589.364H217.248V597H218.421V592.406ZM226.61 592.406C226.61 591.074 227.436 590.318 228.559 590.318C229.648 590.318 230.309 591.029 230.309 592.227V597H231.483V592.148C231.483 590.199 230.444 589.264 228.897 589.264C227.744 589.264 227.028 589.781 226.67 590.557H226.571V589.364H225.437V597H226.61V592.406ZM236.828 597.159C238.379 597.159 239.513 596.384 239.871 595.23L238.737 594.912C238.439 595.707 237.748 596.105 236.828 596.105C235.451 596.105 234.502 595.215 234.447 593.58H239.99V593.082C239.99 590.239 238.3 589.264 236.709 589.264C234.641 589.264 233.269 590.895 233.269 593.241C233.269 595.588 234.621 597.159 236.828 597.159ZM234.447 592.565C234.526 591.377 235.367 590.318 236.709 590.318C237.982 590.318 238.797 591.273 238.797 592.565H234.447ZM244.877 597.159C246.568 597.159 247.681 596.125 247.88 594.773H246.707C246.488 595.608 245.792 596.105 244.877 596.105C243.485 596.105 242.59 594.952 242.59 593.182C242.59 591.452 243.505 590.318 244.877 590.318C245.911 590.318 246.528 590.955 246.707 591.651H247.88C247.681 590.219 246.468 589.264 244.857 589.264C242.789 589.264 241.417 590.895 241.417 593.222C241.417 595.509 242.73 597.159 244.877 597.159ZM252.916 589.364H251.286V587.534H250.112V589.364H248.959V590.358H250.112V595.131C250.112 596.463 251.186 597.099 252.181 597.099C252.618 597.099 252.896 597.02 253.056 596.96L252.817 595.906C252.718 595.926 252.558 595.966 252.3 595.966C251.783 595.966 251.286 595.807 251.286 594.812V590.358H252.916V589.364ZM254.681 597H255.855V589.364H254.681V597ZM255.278 588.091C255.735 588.091 256.113 587.733 256.113 587.295C256.113 586.858 255.735 586.5 255.278 586.5C254.82 586.5 254.443 586.858 254.443 587.295C254.443 587.733 254.82 588.091 255.278 588.091ZM261.106 597.159C263.174 597.159 264.566 595.588 264.566 593.222C264.566 590.835 263.174 589.264 261.106 589.264C259.038 589.264 257.646 590.835 257.646 593.222C257.646 595.588 259.038 597.159 261.106 597.159ZM261.106 596.105C259.535 596.105 258.819 594.753 258.819 593.222C258.819 591.69 259.535 590.318 261.106 590.318C262.677 590.318 263.393 591.69 263.393 593.222C263.393 594.753 262.677 596.105 261.106 596.105ZM267.53 592.406C267.53 591.074 268.356 590.318 269.479 590.318C270.568 590.318 271.229 591.029 271.229 592.227V597H272.403V592.148C272.403 590.199 271.363 589.264 269.817 589.264C268.664 589.264 267.948 589.781 267.59 590.557H267.491V589.364H266.357V597H267.53V592.406Z" fill="white"/>
<path d="M629.509 314H630.742V310.281H632.97C635.341 310.281 636.41 308.839 636.41 307.04C636.41 305.24 635.341 303.818 632.95 303.818H629.509V314ZM630.742 309.188V304.912H632.91C634.565 304.912 635.197 305.817 635.197 307.04C635.197 308.263 634.565 309.188 632.93 309.188H630.742ZM640.484 314.179C641.816 314.179 642.513 313.463 642.751 312.966H642.811V314H643.984V308.969C643.984 306.543 642.135 306.264 641.16 306.264C640.007 306.264 638.694 306.662 638.098 308.054L639.211 308.452C639.47 307.895 640.081 307.298 641.2 307.298C642.279 307.298 642.811 307.87 642.811 308.849V308.889C642.811 309.456 642.234 309.406 640.842 309.585C639.425 309.769 637.879 310.082 637.879 311.832C637.879 313.324 639.032 314.179 640.484 314.179ZM640.663 313.125C639.728 313.125 639.052 312.707 639.052 311.892C639.052 310.997 639.868 310.719 640.782 310.599C641.28 310.54 642.612 310.401 642.811 310.162V311.236C642.811 312.19 642.055 313.125 640.663 313.125ZM646.126 314H647.299V309.168C647.299 308.134 648.114 307.378 649.228 307.378C649.541 307.378 649.864 307.438 649.944 307.457V306.264C649.81 306.254 649.501 306.244 649.327 306.244C648.413 306.244 647.617 306.761 647.339 307.517H647.259V306.364H646.126V314ZM656.744 308.074C656.376 306.99 655.551 306.264 654.039 306.264C652.428 306.264 651.235 307.179 651.235 308.472C651.235 309.526 651.862 310.232 653.264 310.56L654.536 310.858C655.307 311.037 655.67 311.405 655.67 311.932C655.67 312.588 654.974 313.125 653.88 313.125C652.921 313.125 652.319 312.712 652.11 311.892L650.997 312.17C651.27 313.468 652.339 314.159 653.9 314.159C655.675 314.159 656.883 313.19 656.883 311.872C656.883 310.808 656.217 310.137 654.854 309.804L653.721 309.526C652.816 309.302 652.408 308.999 652.408 308.412C652.408 307.756 653.104 307.278 654.039 307.278C655.063 307.278 655.486 307.845 655.69 308.372L656.744 308.074ZM661.851 314.159C663.402 314.159 664.535 313.384 664.893 312.23L663.76 311.912C663.462 312.707 662.771 313.105 661.851 313.105C660.474 313.105 659.524 312.215 659.469 310.58H665.013V310.082C665.013 307.239 663.322 306.264 661.731 306.264C659.663 306.264 658.291 307.895 658.291 310.241C658.291 312.588 659.643 314.159 661.851 314.159ZM659.469 309.565C659.549 308.377 660.389 307.318 661.731 307.318C663.004 307.318 663.82 308.273 663.82 309.565H659.469ZM599.633 323.364H600.826C600.772 321.827 599.355 320.679 597.386 320.679C595.437 320.679 593.906 321.812 593.906 323.523C593.906 324.895 594.9 325.71 596.491 326.168L597.744 326.526C598.818 326.824 599.772 327.202 599.772 328.216C599.772 329.33 598.699 330.065 597.287 330.065C596.074 330.065 595 329.528 594.9 328.375H593.627C593.747 330.045 595.099 331.179 597.287 331.179C599.633 331.179 600.966 329.886 600.966 328.236C600.966 326.327 599.156 325.71 598.102 325.432L597.068 325.153C596.312 324.955 595.099 324.557 595.099 323.463C595.099 322.489 595.994 321.773 597.346 321.773C598.579 321.773 599.514 322.359 599.633 323.364ZM606.035 331.159C607.586 331.159 608.72 330.384 609.078 329.23L607.944 328.912C607.646 329.707 606.955 330.105 606.035 330.105C604.658 330.105 603.709 329.215 603.654 327.58H609.197V327.082C609.197 324.239 607.507 323.264 605.916 323.264C603.848 323.264 602.476 324.895 602.476 327.241C602.476 329.588 603.828 331.159 606.035 331.159ZM603.654 326.565C603.733 325.377 604.574 324.318 605.916 324.318C607.189 324.318 608.004 325.273 608.004 326.565H603.654ZM610.982 331H612.155V326.168C612.155 325.134 612.971 324.378 614.084 324.378C614.398 324.378 614.721 324.438 614.8 324.457V323.264C614.666 323.254 614.358 323.244 614.184 323.244C613.269 323.244 612.474 323.761 612.195 324.517H612.116V323.364H610.982V331ZM622.668 323.364H621.395L619.287 329.449H619.208L617.1 323.364H615.827L618.651 331H619.844L622.668 323.364ZM624.216 331H625.39V323.364H624.216V331ZM624.813 322.091C625.27 322.091 625.648 321.733 625.648 321.295C625.648 320.858 625.27 320.5 624.813 320.5C624.356 320.5 623.978 320.858 623.978 321.295C623.978 321.733 624.356 322.091 624.813 322.091ZM630.641 331.159C632.331 331.159 633.445 330.125 633.644 328.773H632.471C632.252 329.608 631.556 330.105 630.641 330.105C629.249 330.105 628.354 328.952 628.354 327.182C628.354 325.452 629.269 324.318 630.641 324.318C631.675 324.318 632.292 324.955 632.471 325.651H633.644C633.445 324.219 632.232 323.264 630.621 323.264C628.553 323.264 627.181 324.895 627.181 327.222C627.181 329.509 628.493 331.159 630.641 331.159ZM638.561 331.159C640.112 331.159 641.245 330.384 641.603 329.23L640.47 328.912C640.172 329.707 639.48 330.105 638.561 330.105C637.184 330.105 636.234 329.215 636.179 327.58H641.723V327.082C641.723 324.239 640.032 323.264 638.441 323.264C636.373 323.264 635.001 324.895 635.001 327.241C635.001 329.588 636.353 331.159 638.561 331.159ZM636.179 326.565C636.259 325.377 637.099 324.318 638.441 324.318C639.714 324.318 640.529 325.273 640.529 326.565H636.179ZM643.667 331H649.891V329.906H644.9V326.446H649.493V325.352H644.9V321.912H649.811V320.818H643.667V331ZM653.048 326.406C653.048 325.074 653.873 324.318 654.997 324.318C656.086 324.318 656.747 325.029 656.747 326.227V331H657.92V326.148C657.92 324.199 656.881 323.264 655.335 323.264C654.181 323.264 653.466 323.781 653.108 324.557H653.008V323.364H651.875V331H653.048V326.406ZM662.948 331.159C664.419 331.159 664.916 330.244 665.175 329.827H665.314V331H666.448V320.818H665.274V324.577H665.175C664.916 324.179 664.459 323.264 662.968 323.264C661.039 323.264 659.706 324.795 659.706 327.202C659.706 329.628 661.039 331.159 662.948 331.159ZM663.107 330.105C661.635 330.105 660.879 328.812 660.879 327.182C660.879 325.571 661.615 324.318 663.107 324.318C664.539 324.318 665.294 325.472 665.294 327.182C665.294 328.912 664.519 330.105 663.107 330.105ZM668.759 333.864H669.933V329.827H670.032C670.291 330.244 670.788 331.159 672.259 331.159C674.169 331.159 675.501 329.628 675.501 327.202C675.501 324.795 674.169 323.264 672.24 323.264C670.748 323.264 670.291 324.179 670.032 324.577H669.893V323.364H668.759V333.864ZM669.913 327.182C669.913 325.472 670.669 324.318 672.1 324.318C673.592 324.318 674.328 325.571 674.328 327.182C674.328 328.812 673.572 330.105 672.1 330.105C670.688 330.105 669.913 328.912 669.913 327.182ZM680.393 331.159C682.461 331.159 683.853 329.588 683.853 327.222C683.853 324.835 682.461 323.264 680.393 323.264C678.325 323.264 676.933 324.835 676.933 327.222C676.933 329.588 678.325 331.159 680.393 331.159ZM680.393 330.105C678.822 330.105 678.106 328.753 678.106 327.222C678.106 325.69 678.822 324.318 680.393 324.318C681.964 324.318 682.68 325.69 682.68 327.222C682.68 328.753 681.964 330.105 680.393 330.105ZM685.644 331H686.817V323.364H685.644V331ZM686.241 322.091C686.698 322.091 687.076 321.733 687.076 321.295C687.076 320.858 686.698 320.5 686.241 320.5C685.783 320.5 685.406 320.858 685.406 321.295C685.406 321.733 685.783 322.091 686.241 322.091ZM690.14 326.406C690.14 325.074 690.965 324.318 692.089 324.318C693.177 324.318 693.839 325.029 693.839 326.227V331H695.012V326.148C695.012 324.199 693.973 323.264 692.427 323.264C691.273 323.264 690.557 323.781 690.199 324.557H690.1V323.364H688.966V331H690.14V326.406ZM700.477 323.364H698.846V321.534H697.673V323.364H696.52V324.358H697.673V329.131C697.673 330.463 698.747 331.099 699.741 331.099C700.179 331.099 700.457 331.02 700.616 330.96L700.377 329.906C700.278 329.926 700.119 329.966 699.86 329.966C699.343 329.966 698.846 329.807 698.846 328.812V324.358H700.477V323.364Z" fill="white"/>
<path d="M618.442 494H624.666V492.906H619.675V489.446H624.269V488.352H619.675V484.912H624.587V483.818H618.442V494ZM632.059 488.074C631.691 486.99 630.866 486.264 629.355 486.264C627.744 486.264 626.551 487.179 626.551 488.472C626.551 489.526 627.177 490.232 628.579 490.56L629.852 490.858C630.622 491.037 630.985 491.405 630.985 491.932C630.985 492.588 630.289 493.125 629.195 493.125C628.236 493.125 627.634 492.712 627.426 491.892L626.312 492.17C626.585 493.468 627.654 494.159 629.215 494.159C630.99 494.159 632.198 493.19 632.198 491.872C632.198 490.808 631.532 490.137 630.17 489.804L629.036 489.526C628.132 489.302 627.724 488.999 627.724 488.412C627.724 487.756 628.42 487.278 629.355 487.278C630.379 487.278 630.801 487.845 631.005 488.372L632.059 488.074ZM637.286 486.364H635.655V484.534H634.482V486.364H633.328V487.358H634.482V492.131C634.482 493.463 635.555 494.099 636.55 494.099C636.987 494.099 637.266 494.02 637.425 493.96L637.186 492.906C637.087 492.926 636.928 492.966 636.669 492.966C636.152 492.966 635.655 492.807 635.655 491.812V487.358H637.286V486.364ZM641.298 494.179C642.63 494.179 643.326 493.463 643.565 492.966H643.624V494H644.798V488.969C644.798 486.543 642.948 486.264 641.974 486.264C640.82 486.264 639.508 486.662 638.911 488.054L640.025 488.452C640.283 487.895 640.895 487.298 642.013 487.298C643.092 487.298 643.624 487.87 643.624 488.849V488.889C643.624 489.456 643.048 489.406 641.656 489.585C640.239 489.769 638.692 490.082 638.692 491.832C638.692 493.324 639.846 494.179 641.298 494.179ZM641.477 493.125C640.542 493.125 639.866 492.707 639.866 491.892C639.866 490.997 640.681 490.719 641.596 490.599C642.093 490.54 643.425 490.401 643.624 490.162V491.236C643.624 492.19 642.869 493.125 641.477 493.125ZM647.098 494H648.232V492.827H648.371C648.629 493.244 649.127 494.159 650.598 494.159C652.507 494.159 653.84 492.628 653.84 490.202C653.84 487.795 652.507 486.264 650.578 486.264C649.087 486.264 648.629 487.179 648.371 487.577H648.271V483.818H647.098V494ZM648.252 490.182C648.252 488.472 649.007 487.318 650.439 487.318C651.931 487.318 652.666 488.571 652.666 490.182C652.666 491.812 651.911 493.105 650.439 493.105C649.027 493.105 648.252 491.912 648.252 490.182ZM656.808 483.818H655.634V494H656.808V483.818ZM658.957 494H660.13V486.364H658.957V494ZM659.553 485.091C660.011 485.091 660.388 484.733 660.388 484.295C660.388 483.858 660.011 483.5 659.553 483.5C659.096 483.5 658.718 483.858 658.718 484.295C658.718 484.733 659.096 485.091 659.553 485.091ZM667.688 488.074C667.32 486.99 666.495 486.264 664.983 486.264C663.373 486.264 662.18 487.179 662.18 488.472C662.18 489.526 662.806 490.232 664.208 490.56L665.481 490.858C666.251 491.037 666.614 491.405 666.614 491.932C666.614 492.588 665.918 493.125 664.824 493.125C663.865 493.125 663.263 492.712 663.055 491.892L661.941 492.17C662.214 493.468 663.283 494.159 664.844 494.159C666.619 494.159 667.827 493.19 667.827 491.872C667.827 490.808 667.161 490.137 665.799 489.804L664.665 489.526C663.76 489.302 663.353 488.999 663.353 488.412C663.353 487.756 664.049 487.278 664.983 487.278C666.008 487.278 666.43 487.845 666.634 488.372L667.688 488.074ZM670.767 489.406C670.767 488.074 671.617 487.318 672.775 487.318C673.879 487.318 674.545 488.014 674.545 489.227V494H675.718V489.148C675.718 487.184 674.674 486.264 673.113 486.264C671.91 486.264 671.224 486.766 670.866 487.557H670.767V483.818H669.593V494H670.767V489.406ZM614.44 511.159C616.13 511.159 617.244 510.125 617.443 508.773H616.269C616.051 509.608 615.355 510.105 614.44 510.105C613.048 510.105 612.153 508.952 612.153 507.182C612.153 505.452 613.068 504.318 614.44 504.318C615.474 504.318 616.09 504.955 616.269 505.651H617.443C617.244 504.219 616.031 503.264 614.42 503.264C612.352 503.264 610.98 504.895 610.98 507.222C610.98 509.509 612.292 511.159 614.44 511.159ZM622.26 511.159C624.328 511.159 625.72 509.588 625.72 507.222C625.72 504.835 624.328 503.264 622.26 503.264C620.192 503.264 618.8 504.835 618.8 507.222C618.8 509.588 620.192 511.159 622.26 511.159ZM622.26 510.105C620.689 510.105 619.973 508.753 619.973 507.222C619.973 505.69 620.689 504.318 622.26 504.318C623.831 504.318 624.547 505.69 624.547 507.222C624.547 508.753 623.831 510.105 622.26 510.105ZM628.685 506.406C628.685 505.074 629.51 504.318 630.634 504.318C631.722 504.318 632.384 505.029 632.384 506.227V511H633.557V506.148C633.557 504.199 632.518 503.264 630.972 503.264C629.818 503.264 629.102 503.781 628.744 504.557H628.645V503.364H627.511V511H628.685V506.406ZM636.874 506.406C636.874 505.074 637.699 504.318 638.823 504.318C639.912 504.318 640.573 505.029 640.573 506.227V511H641.746V506.148C641.746 504.199 640.707 503.264 639.161 503.264C638.008 503.264 637.292 503.781 636.934 504.557H636.834V503.364H635.701V511H636.874V506.406ZM647.092 511.159C648.643 511.159 649.777 510.384 650.135 509.23L649.001 508.912C648.703 509.707 648.012 510.105 647.092 510.105C645.715 510.105 644.765 509.215 644.711 507.58H650.254V507.082C650.254 504.239 648.564 503.264 646.973 503.264C644.904 503.264 643.532 504.895 643.532 507.241C643.532 509.588 644.885 511.159 647.092 511.159ZM644.711 506.565C644.79 505.377 645.63 504.318 646.973 504.318C648.245 504.318 649.061 505.273 649.061 506.565H644.711ZM655.141 511.159C656.831 511.159 657.945 510.125 658.144 508.773H656.971C656.752 509.608 656.056 510.105 655.141 510.105C653.749 510.105 652.854 508.952 652.854 507.182C652.854 505.452 653.769 504.318 655.141 504.318C656.175 504.318 656.792 504.955 656.971 505.651H658.144C657.945 504.219 656.732 503.264 655.121 503.264C653.053 503.264 651.681 504.895 651.681 507.222C651.681 509.509 652.993 511.159 655.141 511.159ZM663.18 503.364H661.549V501.534H660.376V503.364H659.223V504.358H660.376V509.131C660.376 510.463 661.45 511.099 662.444 511.099C662.882 511.099 663.16 511.02 663.319 510.96L663.081 509.906C662.981 509.926 662.822 509.966 662.564 509.966C662.047 509.966 661.549 509.807 661.549 508.812V504.358H663.18V503.364ZM664.945 511H666.118V503.364H664.945V511ZM665.542 502.091C665.999 502.091 666.377 501.733 666.377 501.295C666.377 500.858 665.999 500.5 665.542 500.5C665.084 500.5 664.706 500.858 664.706 501.295C664.706 501.733 665.084 502.091 665.542 502.091ZM671.369 511.159C673.438 511.159 674.83 509.588 674.83 507.222C674.83 504.835 673.438 503.264 671.369 503.264C669.301 503.264 667.909 504.835 667.909 507.222C667.909 509.588 669.301 511.159 671.369 511.159ZM671.369 510.105C669.798 510.105 669.083 508.753 669.083 507.222C669.083 505.69 669.798 504.318 671.369 504.318C672.941 504.318 673.656 505.69 673.656 507.222C673.656 508.753 672.941 510.105 671.369 510.105ZM677.794 506.406C677.794 505.074 678.619 504.318 679.743 504.318C680.832 504.318 681.493 505.029 681.493 506.227V511H682.666V506.148C682.666 504.199 681.627 503.264 680.081 503.264C678.928 503.264 678.212 503.781 677.854 504.557H677.754V503.364H676.621V511H677.794V506.406Z" fill="white"/>
<rect x="599" y="379" width="96" height="50" rx="25" fill="#73A97B"/>
<path d="M621.669 408L622.693 405.116H626.81L627.834 408H629.127L625.388 397.818H624.115L620.377 408H621.669ZM623.081 404.023L624.712 399.429H624.791L626.422 404.023H623.081ZM633.656 408.159C635.346 408.159 636.46 407.125 636.658 405.773H635.485C635.266 406.608 634.57 407.105 633.656 407.105C632.264 407.105 631.369 405.952 631.369 404.182C631.369 402.452 632.283 401.318 633.656 401.318C634.69 401.318 635.306 401.955 635.485 402.651H636.658C636.46 401.219 635.247 400.264 633.636 400.264C631.568 400.264 630.195 401.895 630.195 404.222C630.195 406.509 631.508 408.159 633.656 408.159ZM641.476 408.159C643.166 408.159 644.28 407.125 644.479 405.773H643.305C643.087 406.608 642.391 407.105 641.476 407.105C640.084 407.105 639.189 405.952 639.189 404.182C639.189 402.452 640.104 401.318 641.476 401.318C642.51 401.318 643.127 401.955 643.305 402.651H644.479C644.28 401.219 643.067 400.264 641.456 400.264C639.388 400.264 638.016 401.895 638.016 404.222C638.016 406.509 639.328 408.159 641.476 408.159ZM649.396 408.159C650.947 408.159 652.08 407.384 652.438 406.23L651.305 405.912C651.006 406.707 650.315 407.105 649.396 407.105C648.019 407.105 647.069 406.215 647.014 404.58H652.558V404.082C652.558 401.239 650.867 400.264 649.276 400.264C647.208 400.264 645.836 401.895 645.836 404.241C645.836 406.588 647.188 408.159 649.396 408.159ZM647.014 403.565C647.094 402.377 647.934 401.318 649.276 401.318C650.549 401.318 651.364 402.273 651.364 403.565H647.014ZM654.342 410.864H655.516V406.827H655.615C655.874 407.244 656.371 408.159 657.842 408.159C659.752 408.159 661.084 406.628 661.084 404.202C661.084 401.795 659.752 400.264 657.823 400.264C656.331 400.264 655.874 401.179 655.615 401.577H655.476V400.364H654.342V410.864ZM655.496 404.182C655.496 402.472 656.252 401.318 657.683 401.318C659.175 401.318 659.911 402.571 659.911 404.182C659.911 405.812 659.155 407.105 657.683 407.105C656.271 407.105 655.496 405.912 655.496 404.182ZM666.195 400.364H664.564V398.534H663.391V400.364H662.237V401.358H663.391V406.131C663.391 407.463 664.465 408.099 665.459 408.099C665.896 408.099 666.175 408.02 666.334 407.96L666.095 406.906C665.996 406.926 665.837 406.966 665.578 406.966C665.061 406.966 664.564 406.807 664.564 405.812V401.358H666.195V400.364ZM669.491 405.136H670.684V405.077C670.704 403.844 671.022 403.307 671.897 402.76C672.772 402.228 673.289 401.462 673.289 400.364C673.289 398.812 672.156 397.679 670.406 397.679C668.795 397.679 667.517 398.673 667.443 400.364H668.695C668.77 399.19 669.59 398.713 670.406 398.713C671.34 398.713 672.096 399.33 672.096 400.304C672.096 401.094 671.644 401.661 671.062 402.014C670.087 402.606 669.506 403.183 669.491 405.077V405.136ZM670.127 408.08C670.619 408.08 671.022 407.677 671.022 407.185C671.022 406.692 670.619 406.29 670.127 406.29C669.635 406.29 669.232 406.692 669.232 407.185C669.232 407.677 669.635 408.08 670.127 408.08Z" fill="white"/>
<rect x="168" y="651" width="96" height="50" rx="25" fill="#73A97B"/>
<path d="M190.669 680L191.693 677.116H195.81L196.834 680H198.127L194.388 669.818H193.115L189.377 680H190.669ZM192.081 676.023L193.712 671.429H193.791L195.422 676.023H192.081ZM202.656 680.159C204.346 680.159 205.46 679.125 205.658 677.773H204.485C204.266 678.608 203.57 679.105 202.656 679.105C201.264 679.105 200.369 677.952 200.369 676.182C200.369 674.452 201.283 673.318 202.656 673.318C203.69 673.318 204.306 673.955 204.485 674.651H205.658C205.46 673.219 204.247 672.264 202.636 672.264C200.568 672.264 199.195 673.895 199.195 676.222C199.195 678.509 200.508 680.159 202.656 680.159ZM210.476 680.159C212.166 680.159 213.28 679.125 213.479 677.773H212.305C212.087 678.608 211.391 679.105 210.476 679.105C209.084 679.105 208.189 677.952 208.189 676.182C208.189 674.452 209.104 673.318 210.476 673.318C211.51 673.318 212.127 673.955 212.305 674.651H213.479C213.28 673.219 212.067 672.264 210.456 672.264C208.388 672.264 207.016 673.895 207.016 676.222C207.016 678.509 208.328 680.159 210.476 680.159ZM218.396 680.159C219.947 680.159 221.08 679.384 221.438 678.23L220.305 677.912C220.006 678.707 219.315 679.105 218.396 679.105C217.019 679.105 216.069 678.215 216.014 676.58H221.558V676.082C221.558 673.239 219.867 672.264 218.276 672.264C216.208 672.264 214.836 673.895 214.836 676.241C214.836 678.588 216.188 680.159 218.396 680.159ZM216.014 675.565C216.094 674.377 216.934 673.318 218.276 673.318C219.549 673.318 220.364 674.273 220.364 675.565H216.014ZM223.342 682.864H224.516V678.827H224.615C224.874 679.244 225.371 680.159 226.842 680.159C228.752 680.159 230.084 678.628 230.084 676.202C230.084 673.795 228.752 672.264 226.823 672.264C225.331 672.264 224.874 673.179 224.615 673.577H224.476V672.364H223.342V682.864ZM224.496 676.182C224.496 674.472 225.252 673.318 226.683 673.318C228.175 673.318 228.911 674.571 228.911 676.182C228.911 677.812 228.155 679.105 226.683 679.105C225.271 679.105 224.496 677.912 224.496 676.182ZM235.195 672.364H233.564V670.534H232.391V672.364H231.237V673.358H232.391V678.131C232.391 679.463 233.465 680.099 234.459 680.099C234.896 680.099 235.175 680.02 235.334 679.96L235.095 678.906C234.996 678.926 234.837 678.966 234.578 678.966C234.061 678.966 233.564 678.807 233.564 677.812V673.358H235.195V672.364ZM238.491 677.136H239.684V677.077C239.704 675.844 240.022 675.307 240.897 674.76C241.772 674.228 242.289 673.462 242.289 672.364C242.289 670.812 241.156 669.679 239.406 669.679C237.795 669.679 236.517 670.673 236.443 672.364H237.695C237.77 671.19 238.59 670.713 239.406 670.713C240.34 670.713 241.096 671.33 241.096 672.304C241.096 673.094 240.644 673.661 240.062 674.014C239.087 674.606 238.506 675.183 238.491 677.077V677.136ZM239.127 680.08C239.619 680.08 240.022 679.677 240.022 679.185C240.022 678.692 239.619 678.29 239.127 678.29C238.635 678.29 238.232 678.692 238.232 679.185C238.232 679.677 238.635 680.08 239.127 680.08Z" fill="white"/>
<path d="M216 559L221.773 549L210.226 549L216 559ZM215 250L215 550L217 550L217 250L215 250Z" fill="#369FAB"/>
<path d="M585 226L580 223.113L580 228.887L585 226ZM277 226.5L278.974 226.5L278.974 225.5L277 225.5L277 226.5ZM282.923 226.5L286.872 226.5L286.872 225.5L282.923 225.5L282.923 226.5ZM290.821 226.5L294.769 226.5L294.769 225.5L290.821 225.5L290.821 226.5ZM298.718 226.5L302.667 226.5L302.667 225.5L298.718 225.5L298.718 226.5ZM306.615 226.5L310.564 226.5L310.564 225.5L306.615 225.5L306.615 226.5ZM314.513 226.5L318.462 226.5L318.462 225.5L314.513 225.5L314.513 226.5ZM322.41 226.5L326.359 226.5L326.359 225.5L322.41 225.5L322.41 226.5ZM330.308 226.5L334.256 226.5L334.256 225.5L330.308 225.5L330.308 226.5ZM338.205 226.5L342.154 226.5L342.154 225.5L338.205 225.5L338.205 226.5ZM346.103 226.5L350.051 226.5L350.051 225.5L346.103 225.5L346.103 226.5ZM354 226.5L357.949 226.5L357.949 225.5L354 225.5L354 226.5ZM361.897 226.5L365.846 226.5L365.846 225.5L361.897 225.5L361.897 226.5ZM369.795 226.5L373.744 226.5L373.744 225.5L369.795 225.5L369.795 226.5ZM377.692 226.5L381.641 226.5L381.641 225.5L377.692 225.5L377.692 226.5ZM385.59 226.5L389.538 226.5L389.538 225.5L385.59 225.5L385.59 226.5ZM393.487 226.5L397.436 226.5L397.436 225.5L393.487 225.5L393.487 226.5ZM401.385 226.5L405.333 226.5L405.333 225.5L401.385 225.5L401.385 226.5ZM409.282 226.5L413.231 226.5L413.231 225.5L409.282 225.5L409.282 226.5ZM417.179 226.5L421.128 226.5L421.128 225.5L417.179 225.5L417.179 226.5ZM425.077 226.5L429.026 226.5L429.026 225.5L425.077 225.5L425.077 226.5ZM432.974 226.5L436.923 226.5L436.923 225.5L432.974 225.5L432.974 226.5ZM440.872 226.5L444.82 226.5L444.82 225.5L440.872 225.5L440.872 226.5ZM448.769 226.5L452.718 226.5L452.718 225.5L448.769 225.5L448.769 226.5ZM456.667 226.5L460.615 226.5L460.615 225.5L456.667 225.5L456.667 226.5ZM464.564 226.5L468.513 226.5L468.513 225.5L464.564 225.5L464.564 226.5ZM472.461 226.5L476.41 226.5L476.41 225.5L472.461 225.5L472.461 226.5ZM480.359 226.5L484.308 226.5L484.308 225.5L480.359 225.5L480.359 226.5ZM488.256 226.5L492.205 226.5L492.205 225.5L488.256 225.5L488.256 226.5ZM496.154 226.5L500.102 226.5L500.102 225.5L496.154 225.5L496.154 226.5ZM504.051 226.5L508 226.5L508 225.5L504.051 225.5L504.051 226.5ZM511.949 226.5L515.897 226.5L515.897 225.5L511.949 225.5L511.949 226.5ZM519.846 226.5L523.795 226.5L523.795 225.5L519.846 225.5L519.846 226.5ZM527.743 226.5L531.692 226.5L531.692 225.5L527.743 225.5L527.743 226.5ZM535.641 226.5L539.59 226.5L539.59 225.5L535.641 225.5L535.641 226.5ZM543.538 226.5L547.487 226.5L547.487 225.5L543.538 225.5L543.538 226.5ZM551.436 226.5L555.385 226.5L555.385 225.5L551.436 225.5L551.436 226.5ZM559.333 226.5L563.282 226.5L563.282 225.5L559.333 225.5L559.333 226.5ZM567.231 226.5L571.179 226.5L571.179 225.5L567.231 225.5L567.231 226.5ZM575.128 226.5L579.077 226.5L579.077 225.5L575.128 225.5L575.128 226.5ZM585 226L575 220.227L575 231.774L585 226ZM277 227L278.974 227L278.974 225L277 225L277 227ZM282.923 227L286.872 227L286.872 225L282.923 225L282.923 227ZM290.821 227L294.769 227L294.769 225L290.821 225L290.821 227ZM298.718 227L302.667 227L302.667 225L298.718 225L298.718 227ZM306.615 227L310.564 227L310.564 225L306.615 225L306.615 227ZM314.513 227L318.462 227L318.462 225L314.513 225L314.513 227ZM322.41 227L326.359 227L326.359 225L322.41 225L322.41 227ZM330.308 227L334.256 227L334.256 225L330.308 225L330.308 227ZM338.205 227L342.154 227L342.154 225L338.205 225L338.205 227ZM346.103 227L350.051 227L350.051 225L346.103 225L346.103 227ZM354 227L357.949 227L357.949 225L354 225L354 227ZM361.897 227L365.846 227L365.846 225L361.897 225L361.897 227ZM369.795 227L373.744 227L373.744 225L369.795 225L369.795 227ZM377.692 227L381.641 227L381.641 225L377.692 225L377.692 227ZM385.59 227L389.538 227L389.538 225L385.59 225L385.59 227ZM393.487 227L397.436 227L397.436 225L393.487 225L393.487 227ZM401.385 227L405.333 227L405.333 225L401.385 225L401.385 227ZM409.282 227L413.231 227L413.231 225L409.282 225L409.282 227ZM417.179 227L421.128 227L421.128 225L417.179 225L417.179 227ZM425.077 227L429.026 227L429.026 225L425.077 225L425.077 227ZM432.974 227L436.923 227L436.923 225L432.974 225L432.974 227ZM440.872 227L444.82 227L444.82 225L440.872 225L440.872 227ZM448.769 227L452.718 227L452.718 225L448.769 225L448.769 227ZM456.667 227L460.615 227L460.615 225L456.667 225L456.667 227ZM464.564 227L468.513 227L468.513 225L464.564 225L464.564 227ZM472.461 227L476.41 227L476.41 225L472.461 225L472.461 227ZM480.359 227L484.308 227L484.308 225L480.359 225L480.359 227ZM488.256 227L492.205 227L492.205 225L488.256 225L488.256 227ZM496.154 227L500.102 227L500.102 225L496.154 225L496.154 227ZM504.051 227L508 227L508 225L504.051 225L504.051 227ZM511.949 227L515.897 227L515.897 225L511.949 225L511.949 227ZM519.846 227L523.795 227L523.795 225L519.846 225L519.846 227ZM527.743 227L531.692 227L531.692 225L527.743 225L527.743 227ZM535.641 227L539.59 227L539.59 225L535.641 225L535.641 227ZM543.538 227L547.487 227L547.487 225L543.538 225L543.538 227ZM551.436 227L555.385 227L555.385 225L551.436 225L551.436 227ZM559.333 227L563.282 227L563.282 225L559.333 225L559.333 227ZM567.231 227L571.179 227L571.179 225L567.231 225L567.231 227ZM575.128 227L579.077 227L579.077 225L575.128 225L575.128 227Z" fill="#369FAB"/>
<path d="M284 584L289 586.887L289 581.113L284 584ZM289.98 584.5L293.966 584.5L293.966 583.5L289.98 583.5L289.98 584.5ZM297.953 584.5L301.939 584.5L301.939 583.5L297.953 583.5L297.953 584.5ZM305.926 584.5L309.912 584.5L309.912 583.5L305.926 583.5L305.926 584.5ZM313.899 584.5L317.885 584.5L317.885 583.5L313.899 583.5L313.899 584.5ZM321.872 584.5L325.858 584.5L325.858 583.5L321.872 583.5L321.872 584.5ZM329.845 584.5L333.831 584.5L333.831 583.5L329.845 583.5L329.845 584.5ZM337.818 584.5L341.804 584.5L341.804 583.5L337.818 583.5L337.818 584.5ZM345.791 584.5L349.777 584.5L349.777 583.5L345.791 583.5L345.791 584.5ZM353.764 584.5L357.75 584.5L357.75 583.5L353.764 583.5L353.764 584.5ZM361.737 584.5L365.723 584.5L365.723 583.5L361.737 583.5L361.737 584.5ZM369.709 584.5L373.696 584.5L373.696 583.5L369.709 583.5L369.709 584.5ZM377.682 584.5L381.669 584.5L381.669 583.5L377.682 583.5L377.682 584.5ZM385.655 584.5L389.642 584.5L389.642 583.5L385.655 583.5L385.655 584.5ZM393.628 584.5L397.615 584.5L397.615 583.5L393.628 583.5L393.628 584.5ZM401.601 584.5L405.588 584.5L405.588 583.5L401.601 583.5L401.601 584.5ZM409.574 584.5L413.561 584.5L413.561 583.5L409.574 583.5L409.574 584.5ZM417.547 584.5L421.534 584.5L421.534 583.5L417.547 583.5L417.547 584.5ZM425.52 584.5L429.507 584.5L429.507 583.5L425.52 583.5L425.52 584.5ZM433.493 584.5L437.48 584.5L437.48 583.5L433.493 583.5L433.493 584.5ZM441.466 584.5L445.453 584.5L445.453 583.5L441.466 583.5L441.466 584.5ZM449.439 584.5L453.426 584.5L453.426 583.5L449.439 583.5L449.439 584.5ZM457.412 584.5L461.399 584.5L461.399 583.5L457.412 583.5L457.412 584.5ZM465.385 584.5L469.372 584.5L469.372 583.5L465.385 583.5L465.385 584.5ZM473.358 584.5L477.345 584.5L477.345 583.5L473.358 583.5L473.358 584.5ZM481.331 584.5L485.318 584.5L485.318 583.5L481.331 583.5L481.331 584.5ZM489.304 584.5L493.29 584.5L493.29 583.5L489.304 583.5L489.304 584.5ZM497.277 584.5L501.263 584.5L501.263 583.5L497.277 583.5L497.277 584.5ZM505.25 584.5L509.236 584.5L509.236 583.5L505.25 583.5L505.25 584.5ZM513.223 584.5L517.209 584.5L517.209 583.5L513.223 583.5L513.223 584.5ZM521.196 584.5L525.182 584.5L525.182 583.5L521.196 583.5L521.196 584.5ZM529.169 584.5L533.155 584.5L533.155 583.5L529.169 583.5L529.169 584.5ZM537.142 584.5L541.128 584.5L541.128 583.5L537.142 583.5L537.142 584.5ZM545.115 584.5L549.101 584.5L549.101 583.5L545.115 583.5L545.115 584.5ZM553.088 584.5L557.074 584.5L557.074 583.5L553.088 583.5L553.088 584.5ZM561.061 584.5L565.047 584.5L565.047 583.5L561.061 583.5L561.061 584.5ZM569.034 584.5L573.02 584.5L573.02 583.5L569.034 583.5L569.034 584.5ZM577.007 584.5L579 584.5L579 583.5L577.007 583.5L577.007 584.5ZM284 584L294 589.774L294 578.226L284 584ZM289.98 585L293.966 585L293.966 583L289.98 583L289.98 585ZM297.953 585L301.939 585L301.939 583L297.953 583L297.953 585ZM305.926 585L309.912 585L309.912 583L305.926 583L305.926 585ZM313.899 585L317.885 585L317.885 583L313.899 583L313.899 585ZM321.872 585L325.858 585L325.858 583L321.872 583L321.872 585ZM329.845 585L333.831 585L333.831 583L329.845 583L329.845 585ZM337.818 585L341.804 585L341.804 583L337.818 583L337.818 585ZM345.791 585L349.777 585L349.777 583L345.791 583L345.791 585ZM353.764 585L357.75 585L357.75 583L353.764 583L353.764 585ZM361.737 585L365.723 585L365.723 583L361.737 583L361.737 585ZM369.709 585L373.696 585L373.696 583L369.709 583L369.709 585ZM377.682 585L381.669 585L381.669 583L377.682 583L377.682 585ZM385.655 585L389.642 585L389.642 583L385.655 583L385.655 585ZM393.628 585L397.615 585L397.615 583L393.628 583L393.628 585ZM401.601 585L405.588 585L405.588 583L401.601 583L401.601 585ZM409.574 585L413.561 585L413.561 583L409.574 583L409.574 585ZM417.547 585L421.534 585L421.534 583L417.547 583L417.547 585ZM425.52 585L429.507 585L429.507 583L425.52 583L425.52 585ZM433.493 585L437.48 585L437.48 583L433.493 583L433.493 585ZM441.466 585L445.453 585L445.453 583L441.466 583L441.466 585ZM449.439 585L453.426 585L453.426 583L449.439 583L449.439 585ZM457.412 585L461.399 585L461.399 583L457.412 583L457.412 585ZM465.385 585L469.372 585L469.372 583L465.385 583L465.385 585ZM473.358 585L477.345 585L477.345 583L473.358 583L473.358 585ZM481.331 585L485.318 585L485.318 583L481.331 583L481.331 585ZM489.304 585L493.29 585L493.29 583L489.304 583L489.304 585ZM497.277 585L501.263 585L501.263 583L497.277 583L497.277 585ZM505.25 585L509.236 585L509.236 583L505.25 583L505.25 585ZM513.223 585L517.209 585L517.209 583L513.223 583L513.223 585ZM521.196 585L525.182 585L525.182 583L521.196 583L521.196 585ZM529.169 585L533.155 585L533.155 583L529.169 583L529.169 585ZM537.142 585L541.128 585L541.128 583L537.142 583L537.142 585ZM545.115 585L549.101 585L549.101 583L545.115 583L545.115 585ZM553.088 585L557.074 585L557.074 583L553.088 583L553.088 585ZM561.061 585L565.047 585L565.047 583L561.061 583L561.061 585ZM569.034 585L573.02 585L573.02 583L569.034 583L569.034 585ZM577.007 585L579 585L579 583L577.007 583L577.007 585Z" fill="#369FAB"/>
<path d="M216 201L221.774 191L210.226 191L216 201ZM215 148L215 192L217 192L217 148L215 148Z" fill="#7CA2C1"/>
<path d="M216 651L221.774 641L210.226 641L216 651ZM215 609L215 642L217 642L217 609L215 609Z" fill="#4079A2"/>
<path d="M647 293L652.774 283L641.226 283L647 293ZM646 251L646 284L648 284L648 251L646 251Z" fill="#4079A2"/>
<path d="M647 379L652.774 369L641.226 369L647 379ZM646 343L646 370L648 370L648 343L646 343Z" fill="#294C6F"/>
<path d="M647 559L652.774 549L641.226 549L647 559ZM646 523L646 550L648 550L648 523L646 523Z" fill="#294C6F"/>
<path d="M647 473L652.774 463L641.226 463L647 473ZM646 429L646 464L648 464L648 429L646 429Z" fill="#73A97B"/>
<path d="M216 745L221.774 735L210.226 735L216 745ZM215 701L215 736L217 736L217 701L215 701Z" fill="#73A97B"/>
<path d="M112 676L122 681.774V670.226L112 676ZM121 677H168V675H121V677Z" fill="#C56550"/>
<path d="M230.65 163.818H229.417V174H230.65V163.818ZM234.136 169.406C234.136 168.074 234.961 167.318 236.085 167.318C237.173 167.318 237.835 168.029 237.835 169.227V174H239.008V169.148C239.008 167.199 237.969 166.264 236.423 166.264C235.269 166.264 234.553 166.781 234.195 167.557H234.096V166.364H232.963V174H234.136V169.406ZM247.123 166.364H245.85L243.742 172.449H243.663L241.555 166.364H240.282L243.106 174H244.299L247.123 166.364ZM248.672 174H249.845V166.364H248.672V174ZM249.268 165.091C249.725 165.091 250.103 164.733 250.103 164.295C250.103 163.858 249.725 163.5 249.268 163.5C248.811 163.5 248.433 163.858 248.433 164.295C248.433 164.733 248.811 165.091 249.268 165.091ZM255.315 166.364H253.684V164.534H252.511V166.364H251.357V167.358H252.511V172.131C252.511 173.463 253.585 174.099 254.579 174.099C255.017 174.099 255.295 174.02 255.454 173.96L255.215 172.906C255.116 172.926 254.957 172.966 254.698 172.966C254.181 172.966 253.684 172.807 253.684 171.812V167.358H255.315V166.364ZM260.199 174.159C261.751 174.159 262.884 173.384 263.242 172.23L262.108 171.912C261.81 172.707 261.119 173.105 260.199 173.105C258.822 173.105 257.873 172.215 257.818 170.58H263.361V170.082C263.361 167.239 261.671 166.264 260.08 166.264C258.012 166.264 256.64 167.895 256.64 170.241C256.64 172.588 257.992 174.159 260.199 174.159ZM257.818 169.565C257.898 168.377 258.738 167.318 260.08 167.318C261.353 167.318 262.168 168.273 262.168 169.565H257.818ZM265.146 174H266.319V169.168C266.319 168.134 267.135 167.378 268.248 167.378C268.562 167.378 268.885 167.438 268.964 167.457V166.264C268.83 166.254 268.522 166.244 268.348 166.244C267.433 166.244 266.638 166.761 266.359 167.517H266.28V166.364H265.146V174ZM274.293 174H275.466V166.364H274.293V174ZM274.889 165.091C275.347 165.091 275.724 164.733 275.724 164.295C275.724 163.858 275.347 163.5 274.889 163.5C274.432 163.5 274.054 163.858 274.054 164.295C274.054 164.733 274.432 165.091 274.889 165.091ZM278.788 169.406C278.788 168.074 279.613 167.318 280.737 167.318C281.826 167.318 282.487 168.029 282.487 169.227V174H283.66V169.148C283.66 167.199 282.621 166.264 281.075 166.264C279.922 166.264 279.206 166.781 278.848 167.557H278.748V166.364H277.615V174H278.788V169.406ZM285.804 174H286.978V166.364H285.804V174ZM286.401 165.091C286.858 165.091 287.236 164.733 287.236 164.295C287.236 163.858 286.858 163.5 286.401 163.5C285.944 163.5 285.566 163.858 285.566 164.295C285.566 164.733 285.944 165.091 286.401 165.091ZM292.448 166.364H290.817V164.534H289.644V166.364H288.49V167.358H289.644V172.131C289.644 173.463 290.718 174.099 291.712 174.099C292.149 174.099 292.428 174.02 292.587 173.96L292.348 172.906C292.249 172.926 292.09 172.966 291.831 172.966C291.314 172.966 290.817 172.807 290.817 171.812V167.358H292.448V166.364ZM294.213 174H295.386V166.364H294.213V174ZM294.809 165.091C295.267 165.091 295.644 164.733 295.644 164.295C295.644 163.858 295.267 163.5 294.809 163.5C294.352 163.5 293.974 163.858 293.974 164.295C293.974 164.733 294.352 165.091 294.809 165.091ZM299.782 174.179C301.114 174.179 301.81 173.463 302.049 172.966H302.109V174H303.282V168.969C303.282 166.543 301.433 166.264 300.458 166.264C299.305 166.264 297.992 166.662 297.396 168.054L298.509 168.452C298.768 167.895 299.379 167.298 300.498 167.298C301.577 167.298 302.109 167.87 302.109 168.849V168.889C302.109 169.456 301.532 169.406 300.14 169.585C298.723 169.769 297.177 170.082 297.177 171.832C297.177 173.324 298.33 174.179 299.782 174.179ZM299.961 173.125C299.026 173.125 298.35 172.707 298.35 171.892C298.35 170.997 299.165 170.719 300.08 170.599C300.577 170.54 301.91 170.401 302.109 170.162V171.236C302.109 172.19 301.353 173.125 299.961 173.125ZM308.744 166.364H307.114V164.534H305.941V166.364H304.787V167.358H305.941V172.131C305.941 173.463 307.014 174.099 308.009 174.099C308.446 174.099 308.725 174.02 308.884 173.96L308.645 172.906C308.546 172.926 308.387 172.966 308.128 172.966C307.611 172.966 307.114 172.807 307.114 171.812V167.358H308.744V166.364ZM313.629 174.159C315.18 174.159 316.314 173.384 316.672 172.23L315.538 171.912C315.24 172.707 314.549 173.105 313.629 173.105C312.252 173.105 311.302 172.215 311.248 170.58H316.791V170.082C316.791 167.239 315.101 166.264 313.51 166.264C311.442 166.264 310.069 167.895 310.069 170.241C310.069 172.588 311.422 174.159 313.629 174.159ZM311.248 169.565C311.327 168.377 312.167 167.318 313.51 167.318C314.782 167.318 315.598 168.273 315.598 169.565H311.248ZM323.985 168.074C323.617 166.99 322.792 166.264 321.28 166.264C319.67 166.264 318.476 167.179 318.476 168.472C318.476 169.526 319.103 170.232 320.505 170.56L321.778 170.858C322.548 171.037 322.911 171.405 322.911 171.932C322.911 172.588 322.215 173.125 321.121 173.125C320.162 173.125 319.56 172.712 319.351 171.892L318.238 172.17C318.511 173.468 319.58 174.159 321.141 174.159C322.916 174.159 324.124 173.19 324.124 171.872C324.124 170.808 323.458 170.137 322.096 169.804L320.962 169.526C320.057 169.302 319.65 168.999 319.65 168.412C319.65 167.756 320.346 167.278 321.28 167.278C322.305 167.278 322.727 167.845 322.931 168.372L323.985 168.074Z" fill="#7CA2C1"/>
<path d="M676.033 151L677.058 148.116H681.174L682.198 151H683.491L679.752 140.818H678.479L674.741 151H676.033ZM677.445 147.023L679.076 142.429H679.156L680.786 147.023H677.445ZM686.091 140.818H684.918V151H686.091V140.818ZM691.561 143.364H689.93V141.534H688.757V143.364H687.604V144.358H688.757V149.131C688.757 150.463 689.831 151.099 690.825 151.099C691.263 151.099 691.541 151.02 691.7 150.96L691.461 149.906C691.362 149.926 691.203 149.966 690.944 149.966C690.427 149.966 689.93 149.807 689.93 148.812V144.358H691.561V143.364ZM694.181 151.08C694.673 151.08 695.076 150.677 695.076 150.185C695.076 149.692 694.673 149.29 694.181 149.29C693.689 149.29 693.286 149.692 693.286 150.185C693.286 150.677 693.689 151.08 694.181 151.08ZM694.181 145.412C694.673 145.412 695.076 145.009 695.076 144.517C695.076 144.025 694.673 143.622 694.181 143.622C693.689 143.622 693.286 144.025 693.286 144.517C693.286 145.009 693.689 145.412 694.181 145.412ZM702.511 140.818H701.278V151H702.511V140.818ZM705.997 146.406C705.997 145.074 706.822 144.318 707.946 144.318C709.035 144.318 709.696 145.029 709.696 146.227V151H710.869V146.148C710.869 144.199 709.83 143.264 708.284 143.264C707.131 143.264 706.415 143.781 706.057 144.557H705.957V143.364H704.824V151H705.997V146.406ZM718.984 143.364H717.711L715.604 149.449H715.524L713.416 143.364H712.143L714.967 151H716.16L718.984 143.364ZM720.533 151H721.706V143.364H720.533V151ZM721.129 142.091C721.587 142.091 721.965 141.733 721.965 141.295C721.965 140.858 721.587 140.5 721.129 140.5C720.672 140.5 720.294 140.858 720.294 141.295C720.294 141.733 720.672 142.091 721.129 142.091ZM727.176 143.364H725.545V141.534H724.372V143.364H723.219V144.358H724.372V149.131C724.372 150.463 725.446 151.099 726.44 151.099C726.878 151.099 727.156 151.02 727.315 150.96L727.077 149.906C726.977 149.926 726.818 149.966 726.56 149.966C726.043 149.966 725.545 149.807 725.545 148.812V144.358H727.176V143.364ZM732.061 151.159C733.612 151.159 734.745 150.384 735.103 149.23L733.97 148.912C733.672 149.707 732.98 150.105 732.061 150.105C730.684 150.105 729.734 149.215 729.679 147.58H735.223V147.082C735.223 144.239 733.532 143.264 731.941 143.264C729.873 143.264 728.501 144.895 728.501 147.241C728.501 149.588 729.853 151.159 732.061 151.159ZM729.679 146.565C729.759 145.377 730.599 144.318 731.941 144.318C733.214 144.318 734.029 145.273 734.029 146.565H729.679ZM740.209 151.159C741.76 151.159 742.894 150.384 743.252 149.23L742.118 148.912C741.82 149.707 741.129 150.105 740.209 150.105C738.832 150.105 737.882 149.215 737.828 147.58H743.371V147.082C743.371 144.239 741.681 143.264 740.09 143.264C738.022 143.264 736.65 144.895 736.65 147.241C736.65 149.588 738.002 151.159 740.209 151.159ZM737.828 146.565C737.907 145.377 738.748 144.318 740.09 144.318C741.363 144.318 742.178 145.273 742.178 146.565H737.828ZM749.093 151H750.267V143.364H749.093V151ZM749.69 142.091C750.147 142.091 750.525 141.733 750.525 141.295C750.525 140.858 750.147 140.5 749.69 140.5C749.233 140.5 748.855 140.858 748.855 141.295C748.855 141.733 749.233 142.091 749.69 142.091ZM753.589 146.406C753.589 145.074 754.414 144.318 755.538 144.318C756.627 144.318 757.288 145.029 757.288 146.227V151H758.461V146.148C758.461 144.199 757.422 143.264 755.876 143.264C754.722 143.264 754.007 143.781 753.649 144.557H753.549V143.364H752.416V151H753.589V146.406ZM760.605 151H761.778V143.364H760.605V151ZM761.202 142.091C761.659 142.091 762.037 141.733 762.037 141.295C762.037 140.858 761.659 140.5 761.202 140.5C760.744 140.5 760.366 140.858 760.366 141.295C760.366 141.733 760.744 142.091 761.202 142.091ZM767.248 143.364H765.618V141.534H764.444V143.364H763.291V144.358H764.444V149.131C764.444 150.463 765.518 151.099 766.513 151.099C766.95 151.099 767.229 151.02 767.388 150.96L767.149 149.906C767.05 149.926 766.89 149.966 766.632 149.966C766.115 149.966 765.618 149.807 765.618 148.812V144.358H767.248V143.364ZM769.013 151H770.187V143.364H769.013V151ZM769.61 142.091C770.067 142.091 770.445 141.733 770.445 141.295C770.445 140.858 770.067 140.5 769.61 140.5C769.153 140.5 768.775 140.858 768.775 141.295C768.775 141.733 769.153 142.091 769.61 142.091ZM774.583 151.179C775.915 151.179 776.611 150.463 776.85 149.966H776.909V151H778.083V145.969C778.083 143.543 776.233 143.264 775.259 143.264C774.105 143.264 772.793 143.662 772.196 145.054L773.31 145.452C773.569 144.895 774.18 144.298 775.299 144.298C776.377 144.298 776.909 144.87 776.909 145.849V145.889C776.909 146.456 776.333 146.406 774.941 146.585C773.524 146.769 771.978 147.082 771.978 148.832C771.978 150.324 773.131 151.179 774.583 151.179ZM774.762 150.125C773.827 150.125 773.151 149.707 773.151 148.892C773.151 147.997 773.966 147.719 774.881 147.599C775.378 147.54 776.711 147.401 776.909 147.162V148.236C776.909 149.19 776.154 150.125 774.762 150.125ZM783.545 143.364H781.915V141.534H780.741V143.364H779.588V144.358H780.741V149.131C780.741 150.463 781.815 151.099 782.809 151.099C783.247 151.099 783.525 151.02 783.684 150.96L783.446 149.906C783.346 149.926 783.187 149.966 782.929 149.966C782.412 149.966 781.915 149.807 781.915 148.812V144.358H783.545V143.364ZM788.43 151.159C789.981 151.159 791.115 150.384 791.472 149.23L790.339 148.912C790.041 149.707 789.35 150.105 788.43 150.105C787.053 150.105 786.103 149.215 786.048 147.58H791.592V147.082C791.592 144.239 789.901 143.264 788.311 143.264C786.242 143.264 784.87 144.895 784.87 147.241C784.87 149.588 786.222 151.159 788.43 151.159ZM786.048 146.565C786.128 145.377 786.968 144.318 788.311 144.318C789.583 144.318 790.399 145.273 790.399 146.565H786.048ZM798.786 145.074C798.418 143.99 797.593 143.264 796.081 143.264C794.47 143.264 793.277 144.179 793.277 145.472C793.277 146.526 793.904 147.232 795.306 147.56L796.578 147.858C797.349 148.037 797.712 148.405 797.712 148.932C797.712 149.588 797.016 150.125 795.922 150.125C794.963 150.125 794.361 149.712 794.152 148.892L793.039 149.17C793.312 150.468 794.381 151.159 795.942 151.159C797.717 151.159 798.925 150.19 798.925 148.872C798.925 147.808 798.259 147.137 796.896 146.804L795.763 146.526C794.858 146.302 794.45 145.999 794.45 145.412C794.45 144.756 795.146 144.278 796.081 144.278C797.105 144.278 797.528 144.845 797.732 145.372L798.786 145.074ZM697.345 164.878C697.345 166.31 696.252 166.966 695.377 166.966C694.402 166.966 693.706 166.25 693.706 165.136V160.364H692.533V165.216C692.533 167.165 693.567 168.099 694.999 168.099C696.152 168.099 696.908 167.483 697.266 166.707H697.345V168H698.519V160.364H697.345V164.878ZM706.077 162.074C705.709 160.99 704.884 160.264 703.372 160.264C701.761 160.264 700.568 161.179 700.568 162.472C700.568 163.526 701.195 164.232 702.597 164.56L703.869 164.858C704.64 165.037 705.003 165.405 705.003 165.932C705.003 166.588 704.307 167.125 703.213 167.125C702.254 167.125 701.652 166.712 701.443 165.892L700.33 166.17C700.603 167.468 701.672 168.159 703.233 168.159C705.008 168.159 706.216 167.19 706.216 165.872C706.216 164.808 705.55 164.137 704.188 163.804L703.054 163.526C702.149 163.302 701.741 162.999 701.741 162.412C701.741 161.756 702.438 161.278 703.372 161.278C704.396 161.278 704.819 161.845 705.023 162.372L706.077 162.074ZM707.982 168H709.155V160.364H707.982V168ZM708.579 159.091C709.036 159.091 709.414 158.733 709.414 158.295C709.414 157.858 709.036 157.5 708.579 157.5C708.121 157.5 707.743 157.858 707.743 158.295C707.743 158.733 708.121 159.091 708.579 159.091ZM712.478 163.406C712.478 162.074 713.303 161.318 714.426 161.318C715.515 161.318 716.176 162.029 716.176 163.227V168H717.35V163.148C717.35 161.199 716.311 160.264 714.765 160.264C713.611 160.264 712.895 160.781 712.537 161.557H712.438V160.364H711.304V168H712.478V163.406ZM722.576 171.023C724.406 171.023 725.877 170.188 725.877 168.219V160.364H724.744V161.577H724.624C724.366 161.179 723.889 160.264 722.397 160.264C720.468 160.264 719.136 161.795 719.136 164.142C719.136 166.528 720.528 167.881 722.377 167.881C723.869 167.881 724.346 167.006 724.605 166.588H724.704V168.139C724.704 169.412 723.809 169.989 722.576 169.989C721.189 169.989 720.702 169.258 720.389 168.835L719.454 169.491C719.931 170.292 720.871 171.023 722.576 171.023ZM722.536 166.827C721.065 166.827 720.309 165.713 720.309 164.122C720.309 162.571 721.045 161.318 722.536 161.318C723.968 161.318 724.724 162.472 724.724 164.122C724.724 165.812 723.948 166.827 722.536 166.827ZM734.21 168.179C735.542 168.179 736.238 167.463 736.477 166.966H736.536V168H737.71V162.969C737.71 160.543 735.86 160.264 734.886 160.264C733.732 160.264 732.42 160.662 731.823 162.054L732.937 162.452C733.195 161.895 733.807 161.298 734.926 161.298C736.004 161.298 736.536 161.87 736.536 162.849V162.889C736.536 163.456 735.96 163.406 734.568 163.585C733.151 163.769 731.605 164.082 731.605 165.832C731.605 167.324 732.758 168.179 734.21 168.179ZM734.389 167.125C733.454 167.125 732.778 166.707 732.778 165.892C732.778 164.997 733.593 164.719 734.508 164.599C735.005 164.54 736.338 164.401 736.536 164.162V165.236C736.536 166.19 735.781 167.125 734.389 167.125ZM743.789 170.864H744.962V166.827H745.061C745.32 167.244 745.817 168.159 747.289 168.159C749.198 168.159 750.53 166.628 750.53 164.202C750.53 161.795 749.198 160.264 747.269 160.264C745.777 160.264 745.32 161.179 745.061 161.577H744.922V160.364H743.789V170.864ZM744.942 164.182C744.942 162.472 745.698 161.318 747.13 161.318C748.621 161.318 749.357 162.571 749.357 164.182C749.357 165.812 748.601 167.105 747.13 167.105C745.718 167.105 744.942 165.912 744.942 164.182ZM757.132 164.878C757.132 166.31 756.039 166.966 755.164 166.966C754.189 166.966 753.493 166.25 753.493 165.136V160.364H752.32V165.216C752.32 167.165 753.354 168.099 754.786 168.099C755.939 168.099 756.695 167.483 757.053 166.707H757.132V168H758.306V160.364H757.132V164.878ZM760.614 168H761.747V166.827H761.887C762.145 167.244 762.642 168.159 764.114 168.159C766.023 168.159 767.355 166.628 767.355 164.202C767.355 161.795 766.023 160.264 764.094 160.264C762.602 160.264 762.145 161.179 761.887 161.577H761.787V157.818H760.614V168ZM761.767 164.182C761.767 162.472 762.523 161.318 763.955 161.318C765.446 161.318 766.182 162.571 766.182 164.182C766.182 165.812 765.426 167.105 763.955 167.105C762.543 167.105 761.767 165.912 761.767 164.182ZM770.323 157.818H769.15V168H770.323V157.818ZM772.472 168H773.646V160.364H772.472V168ZM773.069 159.091C773.526 159.091 773.904 158.733 773.904 158.295C773.904 157.858 773.526 157.5 773.069 157.5C772.612 157.5 772.234 157.858 772.234 158.295C772.234 158.733 772.612 159.091 773.069 159.091ZM778.897 168.159C780.587 168.159 781.701 167.125 781.9 165.773H780.726C780.508 166.608 779.812 167.105 778.897 167.105C777.505 167.105 776.61 165.952 776.61 164.182C776.61 162.452 777.525 161.318 778.897 161.318C779.931 161.318 780.547 161.955 780.726 162.651H781.9C781.701 161.219 780.488 160.264 778.877 160.264C776.809 160.264 775.437 161.895 775.437 164.222C775.437 166.509 776.749 168.159 778.897 168.159ZM691.294 177.364H692.487C692.433 175.827 691.016 174.679 689.047 174.679C687.098 174.679 685.567 175.812 685.567 177.523C685.567 178.895 686.561 179.71 688.152 180.168L689.405 180.526C690.479 180.824 691.434 181.202 691.434 182.216C691.434 183.33 690.36 184.065 688.948 184.065C687.735 184.065 686.661 183.528 686.561 182.375H685.289C685.408 184.045 686.76 185.179 688.948 185.179C691.294 185.179 692.627 183.886 692.627 182.236C692.627 180.327 690.817 179.71 689.763 179.432L688.729 179.153C687.973 178.955 686.76 178.557 686.76 177.463C686.76 176.489 687.655 175.773 689.007 175.773C690.24 175.773 691.175 176.359 691.294 177.364ZM697.696 185.159C699.248 185.159 700.381 184.384 700.739 183.23L699.606 182.912C699.307 183.707 698.616 184.105 697.696 184.105C696.319 184.105 695.37 183.215 695.315 181.58H700.858V181.082C700.858 178.239 699.168 177.264 697.577 177.264C695.509 177.264 694.137 178.895 694.137 181.241C694.137 183.588 695.489 185.159 697.696 185.159ZM695.315 180.565C695.395 179.377 696.235 178.318 697.577 178.318C698.85 178.318 699.665 179.273 699.665 180.565H695.315ZM702.643 185H703.816V180.168C703.816 179.134 704.632 178.378 705.745 178.378C706.059 178.378 706.382 178.438 706.461 178.457V177.264C706.327 177.254 706.019 177.244 705.845 177.244C704.93 177.244 704.135 177.761 703.856 178.517H703.777V177.364H702.643V185ZM714.329 177.364H713.056L710.948 183.449H710.869L708.761 177.364H707.488L710.312 185H711.505L714.329 177.364ZM715.878 185H717.051V177.364H715.878V185ZM716.474 176.091C716.932 176.091 717.309 175.733 717.309 175.295C717.309 174.858 716.932 174.5 716.474 174.5C716.017 174.5 715.639 174.858 715.639 175.295C715.639 175.733 716.017 176.091 716.474 176.091ZM722.302 185.159C723.992 185.159 725.106 184.125 725.305 182.773H724.132C723.913 183.608 723.217 184.105 722.302 184.105C720.91 184.105 720.015 182.952 720.015 181.182C720.015 179.452 720.93 178.318 722.302 178.318C723.336 178.318 723.953 178.955 724.132 179.651H725.305C725.106 178.219 723.893 177.264 722.282 177.264C720.214 177.264 718.842 178.895 718.842 181.222C718.842 183.509 720.154 185.159 722.302 185.159ZM730.222 185.159C731.773 185.159 732.907 184.384 733.264 183.23L732.131 182.912C731.833 183.707 731.142 184.105 730.222 184.105C728.845 184.105 727.895 183.215 727.84 181.58H733.384V181.082C733.384 178.239 731.693 177.264 730.103 177.264C728.034 177.264 726.662 178.895 726.662 181.241C726.662 183.588 728.014 185.159 730.222 185.159ZM727.84 180.565C727.92 179.377 728.76 178.318 730.103 178.318C731.375 178.318 732.191 179.273 732.191 180.565H727.84ZM735.328 185H741.552V183.906H736.561V180.446H741.154V179.352H736.561V175.912H741.473V174.818H735.328V185ZM744.709 180.406C744.709 179.074 745.534 178.318 746.658 178.318C747.747 178.318 748.408 179.029 748.408 180.227V185H749.581V180.148C749.581 178.199 748.542 177.264 746.996 177.264C745.843 177.264 745.127 177.781 744.769 178.557H744.669V177.364H743.536V185H744.709V180.406ZM754.609 185.159C756.08 185.159 756.578 184.244 756.836 183.827H756.975V185H758.109V174.818H756.935V178.577H756.836C756.578 178.179 756.12 177.264 754.629 177.264C752.7 177.264 751.367 178.795 751.367 181.202C751.367 183.628 752.7 185.159 754.609 185.159ZM754.768 184.105C753.296 184.105 752.541 182.812 752.541 181.182C752.541 179.571 753.276 178.318 754.768 178.318C756.2 178.318 756.955 179.472 756.955 181.182C756.955 182.912 756.18 184.105 754.768 184.105ZM760.421 187.864H761.594V183.827H761.693C761.952 184.244 762.449 185.159 763.921 185.159C765.83 185.159 767.162 183.628 767.162 181.202C767.162 178.795 765.83 177.264 763.901 177.264C762.409 177.264 761.952 178.179 761.693 178.577H761.554V177.364H760.421V187.864ZM761.574 181.182C761.574 179.472 762.33 178.318 763.761 178.318C765.253 178.318 765.989 179.571 765.989 181.182C765.989 182.812 765.233 184.105 763.761 184.105C762.35 184.105 761.574 182.912 761.574 181.182ZM772.054 185.159C774.122 185.159 775.514 183.588 775.514 181.222C775.514 178.835 774.122 177.264 772.054 177.264C769.986 177.264 768.594 178.835 768.594 181.222C768.594 183.588 769.986 185.159 772.054 185.159ZM772.054 184.105C770.483 184.105 769.767 182.753 769.767 181.222C769.767 179.69 770.483 178.318 772.054 178.318C773.625 178.318 774.341 179.69 774.341 181.222C774.341 182.753 773.625 184.105 772.054 184.105ZM778.479 180.406C778.479 179.074 779.304 178.318 780.427 178.318C781.516 178.318 782.177 179.029 782.177 180.227V185H783.351V180.148C783.351 178.199 782.312 177.264 780.766 177.264C779.612 177.264 778.896 177.781 778.538 178.557H778.439V177.364H777.305V185H778.479V180.406ZM788.816 177.364H787.185V175.534H786.012V177.364H784.858V178.358H786.012V183.131C786.012 184.463 787.086 185.099 788.08 185.099C788.517 185.099 788.796 185.02 788.955 184.96L788.716 183.906C788.617 183.926 788.458 183.966 788.199 183.966C787.682 183.966 787.185 183.807 787.185 182.812V178.358H788.816V177.364Z" fill="#7CA2C1"/>
<path d="M712.476 394.406C712.476 393.074 713.301 392.318 714.425 392.318C715.513 392.318 716.175 393.029 716.175 394.227V399H717.348V394.148C717.348 392.199 716.309 391.264 714.763 391.264C713.609 391.264 712.893 391.781 712.535 392.557H712.436V391.364H711.302V399H712.476V394.406ZM722.594 399.159C724.662 399.159 726.054 397.588 726.054 395.222C726.054 392.835 724.662 391.264 722.594 391.264C720.526 391.264 719.134 392.835 719.134 395.222C719.134 397.588 720.526 399.159 722.594 399.159ZM722.594 398.105C721.023 398.105 720.307 396.753 720.307 395.222C720.307 393.69 721.023 392.318 722.594 392.318C724.165 392.318 724.881 393.69 724.881 395.222C724.881 396.753 724.165 398.105 722.594 398.105Z" fill="#C56550"/>
<path d="M655.831 453.864C656.89 453.864 657.636 453.302 658.079 452.114L661.33 443.384L660.047 443.364L657.939 449.449H657.86L655.752 443.364H654.479L657.303 451.04L657.084 451.636C656.657 452.8 656.13 452.909 655.275 452.69L654.976 453.724C655.096 453.784 655.434 453.864 655.831 453.864ZM665.811 451.159C667.362 451.159 668.495 450.384 668.853 449.23L667.72 448.912C667.422 449.707 666.73 450.105 665.811 450.105C664.434 450.105 663.484 449.215 663.429 447.58H668.973V447.082C668.973 444.239 667.282 443.264 665.691 443.264C663.623 443.264 662.251 444.895 662.251 447.241C662.251 449.588 663.603 451.159 665.811 451.159ZM663.429 446.565C663.509 445.377 664.349 444.318 665.691 444.318C666.964 444.318 667.779 445.273 667.779 446.565H663.429ZM676.167 445.074C675.799 443.99 674.973 443.264 673.462 443.264C671.851 443.264 670.658 444.179 670.658 445.472C670.658 446.526 671.284 447.232 672.686 447.56L673.959 447.858C674.73 448.037 675.093 448.405 675.093 448.932C675.093 449.588 674.397 450.125 673.303 450.125C672.343 450.125 671.742 449.712 671.533 448.892L670.419 449.17C670.693 450.468 671.762 451.159 673.323 451.159C675.098 451.159 676.306 450.19 676.306 448.872C676.306 447.808 675.64 447.137 674.277 446.804L673.144 446.526C672.239 446.302 671.831 445.999 671.831 445.412C671.831 444.756 672.527 444.278 673.462 444.278C674.486 444.278 674.909 444.845 675.113 445.372L676.167 445.074Z" fill="#73A97B"/>
<path d="M226.831 725.864C227.89 725.864 228.636 725.302 229.079 724.114L232.33 715.384L231.047 715.364L228.939 721.449H228.86L226.752 715.364H225.479L228.303 723.04L228.084 723.636C227.657 724.8 227.13 724.909 226.275 724.69L225.976 725.724C226.096 725.784 226.434 725.864 226.831 725.864ZM236.811 723.159C238.362 723.159 239.495 722.384 239.853 721.23L238.72 720.912C238.422 721.707 237.73 722.105 236.811 722.105C235.434 722.105 234.484 721.215 234.429 719.58H239.973V719.082C239.973 716.239 238.282 715.264 236.691 715.264C234.623 715.264 233.251 716.895 233.251 719.241C233.251 721.588 234.603 723.159 236.811 723.159ZM234.429 718.565C234.509 717.377 235.349 716.318 236.691 716.318C237.964 716.318 238.779 717.273 238.779 718.565H234.429ZM247.167 717.074C246.799 715.99 245.973 715.264 244.462 715.264C242.851 715.264 241.658 716.179 241.658 717.472C241.658 718.526 242.284 719.232 243.686 719.56L244.959 719.858C245.73 720.037 246.093 720.405 246.093 720.932C246.093 721.588 245.397 722.125 244.303 722.125C243.343 722.125 242.742 721.712 242.533 720.892L241.419 721.17C241.693 722.468 242.762 723.159 244.323 723.159C246.098 723.159 247.306 722.19 247.306 720.872C247.306 719.808 246.64 719.137 245.277 718.804L244.144 718.526C243.239 718.302 242.831 717.999 242.831 717.412C242.831 716.756 243.527 716.278 244.462 716.278C245.486 716.278 245.909 716.845 246.113 717.372L247.167 717.074Z" fill="#73A97B"/>
<path d="M137.476 666.406C137.476 665.074 138.301 664.318 139.425 664.318C140.513 664.318 141.175 665.029 141.175 666.227V671H142.348V666.148C142.348 664.199 141.309 663.264 139.763 663.264C138.609 663.264 137.893 663.781 137.535 664.557H137.436V663.364H136.302V671H137.476V666.406ZM147.594 671.159C149.662 671.159 151.054 669.588 151.054 667.222C151.054 664.835 149.662 663.264 147.594 663.264C145.526 663.264 144.134 664.835 144.134 667.222C144.134 669.588 145.526 671.159 147.594 671.159ZM147.594 670.105C146.023 670.105 145.307 668.753 145.307 667.222C145.307 665.69 146.023 664.318 147.594 664.318C149.165 664.318 149.881 665.69 149.881 667.222C149.881 668.753 149.165 670.105 147.594 670.105Z" fill="#C56550"/>
<path d="M59.4576 719H60.6905V715.281H62.9178C65.2892 715.281 66.3581 713.839 66.3581 712.04C66.3581 710.24 65.2892 708.818 62.8979 708.818H59.4576V719ZM60.6905 714.188V709.912H62.8581C64.5137 709.912 65.1451 710.817 65.1451 712.04C65.1451 713.263 64.5137 714.188 62.878 714.188H60.6905ZM68.1852 719H69.3585V714.168C69.3585 713.134 70.1738 712.378 71.2875 712.378C71.6007 712.378 71.9238 712.438 72.0034 712.457V711.264C71.8691 711.254 71.5609 711.244 71.3869 711.244C70.4721 711.244 69.6767 711.761 69.3983 712.517H69.3187V711.364H68.1852V719ZM76.264 719.159C78.3322 719.159 79.7243 717.588 79.7243 715.222C79.7243 712.835 78.3322 711.264 76.264 711.264C74.1958 711.264 72.8038 712.835 72.8038 715.222C72.8038 717.588 74.1958 719.159 76.264 719.159ZM76.264 718.105C74.693 718.105 73.9771 716.753 73.9771 715.222C73.9771 713.69 74.693 712.318 76.264 712.318C77.835 712.318 78.551 713.69 78.551 715.222C78.551 716.753 77.835 718.105 76.264 718.105ZM81.6744 719H82.8079V717.827H82.9471C83.2056 718.244 83.7028 719.159 85.1744 719.159C87.0835 719.159 88.4158 717.628 88.4158 715.202C88.4158 712.795 87.0835 711.264 85.1545 711.264C83.663 711.264 83.2056 712.179 82.9471 712.577H82.8477V708.818H81.6744V719ZM82.8278 715.182C82.8278 713.472 83.5835 712.318 85.0153 712.318C86.5067 712.318 87.2425 713.571 87.2425 715.182C87.2425 716.812 86.4869 718.105 85.0153 718.105C83.6033 718.105 82.8278 716.912 82.8278 715.182ZM91.3839 708.818H90.2106V719H91.3839V708.818ZM96.7346 719.159C98.2857 719.159 99.4192 718.384 99.7772 717.23L98.6436 716.912C98.3453 717.707 97.6543 718.105 96.7346 718.105C95.3574 718.105 94.4078 717.215 94.3532 715.58H99.8965V715.082C99.8965 712.239 98.2061 711.264 96.6152 711.264C94.5471 711.264 93.1749 712.895 93.1749 715.241C93.1749 717.588 94.5272 719.159 96.7346 719.159ZM94.3532 714.565C94.4327 713.377 95.2729 712.318 96.6152 712.318C97.888 712.318 98.7033 713.273 98.7033 714.565H94.3532ZM101.681 719H102.855V714.227C102.855 713.109 103.67 712.318 104.585 712.318C105.475 712.318 106.096 712.9 106.096 713.77V719H107.289V714.028C107.289 713.044 107.906 712.318 108.98 712.318C109.815 712.318 110.531 712.761 110.531 713.889V719H111.704V713.889C111.704 712.094 110.74 711.264 109.377 711.264C108.284 711.264 107.483 711.766 107.09 712.557H107.011C106.633 711.741 105.967 711.264 104.963 711.264C103.968 711.264 103.232 711.741 102.914 712.557H102.815V711.364H101.681V719ZM64.3931 736H65.6261V732.023H67.8533C67.9428 732.023 68.0273 732.023 68.1119 732.018L70.2596 736H71.6914L69.3896 731.794C70.6871 731.352 71.2937 730.293 71.2937 728.94C71.2937 727.141 70.2198 725.818 67.8335 725.818H64.3931V736ZM65.6261 730.909V726.912H67.7937C69.4442 726.912 70.0806 727.717 70.0806 728.94C70.0806 730.163 69.4442 730.909 67.8136 730.909H65.6261ZM76.3088 736.159C77.8599 736.159 78.9934 735.384 79.3514 734.23L78.2179 733.912C77.9196 734.707 77.2285 735.105 76.3088 735.105C74.9316 735.105 73.9821 734.215 73.9274 732.58H79.4707V732.082C79.4707 729.239 77.7804 728.264 76.1895 728.264C74.1213 728.264 72.7491 729.895 72.7491 732.241C72.7491 734.588 74.1014 736.159 76.3088 736.159ZM73.9274 731.565C74.0069 730.377 74.8471 729.318 76.1895 729.318C77.4622 729.318 78.2775 730.273 78.2775 731.565H73.9274ZM81.2555 738.864H82.4288V734.827H82.5282C82.7868 735.244 83.2839 736.159 84.7555 736.159C86.6646 736.159 87.997 734.628 87.997 732.202C87.997 729.795 86.6646 728.264 84.7356 728.264C83.2441 728.264 82.7868 729.179 82.5282 729.577H82.389V728.364H81.2555V738.864ZM82.4089 732.182C82.4089 730.472 83.1646 729.318 84.5964 729.318C86.0879 729.318 86.8237 730.571 86.8237 732.182C86.8237 733.812 86.068 735.105 84.5964 735.105C83.1845 735.105 82.4089 733.912 82.4089 732.182ZM92.889 736.159C94.9572 736.159 96.3493 734.588 96.3493 732.222C96.3493 729.835 94.9572 728.264 92.889 728.264C90.8208 728.264 89.4288 729.835 89.4288 732.222C89.4288 734.588 90.8208 736.159 92.889 736.159ZM92.889 735.105C91.318 735.105 90.6021 733.753 90.6021 732.222C90.6021 730.69 91.318 729.318 92.889 729.318C94.46 729.318 95.176 730.69 95.176 732.222C95.176 733.753 94.46 735.105 92.889 735.105ZM98.1403 736H99.3136V731.168C99.3136 730.134 100.129 729.378 101.243 729.378C101.556 729.378 101.879 729.438 101.958 729.457V728.264C101.824 728.254 101.516 728.244 101.342 728.244C100.427 728.244 99.6317 728.761 99.3533 729.517H99.2738V728.364H98.1403V736ZM107.149 728.364H105.518V726.534H104.345V728.364H103.191V729.358H104.345V734.131C104.345 735.463 105.419 736.099 106.413 736.099C106.85 736.099 107.129 736.02 107.288 735.96L107.049 734.906C106.95 734.926 106.791 734.966 106.532 734.966C106.015 734.966 105.518 734.807 105.518 733.812V729.358H107.149V728.364Z" fill="#C56550"/>
<circle cx="86.5" cy="676.5" r="23.5" stroke="#C56550" stroke-width="2" stroke-linecap="round" stroke-dasharray="4 4"/>
<rect x="70" y="666" width="33" height="21" rx="3" fill="#C56550" stroke="#111F3B" stroke-width="2"/>
<path d="M70 667L84.8134 680.186C85.9687 681.215 87.7165 681.196 88.8498 680.143L103 667" stroke="#111F3B" stroke-width="2" stroke-linejoin="round"/>
<path d="M717.5 317L727.5 322.773V311.227L717.5 317ZM671 124H810V122H671V124ZM811 125V315H813V125H811ZM810 316H726.5V318H810V316ZM811 315C811 315.552 810.552 316 810 316V318C811.657 318 813 316.657 813 315H811ZM810 124C810.552 124 811 124.448 811 125H813C813 123.343 811.657 122 810 122V124Z" fill="#7CA2C1"/>
<path d="M241 770L251 775.773V764.227L241 770ZM695 405H767V403H695V405ZM768 406V768H770V406H768ZM767 769H250V771H767V769ZM768 768C768 768.552 767.552 769 767 769V771C768.657 771 770 769.657 770 768H768ZM767 405C767.552 405 768 405.448 768 406H770C770 404.343 768.657 403 767 403V405Z" fill="#C56550"/>
<rect x="44.5" y="537.5" width="774" height="266" rx="8.5" stroke="#369FAB" stroke-opacity="0.5" stroke-width="3" stroke-dasharray="6 6"/>
</svg>
