<svg width="862" height="484" viewBox="0 0 862 484" fill="none" xmlns="http://www.w3.org/2000/svg">
<rect x="0.5" y="0.5" width="861" height="483" fill="#111F3B" stroke="#293856"/>
<path d="M191.581 50.674H194.234C194.195 48.3409 192.278 46.7301 189.363 46.7301C186.493 46.7301 184.39 48.3153 184.403 50.6932C184.396 52.6236 185.758 53.7294 187.97 54.2599L189.395 54.6179C190.82 54.9631 191.613 55.3722 191.619 56.2543C191.613 57.2131 190.705 57.8651 189.299 57.8651C187.861 57.8651 186.825 57.2003 186.736 55.8899H184.058C184.128 58.7216 186.154 60.1854 189.331 60.1854C192.527 60.1854 194.406 58.6577 194.413 56.2607C194.406 54.081 192.764 52.924 190.488 52.4126L189.312 52.1314C188.174 51.8693 187.222 51.4474 187.241 50.5078C187.241 49.6641 187.989 49.044 189.344 49.044C190.667 49.044 191.479 49.6449 191.581 50.674ZM200.698 60.1918C203.127 60.1918 204.763 59.0092 205.147 57.1875L202.628 57.0213C202.353 57.7692 201.65 58.1591 200.743 58.1591C199.381 58.1591 198.518 57.2578 198.518 55.794V55.7876H205.204V55.0398C205.204 51.7031 203.184 50.054 200.589 50.054C197.7 50.054 195.827 52.1058 195.827 55.1357C195.827 58.2486 197.674 60.1918 200.698 60.1918ZM198.518 54.1001C198.576 52.9815 199.426 52.0866 200.634 52.0866C201.816 52.0866 202.635 52.9304 202.641 54.1001H198.518ZM209.704 54.3239C209.711 53.0582 210.465 52.3168 211.564 52.3168C212.657 52.3168 213.316 53.0327 213.309 54.2344V60H216.032V53.7486C216.032 51.4602 214.69 50.054 212.645 50.054C211.187 50.054 210.132 50.7699 209.691 51.9141H209.576V50.1818H206.981V60H209.704V54.3239ZM221.796 60.1598C223.382 60.1598 224.206 59.2457 224.583 58.4276H224.698V60H227.383V46.9091H224.666V51.831H224.583C224.219 51.032 223.433 50.054 221.79 50.054C219.636 50.054 217.814 51.7287 217.814 55.1037C217.814 58.3892 219.559 60.1598 221.796 60.1598ZM222.659 57.9929C221.323 57.9929 220.595 56.804 220.595 55.0909C220.595 53.3906 221.311 52.2209 222.659 52.2209C223.982 52.2209 224.724 53.3395 224.724 55.0909C224.724 56.8423 223.97 57.9929 222.659 57.9929ZM234.096 60.1918C236.525 60.1918 238.162 59.0092 238.545 57.1875L236.027 57.0213C235.752 57.7692 235.049 58.1591 234.141 58.1591C232.779 58.1591 231.917 57.2578 231.917 55.794V55.7876H238.603V55.0398C238.603 51.7031 236.583 50.054 233.988 50.054C231.098 50.054 229.225 52.1058 229.225 55.1357C229.225 58.2486 231.073 60.1918 234.096 60.1918ZM231.917 54.1001C231.974 52.9815 232.824 52.0866 234.032 52.0866C235.215 52.0866 236.033 52.9304 236.039 54.1001H231.917ZM240.38 60H243.103V54.4453C243.103 53.2372 243.985 52.4062 245.186 52.4062C245.564 52.4062 246.081 52.4702 246.337 52.5533V50.1371C246.094 50.0795 245.755 50.0412 245.48 50.0412C244.381 50.0412 243.48 50.6804 243.122 51.8949H243.02V50.1818H240.38V60Z" fill="#4079A2"/>
<path d="M610.15 60H612.918V55.3594H614.938L617.418 60H620.474L617.693 54.9119C619.182 54.2727 620.007 52.9751 620.007 51.1854C620.007 48.5838 618.288 46.9091 615.315 46.9091H610.15V60ZM612.918 53.1349V49.1719H614.785C616.383 49.1719 617.156 49.8814 617.156 51.1854C617.156 52.483 616.383 53.1349 614.797 53.1349H612.918ZM626.228 60.1918C628.657 60.1918 630.293 59.0092 630.677 57.1875L628.158 57.0213C627.884 57.7692 627.18 58.1591 626.273 58.1591C624.911 58.1591 624.048 57.2578 624.048 55.794V55.7876H630.734V55.0398C630.734 51.7031 628.715 50.054 626.119 50.054C623.23 50.054 621.357 52.1058 621.357 55.1357C621.357 58.2486 623.205 60.1918 626.228 60.1918ZM624.048 54.1001C624.106 52.9815 624.956 52.0866 626.164 52.0866C627.347 52.0866 628.165 52.9304 628.171 54.1001H624.048ZM636.948 60.1918C639.562 60.1918 641.205 58.6577 641.332 56.4013H638.763C638.603 57.4496 637.913 58.0376 636.979 58.0376C635.707 58.0376 634.883 56.9702 634.883 55.0909C634.883 53.2372 635.714 52.1761 636.979 52.1761C637.977 52.1761 638.616 52.8345 638.763 53.8125H641.332C641.217 51.5433 639.498 50.054 636.935 50.054C633.956 50.054 632.115 52.1186 632.115 55.1293C632.115 58.1143 633.924 60.1918 636.948 60.1918ZM647.55 60.1918C649.979 60.1918 651.616 59.0092 651.999 57.1875L649.481 57.0213C649.206 57.7692 648.503 58.1591 647.595 58.1591C646.234 58.1591 645.371 57.2578 645.371 55.794V55.7876H652.057V55.0398C652.057 51.7031 650.037 50.054 647.442 50.054C644.552 50.054 642.68 52.1058 642.68 55.1357C642.68 58.2486 644.527 60.1918 647.55 60.1918ZM645.371 54.1001C645.428 52.9815 646.278 52.0866 647.486 52.0866C648.669 52.0866 649.487 52.9304 649.494 54.1001H645.371ZM653.834 60H656.557V50.1818H653.834V60ZM655.202 48.9162C656.013 48.9162 656.678 48.2962 656.678 47.5355C656.678 46.7812 656.013 46.1612 655.202 46.1612C654.396 46.1612 653.731 46.7812 653.731 47.5355C653.731 48.2962 654.396 48.9162 655.202 48.9162ZM667.891 50.1818H665.009L662.976 57.2067H662.874L660.835 50.1818H657.958L661.391 60H664.459L667.891 50.1818ZM673.425 60.1918C675.854 60.1918 677.491 59.0092 677.874 57.1875L675.356 57.0213C675.081 57.7692 674.378 58.1591 673.47 58.1591C672.109 58.1591 671.246 57.2578 671.246 55.794V55.7876H677.932V55.0398C677.932 51.7031 675.912 50.054 673.317 50.054C670.427 50.054 668.555 52.1058 668.555 55.1357C668.555 58.2486 670.402 60.1918 673.425 60.1918ZM671.246 54.1001C671.303 52.9815 672.153 52.0866 673.361 52.0866C674.544 52.0866 675.362 52.9304 675.369 54.1001H671.246ZM679.709 60H682.432V54.4453C682.432 53.2372 683.314 52.4062 684.516 52.4062C684.893 52.4062 685.41 52.4702 685.666 52.5533V50.1371C685.423 50.0795 685.084 50.0412 684.81 50.0412C683.71 50.0412 682.809 50.6804 682.451 51.8949H682.349V50.1818H679.709V60Z" fill="#4079A2"/>
<rect x="31.5" y="26.5" width="368" height="431" rx="8.5" stroke="#294C6F" stroke-width="3" stroke-dasharray="6 6"/>
<rect x="462.5" y="26.5" width="368" height="431" rx="8.5" stroke="#294C6F" stroke-width="3" stroke-dasharray="6 6"/>
<circle cx="216" cy="123" r="22" stroke="#7CA2C1" stroke-width="6"/>
<circle cx="647" cy="412" r="23.5" stroke="#369FAB" stroke-width="3" stroke-dasharray="6 6"/>
<circle cx="647" cy="412" r="17.5" stroke="#369FAB" stroke-width="3"/>
<rect x="170" y="201" width="92" height="50" rx="5" fill="#369FAB"/>
<rect x="181" y="215" width="33" height="21" rx="3" fill="white" stroke="#369FAB" stroke-width="2"/>
<path d="M181 216L195.813 229.186C196.969 230.215 198.717 230.196 199.85 229.143L214 216" stroke="#369FAB" stroke-width="2" stroke-linejoin="round"/>
<path d="M223.431 232.864H224.605V228.827H224.704C224.963 229.244 225.46 230.159 226.931 230.159C228.84 230.159 230.173 228.628 230.173 226.202C230.173 223.795 228.84 222.264 226.911 222.264C225.42 222.264 224.963 223.179 224.704 223.577H224.565V222.364H223.431V232.864ZM224.585 226.182C224.585 224.472 225.34 223.318 226.772 223.318C228.264 223.318 228.999 224.571 228.999 226.182C228.999 227.812 228.244 229.105 226.772 229.105C225.36 229.105 224.585 227.912 224.585 226.182ZM235.065 230.159C237.133 230.159 238.525 228.588 238.525 226.222C238.525 223.835 237.133 222.264 235.065 222.264C232.997 222.264 231.605 223.835 231.605 226.222C231.605 228.588 232.997 230.159 235.065 230.159ZM235.065 229.105C233.494 229.105 232.778 227.753 232.778 226.222C232.778 224.69 233.494 223.318 235.065 223.318C236.636 223.318 237.352 224.69 237.352 226.222C237.352 227.753 236.636 229.105 235.065 229.105ZM245.725 224.074C245.357 222.99 244.532 222.264 243.021 222.264C241.41 222.264 240.217 223.179 240.217 224.472C240.217 225.526 240.843 226.232 242.245 226.56L243.518 226.858C244.288 227.037 244.651 227.405 244.651 227.932C244.651 228.588 243.955 229.125 242.862 229.125C241.902 229.125 241.3 228.712 241.092 227.892L239.978 228.17C240.251 229.468 241.32 230.159 242.881 230.159C244.656 230.159 245.864 229.19 245.864 227.872C245.864 226.808 245.198 226.137 243.836 225.804L242.702 225.526C241.798 225.302 241.39 224.999 241.39 224.412C241.39 223.756 242.086 223.278 243.021 223.278C244.045 223.278 244.467 223.845 244.671 224.372L245.725 224.074ZM250.952 222.364H249.321V220.534H248.148V222.364H246.994V223.358H248.148V228.131C248.148 229.463 249.221 230.099 250.216 230.099C250.653 230.099 250.932 230.02 251.091 229.96L250.852 228.906C250.753 228.926 250.594 228.966 250.335 228.966C249.818 228.966 249.321 228.807 249.321 227.812V223.358H250.952V222.364Z" fill="white"/>
<rect x="575" y="201" width="144" height="50" rx="5" fill="#4079A2"/>
<rect x="586" y="215" width="33" height="21" rx="3" fill="#4079A1" stroke="white" stroke-width="2"/>
<path d="M586 216L600.813 229.186C601.969 230.215 603.717 230.196 604.85 229.143L619 216" stroke="white" stroke-width="2" stroke-linejoin="round"/>
<path d="M628.074 229H629.247V224.168C629.247 223.134 630.062 222.378 631.176 222.378C631.489 222.378 631.812 222.438 631.892 222.457V221.264C631.758 221.254 631.45 221.244 631.276 221.244C630.361 221.244 629.565 221.761 629.287 222.517H629.207V221.364H628.074V229ZM636.252 229.159C637.803 229.159 638.937 228.384 639.295 227.23L638.161 226.912C637.863 227.707 637.172 228.105 636.252 228.105C634.875 228.105 633.925 227.215 633.871 225.58H639.414V225.082C639.414 222.239 637.724 221.264 636.133 221.264C634.065 221.264 632.692 222.895 632.692 225.241C632.692 227.588 634.045 229.159 636.252 229.159ZM633.871 224.565C633.95 223.377 634.79 222.318 636.133 222.318C637.406 222.318 638.221 223.273 638.221 224.565H633.871ZM644.301 229.159C645.991 229.159 647.105 228.125 647.304 226.773H646.131C645.912 227.608 645.216 228.105 644.301 228.105C642.909 228.105 642.014 226.952 642.014 225.182C642.014 223.452 642.929 222.318 644.301 222.318C645.335 222.318 645.952 222.955 646.131 223.651H647.304C647.105 222.219 645.892 221.264 644.281 221.264C642.213 221.264 640.841 222.895 640.841 225.222C640.841 227.509 642.153 229.159 644.301 229.159ZM652.221 229.159C653.772 229.159 654.906 228.384 655.263 227.23L654.13 226.912C653.832 227.707 653.141 228.105 652.221 228.105C650.844 228.105 649.894 227.215 649.839 225.58H655.383V225.082C655.383 222.239 653.692 221.264 652.102 221.264C650.033 221.264 648.661 222.895 648.661 225.241C648.661 227.588 650.013 229.159 652.221 229.159ZM649.839 224.565C649.919 223.377 650.759 222.318 652.102 222.318C653.374 222.318 654.19 223.273 654.19 224.565H649.839ZM657.168 229H658.341V221.364H657.168V229ZM657.764 220.091C658.222 220.091 658.599 219.733 658.599 219.295C658.599 218.858 658.222 218.5 657.764 218.5C657.307 218.5 656.929 218.858 656.929 219.295C656.929 219.733 657.307 220.091 657.764 220.091ZM666.734 221.364H665.461L663.354 227.449H663.274L661.166 221.364H659.893L662.717 229H663.91L666.734 221.364ZM671.211 229.159C672.762 229.159 673.896 228.384 674.254 227.23L673.12 226.912C672.822 227.707 672.131 228.105 671.211 228.105C669.834 228.105 668.884 227.215 668.83 225.58H674.373V225.082C674.373 222.239 672.683 221.264 671.092 221.264C669.024 221.264 667.651 222.895 667.651 225.241C667.651 227.588 669.004 229.159 671.211 229.159ZM668.83 224.565C668.909 223.377 669.749 222.318 671.092 222.318C672.365 222.318 673.18 223.273 673.18 224.565H668.83ZM680.095 231.864H681.269V227.827H681.368C681.627 228.244 682.124 229.159 683.595 229.159C685.504 229.159 686.837 227.628 686.837 225.202C686.837 222.795 685.504 221.264 683.575 221.264C682.084 221.264 681.627 222.179 681.368 222.577H681.229V221.364H680.095V231.864ZM681.249 225.182C681.249 223.472 682.004 222.318 683.436 222.318C684.928 222.318 685.664 223.571 685.664 225.182C685.664 226.812 684.908 228.105 683.436 228.105C682.024 228.105 681.249 226.912 681.249 225.182ZM691.729 229.159C693.797 229.159 695.189 227.588 695.189 225.222C695.189 222.835 693.797 221.264 691.729 221.264C689.661 221.264 688.269 222.835 688.269 225.222C688.269 227.588 689.661 229.159 691.729 229.159ZM691.729 228.105C690.158 228.105 689.442 226.753 689.442 225.222C689.442 223.69 690.158 222.318 691.729 222.318C693.3 222.318 694.016 223.69 694.016 225.222C694.016 226.753 693.3 228.105 691.729 228.105ZM702.389 223.074C702.021 221.99 701.196 221.264 699.685 221.264C698.074 221.264 696.881 222.179 696.881 223.472C696.881 224.526 697.507 225.232 698.909 225.56L700.182 225.858C700.952 226.037 701.315 226.405 701.315 226.932C701.315 227.588 700.619 228.125 699.526 228.125C698.566 228.125 697.964 227.712 697.756 226.892L696.642 227.17C696.915 228.468 697.984 229.159 699.545 229.159C701.32 229.159 702.528 228.19 702.528 226.872C702.528 225.808 701.862 225.137 700.5 224.804L699.366 224.526C698.462 224.302 698.054 223.999 698.054 223.412C698.054 222.756 698.75 222.278 699.685 222.278C700.709 222.278 701.131 222.845 701.335 223.372L702.389 223.074ZM707.616 221.364H705.985V219.534H704.812V221.364H703.658V222.358H704.812V227.131C704.812 228.463 705.885 229.099 706.88 229.099C707.317 229.099 707.596 229.02 707.755 228.96L707.516 227.906C707.417 227.926 707.258 227.966 706.999 227.966C706.482 227.966 705.985 227.807 705.985 226.812V222.358H707.616V221.364Z" fill="white"/>
<rect x="599" y="293" width="96" height="50" rx="25" fill="#73A97B"/>
<path d="M630.113 311.818H628.821L632.559 322H633.832L637.571 311.818H636.278L633.256 320.389H633.136L630.113 311.818ZM640.534 322.179C641.866 322.179 642.562 321.463 642.801 320.966H642.861V322H644.034V316.969C644.034 314.543 642.184 314.264 641.21 314.264C640.057 314.264 638.744 314.662 638.148 316.054L639.261 316.452C639.52 315.895 640.131 315.298 641.25 315.298C642.329 315.298 642.861 315.87 642.861 316.849V316.889C642.861 317.456 642.284 317.406 640.892 317.585C639.475 317.769 637.929 318.082 637.929 319.832C637.929 321.324 639.082 322.179 640.534 322.179ZM640.713 321.125C639.778 321.125 639.102 320.707 639.102 319.892C639.102 318.997 639.917 318.719 640.832 318.599C641.329 318.54 642.662 318.401 642.861 318.162V319.236C642.861 320.19 642.105 321.125 640.713 321.125ZM647.349 311.818H646.175V322H647.349V311.818ZM649.498 322H650.671V314.364H649.498V322ZM650.094 313.091C650.552 313.091 650.93 312.733 650.93 312.295C650.93 311.858 650.552 311.5 650.094 311.5C649.637 311.5 649.259 311.858 649.259 312.295C649.259 312.733 649.637 313.091 650.094 313.091ZM655.703 322.159C657.175 322.159 657.672 321.244 657.931 320.827H658.07V322H659.203V311.818H658.03V315.577H657.931C657.672 315.179 657.215 314.264 655.723 314.264C653.794 314.264 652.462 315.795 652.462 318.202C652.462 320.628 653.794 322.159 655.703 322.159ZM655.863 321.105C654.391 321.105 653.635 319.812 653.635 318.182C653.635 316.571 654.371 315.318 655.863 315.318C657.294 315.318 658.05 316.472 658.05 318.182C658.05 319.912 657.275 321.105 655.863 321.105ZM663.047 319.136H664.24V319.077C664.26 317.844 664.578 317.307 665.453 316.76C666.328 316.228 666.845 315.462 666.845 314.364C666.845 312.812 665.711 311.679 663.961 311.679C662.35 311.679 661.073 312.673 660.998 314.364H662.251C662.326 313.19 663.146 312.713 663.961 312.713C664.896 312.713 665.652 313.33 665.652 314.304C665.652 315.094 665.199 315.661 664.618 316.014C663.643 316.606 663.061 317.183 663.047 319.077V319.136ZM663.683 322.08C664.175 322.08 664.578 321.677 664.578 321.185C664.578 320.692 664.175 320.29 663.683 320.29C663.191 320.29 662.788 320.692 662.788 321.185C662.788 321.677 663.191 322.08 663.683 322.08Z" fill="white"/>
<path d="M575 226L570 223.113L570 228.887L575 226ZM262 226.5L264.006 226.5L264.006 225.5L262 225.5L262 226.5ZM268.019 226.5L272.032 226.5L272.032 225.5L268.019 225.5L268.019 226.5ZM276.045 226.5L280.058 226.5L280.058 225.5L276.045 225.5L276.045 226.5ZM284.071 226.5L288.083 226.5L288.083 225.5L284.071 225.5L284.071 226.5ZM292.096 226.5L296.109 226.5L296.109 225.5L292.096 225.5L292.096 226.5ZM300.122 226.5L304.135 226.5L304.135 225.5L300.122 225.5L300.122 226.5ZM308.147 226.5L312.16 226.5L312.16 225.5L308.147 225.5L308.147 226.5ZM316.173 226.5L320.186 226.5L320.186 225.5L316.173 225.5L316.173 226.5ZM324.199 226.5L328.212 226.5L328.212 225.5L324.199 225.5L324.199 226.5ZM332.224 226.5L336.237 226.5L336.237 225.5L332.224 225.5L332.224 226.5ZM340.25 226.5L344.263 226.5L344.263 225.5L340.25 225.5L340.25 226.5ZM348.276 226.5L352.288 226.5L352.288 225.5L348.276 225.5L348.276 226.5ZM356.301 226.5L360.314 226.5L360.314 225.5L356.301 225.5L356.301 226.5ZM364.327 226.5L368.34 226.5L368.34 225.5L364.327 225.5L364.327 226.5ZM372.353 226.5L376.365 226.5L376.365 225.5L372.353 225.5L372.353 226.5ZM380.378 226.5L384.391 226.5L384.391 225.5L380.378 225.5L380.378 226.5ZM388.404 226.5L392.417 226.5L392.417 225.5L388.404 225.5L388.404 226.5ZM396.429 226.5L400.442 226.5L400.442 225.5L396.429 225.5L396.429 226.5ZM404.455 226.5L408.468 226.5L408.468 225.5L404.455 225.5L404.455 226.5ZM412.481 226.5L416.494 226.5L416.494 225.5L412.481 225.5L412.481 226.5ZM420.506 226.5L424.519 226.5L424.519 225.5L420.506 225.5L420.506 226.5ZM428.532 226.5L432.545 226.5L432.545 225.5L428.532 225.5L428.532 226.5ZM436.558 226.5L440.57 226.5L440.57 225.5L436.558 225.5L436.558 226.5ZM444.583 226.5L448.596 226.5L448.596 225.5L444.583 225.5L444.583 226.5ZM452.609 226.5L456.622 226.5L456.622 225.5L452.609 225.5L452.609 226.5ZM460.635 226.5L464.647 226.5L464.647 225.5L460.635 225.5L460.635 226.5ZM468.66 226.5L472.673 226.5L472.673 225.5L468.66 225.5L468.66 226.5ZM476.686 226.5L480.699 226.5L480.699 225.5L476.686 225.5L476.686 226.5ZM484.711 226.5L488.724 226.5L488.724 225.5L484.711 225.5L484.711 226.5ZM492.737 226.5L496.75 226.5L496.75 225.5L492.737 225.5L492.737 226.5ZM500.763 226.5L504.776 226.5L504.776 225.5L500.763 225.5L500.763 226.5ZM508.788 226.5L512.801 226.5L512.801 225.5L508.788 225.5L508.788 226.5ZM516.814 226.5L520.827 226.5L520.827 225.5L516.814 225.5L516.814 226.5ZM524.84 226.5L528.852 226.5L528.852 225.5L524.84 225.5L524.84 226.5ZM532.865 226.5L536.878 226.5L536.878 225.5L532.865 225.5L532.865 226.5ZM540.891 226.5L544.904 226.5L544.904 225.5L540.891 225.5L540.891 226.5ZM548.917 226.5L552.929 226.5L552.929 225.5L548.917 225.5L548.917 226.5ZM556.942 226.5L560.955 226.5L560.955 225.5L556.942 225.5L556.942 226.5ZM564.968 226.5L568.981 226.5L568.981 225.5L564.968 225.5L564.968 226.5ZM575 226L565 220.227L565 231.774L575 226ZM262 227L264.006 227L264.006 225L262 225L262 227ZM268.019 227L272.032 227L272.032 225L268.019 225L268.019 227ZM276.045 227L280.058 227L280.058 225L276.045 225L276.045 227ZM284.071 227L288.083 227L288.083 225L284.071 225L284.071 227ZM292.096 227L296.109 227L296.109 225L292.096 225L292.096 227ZM300.122 227L304.135 227L304.135 225L300.122 225L300.122 227ZM308.147 227L312.16 227L312.16 225L308.147 225L308.147 227ZM316.173 227L320.186 227L320.186 225L316.173 225L316.173 227ZM324.199 227L328.212 227L328.212 225L324.199 225L324.199 227ZM332.224 227L336.237 227L336.237 225L332.224 225L332.224 227ZM340.25 227L344.263 227L344.263 225L340.25 225L340.25 227ZM348.276 227L352.288 227L352.288 225L348.276 225L348.276 227ZM356.301 227L360.314 227L360.314 225L356.301 225L356.301 227ZM364.327 227L368.34 227L368.34 225L364.327 225L364.327 227ZM372.353 227L376.365 227L376.365 225L372.353 225L372.353 227ZM380.378 227L384.391 227L384.391 225L380.378 225L380.378 227ZM388.404 227L392.417 227L392.417 225L388.404 225L388.404 227ZM396.429 227L400.442 227L400.442 225L396.429 225L396.429 227ZM404.455 227L408.468 227L408.468 225L404.455 225L404.455 227ZM412.481 227L416.494 227L416.494 225L412.481 225L412.481 227ZM420.506 227L424.519 227L424.519 225L420.506 225L420.506 227ZM428.532 227L432.545 227L432.545 225L428.532 225L428.532 227ZM436.558 227L440.57 227L440.57 225L436.558 225L436.558 227ZM444.583 227L448.596 227L448.596 225L444.583 225L444.583 227ZM452.609 227L456.622 227L456.622 225L452.609 225L452.609 227ZM460.635 227L464.647 227L464.647 225L460.635 225L460.635 227ZM468.66 227L472.673 227L472.673 225L468.66 225L468.66 227ZM476.686 227L480.699 227L480.699 225L476.686 225L476.686 227ZM484.711 227L488.724 227L488.724 225L484.711 225L484.711 227ZM492.737 227L496.75 227L496.75 225L492.737 225L492.737 227ZM500.763 227L504.776 227L504.776 225L500.763 225L500.763 227ZM508.788 227L512.801 227L512.801 225L508.788 225L508.788 227ZM516.814 227L520.827 227L520.827 225L516.814 225L516.814 227ZM524.84 227L528.852 227L528.852 225L524.84 225L524.84 227ZM532.865 227L536.878 227L536.878 225L532.865 225L532.865 227ZM540.891 227L544.904 227L544.904 225L540.891 225L540.891 227ZM548.917 227L552.929 227L552.929 225L548.917 225L548.917 227ZM556.942 227L560.955 227L560.955 225L556.942 225L556.942 227ZM564.968 227L568.981 227L568.981 225L564.968 225L564.968 227Z" fill="#369FAB"/>
<path d="M216 201L221.774 191L210.226 191L216 201ZM215 148L215 192L217 192L217 148L215 148Z" fill="#7CA2C1"/>
<path d="M647 293L652.774 283L641.226 283L647 293ZM646 251L646 284L648 284L648 251L646 251Z" fill="#4079A2"/>
<path d="M647 387L652.774 377L641.226 377L647 387ZM646 343L646 378L648 378L648 343L646 343Z" fill="#73A97B"/>
<path d="M751 318L741 312.226V323.774L751 318ZM695 319H742V317H695V319Z" fill="#C56550"/>
<path d="M235.874 166.364H237.068C237.013 164.827 235.596 163.679 233.627 163.679C231.678 163.679 230.147 164.812 230.147 166.523C230.147 167.895 231.141 168.71 232.732 169.168L233.985 169.526C235.059 169.824 236.014 170.202 236.014 171.216C236.014 172.33 234.94 173.065 233.528 173.065C232.315 173.065 231.241 172.528 231.141 171.375H229.869C229.988 173.045 231.34 174.179 233.528 174.179C235.874 174.179 237.207 172.886 237.207 171.236C237.207 169.327 235.397 168.71 234.343 168.432L233.309 168.153C232.553 167.955 231.34 167.557 231.34 166.463C231.34 165.489 232.235 164.773 233.587 164.773C234.82 164.773 235.755 165.359 235.874 166.364ZM242.277 174.159C243.828 174.159 244.961 173.384 245.319 172.23L244.186 171.912C243.887 172.707 243.196 173.105 242.277 173.105C240.899 173.105 239.95 172.215 239.895 170.58H245.438V170.082C245.438 167.239 243.748 166.264 242.157 166.264C240.089 166.264 238.717 167.895 238.717 170.241C238.717 172.588 240.069 174.159 242.277 174.159ZM239.895 169.565C239.975 168.377 240.815 167.318 242.157 167.318C243.43 167.318 244.245 168.273 244.245 169.565H239.895ZM248.397 169.406C248.397 168.074 249.222 167.318 250.345 167.318C251.434 167.318 252.095 168.029 252.095 169.227V174H253.269V169.148C253.269 167.199 252.23 166.264 250.684 166.264C249.53 166.264 248.814 166.781 248.456 167.557H248.357V166.364H247.223V174H248.397V169.406ZM258.296 174.159C259.768 174.159 260.265 173.244 260.524 172.827H260.663V174H261.796V163.818H260.623V167.577H260.524C260.265 167.179 259.808 166.264 258.316 166.264C256.387 166.264 255.055 167.795 255.055 170.202C255.055 172.628 256.387 174.159 258.296 174.159ZM258.455 173.105C256.984 173.105 256.228 171.812 256.228 170.182C256.228 168.571 256.964 167.318 258.455 167.318C259.887 167.318 260.643 168.472 260.643 170.182C260.643 171.912 259.867 173.105 258.455 173.105ZM267.31 174.159C268.861 174.159 269.994 173.384 270.352 172.23L269.219 171.912C268.921 172.707 268.229 173.105 267.31 173.105C265.933 173.105 264.983 172.215 264.928 170.58H270.472V170.082C270.472 167.239 268.781 166.264 267.19 166.264C265.122 166.264 263.75 167.895 263.75 170.241C263.75 172.588 265.102 174.159 267.31 174.159ZM264.928 169.565C265.008 168.377 265.848 167.318 267.19 167.318C268.463 167.318 269.278 168.273 269.278 169.565H264.928ZM272.256 174H273.43V169.168C273.43 168.134 274.245 167.378 275.359 167.378C275.672 167.378 275.995 167.438 276.075 167.457V166.264C275.94 166.254 275.632 166.244 275.458 166.244C274.543 166.244 273.748 166.761 273.47 167.517H273.39V166.364H272.256V174ZM281.403 174H282.576V166.364H281.403V174ZM282 165.091C282.457 165.091 282.835 164.733 282.835 164.295C282.835 163.858 282.457 163.5 282 163.5C281.542 163.5 281.164 163.858 281.164 164.295C281.164 164.733 281.542 165.091 282 165.091ZM285.899 169.406C285.899 168.074 286.724 167.318 287.847 167.318C288.936 167.318 289.597 168.029 289.597 169.227V174H290.771V169.148C290.771 167.199 289.732 166.264 288.185 166.264C287.032 166.264 286.316 166.781 285.958 167.557H285.859V166.364H284.725V174H285.899V169.406ZM292.915 174H294.088V166.364H292.915V174ZM293.511 165.091C293.969 165.091 294.347 164.733 294.347 164.295C294.347 163.858 293.969 163.5 293.511 163.5C293.054 163.5 292.676 163.858 292.676 164.295C292.676 164.733 293.054 165.091 293.511 165.091ZM299.558 166.364H297.927V164.534H296.754V166.364H295.601V167.358H296.754V172.131C296.754 173.463 297.828 174.099 298.822 174.099C299.26 174.099 299.538 174.02 299.697 173.96L299.459 172.906C299.359 172.926 299.2 172.966 298.941 172.966C298.424 172.966 297.927 172.807 297.927 171.812V167.358H299.558V166.364ZM301.323 174H302.496V166.364H301.323V174ZM301.919 165.091C302.377 165.091 302.755 164.733 302.755 164.295C302.755 163.858 302.377 163.5 301.919 163.5C301.462 163.5 301.084 163.858 301.084 164.295C301.084 164.733 301.462 165.091 301.919 165.091ZM306.892 174.179C308.225 174.179 308.921 173.463 309.159 172.966H309.219V174H310.392V168.969C310.392 166.543 308.543 166.264 307.568 166.264C306.415 166.264 305.103 166.662 304.506 168.054L305.62 168.452C305.878 167.895 306.49 167.298 307.608 167.298C308.687 167.298 309.219 167.87 309.219 168.849V168.889C309.219 169.456 308.642 169.406 307.25 169.585C305.833 169.769 304.287 170.082 304.287 171.832C304.287 173.324 305.441 174.179 306.892 174.179ZM307.071 173.125C306.137 173.125 305.46 172.707 305.46 171.892C305.46 170.997 306.276 170.719 307.191 170.599C307.688 170.54 309.02 170.401 309.219 170.162V171.236C309.219 172.19 308.463 173.125 307.071 173.125ZM315.855 166.364H314.224V164.534H313.051V166.364H311.897V167.358H313.051V172.131C313.051 173.463 314.125 174.099 315.119 174.099C315.557 174.099 315.835 174.02 315.994 173.96L315.755 172.906C315.656 172.926 315.497 172.966 315.238 172.966C314.721 172.966 314.224 172.807 314.224 171.812V167.358H315.855V166.364ZM320.739 174.159C322.291 174.159 323.424 173.384 323.782 172.23L322.649 171.912C322.35 172.707 321.659 173.105 320.739 173.105C319.362 173.105 318.413 172.215 318.358 170.58H323.901V170.082C323.901 167.239 322.211 166.264 320.62 166.264C318.552 166.264 317.18 167.895 317.18 170.241C317.18 172.588 318.532 174.159 320.739 174.159ZM318.358 169.565C318.438 168.377 319.278 167.318 320.62 167.318C321.893 167.318 322.708 168.273 322.708 169.565H318.358ZM331.095 168.074C330.727 166.99 329.902 166.264 328.391 166.264C326.78 166.264 325.587 167.179 325.587 168.472C325.587 169.526 326.213 170.232 327.615 170.56L328.888 170.858C329.658 171.037 330.021 171.405 330.021 171.932C330.021 172.588 329.325 173.125 328.232 173.125C327.272 173.125 326.671 172.712 326.462 171.892L325.348 172.17C325.622 173.468 326.69 174.159 328.252 174.159C330.026 174.159 331.234 173.19 331.234 171.872C331.234 170.808 330.568 170.137 329.206 169.804L328.073 169.526C327.168 169.302 326.76 168.999 326.76 168.412C326.76 167.756 327.456 167.278 328.391 167.278C329.415 167.278 329.837 167.845 330.041 168.372L331.095 168.074Z" fill="#7CA2C1"/>
<path d="M712.476 308.406C712.476 307.074 713.301 306.318 714.425 306.318C715.513 306.318 716.175 307.029 716.175 308.227V313H717.348V308.148C717.348 306.199 716.309 305.264 714.763 305.264C713.609 305.264 712.893 305.781 712.535 306.557H712.436V305.364H711.302V313H712.476V308.406ZM722.594 313.159C724.662 313.159 726.054 311.588 726.054 309.222C726.054 306.835 724.662 305.264 722.594 305.264C720.526 305.264 719.134 306.835 719.134 309.222C719.134 311.588 720.526 313.159 722.594 313.159ZM722.594 312.105C721.023 312.105 720.307 310.753 720.307 309.222C720.307 307.69 721.023 306.318 722.594 306.318C724.165 306.318 724.881 307.69 724.881 309.222C724.881 310.753 724.165 312.105 722.594 312.105Z" fill="#C56550"/>
<path d="M655.831 367.864C656.89 367.864 657.636 367.302 658.079 366.114L661.33 357.384L660.047 357.364L657.939 363.449H657.86L655.752 357.364H654.479L657.303 365.04L657.084 365.636C656.657 366.8 656.13 366.909 655.275 366.69L654.976 367.724C655.096 367.784 655.434 367.864 655.831 367.864ZM665.811 365.159C667.362 365.159 668.495 364.384 668.853 363.23L667.72 362.912C667.422 363.707 666.73 364.105 665.811 364.105C664.434 364.105 663.484 363.215 663.429 361.58H668.973V361.082C668.973 358.239 667.282 357.264 665.691 357.264C663.623 357.264 662.251 358.895 662.251 361.241C662.251 363.588 663.603 365.159 665.811 365.159ZM663.429 360.565C663.509 359.377 664.349 358.318 665.691 358.318C666.964 358.318 667.779 359.273 667.779 360.565H663.429ZM676.167 359.074C675.799 357.99 674.973 357.264 673.462 357.264C671.851 357.264 670.658 358.179 670.658 359.472C670.658 360.526 671.284 361.232 672.686 361.56L673.959 361.858C674.73 362.037 675.093 362.405 675.093 362.932C675.093 363.588 674.397 364.125 673.303 364.125C672.343 364.125 671.742 363.712 671.533 362.892L670.419 363.17C670.693 364.468 671.762 365.159 673.323 365.159C675.098 365.159 676.306 364.19 676.306 362.872C676.306 361.808 675.64 361.137 674.277 360.804L673.144 360.526C672.239 360.302 671.831 359.999 671.831 359.412C671.831 358.756 672.527 358.278 673.462 358.278C674.486 358.278 674.909 358.845 675.113 359.372L676.167 359.074Z" fill="#73A97B"/>
<path d="M748.458 361H749.691V357.281H751.918C754.289 357.281 755.358 355.839 755.358 354.04C755.358 352.24 754.289 350.818 751.898 350.818H748.458V361ZM749.691 356.188V351.912H751.858C753.514 351.912 754.145 352.817 754.145 354.04C754.145 355.263 753.514 356.188 751.878 356.188H749.691ZM757.185 361H758.358V356.168C758.358 355.134 759.174 354.378 760.287 354.378C760.601 354.378 760.924 354.438 761.003 354.457V353.264C760.869 353.254 760.561 353.244 760.387 353.244C759.472 353.244 758.677 353.761 758.398 354.517H758.319V353.364H757.185V361ZM765.264 361.159C767.332 361.159 768.724 359.588 768.724 357.222C768.724 354.835 767.332 353.264 765.264 353.264C763.196 353.264 761.804 354.835 761.804 357.222C761.804 359.588 763.196 361.159 765.264 361.159ZM765.264 360.105C763.693 360.105 762.977 358.753 762.977 357.222C762.977 355.69 763.693 354.318 765.264 354.318C766.835 354.318 767.551 355.69 767.551 357.222C767.551 358.753 766.835 360.105 765.264 360.105ZM770.674 361H771.808V359.827H771.947C772.206 360.244 772.703 361.159 774.174 361.159C776.083 361.159 777.416 359.628 777.416 357.202C777.416 354.795 776.083 353.264 774.154 353.264C772.663 353.264 772.206 354.179 771.947 354.577H771.848V350.818H770.674V361ZM771.828 357.182C771.828 355.472 772.583 354.318 774.015 354.318C775.507 354.318 776.243 355.571 776.243 357.182C776.243 358.812 775.487 360.105 774.015 360.105C772.603 360.105 771.828 358.912 771.828 357.182ZM780.384 350.818H779.211V361H780.384V350.818ZM785.735 361.159C787.286 361.159 788.419 360.384 788.777 359.23L787.644 358.912C787.345 359.707 786.654 360.105 785.735 360.105C784.357 360.105 783.408 359.215 783.353 357.58H788.896V357.082C788.896 354.239 787.206 353.264 785.615 353.264C783.547 353.264 782.175 354.895 782.175 357.241C782.175 359.588 783.527 361.159 785.735 361.159ZM783.353 356.565C783.433 355.377 784.273 354.318 785.615 354.318C786.888 354.318 787.703 355.273 787.703 356.565H783.353ZM790.681 361H791.855V356.227C791.855 355.109 792.67 354.318 793.585 354.318C794.475 354.318 795.096 354.9 795.096 355.77V361H796.289V356.028C796.289 355.044 796.906 354.318 797.98 354.318C798.815 354.318 799.531 354.761 799.531 355.889V361H800.704V355.889C800.704 354.094 799.74 353.264 798.377 353.264C797.284 353.264 796.483 353.766 796.09 354.557H796.011C795.633 353.741 794.967 353.264 793.963 353.264C792.968 353.264 792.232 353.741 791.914 354.557H791.815V353.364H790.681V361ZM753.393 378H754.626V374.023H756.853C756.943 374.023 757.027 374.023 757.112 374.018L759.26 378H760.691L758.39 373.794C759.687 373.352 760.294 372.293 760.294 370.94C760.294 369.141 759.22 367.818 756.833 367.818H753.393V378ZM754.626 372.909V368.912H756.794C758.444 368.912 759.081 369.717 759.081 370.94C759.081 372.163 758.444 372.909 756.814 372.909H754.626ZM765.309 378.159C766.86 378.159 767.993 377.384 768.351 376.23L767.218 375.912C766.92 376.707 766.229 377.105 765.309 377.105C763.932 377.105 762.982 376.215 762.927 374.58H768.471V374.082C768.471 371.239 766.78 370.264 765.189 370.264C763.121 370.264 761.749 371.895 761.749 374.241C761.749 376.588 763.101 378.159 765.309 378.159ZM762.927 373.565C763.007 372.377 763.847 371.318 765.189 371.318C766.462 371.318 767.278 372.273 767.278 373.565H762.927ZM770.256 380.864H771.429V376.827H771.528C771.787 377.244 772.284 378.159 773.756 378.159C775.665 378.159 776.997 376.628 776.997 374.202C776.997 371.795 775.665 370.264 773.736 370.264C772.244 370.264 771.787 371.179 771.528 371.577H771.389V370.364H770.256V380.864ZM771.409 374.182C771.409 372.472 772.165 371.318 773.596 371.318C775.088 371.318 775.824 372.571 775.824 374.182C775.824 375.812 775.068 377.105 773.596 377.105C772.184 377.105 771.409 375.912 771.409 374.182ZM781.889 378.159C783.957 378.159 785.349 376.588 785.349 374.222C785.349 371.835 783.957 370.264 781.889 370.264C779.821 370.264 778.429 371.835 778.429 374.222C778.429 376.588 779.821 378.159 781.889 378.159ZM781.889 377.105C780.318 377.105 779.602 375.753 779.602 374.222C779.602 372.69 780.318 371.318 781.889 371.318C783.46 371.318 784.176 372.69 784.176 374.222C784.176 375.753 783.46 377.105 781.889 377.105ZM787.14 378H788.314V373.168C788.314 372.134 789.129 371.378 790.243 371.378C790.556 371.378 790.879 371.438 790.958 371.457V370.264C790.824 370.254 790.516 370.244 790.342 370.244C789.427 370.244 788.632 370.761 788.353 371.517H788.274V370.364H787.14V378ZM796.149 370.364H794.518V368.534H793.345V370.364H792.191V371.358H793.345V376.131C793.345 377.463 794.419 378.099 795.413 378.099C795.85 378.099 796.129 378.02 796.288 377.96L796.049 376.906C795.95 376.926 795.791 376.966 795.532 376.966C795.015 376.966 794.518 376.807 794.518 375.812V371.358H796.149V370.364Z" fill="#C56550"/>
<circle cx="775.5" cy="318.5" r="23.5" stroke="#C56550" stroke-width="2" stroke-linecap="round" stroke-dasharray="4 4"/>
<rect x="759" y="308" width="33" height="21" rx="3" fill="#C56550" stroke="#111F3B" stroke-width="2"/>
<path d="M759 309L773.813 322.186C774.969 323.215 776.717 323.196 777.85 322.143L792 309" stroke="#111F3B" stroke-width="2" stroke-linejoin="round"/>
</svg>
