<svg width="862" height="940" viewBox="0 0 862 940" fill="none" xmlns="http://www.w3.org/2000/svg">
<rect x="0.5" y="0.5" width="861" height="939" fill="#111F3B" stroke="#293856"/>
<path d="M153.921 49.1911H157.929V60H160.665V49.1911H164.673V46.9091H153.921V49.1911ZM165.373 60H168.096V54.4453C168.096 53.2372 168.978 52.4062 170.18 52.4062C170.557 52.4062 171.074 52.4702 171.33 52.5533V50.1371C171.087 50.0795 170.748 50.0412 170.474 50.0412C169.374 50.0412 168.473 50.6804 168.115 51.8949H168.013V50.1818H165.373V60ZM179.034 55.8196C179.041 57.1364 178.139 57.8267 177.161 57.8267C176.132 57.8267 175.467 57.1044 175.461 55.9474V50.1818H172.738V56.4332C172.744 58.728 174.087 60.1278 176.062 60.1278C177.538 60.1278 178.6 59.3672 179.041 58.2166H179.143V60H181.757V50.1818H179.034V55.8196ZM192.104 52.9815C191.861 51.1726 190.404 50.054 187.924 50.054C185.412 50.054 183.756 51.2173 183.763 53.1094C183.756 54.5795 184.683 55.532 186.601 55.9155L188.301 56.2543C189.158 56.4268 189.547 56.7401 189.56 57.2322C189.547 57.8139 188.915 58.2294 187.962 58.2294C186.991 58.2294 186.345 57.8139 186.179 57.0149L183.501 57.1555C183.756 59.0348 185.354 60.1918 187.956 60.1918C190.5 60.1918 192.322 58.8942 192.328 56.9574C192.322 55.5384 191.395 54.6882 189.49 54.2983L187.713 53.9403C186.799 53.7422 186.46 53.429 186.467 52.956C186.46 52.3679 187.125 51.9844 187.969 51.9844C188.915 51.9844 189.477 52.5021 189.611 53.1349L192.104 52.9815ZM199.265 50.1818H197.418V47.8295H194.695V50.1818H193.352V52.2273H194.695V57.3409C194.682 59.2649 195.992 60.2173 197.967 60.1342C198.671 60.1087 199.169 59.968 199.444 59.8786L199.016 57.8523C198.881 57.8778 198.594 57.9418 198.338 57.9418C197.795 57.9418 197.418 57.7372 197.418 56.983V52.2273H199.265V50.1818ZM205.408 60.1918C207.837 60.1918 209.473 59.0092 209.857 57.1875L207.338 57.0213C207.063 57.7692 206.36 58.1591 205.453 58.1591C204.091 58.1591 203.228 57.2578 203.228 55.794V55.7876H209.914V55.0398C209.914 51.7031 207.894 50.054 205.299 50.054C202.41 50.054 200.537 52.1058 200.537 55.1357C200.537 58.2486 202.384 60.1918 205.408 60.1918ZM203.228 54.1001C203.286 52.9815 204.136 52.0866 205.344 52.0866C206.526 52.0866 207.345 52.9304 207.351 54.1001H203.228ZM215.309 60.1598C216.894 60.1598 217.719 59.2457 218.096 58.4276H218.211V60H220.896V46.9091H218.179V51.831H218.096C217.732 51.032 216.945 50.054 215.303 50.054C213.149 50.054 211.327 51.7287 211.327 55.1037C211.327 58.3892 213.072 60.1598 215.309 60.1598ZM216.172 57.9929C214.836 57.9929 214.107 56.804 214.107 55.0909C214.107 53.3906 214.823 52.2209 216.172 52.2209C217.495 52.2209 218.237 53.3395 218.237 55.0909C218.237 56.8423 217.482 57.9929 216.172 57.9929ZM229.252 53.544H223.282V55.7045H229.252V53.544ZM231.623 60H234.391V55.7557H236.718C239.728 55.7557 241.48 53.9595 241.48 51.3452C241.48 48.7436 239.76 46.9091 236.788 46.9091H231.623V60ZM234.391 53.5376V49.1719H236.257C237.855 49.1719 238.629 50.0412 238.629 51.3452C238.629 52.6428 237.855 53.5376 236.27 53.5376H234.391ZM245.762 60.1854C247.213 60.1854 248.153 59.5526 248.632 58.6385H248.709V60H251.291V53.3778C251.291 51.0384 249.31 50.054 247.124 50.054C244.772 50.054 243.225 51.179 242.848 52.9688L245.366 53.1733C245.551 52.5213 246.133 52.0419 247.111 52.0419C248.038 52.0419 248.568 52.5085 248.568 53.3139V53.3523C248.568 53.9851 247.897 54.0682 246.191 54.2344C244.247 54.4134 242.502 55.0653 242.502 57.2578C242.502 59.201 243.889 60.1854 245.762 60.1854ZM246.542 58.3061C245.705 58.3061 245.104 57.9162 245.104 57.1683C245.104 56.4013 245.737 56.0241 246.696 55.8899C247.29 55.8068 248.262 55.6662 248.588 55.4489V56.4908C248.588 57.5199 247.737 58.3061 246.542 58.3061ZM253.404 60H256.127V54.4453C256.127 53.2372 257.009 52.4062 258.211 52.4062C258.588 52.4062 259.106 52.4702 259.361 52.5533V50.1371C259.119 50.0795 258.78 50.0412 258.505 50.0412C257.405 50.0412 256.504 50.6804 256.146 51.8949H256.044V50.1818H253.404V60ZM266.484 50.1818H264.636V47.8295H261.913V50.1818H260.571V52.2273H261.913V57.3409C261.901 59.2649 263.211 60.2173 265.186 60.1342C265.889 60.1087 266.388 59.968 266.663 59.8786L266.234 57.8523C266.1 57.8778 265.813 57.9418 265.557 57.9418C265.014 57.9418 264.636 57.7372 264.636 56.983V52.2273H266.484V50.1818ZM269.939 63.6818C271.965 63.6818 273.039 62.6463 273.595 61.0611L277.411 50.1946L274.528 50.1818L272.476 57.392H272.374L270.341 50.1818H267.478L271 60.2812L270.84 60.6967C270.482 61.6172 269.798 61.6619 268.839 61.3679L268.226 63.4006C268.616 63.5668 269.248 63.6818 269.939 63.6818Z" fill="#4079A2"/>
<path d="M612.349 60H615.116V55.3594H617.136L619.616 60H622.672L619.891 54.9119C621.381 54.2727 622.205 52.9751 622.205 51.1854C622.205 48.5838 620.486 46.9091 617.513 46.9091H612.349V60ZM615.116 53.1349V49.1719H616.983C618.581 49.1719 619.354 49.8814 619.354 51.1854C619.354 52.483 618.581 53.1349 616.996 53.1349H615.116ZM628.426 60.1918C630.855 60.1918 632.492 59.0092 632.875 57.1875L630.357 57.0213C630.082 57.7692 629.379 58.1591 628.471 58.1591C627.11 58.1591 626.247 57.2578 626.247 55.794V55.7876H632.933V55.0398C632.933 51.7031 630.913 50.054 628.318 50.054C625.428 50.054 623.556 52.1058 623.556 55.1357C623.556 58.2486 625.403 60.1918 628.426 60.1918ZM626.247 54.1001C626.304 52.9815 627.154 52.0866 628.362 52.0866C629.545 52.0866 630.363 52.9304 630.369 54.1001H626.247ZM643.582 50.1818H640.699L638.666 57.2067H638.564L636.525 50.1818H633.649L637.081 60H640.149L643.582 50.1818ZM649.077 60.1918C652.056 60.1918 653.91 58.1527 653.91 55.1293C653.91 52.0866 652.056 50.054 649.077 50.054C646.099 50.054 644.245 52.0866 644.245 55.1293C644.245 58.1527 646.099 60.1918 649.077 60.1918ZM649.09 58.0824C647.716 58.0824 647.013 56.8232 647.013 55.1101C647.013 53.397 647.716 52.1314 649.09 52.1314C650.439 52.1314 651.142 53.397 651.142 55.1101C651.142 56.8232 650.439 58.0824 649.09 58.0824ZM655.68 60H658.403V56.8807L659.138 56.0433L661.817 60H665.006L661.178 54.4325L664.821 50.1818H661.695L658.55 53.9084H658.403V46.9091H655.68V60ZM670.227 60.1918C672.656 60.1918 674.292 59.0092 674.676 57.1875L672.157 57.0213C671.883 57.7692 671.18 58.1591 670.272 58.1591C668.91 58.1591 668.047 57.2578 668.047 55.794V55.7876H674.733V55.0398C674.733 51.7031 672.714 50.054 670.118 50.054C667.229 50.054 665.356 52.1058 665.356 55.1357C665.356 58.2486 667.204 60.1918 670.227 60.1918ZM668.047 54.1001C668.105 52.9815 668.955 52.0866 670.163 52.0866C671.346 52.0866 672.164 52.9304 672.17 54.1001H668.047ZM676.51 60H679.233V54.4453C679.233 53.2372 680.116 52.4062 681.317 52.4062C681.694 52.4062 682.212 52.4702 682.468 52.5533V50.1371C682.225 50.0795 681.886 50.0412 681.611 50.0412C680.512 50.0412 679.611 50.6804 679.253 51.8949H679.15V50.1818H676.51V60Z" fill="#4079A2"/>
<rect x="31.5" y="26.5" width="368" height="888" rx="8.5" stroke="#294C6F" stroke-width="3" stroke-dasharray="6 6"/>
<rect x="462.5" y="26.5" width="368" height="888" rx="8.5" stroke="#294C6F" stroke-width="3" stroke-dasharray="6 6"/>
<circle cx="216" cy="123" r="22" stroke="#7CA2C1" stroke-width="6"/>
<circle cx="216" cy="862" r="23.5" stroke="#369FAB" stroke-width="3" stroke-dasharray="6 6"/>
<circle cx="216" cy="862" r="17.5" stroke="#369FAB" stroke-width="3"/>
<rect x="121" y="201" width="189" height="50" rx="5" fill="#369FAB"/>
<rect x="132" y="215" width="33" height="21" rx="3" fill="white" stroke="#369FAB" stroke-width="2"/>
<path d="M132 216L146.813 229.186C147.969 230.215 149.717 230.196 150.85 229.143L165 216" stroke="#369FAB" stroke-width="2" stroke-linejoin="round"/>
<path d="M174.074 229H175.247V224.168C175.247 223.134 176.062 222.378 177.176 222.378C177.489 222.378 177.812 222.438 177.892 222.457V221.264C177.758 221.254 177.45 221.244 177.276 221.244C176.361 221.244 175.565 221.761 175.287 222.517H175.207V221.364H174.074V229ZM182.252 229.159C183.803 229.159 184.937 228.384 185.295 227.23L184.161 226.912C183.863 227.707 183.172 228.105 182.252 228.105C180.875 228.105 179.925 227.215 179.871 225.58H185.414V225.082C185.414 222.239 183.724 221.264 182.133 221.264C180.065 221.264 178.692 222.895 178.692 225.241C178.692 227.588 180.045 229.159 182.252 229.159ZM179.871 224.565C179.95 223.377 180.79 222.318 182.133 222.318C183.406 222.318 184.221 223.273 184.221 224.565H179.871ZM193.211 221.364H191.938L189.83 227.449H189.751L187.643 221.364H186.37L189.194 229H190.387L193.211 221.364ZM197.588 229.159C199.656 229.159 201.048 227.588 201.048 225.222C201.048 222.835 199.656 221.264 197.588 221.264C195.52 221.264 194.128 222.835 194.128 225.222C194.128 227.588 195.52 229.159 197.588 229.159ZM197.588 228.105C196.017 228.105 195.301 226.753 195.301 225.222C195.301 223.69 196.017 222.318 197.588 222.318C199.159 222.318 199.875 223.69 199.875 225.222C199.875 226.753 199.159 228.105 197.588 228.105ZM205.942 229.159C207.632 229.159 208.746 228.125 208.945 226.773H207.771C207.553 227.608 206.857 228.105 205.942 228.105C204.55 228.105 203.655 226.952 203.655 225.182C203.655 223.452 204.57 222.318 205.942 222.318C206.976 222.318 207.592 222.955 207.771 223.651H208.945C208.746 222.219 207.533 221.264 205.922 221.264C203.854 221.264 202.482 222.895 202.482 225.222C202.482 227.509 203.794 229.159 205.942 229.159ZM212.907 229.179C214.239 229.179 214.935 228.463 215.174 227.966H215.234V229H216.407V223.969C216.407 221.543 214.558 221.264 213.583 221.264C212.43 221.264 211.117 221.662 210.521 223.054L211.634 223.452C211.893 222.895 212.504 222.298 213.623 222.298C214.702 222.298 215.234 222.87 215.234 223.849V223.889C215.234 224.456 214.657 224.406 213.265 224.585C211.848 224.769 210.302 225.082 210.302 226.832C210.302 228.324 211.455 229.179 212.907 229.179ZM213.086 228.125C212.151 228.125 211.475 227.707 211.475 226.892C211.475 225.997 212.29 225.719 213.205 225.599C213.702 225.54 215.035 225.401 215.234 225.162V226.236C215.234 227.19 214.478 228.125 213.086 228.125ZM221.869 221.364H220.239V219.534H219.066V221.364H217.912V222.358H219.066V227.131C219.066 228.463 220.139 229.099 221.134 229.099C221.571 229.099 221.85 229.02 222.009 228.96L221.77 227.906C221.671 227.926 221.512 227.966 221.253 227.966C220.736 227.966 220.239 227.807 220.239 226.812V222.358H221.869V221.364ZM223.634 229H224.808V221.364H223.634V229ZM224.231 220.091C224.688 220.091 225.066 219.733 225.066 219.295C225.066 218.858 224.688 218.5 224.231 218.5C223.774 218.5 223.396 218.858 223.396 219.295C223.396 219.733 223.774 220.091 224.231 220.091ZM230.059 229.159C232.127 229.159 233.519 227.588 233.519 225.222C233.519 222.835 232.127 221.264 230.059 221.264C227.991 221.264 226.599 222.835 226.599 225.222C226.599 227.588 227.991 229.159 230.059 229.159ZM230.059 228.105C228.488 228.105 227.772 226.753 227.772 225.222C227.772 223.69 228.488 222.318 230.059 222.318C231.63 222.318 232.346 223.69 232.346 225.222C232.346 226.753 231.63 228.105 230.059 228.105ZM236.483 224.406C236.483 223.074 237.309 222.318 238.432 222.318C239.521 222.318 240.182 223.029 240.182 224.227V229H241.356V224.148C241.356 222.199 240.317 221.264 238.77 221.264C237.617 221.264 236.901 221.781 236.543 222.557H236.444V221.364H235.31V229H236.483V224.406ZM247.875 224.088H243.42V225.182H247.875V224.088ZM249.939 229H251.112V224.168C251.112 223.134 251.928 222.378 253.041 222.378C253.355 222.378 253.678 222.438 253.757 222.457V221.264C253.623 221.254 253.315 221.244 253.141 221.244C252.226 221.244 251.431 221.761 251.152 222.517H251.073V221.364H249.939V229ZM258.117 229.159C259.669 229.159 260.802 228.384 261.16 227.23L260.026 226.912C259.728 227.707 259.037 228.105 258.117 228.105C256.74 228.105 255.791 227.215 255.736 225.58H261.279V225.082C261.279 222.239 259.589 221.264 257.998 221.264C255.93 221.264 254.558 222.895 254.558 225.241C254.558 227.588 255.91 229.159 258.117 229.159ZM255.736 224.565C255.816 223.377 256.656 222.318 257.998 222.318C259.271 222.318 260.086 223.273 260.086 224.565H255.736ZM269.448 231.864V221.364H268.314V222.577H268.175C267.916 222.179 267.459 221.264 265.968 221.264C264.039 221.264 262.706 222.795 262.706 225.202C262.706 227.628 264.039 229.159 265.948 229.159C267.419 229.159 267.916 228.244 268.175 227.827H268.274V231.864H269.448ZM268.294 225.182C268.294 226.912 267.519 228.105 266.107 228.105C264.635 228.105 263.879 226.812 263.879 225.182C263.879 223.571 264.615 222.318 266.107 222.318C267.539 222.318 268.294 223.472 268.294 225.182ZM276.408 225.878C276.408 227.31 275.314 227.966 274.439 227.966C273.465 227.966 272.769 227.25 272.769 226.136V221.364H271.595V226.216C271.595 228.165 272.629 229.099 274.061 229.099C275.215 229.099 275.97 228.483 276.328 227.707H276.408V229H277.581V221.364H276.408V225.878ZM282.932 229.159C284.483 229.159 285.616 228.384 285.974 227.23L284.841 226.912C284.543 227.707 283.852 228.105 282.932 228.105C281.555 228.105 280.605 227.215 280.55 225.58H286.094V225.082C286.094 222.239 284.403 221.264 282.812 221.264C280.744 221.264 279.372 222.895 279.372 225.241C279.372 227.588 280.724 229.159 282.932 229.159ZM280.55 224.565C280.63 223.377 281.47 222.318 282.812 222.318C284.085 222.318 284.901 223.273 284.901 224.565H280.55ZM293.288 223.074C292.92 221.99 292.094 221.264 290.583 221.264C288.972 221.264 287.779 222.179 287.779 223.472C287.779 224.526 288.406 225.232 289.808 225.56L291.08 225.858C291.851 226.037 292.214 226.405 292.214 226.932C292.214 227.588 291.518 228.125 290.424 228.125C289.464 228.125 288.863 227.712 288.654 226.892L287.54 227.17C287.814 228.468 288.883 229.159 290.444 229.159C292.219 229.159 293.427 228.19 293.427 226.872C293.427 225.808 292.761 225.137 291.398 224.804L290.265 224.526C289.36 224.302 288.952 223.999 288.952 223.412C288.952 222.756 289.648 222.278 290.583 222.278C291.607 222.278 292.03 222.845 292.234 223.372L293.288 223.074ZM298.514 221.364H296.883V219.534H295.71V221.364H294.557V222.358H295.71V227.131C295.71 228.463 296.784 229.099 297.778 229.099C298.216 229.099 298.494 229.02 298.653 228.96L298.415 227.906C298.315 227.926 298.156 227.966 297.898 227.966C297.381 227.966 296.883 227.807 296.883 226.812V222.358H298.514V221.364Z" fill="white"/>
<rect x="547" y="743" width="199" height="50" rx="5" fill="#369FAB"/>
<rect x="558" y="757" width="33" height="21" rx="3" fill="white" stroke="#369FAB" stroke-width="2"/>
<path d="M558 758L572.813 771.186C573.969 772.215 575.717 772.196 576.85 771.143L591 758" stroke="#369FAB" stroke-width="2" stroke-linejoin="round"/>
<path d="M600.074 771H601.247V766.168C601.247 765.134 602.062 764.378 603.176 764.378C603.489 764.378 603.812 764.438 603.892 764.457V763.264C603.758 763.254 603.45 763.244 603.276 763.244C602.361 763.244 601.565 763.761 601.287 764.517H601.207V763.364H600.074V771ZM608.252 771.159C609.803 771.159 610.937 770.384 611.295 769.23L610.161 768.912C609.863 769.707 609.172 770.105 608.252 770.105C606.875 770.105 605.925 769.215 605.871 767.58H611.414V767.082C611.414 764.239 609.724 763.264 608.133 763.264C606.065 763.264 604.692 764.895 604.692 767.241C604.692 769.588 606.045 771.159 608.252 771.159ZM605.871 766.565C605.95 765.377 606.79 764.318 608.133 764.318C609.406 764.318 610.221 765.273 610.221 766.565H605.871ZM619.211 763.364H617.938L615.83 769.449H615.751L613.643 763.364H612.37L615.194 771H616.387L619.211 763.364ZM623.588 771.159C625.656 771.159 627.048 769.588 627.048 767.222C627.048 764.835 625.656 763.264 623.588 763.264C621.52 763.264 620.128 764.835 620.128 767.222C620.128 769.588 621.52 771.159 623.588 771.159ZM623.588 770.105C622.017 770.105 621.301 768.753 621.301 767.222C621.301 765.69 622.017 764.318 623.588 764.318C625.159 764.318 625.875 765.69 625.875 767.222C625.875 768.753 625.159 770.105 623.588 770.105ZM631.942 771.159C633.632 771.159 634.746 770.125 634.945 768.773H633.771C633.553 769.608 632.857 770.105 631.942 770.105C630.55 770.105 629.655 768.952 629.655 767.182C629.655 765.452 630.57 764.318 631.942 764.318C632.976 764.318 633.592 764.955 633.771 765.651H634.945C634.746 764.219 633.533 763.264 631.922 763.264C629.854 763.264 628.482 764.895 628.482 767.222C628.482 769.509 629.794 771.159 631.942 771.159ZM638.907 771.179C640.239 771.179 640.935 770.463 641.174 769.966H641.234V771H642.407V765.969C642.407 763.543 640.558 763.264 639.583 763.264C638.43 763.264 637.117 763.662 636.521 765.054L637.634 765.452C637.893 764.895 638.504 764.298 639.623 764.298C640.702 764.298 641.234 764.87 641.234 765.849V765.889C641.234 766.456 640.657 766.406 639.265 766.585C637.848 766.769 636.302 767.082 636.302 768.832C636.302 770.324 637.455 771.179 638.907 771.179ZM639.086 770.125C638.151 770.125 637.475 769.707 637.475 768.892C637.475 767.997 638.29 767.719 639.205 767.599C639.702 767.54 641.035 767.401 641.234 767.162V768.236C641.234 769.19 640.478 770.125 639.086 770.125ZM647.869 763.364H646.239V761.534H645.066V763.364H643.912V764.358H645.066V769.131C645.066 770.463 646.139 771.099 647.134 771.099C647.571 771.099 647.85 771.02 648.009 770.96L647.77 769.906C647.671 769.926 647.512 769.966 647.253 769.966C646.736 769.966 646.239 769.807 646.239 768.812V764.358H647.869V763.364ZM649.634 771H650.808V763.364H649.634V771ZM650.231 762.091C650.688 762.091 651.066 761.733 651.066 761.295C651.066 760.858 650.688 760.5 650.231 760.5C649.774 760.5 649.396 760.858 649.396 761.295C649.396 761.733 649.774 762.091 650.231 762.091ZM656.059 771.159C658.127 771.159 659.519 769.588 659.519 767.222C659.519 764.835 658.127 763.264 656.059 763.264C653.991 763.264 652.599 764.835 652.599 767.222C652.599 769.588 653.991 771.159 656.059 771.159ZM656.059 770.105C654.488 770.105 653.772 768.753 653.772 767.222C653.772 765.69 654.488 764.318 656.059 764.318C657.63 764.318 658.346 765.69 658.346 767.222C658.346 768.753 657.63 770.105 656.059 770.105ZM662.483 766.406C662.483 765.074 663.309 764.318 664.432 764.318C665.521 764.318 666.182 765.029 666.182 766.227V771H667.356V766.148C667.356 764.199 666.317 763.264 664.77 763.264C663.617 763.264 662.901 763.781 662.543 764.557H662.444V763.364H661.31V771H662.483V766.406ZM673.875 766.088H669.42V767.182H673.875V766.088ZM675.939 771H677.112V766.168C677.112 765.134 677.928 764.378 679.041 764.378C679.355 764.378 679.678 764.438 679.757 764.457V763.264C679.623 763.254 679.315 763.244 679.141 763.244C678.226 763.244 677.431 763.761 677.152 764.517H677.073V763.364H675.939V771ZM684.117 771.159C685.669 771.159 686.802 770.384 687.16 769.23L686.026 768.912C685.728 769.707 685.037 770.105 684.117 770.105C682.74 770.105 681.791 769.215 681.736 767.58H687.279V767.082C687.279 764.239 685.589 763.264 683.998 763.264C681.93 763.264 680.558 764.895 680.558 767.241C680.558 769.588 681.91 771.159 684.117 771.159ZM681.736 766.565C681.816 765.377 682.656 764.318 683.998 764.318C685.271 764.318 686.086 765.273 686.086 766.565H681.736ZM694.473 765.074C694.105 763.99 693.28 763.264 691.769 763.264C690.158 763.264 688.965 764.179 688.965 765.472C688.965 766.526 689.591 767.232 690.993 767.56L692.266 767.858C693.036 768.037 693.399 768.405 693.399 768.932C693.399 769.588 692.703 770.125 691.61 770.125C690.65 770.125 690.048 769.712 689.84 768.892L688.726 769.17C688.999 770.468 690.068 771.159 691.629 771.159C693.404 771.159 694.612 770.19 694.612 768.872C694.612 767.808 693.946 767.137 692.584 766.804L691.45 766.526C690.546 766.302 690.138 765.999 690.138 765.412C690.138 764.756 690.834 764.278 691.769 764.278C692.793 764.278 693.215 764.845 693.419 765.372L694.473 765.074ZM696.379 773.864H697.552V769.827H697.651C697.91 770.244 698.407 771.159 699.879 771.159C701.788 771.159 703.12 769.628 703.12 767.202C703.12 764.795 701.788 763.264 699.859 763.264C698.367 763.264 697.91 764.179 697.651 764.577H697.512V763.364H696.379V773.864ZM697.532 767.182C697.532 765.472 698.288 764.318 699.719 764.318C701.211 764.318 701.947 765.571 701.947 767.182C701.947 768.812 701.191 770.105 699.719 770.105C698.308 770.105 697.532 768.912 697.532 767.182ZM708.012 771.159C710.08 771.159 711.472 769.588 711.472 767.222C711.472 764.835 710.08 763.264 708.012 763.264C705.944 763.264 704.552 764.835 704.552 767.222C704.552 769.588 705.944 771.159 708.012 771.159ZM708.012 770.105C706.441 770.105 705.725 768.753 705.725 767.222C705.725 765.69 706.441 764.318 708.012 764.318C709.583 764.318 710.299 765.69 710.299 767.222C710.299 768.753 709.583 770.105 708.012 770.105ZM714.437 766.406C714.437 765.074 715.262 764.318 716.385 764.318C717.474 764.318 718.135 765.029 718.135 766.227V771H719.309V766.148C719.309 764.199 718.27 763.264 716.724 763.264C715.57 763.264 714.854 763.781 714.496 764.557H714.397V763.364H713.263V771H714.437V766.406ZM726.862 765.074C726.494 763.99 725.669 763.264 724.157 763.264C722.547 763.264 721.353 764.179 721.353 765.472C721.353 766.526 721.98 767.232 723.382 767.56L724.654 767.858C725.425 768.037 725.788 768.405 725.788 768.932C725.788 769.588 725.092 770.125 723.998 770.125C723.039 770.125 722.437 769.712 722.228 768.892L721.115 769.17C721.388 770.468 722.457 771.159 724.018 771.159C725.793 771.159 727.001 770.19 727.001 768.872C727.001 767.808 726.335 767.137 724.973 766.804L723.839 766.526C722.934 766.302 722.527 765.999 722.527 765.412C722.527 764.756 723.223 764.278 724.157 764.278C725.181 764.278 725.604 764.845 725.808 765.372L726.862 765.074ZM731.969 771.159C733.52 771.159 734.654 770.384 735.012 769.23L733.878 768.912C733.58 769.707 732.889 770.105 731.969 770.105C730.592 770.105 729.642 769.215 729.588 767.58H735.131V767.082C735.131 764.239 733.441 763.264 731.85 763.264C729.781 763.264 728.409 764.895 728.409 767.241C728.409 769.588 729.762 771.159 731.969 771.159ZM729.588 766.565C729.667 765.377 730.507 764.318 731.85 764.318C733.122 764.318 733.938 765.273 733.938 766.565H729.588Z" fill="white"/>
<rect x="552" y="201" width="189" height="50" rx="5" fill="#4079A2"/>
<rect x="563" y="215" width="33" height="21" rx="3" fill="#4079A1" stroke="white" stroke-width="2"/>
<path d="M563 216L577.813 229.186C578.969 230.215 580.717 230.196 581.85 229.143L596 216" stroke="white" stroke-width="2" stroke-linejoin="round"/>
<path d="M605.074 222H606.247V217.168C606.247 216.134 607.062 215.378 608.176 215.378C608.489 215.378 608.812 215.438 608.892 215.457V214.264C608.758 214.254 608.45 214.244 608.276 214.244C607.361 214.244 606.565 214.761 606.287 215.517H606.207V214.364H605.074V222ZM613.252 222.159C614.803 222.159 615.937 221.384 616.295 220.23L615.161 219.912C614.863 220.707 614.172 221.105 613.252 221.105C611.875 221.105 610.925 220.215 610.871 218.58H616.414V218.082C616.414 215.239 614.724 214.264 613.133 214.264C611.065 214.264 609.692 215.895 609.692 218.241C609.692 220.588 611.045 222.159 613.252 222.159ZM610.871 217.565C610.95 216.377 611.79 215.318 613.133 215.318C614.406 215.318 615.221 216.273 615.221 217.565H610.871ZM621.301 222.159C622.991 222.159 624.105 221.125 624.304 219.773H623.131C622.912 220.608 622.216 221.105 621.301 221.105C619.909 221.105 619.014 219.952 619.014 218.182C619.014 216.452 619.929 215.318 621.301 215.318C622.335 215.318 622.952 215.955 623.131 216.651H624.304C624.105 215.219 622.892 214.264 621.281 214.264C619.213 214.264 617.841 215.895 617.841 218.222C617.841 220.509 619.153 222.159 621.301 222.159ZM629.221 222.159C630.772 222.159 631.906 221.384 632.263 220.23L631.13 219.912C630.832 220.707 630.141 221.105 629.221 221.105C627.844 221.105 626.894 220.215 626.839 218.58H632.383V218.082C632.383 215.239 630.692 214.264 629.102 214.264C627.033 214.264 625.661 215.895 625.661 218.241C625.661 220.588 627.013 222.159 629.221 222.159ZM626.839 217.565C626.919 216.377 627.759 215.318 629.102 215.318C630.374 215.318 631.19 216.273 631.19 217.565H626.839ZM634.168 222H635.341V214.364H634.168V222ZM634.764 213.091C635.222 213.091 635.599 212.733 635.599 212.295C635.599 211.858 635.222 211.5 634.764 211.5C634.307 211.5 633.929 211.858 633.929 212.295C633.929 212.733 634.307 213.091 634.764 213.091ZM643.734 214.364H642.461L640.354 220.449H640.274L638.166 214.364H636.893L639.717 222H640.91L643.734 214.364ZM648.211 222.159C649.762 222.159 650.896 221.384 651.254 220.23L650.12 219.912C649.822 220.707 649.131 221.105 648.211 221.105C646.834 221.105 645.884 220.215 645.83 218.58H651.373V218.082C651.373 215.239 649.683 214.264 648.092 214.264C646.024 214.264 644.651 215.895 644.651 218.241C644.651 220.588 646.004 222.159 648.211 222.159ZM645.83 217.565C645.909 216.377 646.749 215.318 648.092 215.318C649.365 215.318 650.18 216.273 650.18 217.565H645.83ZM605.074 237H606.247V232.168C606.247 231.134 607.062 230.378 608.176 230.378C608.489 230.378 608.812 230.438 608.892 230.457V229.264C608.758 229.254 608.45 229.244 608.276 229.244C607.361 229.244 606.565 229.761 606.287 230.517H606.207V229.364H605.074V237ZM613.252 237.159C614.803 237.159 615.937 236.384 616.295 235.23L615.161 234.912C614.863 235.707 614.172 236.105 613.252 236.105C611.875 236.105 610.925 235.215 610.871 233.58H616.414V233.082C616.414 230.239 614.724 229.264 613.133 229.264C611.065 229.264 609.692 230.895 609.692 233.241C609.692 235.588 611.045 237.159 613.252 237.159ZM610.871 232.565C610.95 231.377 611.79 230.318 613.133 230.318C614.406 230.318 615.221 231.273 615.221 232.565H610.871ZM624.211 229.364H622.938L620.83 235.449H620.751L618.643 229.364H617.37L620.194 237H621.387L624.211 229.364ZM628.588 237.159C630.656 237.159 632.048 235.588 632.048 233.222C632.048 230.835 630.656 229.264 628.588 229.264C626.52 229.264 625.128 230.835 625.128 233.222C625.128 235.588 626.52 237.159 628.588 237.159ZM628.588 236.105C627.017 236.105 626.301 234.753 626.301 233.222C626.301 231.69 627.017 230.318 628.588 230.318C630.159 230.318 630.875 231.69 630.875 233.222C630.875 234.753 630.159 236.105 628.588 236.105ZM636.942 237.159C638.632 237.159 639.746 236.125 639.945 234.773H638.771C638.553 235.608 637.857 236.105 636.942 236.105C635.55 236.105 634.655 234.952 634.655 233.182C634.655 231.452 635.57 230.318 636.942 230.318C637.976 230.318 638.592 230.955 638.771 231.651H639.945C639.746 230.219 638.533 229.264 636.922 229.264C634.854 229.264 633.482 230.895 633.482 233.222C633.482 235.509 634.794 237.159 636.942 237.159ZM643.907 237.179C645.239 237.179 645.935 236.463 646.174 235.966H646.234V237H647.407V231.969C647.407 229.543 645.558 229.264 644.583 229.264C643.43 229.264 642.117 229.662 641.521 231.054L642.634 231.452C642.893 230.895 643.504 230.298 644.623 230.298C645.702 230.298 646.234 230.87 646.234 231.849V231.889C646.234 232.456 645.657 232.406 644.265 232.585C642.848 232.769 641.302 233.082 641.302 234.832C641.302 236.324 642.455 237.179 643.907 237.179ZM644.086 236.125C643.151 236.125 642.475 235.707 642.475 234.892C642.475 233.997 643.29 233.719 644.205 233.599C644.702 233.54 646.035 233.401 646.234 233.162V234.236C646.234 235.19 645.478 236.125 644.086 236.125ZM652.869 229.364H651.239V227.534H650.066V229.364H648.912V230.358H650.066V235.131C650.066 236.463 651.139 237.099 652.134 237.099C652.571 237.099 652.85 237.02 653.009 236.96L652.77 235.906C652.671 235.926 652.512 235.966 652.253 235.966C651.736 235.966 651.239 235.807 651.239 234.812V230.358H652.869V229.364ZM654.634 237H655.808V229.364H654.634V237ZM655.231 228.091C655.688 228.091 656.066 227.733 656.066 227.295C656.066 226.858 655.688 226.5 655.231 226.5C654.774 226.5 654.396 226.858 654.396 227.295C654.396 227.733 654.774 228.091 655.231 228.091ZM661.059 237.159C663.127 237.159 664.519 235.588 664.519 233.222C664.519 230.835 663.127 229.264 661.059 229.264C658.991 229.264 657.599 230.835 657.599 233.222C657.599 235.588 658.991 237.159 661.059 237.159ZM661.059 236.105C659.488 236.105 658.772 234.753 658.772 233.222C658.772 231.69 659.488 230.318 661.059 230.318C662.63 230.318 663.346 231.69 663.346 233.222C663.346 234.753 662.63 236.105 661.059 236.105ZM667.483 232.406C667.483 231.074 668.309 230.318 669.432 230.318C670.521 230.318 671.182 231.029 671.182 232.227V237H672.356V232.148C672.356 230.199 671.317 229.264 669.77 229.264C668.617 229.264 667.901 229.781 667.543 230.557H667.444V229.364H666.31V237H667.483V232.406ZM678.875 232.088H674.42V233.182H678.875V232.088ZM680.939 237H682.112V232.168C682.112 231.134 682.928 230.378 684.041 230.378C684.355 230.378 684.678 230.438 684.757 230.457V229.264C684.623 229.254 684.315 229.244 684.141 229.244C683.226 229.244 682.431 229.761 682.152 230.517H682.073V229.364H680.939V237ZM689.117 237.159C690.669 237.159 691.802 236.384 692.16 235.23L691.026 234.912C690.728 235.707 690.037 236.105 689.117 236.105C687.74 236.105 686.791 235.215 686.736 233.58H692.279V233.082C692.279 230.239 690.589 229.264 688.998 229.264C686.93 229.264 685.558 230.895 685.558 233.241C685.558 235.588 686.91 237.159 689.117 237.159ZM686.736 232.565C686.816 231.377 687.656 230.318 688.998 230.318C690.271 230.318 691.086 231.273 691.086 232.565H686.736ZM700.448 239.864V229.364H699.314V230.577H699.175C698.916 230.179 698.459 229.264 696.968 229.264C695.039 229.264 693.706 230.795 693.706 233.202C693.706 235.628 695.039 237.159 696.948 237.159C698.419 237.159 698.916 236.244 699.175 235.827H699.274V239.864H700.448ZM699.294 233.182C699.294 234.912 698.519 236.105 697.107 236.105C695.635 236.105 694.879 234.812 694.879 233.182C694.879 231.571 695.615 230.318 697.107 230.318C698.539 230.318 699.294 231.472 699.294 233.182ZM707.408 233.878C707.408 235.31 706.314 235.966 705.439 235.966C704.465 235.966 703.769 235.25 703.769 234.136V229.364H702.595V234.216C702.595 236.165 703.629 237.099 705.061 237.099C706.215 237.099 706.97 236.483 707.328 235.707H707.408V237H708.581V229.364H707.408V233.878ZM713.932 237.159C715.483 237.159 716.616 236.384 716.974 235.23L715.841 234.912C715.543 235.707 714.852 236.105 713.932 236.105C712.555 236.105 711.605 235.215 711.55 233.58H717.094V233.082C717.094 230.239 715.403 229.264 713.812 229.264C711.744 229.264 710.372 230.895 710.372 233.241C710.372 235.588 711.724 237.159 713.932 237.159ZM711.55 232.565C711.63 231.377 712.47 230.318 713.812 230.318C715.085 230.318 715.901 231.273 715.901 232.565H711.55ZM724.288 231.074C723.92 229.99 723.094 229.264 721.583 229.264C719.972 229.264 718.779 230.179 718.779 231.472C718.779 232.526 719.406 233.232 720.808 233.56L722.08 233.858C722.851 234.037 723.214 234.405 723.214 234.932C723.214 235.588 722.518 236.125 721.424 236.125C720.464 236.125 719.863 235.712 719.654 234.892L718.54 235.17C718.814 236.468 719.883 237.159 721.444 237.159C723.219 237.159 724.427 236.19 724.427 234.872C724.427 233.808 723.761 233.137 722.398 232.804L721.265 232.526C720.36 232.302 719.952 231.999 719.952 231.412C719.952 230.756 720.648 230.278 721.583 230.278C722.607 230.278 723.03 230.845 723.234 231.372L724.288 231.074ZM729.514 229.364H727.883V227.534H726.71V229.364H725.557V230.358H726.71V235.131C726.71 236.463 727.784 237.099 728.778 237.099C729.216 237.099 729.494 237.02 729.653 236.96L729.415 235.906C729.315 235.926 729.156 235.966 728.898 235.966C728.381 235.966 727.883 235.807 727.883 234.812V230.358H729.514V229.364Z" fill="white"/>
<rect x="116" y="743" width="199" height="50" rx="5" fill="#4079A2"/>
<rect x="127" y="757" width="33" height="21" rx="3" fill="#4079A1" stroke="white" stroke-width="2"/>
<path d="M127 758L141.813 771.186C142.969 772.215 144.717 772.196 145.85 771.143L160 758" stroke="white" stroke-width="2" stroke-linejoin="round"/>
<path d="M169.074 764H170.247V759.168C170.247 758.134 171.062 757.378 172.176 757.378C172.489 757.378 172.812 757.438 172.892 757.457V756.264C172.758 756.254 172.45 756.244 172.276 756.244C171.361 756.244 170.565 756.761 170.287 757.517H170.207V756.364H169.074V764ZM177.252 764.159C178.803 764.159 179.937 763.384 180.295 762.23L179.161 761.912C178.863 762.707 178.172 763.105 177.252 763.105C175.875 763.105 174.925 762.215 174.871 760.58H180.414V760.082C180.414 757.239 178.724 756.264 177.133 756.264C175.065 756.264 173.692 757.895 173.692 760.241C173.692 762.588 175.045 764.159 177.252 764.159ZM174.871 759.565C174.95 758.377 175.79 757.318 177.133 757.318C178.406 757.318 179.221 758.273 179.221 759.565H174.871ZM185.301 764.159C186.991 764.159 188.105 763.125 188.304 761.773H187.131C186.912 762.608 186.216 763.105 185.301 763.105C183.909 763.105 183.014 761.952 183.014 760.182C183.014 758.452 183.929 757.318 185.301 757.318C186.335 757.318 186.952 757.955 187.131 758.651H188.304C188.105 757.219 186.892 756.264 185.281 756.264C183.213 756.264 181.841 757.895 181.841 760.222C181.841 762.509 183.153 764.159 185.301 764.159ZM193.221 764.159C194.772 764.159 195.906 763.384 196.263 762.23L195.13 761.912C194.832 762.707 194.141 763.105 193.221 763.105C191.844 763.105 190.894 762.215 190.839 760.58H196.383V760.082C196.383 757.239 194.692 756.264 193.102 756.264C191.033 756.264 189.661 757.895 189.661 760.241C189.661 762.588 191.013 764.159 193.221 764.159ZM190.839 759.565C190.919 758.377 191.759 757.318 193.102 757.318C194.374 757.318 195.19 758.273 195.19 759.565H190.839ZM198.168 764H199.341V756.364H198.168V764ZM198.764 755.091C199.222 755.091 199.599 754.733 199.599 754.295C199.599 753.858 199.222 753.5 198.764 753.5C198.307 753.5 197.929 753.858 197.929 754.295C197.929 754.733 198.307 755.091 198.764 755.091ZM207.734 756.364H206.461L204.354 762.449H204.274L202.166 756.364H200.893L203.717 764H204.91L207.734 756.364ZM212.211 764.159C213.762 764.159 214.896 763.384 215.254 762.23L214.12 761.912C213.822 762.707 213.131 763.105 212.211 763.105C210.834 763.105 209.884 762.215 209.83 760.58H215.373V760.082C215.373 757.239 213.683 756.264 212.092 756.264C210.024 756.264 208.651 757.895 208.651 760.241C208.651 762.588 210.004 764.159 212.211 764.159ZM209.83 759.565C209.909 758.377 210.749 757.318 212.092 757.318C213.365 757.318 214.18 758.273 214.18 759.565H209.83ZM169.074 779H170.247V774.168C170.247 773.134 171.062 772.378 172.176 772.378C172.489 772.378 172.812 772.438 172.892 772.457V771.264C172.758 771.254 172.45 771.244 172.276 771.244C171.361 771.244 170.565 771.761 170.287 772.517H170.207V771.364H169.074V779ZM177.252 779.159C178.803 779.159 179.937 778.384 180.295 777.23L179.161 776.912C178.863 777.707 178.172 778.105 177.252 778.105C175.875 778.105 174.925 777.215 174.871 775.58H180.414V775.082C180.414 772.239 178.724 771.264 177.133 771.264C175.065 771.264 173.692 772.895 173.692 775.241C173.692 777.588 175.045 779.159 177.252 779.159ZM174.871 774.565C174.95 773.377 175.79 772.318 177.133 772.318C178.406 772.318 179.221 773.273 179.221 774.565H174.871ZM188.211 771.364H186.938L184.83 777.449H184.751L182.643 771.364H181.37L184.194 779H185.387L188.211 771.364ZM192.588 779.159C194.656 779.159 196.048 777.588 196.048 775.222C196.048 772.835 194.656 771.264 192.588 771.264C190.52 771.264 189.128 772.835 189.128 775.222C189.128 777.588 190.52 779.159 192.588 779.159ZM192.588 778.105C191.017 778.105 190.301 776.753 190.301 775.222C190.301 773.69 191.017 772.318 192.588 772.318C194.159 772.318 194.875 773.69 194.875 775.222C194.875 776.753 194.159 778.105 192.588 778.105ZM200.942 779.159C202.632 779.159 203.746 778.125 203.945 776.773H202.771C202.553 777.608 201.857 778.105 200.942 778.105C199.55 778.105 198.655 776.952 198.655 775.182C198.655 773.452 199.57 772.318 200.942 772.318C201.976 772.318 202.592 772.955 202.771 773.651H203.945C203.746 772.219 202.533 771.264 200.922 771.264C198.854 771.264 197.482 772.895 197.482 775.222C197.482 777.509 198.794 779.159 200.942 779.159ZM207.907 779.179C209.239 779.179 209.935 778.463 210.174 777.966H210.234V779H211.407V773.969C211.407 771.543 209.558 771.264 208.583 771.264C207.43 771.264 206.117 771.662 205.521 773.054L206.634 773.452C206.893 772.895 207.504 772.298 208.623 772.298C209.702 772.298 210.234 772.87 210.234 773.849V773.889C210.234 774.456 209.657 774.406 208.265 774.585C206.848 774.769 205.302 775.082 205.302 776.832C205.302 778.324 206.455 779.179 207.907 779.179ZM208.086 778.125C207.151 778.125 206.475 777.707 206.475 776.892C206.475 775.997 207.29 775.719 208.205 775.599C208.702 775.54 210.035 775.401 210.234 775.162V776.236C210.234 777.19 209.478 778.125 208.086 778.125ZM216.869 771.364H215.239V769.534H214.066V771.364H212.912V772.358H214.066V777.131C214.066 778.463 215.139 779.099 216.134 779.099C216.571 779.099 216.85 779.02 217.009 778.96L216.77 777.906C216.671 777.926 216.512 777.966 216.253 777.966C215.736 777.966 215.239 777.807 215.239 776.812V772.358H216.869V771.364ZM218.634 779H219.808V771.364H218.634V779ZM219.231 770.091C219.688 770.091 220.066 769.733 220.066 769.295C220.066 768.858 219.688 768.5 219.231 768.5C218.774 768.5 218.396 768.858 218.396 769.295C218.396 769.733 218.774 770.091 219.231 770.091ZM225.059 779.159C227.127 779.159 228.519 777.588 228.519 775.222C228.519 772.835 227.127 771.264 225.059 771.264C222.991 771.264 221.599 772.835 221.599 775.222C221.599 777.588 222.991 779.159 225.059 779.159ZM225.059 778.105C223.488 778.105 222.772 776.753 222.772 775.222C222.772 773.69 223.488 772.318 225.059 772.318C226.63 772.318 227.346 773.69 227.346 775.222C227.346 776.753 226.63 778.105 225.059 778.105ZM231.483 774.406C231.483 773.074 232.309 772.318 233.432 772.318C234.521 772.318 235.182 773.029 235.182 774.227V779H236.356V774.148C236.356 772.199 235.317 771.264 233.77 771.264C232.617 771.264 231.901 771.781 231.543 772.557H231.444V771.364H230.31V779H231.483V774.406ZM242.875 774.088H238.42V775.182H242.875V774.088ZM244.939 779H246.112V774.168C246.112 773.134 246.928 772.378 248.041 772.378C248.355 772.378 248.678 772.438 248.757 772.457V771.264C248.623 771.254 248.315 771.244 248.141 771.244C247.226 771.244 246.431 771.761 246.152 772.517H246.073V771.364H244.939V779ZM253.117 779.159C254.669 779.159 255.802 778.384 256.16 777.23L255.026 776.912C254.728 777.707 254.037 778.105 253.117 778.105C251.74 778.105 250.791 777.215 250.736 775.58H256.279V775.082C256.279 772.239 254.589 771.264 252.998 771.264C250.93 771.264 249.558 772.895 249.558 775.241C249.558 777.588 250.91 779.159 253.117 779.159ZM250.736 774.565C250.816 773.377 251.656 772.318 252.998 772.318C254.271 772.318 255.086 773.273 255.086 774.565H250.736ZM263.473 773.074C263.105 771.99 262.28 771.264 260.769 771.264C259.158 771.264 257.965 772.179 257.965 773.472C257.965 774.526 258.591 775.232 259.993 775.56L261.266 775.858C262.036 776.037 262.399 776.405 262.399 776.932C262.399 777.588 261.703 778.125 260.61 778.125C259.65 778.125 259.048 777.712 258.84 776.892L257.726 777.17C257.999 778.468 259.068 779.159 260.629 779.159C262.404 779.159 263.612 778.19 263.612 776.872C263.612 775.808 262.946 775.137 261.584 774.804L260.45 774.526C259.546 774.302 259.138 773.999 259.138 773.412C259.138 772.756 259.834 772.278 260.769 772.278C261.793 772.278 262.215 772.845 262.419 773.372L263.473 773.074ZM265.379 781.864H266.552V777.827H266.651C266.91 778.244 267.407 779.159 268.879 779.159C270.788 779.159 272.12 777.628 272.12 775.202C272.12 772.795 270.788 771.264 268.859 771.264C267.367 771.264 266.91 772.179 266.651 772.577H266.512V771.364H265.379V781.864ZM266.532 775.182C266.532 773.472 267.288 772.318 268.719 772.318C270.211 772.318 270.947 773.571 270.947 775.182C270.947 776.812 270.191 778.105 268.719 778.105C267.308 778.105 266.532 776.912 266.532 775.182ZM277.012 779.159C279.08 779.159 280.472 777.588 280.472 775.222C280.472 772.835 279.08 771.264 277.012 771.264C274.944 771.264 273.552 772.835 273.552 775.222C273.552 777.588 274.944 779.159 277.012 779.159ZM277.012 778.105C275.441 778.105 274.725 776.753 274.725 775.222C274.725 773.69 275.441 772.318 277.012 772.318C278.583 772.318 279.299 773.69 279.299 775.222C279.299 776.753 278.583 778.105 277.012 778.105ZM283.437 774.406C283.437 773.074 284.262 772.318 285.385 772.318C286.474 772.318 287.135 773.029 287.135 774.227V779H288.309V774.148C288.309 772.199 287.27 771.264 285.724 771.264C284.57 771.264 283.854 771.781 283.496 772.557H283.397V771.364H282.263V779H283.437V774.406ZM295.862 773.074C295.494 771.99 294.669 771.264 293.157 771.264C291.547 771.264 290.353 772.179 290.353 773.472C290.353 774.526 290.98 775.232 292.382 775.56L293.654 775.858C294.425 776.037 294.788 776.405 294.788 776.932C294.788 777.588 294.092 778.125 292.998 778.125C292.039 778.125 291.437 777.712 291.228 776.892L290.115 777.17C290.388 778.468 291.457 779.159 293.018 779.159C294.793 779.159 296.001 778.19 296.001 776.872C296.001 775.808 295.335 775.137 293.973 774.804L292.839 774.526C291.934 774.302 291.527 773.999 291.527 773.412C291.527 772.756 292.223 772.278 293.157 772.278C294.181 772.278 294.604 772.845 294.808 773.372L295.862 773.074ZM300.969 779.159C302.52 779.159 303.654 778.384 304.012 777.23L302.878 776.912C302.58 777.707 301.889 778.105 300.969 778.105C299.592 778.105 298.642 777.215 298.588 775.58H304.131V775.082C304.131 772.239 302.441 771.264 300.85 771.264C298.781 771.264 297.409 772.895 297.409 775.241C297.409 777.588 298.762 779.159 300.969 779.159ZM298.588 774.565C298.667 773.377 299.507 772.318 300.85 772.318C302.122 772.318 302.938 773.273 302.938 774.565H298.588Z" fill="white"/>
<path d="M610 570L600 564.227V575.773L610 570ZM599 411H549V413H599V411ZM546 414V568H548V414H546ZM549 571H601V569H549V571ZM546 568C546 569.657 547.343 571 549 571V569C548.448 569 548 568.552 548 568H546ZM549 411C547.343 411 546 412.343 546 414H548C548 413.448 548.448 413 549 413V411Z" fill="#C56550"/>
<rect x="599" y="293" width="96" height="50" rx="25" fill="#73A97B"/>
<path d="M629.113 311.818H627.821L631.559 322H632.832L636.571 311.818H635.278L632.256 320.389H632.136L629.113 311.818ZM639.534 322.179C640.866 322.179 641.562 321.463 641.801 320.966H641.861V322H643.034V316.969C643.034 314.543 641.184 314.264 640.21 314.264C639.057 314.264 637.744 314.662 637.148 316.054L638.261 316.452C638.52 315.895 639.131 315.298 640.25 315.298C641.329 315.298 641.861 315.87 641.861 316.849V316.889C641.861 317.456 641.284 317.406 639.892 317.585C638.475 317.769 636.929 318.082 636.929 319.832C636.929 321.324 638.082 322.179 639.534 322.179ZM639.713 321.125C638.778 321.125 638.102 320.707 638.102 319.892C638.102 318.997 638.917 318.719 639.832 318.599C640.329 318.54 641.662 318.401 641.861 318.162V319.236C641.861 320.19 641.105 321.125 639.713 321.125ZM646.349 311.818H645.175V322H646.349V311.818ZM648.498 322H649.671V314.364H648.498V322ZM649.094 313.091C649.552 313.091 649.93 312.733 649.93 312.295C649.93 311.858 649.552 311.5 649.094 311.5C648.637 311.5 648.259 311.858 648.259 312.295C648.259 312.733 648.637 313.091 649.094 313.091ZM654.703 322.159C656.175 322.159 656.672 321.244 656.931 320.827H657.07V322H658.203V311.818H657.03V315.577H656.931C656.672 315.179 656.215 314.264 654.723 314.264C652.794 314.264 651.462 315.795 651.462 318.202C651.462 320.628 652.794 322.159 654.703 322.159ZM654.863 321.105C653.391 321.105 652.635 319.812 652.635 318.182C652.635 316.571 653.371 315.318 654.863 315.318C656.294 315.318 657.05 316.472 657.05 318.182C657.05 319.912 656.275 321.105 654.863 321.105ZM662.047 319.136H663.24V319.077C663.26 317.844 663.578 317.307 664.453 316.76C665.328 316.228 665.845 315.462 665.845 314.364C665.845 312.812 664.711 311.679 662.961 311.679C661.35 311.679 660.073 312.673 659.998 314.364H661.251C661.326 313.19 662.146 312.713 662.961 312.713C663.896 312.713 664.652 313.33 664.652 314.304C664.652 315.094 664.199 315.661 663.618 316.014C662.643 316.606 662.061 317.183 662.047 319.077V319.136ZM662.683 322.08C663.175 322.08 663.578 321.677 663.578 321.185C663.578 320.692 663.175 320.29 662.683 320.29C662.191 320.29 661.788 320.692 661.788 321.185C661.788 321.677 662.191 322.08 662.683 322.08Z" fill="white"/>
<rect x="599" y="387" width="96" height="50" rx="25" fill="#73A97B"/>
<path d="M623.166 408H624.399V404.023H626.626C626.715 404.023 626.8 404.023 626.884 404.018L629.032 408H630.464L628.162 403.794C629.46 403.352 630.066 402.293 630.066 400.94C630.066 399.141 628.992 397.818 626.606 397.818H623.166V408ZM624.399 402.909V398.912H626.566C628.217 398.912 628.853 399.717 628.853 400.94C628.853 402.163 628.217 402.909 626.586 402.909H624.399ZM635.081 408.159C636.632 408.159 637.766 407.384 638.124 406.23L636.99 405.912C636.692 406.707 636.001 407.105 635.081 407.105C633.704 407.105 632.755 406.215 632.7 404.58H638.243V404.082C638.243 401.239 636.553 400.264 634.962 400.264C632.894 400.264 631.522 401.895 631.522 404.241C631.522 406.588 632.874 408.159 635.081 408.159ZM632.7 403.565C632.779 402.377 633.62 401.318 634.962 401.318C636.235 401.318 637.05 402.273 637.05 403.565H632.7ZM646.411 410.864V400.364H645.278V401.577H645.139C644.88 401.179 644.423 400.264 642.931 400.264C641.002 400.264 639.67 401.795 639.67 404.202C639.67 406.628 641.002 408.159 642.911 408.159C644.383 408.159 644.88 407.244 645.139 406.827H645.238V410.864H646.411ZM645.258 404.182C645.258 405.912 644.483 407.105 643.071 407.105C641.599 407.105 640.843 405.812 640.843 404.182C640.843 402.571 641.579 401.318 643.071 401.318C644.502 401.318 645.258 402.472 645.258 404.182ZM653.372 404.878C653.372 406.31 652.278 406.966 651.403 406.966C650.429 406.966 649.733 406.25 649.733 405.136V400.364H648.559V405.216C648.559 407.165 649.593 408.099 651.025 408.099C652.179 408.099 652.934 407.483 653.292 406.707H653.372V408H654.545V400.364H653.372V404.878ZM656.694 408H657.867V400.364H656.694V408ZM657.291 399.091C657.748 399.091 658.126 398.733 658.126 398.295C658.126 397.858 657.748 397.5 657.291 397.5C656.833 397.5 656.455 397.858 656.455 398.295C656.455 398.733 656.833 399.091 657.291 399.091ZM660.016 408H661.19V403.168C661.19 402.134 662.005 401.378 663.119 401.378C663.432 401.378 663.755 401.438 663.834 401.457V400.264C663.7 400.254 663.392 400.244 663.218 400.244C662.303 400.244 661.508 400.761 661.229 401.517H661.15V400.364H660.016V408ZM668.195 408.159C669.746 408.159 670.879 407.384 671.237 406.23L670.104 405.912C669.805 406.707 669.114 407.105 668.195 407.105C666.817 407.105 665.868 406.215 665.813 404.58H671.356V404.082C671.356 401.239 669.666 400.264 668.075 400.264C666.007 400.264 664.635 401.895 664.635 404.241C664.635 406.588 665.987 408.159 668.195 408.159ZM665.813 403.565C665.893 402.377 666.733 401.318 668.075 401.318C669.348 401.318 670.163 402.273 670.163 403.565H665.813ZM608.32 414.818H607.087V425H608.32V414.818ZM611.807 420.406C611.807 419.074 612.632 418.318 613.756 418.318C614.844 418.318 615.506 419.029 615.506 420.227V425H616.679V420.148C616.679 418.199 615.64 417.264 614.094 417.264C612.94 417.264 612.224 417.781 611.866 418.557H611.767V417.364H610.633V425H611.807V420.406ZM622.223 417.364H620.513V416.588C620.513 415.832 620.831 415.435 621.607 415.435C621.945 415.435 622.144 415.514 622.263 415.554L622.601 414.54C622.422 414.46 622.064 414.341 621.488 414.341C620.394 414.341 619.34 414.997 619.34 416.31V417.364H618.107V418.358H619.34V425H620.513V418.358H622.223V417.364ZM626.656 425.159C628.724 425.159 630.116 423.588 630.116 421.222C630.116 418.835 628.724 417.264 626.656 417.264C624.587 417.264 623.195 418.835 623.195 421.222C623.195 423.588 624.587 425.159 626.656 425.159ZM626.656 424.105C625.085 424.105 624.369 422.753 624.369 421.222C624.369 419.69 625.085 418.318 626.656 418.318C628.227 418.318 628.943 419.69 628.943 421.222C628.943 422.753 628.227 424.105 626.656 424.105ZM631.907 425H633.08V420.168C633.08 419.134 633.896 418.378 635.009 418.378C635.322 418.378 635.646 418.438 635.725 418.457V417.264C635.591 417.254 635.283 417.244 635.109 417.244C634.194 417.244 633.398 417.761 633.12 418.517H633.04V417.364H631.907V425ZM637.116 425H638.289V420.227C638.289 419.109 639.104 418.318 640.019 418.318C640.909 418.318 641.531 418.9 641.531 419.77V425H642.724V420.028C642.724 419.044 643.34 418.318 644.414 418.318C645.249 418.318 645.965 418.761 645.965 419.889V425H647.139V419.889C647.139 418.094 646.174 417.264 644.812 417.264C643.718 417.264 642.918 417.766 642.525 418.557H642.445C642.068 417.741 641.401 417.264 640.397 417.264C639.403 417.264 638.667 417.741 638.349 418.557H638.249V417.364H637.116V425ZM651.531 425.179C652.863 425.179 653.559 424.463 653.798 423.966H653.858V425H655.031V419.969C655.031 417.543 653.182 417.264 652.207 417.264C651.054 417.264 649.741 417.662 649.145 419.054L650.258 419.452C650.517 418.895 651.128 418.298 652.247 418.298C653.326 418.298 653.858 418.87 653.858 419.849V419.889C653.858 420.456 653.281 420.406 651.889 420.585C650.472 420.769 648.926 421.082 648.926 422.832C648.926 424.324 650.079 425.179 651.531 425.179ZM651.71 424.125C650.775 424.125 650.099 423.707 650.099 422.892C650.099 421.997 650.915 421.719 651.829 421.599C652.326 421.54 653.659 421.401 653.858 421.162V422.236C653.858 423.19 653.102 424.125 651.71 424.125ZM660.494 417.364H658.863V415.534H657.69V417.364H656.536V418.358H657.69V423.131C657.69 424.463 658.763 425.099 659.758 425.099C660.195 425.099 660.474 425.02 660.633 424.96L660.394 423.906C660.295 423.926 660.136 423.966 659.877 423.966C659.36 423.966 658.863 423.807 658.863 422.812V418.358H660.494V417.364ZM662.258 425H663.432V417.364H662.258V425ZM662.855 416.091C663.312 416.091 663.69 415.733 663.69 415.295C663.69 414.858 663.312 414.5 662.855 414.5C662.398 414.5 662.02 414.858 662.02 415.295C662.02 415.733 662.398 416.091 662.855 416.091ZM668.683 425.159C670.751 425.159 672.143 423.588 672.143 421.222C672.143 418.835 670.751 417.264 668.683 417.264C666.615 417.264 665.223 418.835 665.223 421.222C665.223 423.588 666.615 425.159 668.683 425.159ZM668.683 424.105C667.112 424.105 666.396 422.753 666.396 421.222C666.396 419.69 667.112 418.318 668.683 418.318C670.254 418.318 670.97 419.69 670.97 421.222C670.97 422.753 670.254 424.105 668.683 424.105ZM675.108 420.406C675.108 419.074 675.933 418.318 677.056 418.318C678.145 418.318 678.806 419.029 678.806 420.227V425H679.98V420.148C679.98 418.199 678.941 417.264 677.394 417.264C676.241 417.264 675.525 417.781 675.167 418.557H675.068V417.364H673.934V425H675.108V420.406ZM683.655 422.136H684.848V422.077C684.868 420.844 685.186 420.307 686.061 419.76C686.936 419.228 687.453 418.462 687.453 417.364C687.453 415.812 686.32 414.679 684.57 414.679C682.959 414.679 681.681 415.673 681.607 417.364H682.859C682.934 416.19 683.754 415.713 684.57 415.713C685.504 415.713 686.26 416.33 686.26 417.304C686.26 418.094 685.808 418.661 685.226 419.014C684.252 419.606 683.67 420.183 683.655 422.077V422.136ZM684.291 425.08C684.783 425.08 685.186 424.677 685.186 424.185C685.186 423.692 684.783 423.29 684.291 423.29C683.799 423.29 683.396 423.692 683.396 424.185C683.396 424.677 683.799 425.08 684.291 425.08Z" fill="white"/>
<rect x="599" y="567" width="96" height="50" rx="25" fill="#73A97B"/>
<path d="M618.2 596C621.302 596 623.052 594.071 623.052 590.889C623.052 587.727 621.302 585.818 618.339 585.818H615.058V596H618.2ZM616.291 594.906V586.912H618.26C620.646 586.912 621.859 588.423 621.859 590.889C621.859 593.375 620.646 594.906 618.121 594.906H616.291ZM628.163 596.159C629.714 596.159 630.848 595.384 631.206 594.23L630.072 593.912C629.774 594.707 629.083 595.105 628.163 595.105C626.786 595.105 625.837 594.215 625.782 592.58H631.325V592.082C631.325 589.239 629.635 588.264 628.044 588.264C625.976 588.264 624.604 589.895 624.604 592.241C624.604 594.588 625.956 596.159 628.163 596.159ZM625.782 591.565C625.861 590.377 626.702 589.318 628.044 589.318C629.317 589.318 630.132 590.273 630.132 591.565H625.782ZM634.283 585.818H633.11V596H634.283V585.818ZM639.634 596.159C641.185 596.159 642.319 595.384 642.677 594.23L641.543 593.912C641.245 594.707 640.554 595.105 639.634 595.105C638.257 595.105 637.307 594.215 637.253 592.58H642.796V592.082C642.796 589.239 641.106 588.264 639.515 588.264C637.446 588.264 636.074 589.895 636.074 592.241C636.074 594.588 637.427 596.159 639.634 596.159ZM637.253 591.565C637.332 590.377 638.172 589.318 639.515 589.318C640.787 589.318 641.603 590.273 641.603 591.565H637.253ZM647.663 599.023C649.493 599.023 650.964 598.188 650.964 596.219V588.364H649.831V589.577H649.711C649.453 589.179 648.976 588.264 647.484 588.264C645.555 588.264 644.223 589.795 644.223 592.142C644.223 594.528 645.615 595.881 647.464 595.881C648.956 595.881 649.433 595.006 649.691 594.588H649.791V596.139C649.791 597.412 648.896 597.989 647.663 597.989C646.276 597.989 645.789 597.258 645.476 596.835L644.541 597.491C645.018 598.292 645.958 599.023 647.663 599.023ZM647.623 594.827C646.152 594.827 645.396 593.713 645.396 592.122C645.396 590.571 646.132 589.318 647.623 589.318C649.055 589.318 649.811 590.472 649.811 592.122C649.811 593.812 649.035 594.827 647.623 594.827ZM655.359 596.179C656.691 596.179 657.388 595.463 657.626 594.966H657.686V596H658.859V590.969C658.859 588.543 657.01 588.264 656.035 588.264C654.882 588.264 653.569 588.662 652.973 590.054L654.086 590.452C654.345 589.895 654.956 589.298 656.075 589.298C657.154 589.298 657.686 589.87 657.686 590.849V590.889C657.686 591.456 657.109 591.406 655.717 591.585C654.3 591.769 652.754 592.082 652.754 593.832C652.754 595.324 653.907 596.179 655.359 596.179ZM655.538 595.125C654.603 595.125 653.927 594.707 653.927 593.892C653.927 592.997 654.743 592.719 655.657 592.599C656.155 592.54 657.487 592.401 657.686 592.162V593.236C657.686 594.19 656.93 595.125 655.538 595.125ZM664.322 588.364H662.691V586.534H661.518V588.364H660.364V589.358H661.518V594.131C661.518 595.463 662.592 596.099 663.586 596.099C664.023 596.099 664.302 596.02 664.461 595.96L664.222 594.906C664.123 594.926 663.964 594.966 663.705 594.966C663.188 594.966 662.691 594.807 662.691 593.812V589.358H664.322V588.364ZM669.206 596.159C670.757 596.159 671.891 595.384 672.249 594.23L671.115 593.912C670.817 594.707 670.126 595.105 669.206 595.105C667.829 595.105 666.88 594.215 666.825 592.58H672.368V592.082C672.368 589.239 670.678 588.264 669.087 588.264C667.019 588.264 665.647 589.895 665.647 592.241C665.647 594.588 666.999 596.159 669.206 596.159ZM666.825 591.565C666.904 590.377 667.745 589.318 669.087 589.318C670.36 589.318 671.175 590.273 671.175 591.565H666.825ZM675.684 593.136H676.877V593.077C676.897 591.844 677.215 591.307 678.09 590.76C678.965 590.228 679.483 589.462 679.483 588.364C679.483 586.812 678.349 585.679 676.599 585.679C674.988 585.679 673.71 586.673 673.636 588.364H674.889C674.963 587.19 675.784 586.713 676.599 586.713C677.534 586.713 678.289 587.33 678.289 588.304C678.289 589.094 677.837 589.661 677.255 590.014C676.281 590.606 675.699 591.183 675.684 593.077V593.136ZM676.321 596.08C676.813 596.08 677.215 595.677 677.215 595.185C677.215 594.692 676.813 594.29 676.321 594.29C675.828 594.29 675.426 594.692 675.426 595.185C675.426 595.677 675.828 596.08 676.321 596.08Z" fill="white"/>
<path d="M216 743L221.773 733L210.226 733L216 743ZM215 250L215 734L217 734L217 250L215 250Z" fill="#369FAB"/>
<path d="M552 226L547 223.113L547 228.887L552 226ZM310 226.5L312.017 226.5L312.017 225.5L310 225.5L310 226.5ZM316.05 226.5L320.083 226.5L320.083 225.5L316.05 225.5L316.05 226.5ZM324.117 226.5L328.15 226.5L328.15 225.5L324.117 225.5L324.117 226.5ZM332.183 226.5L336.217 226.5L336.217 225.5L332.183 225.5L332.183 226.5ZM340.25 226.5L344.283 226.5L344.283 225.5L340.25 225.5L340.25 226.5ZM348.317 226.5L352.35 226.5L352.35 225.5L348.317 225.5L348.317 226.5ZM356.383 226.5L360.417 226.5L360.417 225.5L356.383 225.5L356.383 226.5ZM364.45 226.5L368.483 226.5L368.483 225.5L364.45 225.5L364.45 226.5ZM372.517 226.5L376.55 226.5L376.55 225.5L372.517 225.5L372.517 226.5ZM380.583 226.5L384.617 226.5L384.617 225.5L380.583 225.5L380.583 226.5ZM388.65 226.5L392.683 226.5L392.683 225.5L388.65 225.5L388.65 226.5ZM396.717 226.5L400.75 226.5L400.75 225.5L396.717 225.5L396.717 226.5ZM404.783 226.5L408.817 226.5L408.817 225.5L404.783 225.5L404.783 226.5ZM412.85 226.5L416.883 226.5L416.883 225.5L412.85 225.5L412.85 226.5ZM420.917 226.5L424.95 226.5L424.95 225.5L420.917 225.5L420.917 226.5ZM428.983 226.5L433.017 226.5L433.017 225.5L428.983 225.5L428.983 226.5ZM437.05 226.5L441.083 226.5L441.083 225.5L437.05 225.5L437.05 226.5ZM445.117 226.5L449.15 226.5L449.15 225.5L445.117 225.5L445.117 226.5ZM453.183 226.5L457.217 226.5L457.217 225.5L453.183 225.5L453.183 226.5ZM461.25 226.5L465.283 226.5L465.283 225.5L461.25 225.5L461.25 226.5ZM469.317 226.5L473.35 226.5L473.35 225.5L469.317 225.5L469.317 226.5ZM477.383 226.5L481.417 226.5L481.417 225.5L477.383 225.5L477.383 226.5ZM485.45 226.5L489.483 226.5L489.483 225.5L485.45 225.5L485.45 226.5ZM493.517 226.5L497.55 226.5L497.55 225.5L493.517 225.5L493.517 226.5ZM501.583 226.5L505.617 226.5L505.617 225.5L501.583 225.5L501.583 226.5ZM509.65 226.5L513.683 226.5L513.683 225.5L509.65 225.5L509.65 226.5ZM517.717 226.5L521.75 226.5L521.75 225.5L517.717 225.5L517.717 226.5ZM525.783 226.5L529.817 226.5L529.817 225.5L525.783 225.5L525.783 226.5ZM533.85 226.5L537.883 226.5L537.883 225.5L533.85 225.5L533.85 226.5ZM541.917 226.5L545.95 226.5L545.95 225.5L541.917 225.5L541.917 226.5ZM552 226L542 220.227L542 231.774L552 226ZM310 227L312.017 227L312.017 225L310 225L310 227ZM316.05 227L320.083 227L320.083 225L316.05 225L316.05 227ZM324.117 227L328.15 227L328.15 225L324.117 225L324.117 227ZM332.183 227L336.217 227L336.217 225L332.183 225L332.183 227ZM340.25 227L344.283 227L344.283 225L340.25 225L340.25 227ZM348.317 227L352.35 227L352.35 225L348.317 225L348.317 227ZM356.383 227L360.417 227L360.417 225L356.383 225L356.383 227ZM364.45 227L368.483 227L368.483 225L364.45 225L364.45 227ZM372.517 227L376.55 227L376.55 225L372.517 225L372.517 227ZM380.583 227L384.617 227L384.617 225L380.583 225L380.583 227ZM388.65 227L392.683 227L392.683 225L388.65 225L388.65 227ZM396.717 227L400.75 227L400.75 225L396.717 225L396.717 227ZM404.783 227L408.817 227L408.817 225L404.783 225L404.783 227ZM412.85 227L416.883 227L416.883 225L412.85 225L412.85 227ZM420.917 227L424.95 227L424.95 225L420.917 225L420.917 227ZM428.983 227L433.017 227L433.017 225L428.983 225L428.983 227ZM437.05 227L441.083 227L441.083 225L437.05 225L437.05 227ZM445.117 227L449.15 227L449.15 225L445.117 225L445.117 227ZM453.183 227L457.217 227L457.217 225L453.183 225L453.183 227ZM461.25 227L465.283 227L465.283 225L461.25 225L461.25 227ZM469.317 227L473.35 227L473.35 225L469.317 225L469.317 227ZM477.383 227L481.417 227L481.417 225L477.383 225L477.383 227ZM485.45 227L489.483 227L489.483 225L485.45 225L485.45 227ZM493.517 227L497.55 227L497.55 225L493.517 225L493.517 227ZM501.583 227L505.617 227L505.617 225L501.583 225L501.583 227ZM509.65 227L513.683 227L513.683 225L509.65 225L509.65 227ZM517.717 227L521.75 227L521.75 225L517.717 225L517.717 227ZM525.783 227L529.817 227L529.817 225L525.783 225L525.783 227ZM533.85 227L537.883 227L537.883 225L533.85 225L533.85 227ZM541.917 227L545.95 227L545.95 225L541.917 225L541.917 227Z" fill="#369FAB"/>
<path d="M315 768L320 770.887L320 765.113L315 768ZM321 768.5L325 768.5L325 767.5L321 767.5L321 768.5ZM329 768.5L333 768.5L333 767.5L329 767.5L329 768.5ZM337 768.5L341 768.5L341 767.5L337 767.5L337 768.5ZM345 768.5L349 768.5L349 767.5L345 767.5L345 768.5ZM353 768.5L357 768.5L357 767.5L353 767.5L353 768.5ZM361 768.5L365 768.5L365 767.5L361 767.5L361 768.5ZM369 768.5L373 768.5L373 767.5L369 767.5L369 768.5ZM377 768.5L381 768.5L381 767.5L377 767.5L377 768.5ZM385 768.5L389 768.5L389 767.5L385 767.5L385 768.5ZM393 768.5L397 768.5L397 767.5L393 767.5L393 768.5ZM401 768.5L405 768.5L405 767.5L401 767.5L401 768.5ZM409 768.5L413 768.5L413 767.5L409 767.5L409 768.5ZM417 768.5L421 768.5L421 767.5L417 767.5L417 768.5ZM425 768.5L429 768.5L429 767.5L425 767.5L425 768.5ZM433 768.5L437 768.5L437 767.5L433 767.5L433 768.5ZM441 768.5L445 768.5L445 767.5L441 767.5L441 768.5ZM449 768.5L453 768.5L453 767.5L449 767.5L449 768.5ZM457 768.5L461 768.5L461 767.5L457 767.5L457 768.5ZM465 768.5L469 768.5L469 767.5L465 767.5L465 768.5ZM473 768.5L477 768.5L477 767.5L473 767.5L473 768.5ZM481 768.5L485 768.5L485 767.5L481 767.5L481 768.5ZM489 768.5L493 768.5L493 767.5L489 767.5L489 768.5ZM497 768.5L501 768.5L501 767.5L497 767.5L497 768.5ZM505 768.5L509 768.5L509 767.5L505 767.5L505 768.5ZM513 768.5L517 768.5L517 767.5L513 767.5L513 768.5ZM521 768.5L525 768.5L525 767.5L521 767.5L521 768.5ZM529 768.5L533 768.5L533 767.5L529 767.5L529 768.5ZM537 768.5L541 768.5L541 767.5L537 767.5L537 768.5ZM545 768.5L547 768.5L547 767.5L545 767.5L545 768.5ZM315 768L325 773.774L325 762.226L315 768ZM321 769L325 769L325 767L321 767L321 769ZM329 769L333 769L333 767L329 767L329 769ZM337 769L341 769L341 767L337 767L337 769ZM345 769L349 769L349 767L345 767L345 769ZM353 769L357 769L357 767L353 767L353 769ZM361 769L365 769L365 767L361 767L361 769ZM369 769L373 769L373 767L369 767L369 769ZM377 769L381 769L381 767L377 767L377 769ZM385 769L389 769L389 767L385 767L385 769ZM393 769L397 769L397 767L393 767L393 769ZM401 769L405 769L405 767L401 767L401 769ZM409 769L413 769L413 767L409 767L409 769ZM417 769L421 769L421 767L417 767L417 769ZM425 769L429 769L429 767L425 767L425 769ZM433 769L437 769L437 767L433 767L433 769ZM441 769L445 769L445 767L441 767L441 769ZM449 769L453 769L453 767L449 767L449 769ZM457 769L461 769L461 767L457 767L457 769ZM465 769L469 769L469 767L465 767L465 769ZM473 769L477 769L477 767L473 767L473 769ZM481 769L485 769L485 767L481 767L481 769ZM489 769L493 769L493 767L489 767L489 769ZM497 769L501 769L501 767L497 767L497 769ZM505 769L509 769L509 767L505 767L505 769ZM513 769L517 769L517 767L513 767L513 769ZM521 769L525 769L525 767L521 767L521 769ZM529 769L533 769L533 767L529 767L529 769ZM537 769L541 769L541 767L537 767L537 769ZM545 769L547 769L547 767L545 767L545 769Z" fill="#369FAB"/>
<path d="M216 201L221.774 191L210.226 191L216 201ZM215 148L215 192L217 192L217 148L215 148Z" fill="#7CA2C1"/>
<path d="M216 835L221.774 825L210.226 825L216 835ZM215 793L215 826L217 826L217 793L215 793Z" fill="#4079A2"/>
<path d="M647 293L652.774 283L641.226 283L647 293ZM646 251L646 284L648 284L648 251L646 251Z" fill="#4079A2"/>
<path d="M647 567L652.774 557L641.226 557L647 567ZM646 531L646 558L648 558L648 531L646 531Z" fill="#294C6F"/>
<path d="M647 387L652.774 377L641.226 377L647 387ZM646 343L646 378L648 378L648 343L646 343Z" fill="#73A97B"/>
<path d="M647 481L652.774 471L641.226 471L647 481ZM646 437L646 472L648 472L648 437L646 437Z" fill="#73A97B"/>
<path d="M751 318L741 312.226V323.774L751 318ZM695 319H742V317H695V319Z" fill="#C56550"/>
<path d="M226.163 164.912H229.365V174H230.598V164.912H233.8V163.818H226.163V164.912ZM234.751 174H235.924V169.168C235.924 168.134 236.739 167.378 237.853 167.378C238.166 167.378 238.489 167.438 238.569 167.457V166.264C238.435 166.254 238.126 166.244 237.952 166.244C237.038 166.244 236.242 166.761 235.964 167.517H235.884V166.364H234.751V174ZM244.772 170.878C244.772 172.31 243.678 172.966 242.803 172.966C241.829 172.966 241.133 172.25 241.133 171.136V166.364H239.96V171.216C239.96 173.165 240.994 174.099 242.426 174.099C243.579 174.099 244.335 173.483 244.693 172.707H244.772V174H245.945V166.364H244.772V170.878ZM253.503 168.074C253.136 166.99 252.31 166.264 250.799 166.264C249.188 166.264 247.995 167.179 247.995 168.472C247.995 169.526 248.621 170.232 250.023 170.56L251.296 170.858C252.067 171.037 252.43 171.405 252.43 171.932C252.43 172.588 251.734 173.125 250.64 173.125C249.68 173.125 249.079 172.712 248.87 171.892L247.756 172.17C248.03 173.468 249.099 174.159 250.66 174.159C252.435 174.159 253.643 173.19 253.643 171.872C253.643 170.808 252.976 170.137 251.614 169.804L250.481 169.526C249.576 169.302 249.168 168.999 249.168 168.412C249.168 167.756 249.864 167.278 250.799 167.278C251.823 167.278 252.246 167.845 252.449 168.372L253.503 168.074ZM258.73 166.364H257.099V164.534H255.926V166.364H254.772V167.358H255.926V172.131C255.926 173.463 257 174.099 257.994 174.099C258.432 174.099 258.71 174.02 258.869 173.96L258.63 172.906C258.531 172.926 258.372 172.966 258.113 172.966C257.596 172.966 257.099 172.807 257.099 171.812V167.358H258.73V166.364ZM263.614 174.159C265.166 174.159 266.299 173.384 266.657 172.23L265.524 171.912C265.225 172.707 264.534 173.105 263.614 173.105C262.237 173.105 261.288 172.215 261.233 170.58H266.776V170.082C266.776 167.239 265.086 166.264 263.495 166.264C261.427 166.264 260.055 167.895 260.055 170.241C260.055 172.588 261.407 174.159 263.614 174.159ZM261.233 169.565C261.313 168.377 262.153 167.318 263.495 167.318C264.768 167.318 265.583 168.273 265.583 169.565H261.233ZM271.445 174.159C272.916 174.159 273.413 173.244 273.672 172.827H273.811V174H274.945V163.818H273.771V167.577H273.672C273.413 167.179 272.956 166.264 271.465 166.264C269.536 166.264 268.203 167.795 268.203 170.202C268.203 172.628 269.536 174.159 271.445 174.159ZM271.604 173.105C270.132 173.105 269.377 171.812 269.377 170.182C269.377 168.571 270.112 167.318 271.604 167.318C273.036 167.318 273.791 168.472 273.791 170.182C273.791 171.912 273.016 173.105 271.604 173.105ZM281.631 169.088H277.177V170.182H281.631V169.088ZM283.855 174H285.088V170.281H287.315C289.687 170.281 290.756 168.839 290.756 167.04C290.756 165.24 289.687 163.818 287.295 163.818H283.855V174ZM285.088 169.188V164.912H287.256C288.911 164.912 289.543 165.817 289.543 167.04C289.543 168.263 288.911 169.188 287.275 169.188H285.088ZM294.83 174.179C296.162 174.179 296.858 173.463 297.097 172.966H297.157V174H298.33V168.969C298.33 166.543 296.48 166.264 295.506 166.264C294.353 166.264 293.04 166.662 292.443 168.054L293.557 168.452C293.816 167.895 294.427 167.298 295.546 167.298C296.625 167.298 297.157 167.87 297.157 168.849V168.889C297.157 169.456 296.58 169.406 295.188 169.585C293.771 169.769 292.225 170.082 292.225 171.832C292.225 173.324 293.378 174.179 294.83 174.179ZM295.009 173.125C294.074 173.125 293.398 172.707 293.398 171.892C293.398 170.997 294.213 170.719 295.128 170.599C295.625 170.54 296.958 170.401 297.157 170.162V171.236C297.157 172.19 296.401 173.125 295.009 173.125ZM300.471 174H301.645V169.168C301.645 168.134 302.46 167.378 303.574 167.378C303.887 167.378 304.21 167.438 304.29 167.457V166.264C304.155 166.254 303.847 166.244 303.673 166.244C302.758 166.244 301.963 166.761 301.684 167.517H301.605V166.364H300.471V174ZM309.48 166.364H307.849V164.534H306.676V166.364H305.522V167.358H306.676V172.131C306.676 173.463 307.75 174.099 308.744 174.099C309.182 174.099 309.46 174.02 309.619 173.96L309.38 172.906C309.281 172.926 309.122 172.966 308.863 172.966C308.346 172.966 307.849 172.807 307.849 171.812V167.358H309.48V166.364ZM312 176.864C313.059 176.864 313.805 176.302 314.248 175.114L317.499 166.384L316.216 166.364L314.108 172.449H314.029L311.921 166.364H310.648L313.472 174.04L313.253 174.636C312.826 175.8 312.299 175.909 311.444 175.69L311.145 176.724C311.265 176.784 311.603 176.864 312 176.864ZM322.989 174H324.162V166.364H322.989V174ZM323.585 165.091C324.043 165.091 324.421 164.733 324.421 164.295C324.421 163.858 324.043 163.5 323.585 163.5C323.128 163.5 322.75 163.858 322.75 164.295C322.75 164.733 323.128 165.091 323.585 165.091ZM327.484 169.406C327.484 168.074 328.31 167.318 329.433 167.318C330.522 167.318 331.183 168.029 331.183 169.227V174H332.357V169.148C332.357 167.199 331.318 166.264 329.771 166.264C328.618 166.264 327.902 166.781 327.544 167.557H327.445V166.364H326.311V174H327.484V169.406ZM334.501 174H335.674V166.364H334.501V174ZM335.097 165.091C335.555 165.091 335.932 164.733 335.932 164.295C335.932 163.858 335.555 163.5 335.097 163.5C334.64 163.5 334.262 163.858 334.262 164.295C334.262 164.733 334.64 165.091 335.097 165.091ZM341.144 166.364H339.513V164.534H338.34V166.364H337.187V167.358H338.34V172.131C338.34 173.463 339.414 174.099 340.408 174.099C340.846 174.099 341.124 174.02 341.283 173.96L341.044 172.906C340.945 172.926 340.786 172.966 340.527 172.966C340.01 172.966 339.513 172.807 339.513 171.812V167.358H341.144V166.364ZM342.909 174H344.082V166.364H342.909V174ZM343.505 165.091C343.963 165.091 344.341 164.733 344.341 164.295C344.341 163.858 343.963 163.5 343.505 163.5C343.048 163.5 342.67 163.858 342.67 164.295C342.67 164.733 343.048 165.091 343.505 165.091ZM348.478 174.179C349.811 174.179 350.507 173.463 350.745 172.966H350.805V174H351.978V168.969C351.978 166.543 350.129 166.264 349.154 166.264C348.001 166.264 346.688 166.662 346.092 168.054L347.206 168.452C347.464 167.895 348.076 167.298 349.194 167.298C350.273 167.298 350.805 167.87 350.805 168.849V168.889C350.805 169.456 350.228 169.406 348.836 169.585C347.419 169.769 345.873 170.082 345.873 171.832C345.873 173.324 347.027 174.179 348.478 174.179ZM348.657 173.125C347.723 173.125 347.046 172.707 347.046 171.892C347.046 170.997 347.862 170.719 348.777 170.599C349.274 170.54 350.606 170.401 350.805 170.162V171.236C350.805 172.19 350.049 173.125 348.657 173.125ZM357.441 166.364H355.81V164.534H354.637V166.364H353.483V167.358H354.637V172.131C354.637 173.463 355.711 174.099 356.705 174.099C357.142 174.099 357.421 174.02 357.58 173.96L357.341 172.906C357.242 172.926 357.083 172.966 356.824 172.966C356.307 172.966 355.81 172.807 355.81 171.812V167.358H357.441V166.364ZM362.325 174.159C363.877 174.159 365.01 173.384 365.368 172.23L364.234 171.912C363.936 172.707 363.245 173.105 362.325 173.105C360.948 173.105 359.999 172.215 359.944 170.58H365.487V170.082C365.487 167.239 363.797 166.264 362.206 166.264C360.138 166.264 358.766 167.895 358.766 170.241C358.766 172.588 360.118 174.159 362.325 174.159ZM359.944 169.565C360.024 168.377 360.864 167.318 362.206 167.318C363.479 167.318 364.294 168.273 364.294 169.565H359.944ZM372.681 168.074C372.313 166.99 371.488 166.264 369.977 166.264C368.366 166.264 367.173 167.179 367.173 168.472C367.173 169.526 367.799 170.232 369.201 170.56L370.474 170.858C371.244 171.037 371.607 171.405 371.607 171.932C371.607 172.588 370.911 173.125 369.818 173.125C368.858 173.125 368.256 172.712 368.048 171.892L366.934 172.17C367.207 173.468 368.276 174.159 369.837 174.159C371.612 174.159 372.82 173.19 372.82 171.872C372.82 170.808 372.154 170.137 370.792 169.804L369.658 169.526C368.754 169.302 368.346 168.999 368.346 168.412C368.346 167.756 369.042 167.278 369.977 167.278C371.001 167.278 371.423 167.845 371.627 168.372L372.681 168.074Z" fill="#7CA2C1"/>
<path d="M657.831 367.864C658.89 367.864 659.636 367.302 660.079 366.114L663.33 357.384L662.047 357.364L659.939 363.449H659.86L657.752 357.364H656.479L659.303 365.04L659.084 365.636C658.657 366.8 658.13 366.909 657.275 366.69L656.976 367.724C657.096 367.784 657.434 367.864 657.831 367.864ZM667.811 365.159C669.362 365.159 670.495 364.384 670.853 363.23L669.72 362.912C669.422 363.707 668.73 364.105 667.811 364.105C666.434 364.105 665.484 363.215 665.429 361.58H670.973V361.082C670.973 358.239 669.282 357.264 667.691 357.264C665.623 357.264 664.251 358.895 664.251 361.241C664.251 363.588 665.603 365.159 667.811 365.159ZM665.429 360.565C665.509 359.377 666.349 358.318 667.691 358.318C668.964 358.318 669.779 359.273 669.779 360.565H665.429ZM678.167 359.074C677.799 357.99 676.973 357.264 675.462 357.264C673.851 357.264 672.658 358.179 672.658 359.472C672.658 360.526 673.284 361.232 674.686 361.56L675.959 361.858C676.73 362.037 677.093 362.405 677.093 362.932C677.093 363.588 676.397 364.125 675.303 364.125C674.343 364.125 673.742 363.712 673.533 362.892L672.419 363.17C672.693 364.468 673.762 365.159 675.323 365.159C677.098 365.159 678.306 364.19 678.306 362.872C678.306 361.808 677.64 361.137 676.277 360.804L675.144 360.526C674.239 360.302 673.831 359.999 673.831 359.412C673.831 358.756 674.527 358.278 675.462 358.278C676.486 358.278 676.909 358.845 677.113 359.372L678.167 359.074Z" fill="#73A97B"/>
<path d="M657.831 461.864C658.89 461.864 659.636 461.302 660.079 460.114L663.33 451.384L662.047 451.364L659.939 457.449H659.86L657.752 451.364H656.479L659.303 459.04L659.084 459.636C658.657 460.8 658.13 460.909 657.275 460.69L656.976 461.724C657.096 461.784 657.434 461.864 657.831 461.864ZM667.811 459.159C669.362 459.159 670.495 458.384 670.853 457.23L669.72 456.912C669.422 457.707 668.73 458.105 667.811 458.105C666.434 458.105 665.484 457.215 665.429 455.58H670.973V455.082C670.973 452.239 669.282 451.264 667.691 451.264C665.623 451.264 664.251 452.895 664.251 455.241C664.251 457.588 665.603 459.159 667.811 459.159ZM665.429 454.565C665.509 453.377 666.349 452.318 667.691 452.318C668.964 452.318 669.779 453.273 669.779 454.565H665.429ZM678.167 453.074C677.799 451.99 676.973 451.264 675.462 451.264C673.851 451.264 672.658 452.179 672.658 453.472C672.658 454.526 673.284 455.232 674.686 455.56L675.959 455.858C676.73 456.037 677.093 456.405 677.093 456.932C677.093 457.588 676.397 458.125 675.303 458.125C674.343 458.125 673.742 457.712 673.533 456.892L672.419 457.17C672.693 458.468 673.762 459.159 675.323 459.159C677.098 459.159 678.306 458.19 678.306 456.872C678.306 455.808 677.64 455.137 676.277 454.804L675.144 454.526C674.239 454.302 673.831 453.999 673.831 453.412C673.831 452.756 674.527 452.278 675.462 452.278C676.486 452.278 676.909 452.845 677.113 453.372L678.167 453.074Z" fill="#73A97B"/>
<path d="M710.476 308.406C710.476 307.074 711.301 306.318 712.425 306.318C713.513 306.318 714.175 307.029 714.175 308.227V313H715.348V308.148C715.348 306.199 714.309 305.264 712.763 305.264C711.609 305.264 710.893 305.781 710.535 306.557H710.436V305.364H709.302V313H710.476V308.406ZM720.594 313.159C722.662 313.159 724.054 311.588 724.054 309.222C724.054 306.835 722.662 305.264 720.594 305.264C718.526 305.264 717.134 306.835 717.134 309.222C717.134 311.588 718.526 313.159 720.594 313.159ZM720.594 312.105C719.023 312.105 718.307 310.753 718.307 309.222C718.307 307.69 719.023 306.318 720.594 306.318C722.165 306.318 722.881 307.69 722.881 309.222C722.881 310.753 722.165 312.105 720.594 312.105Z" fill="#C56550"/>
<path d="M549.476 403.406C549.476 402.074 550.301 401.318 551.425 401.318C552.513 401.318 553.175 402.029 553.175 403.227V408H554.348V403.148C554.348 401.199 553.309 400.264 551.763 400.264C550.609 400.264 549.893 400.781 549.535 401.557H549.436V400.364H548.302V408H549.476V403.406ZM559.594 408.159C561.662 408.159 563.054 406.588 563.054 404.222C563.054 401.835 561.662 400.264 559.594 400.264C557.526 400.264 556.134 401.835 556.134 404.222C556.134 406.588 557.526 408.159 559.594 408.159ZM559.594 407.105C558.023 407.105 557.307 405.753 557.307 404.222C557.307 402.69 558.023 401.318 559.594 401.318C561.165 401.318 561.881 402.69 561.881 404.222C561.881 405.753 561.165 407.105 559.594 407.105Z" fill="#C56550"/>
<path d="M749.458 361H750.691V357.281H752.918C755.289 357.281 756.358 355.839 756.358 354.04C756.358 352.24 755.289 350.818 752.898 350.818H749.458V361ZM750.691 356.188V351.912H752.858C754.514 351.912 755.145 352.817 755.145 354.04C755.145 355.263 754.514 356.188 752.878 356.188H750.691ZM758.185 361H759.358V356.168C759.358 355.134 760.174 354.378 761.287 354.378C761.601 354.378 761.924 354.438 762.003 354.457V353.264C761.869 353.254 761.561 353.244 761.387 353.244C760.472 353.244 759.677 353.761 759.398 354.517H759.319V353.364H758.185V361ZM766.264 361.159C768.332 361.159 769.724 359.588 769.724 357.222C769.724 354.835 768.332 353.264 766.264 353.264C764.196 353.264 762.804 354.835 762.804 357.222C762.804 359.588 764.196 361.159 766.264 361.159ZM766.264 360.105C764.693 360.105 763.977 358.753 763.977 357.222C763.977 355.69 764.693 354.318 766.264 354.318C767.835 354.318 768.551 355.69 768.551 357.222C768.551 358.753 767.835 360.105 766.264 360.105ZM771.674 361H772.808V359.827H772.947C773.206 360.244 773.703 361.159 775.174 361.159C777.083 361.159 778.416 359.628 778.416 357.202C778.416 354.795 777.083 353.264 775.154 353.264C773.663 353.264 773.206 354.179 772.947 354.577H772.848V350.818H771.674V361ZM772.828 357.182C772.828 355.472 773.583 354.318 775.015 354.318C776.507 354.318 777.243 355.571 777.243 357.182C777.243 358.812 776.487 360.105 775.015 360.105C773.603 360.105 772.828 358.912 772.828 357.182ZM781.384 350.818H780.211V361H781.384V350.818ZM786.735 361.159C788.286 361.159 789.419 360.384 789.777 359.23L788.644 358.912C788.345 359.707 787.654 360.105 786.735 360.105C785.357 360.105 784.408 359.215 784.353 357.58H789.896V357.082C789.896 354.239 788.206 353.264 786.615 353.264C784.547 353.264 783.175 354.895 783.175 357.241C783.175 359.588 784.527 361.159 786.735 361.159ZM784.353 356.565C784.433 355.377 785.273 354.318 786.615 354.318C787.888 354.318 788.703 355.273 788.703 356.565H784.353ZM791.681 361H792.855V356.227C792.855 355.109 793.67 354.318 794.585 354.318C795.475 354.318 796.096 354.9 796.096 355.77V361H797.289V356.028C797.289 355.044 797.906 354.318 798.98 354.318C799.815 354.318 800.531 354.761 800.531 355.889V361H801.704V355.889C801.704 354.094 800.74 353.264 799.377 353.264C798.284 353.264 797.483 353.766 797.09 354.557H797.011C796.633 353.741 795.967 353.264 794.963 353.264C793.968 353.264 793.232 353.741 792.914 354.557H792.815V353.364H791.681V361ZM754.393 378H755.626V374.023H757.853C757.943 374.023 758.027 374.023 758.112 374.018L760.26 378H761.691L759.39 373.794C760.687 373.352 761.294 372.293 761.294 370.94C761.294 369.141 760.22 367.818 757.833 367.818H754.393V378ZM755.626 372.909V368.912H757.794C759.444 368.912 760.081 369.717 760.081 370.94C760.081 372.163 759.444 372.909 757.814 372.909H755.626ZM766.309 378.159C767.86 378.159 768.993 377.384 769.351 376.23L768.218 375.912C767.92 376.707 767.229 377.105 766.309 377.105C764.932 377.105 763.982 376.215 763.927 374.58H769.471V374.082C769.471 371.239 767.78 370.264 766.189 370.264C764.121 370.264 762.749 371.895 762.749 374.241C762.749 376.588 764.101 378.159 766.309 378.159ZM763.927 373.565C764.007 372.377 764.847 371.318 766.189 371.318C767.462 371.318 768.278 372.273 768.278 373.565H763.927ZM771.256 380.864H772.429V376.827H772.528C772.787 377.244 773.284 378.159 774.756 378.159C776.665 378.159 777.997 376.628 777.997 374.202C777.997 371.795 776.665 370.264 774.736 370.264C773.244 370.264 772.787 371.179 772.528 371.577H772.389V370.364H771.256V380.864ZM772.409 374.182C772.409 372.472 773.165 371.318 774.596 371.318C776.088 371.318 776.824 372.571 776.824 374.182C776.824 375.812 776.068 377.105 774.596 377.105C773.184 377.105 772.409 375.912 772.409 374.182ZM782.889 378.159C784.957 378.159 786.349 376.588 786.349 374.222C786.349 371.835 784.957 370.264 782.889 370.264C780.821 370.264 779.429 371.835 779.429 374.222C779.429 376.588 780.821 378.159 782.889 378.159ZM782.889 377.105C781.318 377.105 780.602 375.753 780.602 374.222C780.602 372.69 781.318 371.318 782.889 371.318C784.46 371.318 785.176 372.69 785.176 374.222C785.176 375.753 784.46 377.105 782.889 377.105ZM788.14 378H789.314V373.168C789.314 372.134 790.129 371.378 791.243 371.378C791.556 371.378 791.879 371.438 791.958 371.457V370.264C791.824 370.254 791.516 370.244 791.342 370.244C790.427 370.244 789.632 370.761 789.353 371.517H789.274V370.364H788.14V378ZM797.149 370.364H795.518V368.534H794.345V370.364H793.191V371.358H794.345V376.131C794.345 377.463 795.419 378.099 796.413 378.099C796.85 378.099 797.129 378.02 797.288 377.96L797.049 376.906C796.95 376.926 796.791 376.966 796.532 376.966C796.015 376.966 795.518 376.807 795.518 375.812V371.358H797.149V370.364Z" fill="#C56550"/>
<circle cx="776.5" cy="318.5" r="23.5" stroke="#C56550" stroke-width="2" stroke-linecap="round" stroke-dasharray="4 4"/>
<rect x="760" y="308" width="33" height="21" rx="3" fill="#C56550" stroke="#111F3B" stroke-width="2"/>
<path d="M760 309L774.813 322.186C775.969 323.215 777.717 323.196 778.85 322.143L793 309" stroke="#111F3B" stroke-width="2" stroke-linejoin="round"/>
<rect x="577" y="481" width="140" height="50" rx="5" fill="#294C6F"/>
<path d="M606.438 502H607.671V498.281H609.898C612.27 498.281 613.339 496.839 613.339 495.04C613.339 493.24 612.27 491.818 609.878 491.818H606.438V502ZM607.671 497.188V492.912H609.839C611.494 492.912 612.126 493.817 612.126 495.04C612.126 496.263 611.494 497.188 609.858 497.188H607.671ZM615.166 502H616.339V497.168C616.339 496.134 617.154 495.378 618.268 495.378C618.581 495.378 618.904 495.438 618.984 495.457V494.264C618.85 494.254 618.541 494.244 618.367 494.244C617.453 494.244 616.657 494.761 616.379 495.517H616.299V494.364H615.166V502ZM623.344 502.159C624.895 502.159 626.029 501.384 626.387 500.23L625.253 499.912C624.955 500.707 624.264 501.105 623.344 501.105C621.967 501.105 621.017 500.215 620.963 498.58H626.506V498.082C626.506 495.239 624.816 494.264 623.225 494.264C621.156 494.264 619.784 495.895 619.784 498.241C619.784 500.588 621.137 502.159 623.344 502.159ZM620.963 497.565C621.042 496.377 621.882 495.318 623.225 495.318C624.497 495.318 625.313 496.273 625.313 497.565H620.963ZM633.7 496.074C633.332 494.99 632.507 494.264 630.995 494.264C629.384 494.264 628.191 495.179 628.191 496.472C628.191 497.526 628.818 498.232 630.22 498.56L631.492 498.858C632.263 499.037 632.626 499.405 632.626 499.932C632.626 500.588 631.93 501.125 630.836 501.125C629.877 501.125 629.275 500.712 629.066 499.892L627.953 500.17C628.226 501.468 629.295 502.159 630.856 502.159C632.631 502.159 633.839 501.19 633.839 499.872C633.839 498.808 633.173 498.137 631.811 497.804L630.677 497.526C629.772 497.302 629.365 496.999 629.365 496.412C629.365 495.756 630.061 495.278 630.995 495.278C632.019 495.278 632.442 495.845 632.646 496.372L633.7 496.074ZM638.807 502.159C640.358 502.159 641.491 501.384 641.849 500.23L640.716 499.912C640.418 500.707 639.727 501.105 638.807 501.105C637.43 501.105 636.48 500.215 636.425 498.58H641.969V498.082C641.969 495.239 640.278 494.264 638.688 494.264C636.619 494.264 635.247 495.895 635.247 498.241C635.247 500.588 636.599 502.159 638.807 502.159ZM636.425 497.565C636.505 496.377 637.345 495.318 638.688 495.318C639.96 495.318 640.776 496.273 640.776 497.565H636.425ZM644.927 497.406C644.927 496.074 645.752 495.318 646.876 495.318C647.964 495.318 648.626 496.029 648.626 497.227V502H649.799V497.148C649.799 495.199 648.76 494.264 647.214 494.264C646.06 494.264 645.344 494.781 644.987 495.557H644.887V494.364H643.754V502H644.927V497.406ZM655.264 494.364H653.633V492.534H652.46V494.364H651.307V495.358H652.46V500.131C652.46 501.463 653.534 502.099 654.528 502.099C654.966 502.099 655.244 502.02 655.403 501.96L655.165 500.906C655.065 500.926 654.906 500.966 654.648 500.966C654.131 500.966 653.633 500.807 653.633 499.812V495.358H655.264V494.364ZM659.276 502.179C660.608 502.179 661.305 501.463 661.543 500.966H661.603V502H662.776V496.969C662.776 494.543 660.927 494.264 659.952 494.264C658.799 494.264 657.486 494.662 656.89 496.054L658.003 496.452C658.262 495.895 658.873 495.298 659.992 495.298C661.071 495.298 661.603 495.87 661.603 496.849V496.889C661.603 497.456 661.026 497.406 659.634 497.585C658.217 497.769 656.671 498.082 656.671 499.832C656.671 501.324 657.824 502.179 659.276 502.179ZM659.455 501.125C658.52 501.125 657.844 500.707 657.844 499.892C657.844 498.997 658.66 498.719 659.574 498.599C660.072 498.54 661.404 498.401 661.603 498.162V499.236C661.603 500.19 660.847 501.125 659.455 501.125ZM668.239 494.364H666.608V492.534H665.435V494.364H664.281V495.358H665.435V500.131C665.435 501.463 666.509 502.099 667.503 502.099C667.94 502.099 668.219 502.02 668.378 501.96L668.139 500.906C668.04 500.926 667.881 500.966 667.622 500.966C667.105 500.966 666.608 500.807 666.608 499.812V495.358H668.239V494.364ZM670.004 502H671.177V494.364H670.004V502ZM670.6 493.091C671.058 493.091 671.435 492.733 671.435 492.295C671.435 491.858 671.058 491.5 670.6 491.5C670.143 491.5 669.765 491.858 669.765 492.295C669.765 492.733 670.143 493.091 670.6 493.091ZM676.428 502.159C678.496 502.159 679.888 500.588 679.888 498.222C679.888 495.835 678.496 494.264 676.428 494.264C674.36 494.264 672.968 495.835 672.968 498.222C672.968 500.588 674.36 502.159 676.428 502.159ZM676.428 501.105C674.857 501.105 674.141 499.753 674.141 498.222C674.141 496.69 674.857 495.318 676.428 495.318C677.999 495.318 678.715 496.69 678.715 498.222C678.715 499.753 677.999 501.105 676.428 501.105ZM682.853 497.406C682.853 496.074 683.678 495.318 684.801 495.318C685.89 495.318 686.551 496.029 686.551 497.227V502H687.725V497.148C687.725 495.199 686.686 494.264 685.14 494.264C683.986 494.264 683.27 494.781 682.912 495.557H682.813V494.364H681.679V502H682.853V497.406Z" fill="white"/>
<rect x="639" y="509" width="17" height="17" rx="3" fill="#369FAB"/>
<path d="M646.356 522.29H648.644V518.909H652.026V516.621H648.644V513.239H646.356V516.621H642.974V518.909H646.356V522.29Z" fill="white"/>
<rect x="499" y="655" width="140" height="50" rx="5" fill="#294C6F"/>
<rect x="654" y="655" width="140" height="50" rx="5" fill="#369FAB"/>
<path d="M570 706V717C570 718.105 570.895 719 572 719H647" stroke="#294C6F" stroke-width="2" stroke-linejoin="round" stroke-dasharray="4 4"/>
<path d="M724 706V717C724 718.105 723.105 719 722 719H647" stroke="#369FAB" stroke-width="2" stroke-linejoin="round" stroke-dasharray="4 4"/>
<path d="M533.572 676H534.805V672.023H537.032C537.122 672.023 537.206 672.023 537.291 672.018L539.438 676H540.87L538.568 671.794C539.866 671.352 540.472 670.293 540.472 668.94C540.472 667.141 539.399 665.818 537.012 665.818H533.572V676ZM534.805 670.909V666.912H536.972C538.623 666.912 539.259 667.717 539.259 668.94C539.259 670.163 538.623 670.909 536.992 670.909H534.805ZM545.487 676.159C547.039 676.159 548.172 675.384 548.53 674.23L547.397 673.912C547.098 674.707 546.407 675.105 545.487 675.105C544.11 675.105 543.161 674.215 543.106 672.58H548.649V672.082C548.649 669.239 546.959 668.264 545.368 668.264C543.3 668.264 541.928 669.895 541.928 672.241C541.928 674.588 543.28 676.159 545.487 676.159ZM543.106 671.565C543.186 670.377 544.026 669.318 545.368 669.318C546.641 669.318 547.456 670.273 547.456 671.565H543.106ZM556.446 668.364H555.173L553.065 674.449H552.986L550.878 668.364H549.605L552.429 676H553.622L556.446 668.364ZM560.824 676.159C562.892 676.159 564.284 674.588 564.284 672.222C564.284 669.835 562.892 668.264 560.824 668.264C558.755 668.264 557.363 669.835 557.363 672.222C557.363 674.588 558.755 676.159 560.824 676.159ZM560.824 675.105C559.253 675.105 558.537 673.753 558.537 672.222C558.537 670.69 559.253 669.318 560.824 669.318C562.395 669.318 563.111 670.69 563.111 672.222C563.111 673.753 562.395 675.105 560.824 675.105ZM569.177 676.159C570.867 676.159 571.981 675.125 572.18 673.773H571.007C570.788 674.608 570.092 675.105 569.177 675.105C567.785 675.105 566.89 673.952 566.89 672.182C566.89 670.452 567.805 669.318 569.177 669.318C570.211 669.318 570.828 669.955 571.007 670.651H572.18C571.981 669.219 570.768 668.264 569.157 668.264C567.089 668.264 565.717 669.895 565.717 672.222C565.717 674.509 567.029 676.159 569.177 676.159ZM576.142 676.179C577.475 676.179 578.171 675.463 578.409 674.966H578.469V676H579.642V670.969C579.642 668.543 577.793 668.264 576.818 668.264C575.665 668.264 574.353 668.662 573.756 670.054L574.87 670.452C575.128 669.895 575.74 669.298 576.858 669.298C577.937 669.298 578.469 669.87 578.469 670.849V670.889C578.469 671.456 577.892 671.406 576.5 671.585C575.083 671.769 573.537 672.082 573.537 673.832C573.537 675.324 574.691 676.179 576.142 676.179ZM576.321 675.125C575.387 675.125 574.71 674.707 574.71 673.892C574.71 672.997 575.526 672.719 576.441 672.599C576.938 672.54 578.27 672.401 578.469 672.162V673.236C578.469 674.19 577.713 675.125 576.321 675.125ZM585.105 668.364H583.474V666.534H582.301V668.364H581.147V669.358H582.301V674.131C582.301 675.463 583.375 676.099 584.369 676.099C584.807 676.099 585.085 676.02 585.244 675.96L585.005 674.906C584.906 674.926 584.747 674.966 584.488 674.966C583.971 674.966 583.474 674.807 583.474 673.812V669.358H585.105V668.364ZM586.87 676H588.043V668.364H586.87V676ZM587.466 667.091C587.924 667.091 588.302 666.733 588.302 666.295C588.302 665.858 587.924 665.5 587.466 665.5C587.009 665.5 586.631 665.858 586.631 666.295C586.631 666.733 587.009 667.091 587.466 667.091ZM593.294 676.159C595.362 676.159 596.755 674.588 596.755 672.222C596.755 669.835 595.362 668.264 593.294 668.264C591.226 668.264 589.834 669.835 589.834 672.222C589.834 674.588 591.226 676.159 593.294 676.159ZM593.294 675.105C591.723 675.105 591.007 673.753 591.007 672.222C591.007 670.69 591.723 669.318 593.294 669.318C594.865 669.318 595.581 670.69 595.581 672.222C595.581 673.753 594.865 675.105 593.294 675.105ZM599.719 671.406C599.719 670.074 600.544 669.318 601.668 669.318C602.756 669.318 603.418 670.029 603.418 671.227V676H604.591V671.148C604.591 669.199 603.552 668.264 602.006 668.264C600.852 668.264 600.136 668.781 599.778 669.557H599.679V668.364H598.546V676H599.719V671.406Z" fill="white"/>
<path d="M687.697 676H688.93V672.023H691.157C691.247 672.023 691.331 672.023 691.416 672.018L693.563 676H694.995L692.693 671.794C693.991 671.352 694.597 670.293 694.597 668.94C694.597 667.141 693.524 665.818 691.137 665.818H687.697V676ZM688.93 670.909V666.912H691.097C692.748 666.912 693.384 667.717 693.384 668.94C693.384 670.163 692.748 670.909 691.117 670.909H688.93ZM699.612 676.159C701.164 676.159 702.297 675.384 702.655 674.23L701.522 673.912C701.223 674.707 700.532 675.105 699.612 675.105C698.235 675.105 697.286 674.215 697.231 672.58H702.774V672.082C702.774 669.239 701.084 668.264 699.493 668.264C697.425 668.264 696.053 669.895 696.053 672.241C696.053 674.588 697.405 676.159 699.612 676.159ZM697.231 671.565C697.311 670.377 698.151 669.318 699.493 669.318C700.766 669.318 701.581 670.273 701.581 671.565H697.231ZM710.571 668.364H709.298L707.19 674.449H707.111L705.003 668.364H703.73L706.554 676H707.747L710.571 668.364ZM714.949 676.159C717.017 676.159 718.409 674.588 718.409 672.222C718.409 669.835 717.017 668.264 714.949 668.264C712.88 668.264 711.488 669.835 711.488 672.222C711.488 674.588 712.88 676.159 714.949 676.159ZM714.949 675.105C713.378 675.105 712.662 673.753 712.662 672.222C712.662 670.69 713.378 669.318 714.949 669.318C716.52 669.318 717.236 670.69 717.236 672.222C717.236 673.753 716.52 675.105 714.949 675.105ZM720.2 676H721.373V673.141L722.193 672.381L725.052 676H726.544L723.078 671.625L726.305 668.364H724.853L721.512 671.764H721.373V665.818H720.2V676ZM730.702 676.159C732.253 676.159 733.387 675.384 733.745 674.23L732.611 673.912C732.313 674.707 731.622 675.105 730.702 675.105C729.325 675.105 728.376 674.215 728.321 672.58H733.864V672.082C733.864 669.239 732.174 668.264 730.583 668.264C728.515 668.264 727.143 669.895 727.143 672.241C727.143 674.588 728.495 676.159 730.702 676.159ZM728.321 671.565C728.4 670.377 729.241 669.318 730.583 669.318C731.856 669.318 732.671 670.273 732.671 671.565H728.321ZM739.587 676H740.76V673.141L741.58 672.381L744.439 676H745.93L742.465 671.625L745.692 668.364H744.24L740.899 671.764H740.76V665.818H739.587V676ZM750.089 676.159C751.64 676.159 752.774 675.384 753.132 674.23L751.998 673.912C751.7 674.707 751.009 675.105 750.089 675.105C748.712 675.105 747.762 674.215 747.708 672.58H753.251V672.082C753.251 669.239 751.561 668.264 749.97 668.264C747.902 668.264 746.529 669.895 746.529 672.241C746.529 674.588 747.882 676.159 750.089 676.159ZM747.708 671.565C747.787 670.377 748.627 669.318 749.97 669.318C751.242 669.318 752.058 670.273 752.058 671.565H747.708ZM755.559 678.864C756.618 678.864 757.364 678.302 757.806 677.114L761.058 668.384L759.775 668.364L757.667 674.449H757.587L755.479 668.364H754.207L757.031 676.04L756.812 676.636C756.384 677.8 755.857 677.909 755.002 677.69L754.704 678.724C754.823 678.784 755.161 678.864 755.559 678.864ZM686.627 693.159C688.695 693.159 690.088 691.588 690.088 689.222C690.088 686.835 688.695 685.264 686.627 685.264C684.559 685.264 683.167 686.835 683.167 689.222C683.167 691.588 684.559 693.159 686.627 693.159ZM686.627 692.105C685.056 692.105 684.34 690.753 684.34 689.222C684.34 687.69 685.056 686.318 686.627 686.318C688.198 686.318 688.914 687.69 688.914 689.222C688.914 690.753 688.198 692.105 686.627 692.105ZM691.879 693H693.052V688.168C693.052 687.134 693.867 686.378 694.981 686.378C695.294 686.378 695.617 686.438 695.697 686.457V685.264C695.562 685.254 695.254 685.244 695.08 685.244C694.165 685.244 693.37 685.761 693.092 686.517H693.012V685.364H691.879V693ZM704.127 693.159C705.818 693.159 706.931 692.125 707.13 690.773H705.957C705.738 691.608 705.042 692.105 704.127 692.105C702.735 692.105 701.84 690.952 701.84 689.182C701.84 687.452 702.755 686.318 704.127 686.318C705.161 686.318 705.778 686.955 705.957 687.651H707.13C706.931 686.219 705.718 685.264 704.107 685.264C702.039 685.264 700.667 686.895 700.667 689.222C700.667 691.509 701.98 693.159 704.127 693.159ZM708.845 693H710.019V688.168C710.019 687.134 710.834 686.378 711.948 686.378C712.261 686.378 712.584 686.438 712.664 686.457V685.264C712.529 685.254 712.221 685.244 712.047 685.244C711.132 685.244 710.337 685.761 710.058 686.517H709.979V685.364H708.845V693ZM717.024 693.159C718.575 693.159 719.708 692.384 720.066 691.23L718.933 690.912C718.634 691.707 717.943 692.105 717.024 692.105C715.646 692.105 714.697 691.215 714.642 689.58H720.186V689.082C720.186 686.239 718.495 685.264 716.904 685.264C714.836 685.264 713.464 686.895 713.464 689.241C713.464 691.588 714.816 693.159 717.024 693.159ZM714.642 688.565C714.722 687.377 715.562 686.318 716.904 686.318C718.177 686.318 718.992 687.273 718.992 688.565H714.642ZM724.854 693.159C726.325 693.159 726.823 692.244 727.081 691.827H727.22V693H728.354V682.818H727.181V686.577H727.081C726.823 686.179 726.365 685.264 724.874 685.264C722.945 685.264 721.612 686.795 721.612 689.202C721.612 691.628 722.945 693.159 724.854 693.159ZM725.013 692.105C723.541 692.105 722.786 690.812 722.786 689.182C722.786 687.571 723.521 686.318 725.013 686.318C726.445 686.318 727.2 687.472 727.2 689.182C727.2 690.912 726.425 692.105 725.013 692.105ZM733.867 693.159C735.419 693.159 736.552 692.384 736.91 691.23L735.776 690.912C735.478 691.707 734.787 692.105 733.867 692.105C732.49 692.105 731.541 691.215 731.486 689.58H737.029V689.082C737.029 686.239 735.339 685.264 733.748 685.264C731.68 685.264 730.308 686.895 730.308 689.241C730.308 691.588 731.66 693.159 733.867 693.159ZM731.486 688.565C731.566 687.377 732.406 686.318 733.748 686.318C735.021 686.318 735.836 687.273 735.836 688.565H731.486ZM739.987 688.406C739.987 687.074 740.813 686.318 741.936 686.318C743.025 686.318 743.686 687.029 743.686 688.227V693H744.86V688.148C744.86 686.199 743.82 685.264 742.274 685.264C741.121 685.264 740.405 685.781 740.047 686.557H739.948V685.364H738.814V693H739.987V688.406ZM750.325 685.364H748.694V683.534H747.521V685.364H746.367V686.358H747.521V691.131C747.521 692.463 748.594 693.099 749.589 693.099C750.026 693.099 750.305 693.02 750.464 692.96L750.225 691.906C750.126 691.926 749.967 691.966 749.708 691.966C749.191 691.966 748.694 691.807 748.694 690.812V686.358H750.325V685.364ZM752.089 693H753.263V685.364H752.089V693ZM752.686 684.091C753.143 684.091 753.521 683.733 753.521 683.295C753.521 682.858 753.143 682.5 752.686 682.5C752.229 682.5 751.851 682.858 751.851 683.295C751.851 683.733 752.229 684.091 752.686 684.091ZM757.659 693.179C758.991 693.179 759.687 692.463 759.926 691.966H759.986V693H761.159V687.969C761.159 685.543 759.309 685.264 758.335 685.264C757.182 685.264 755.869 685.662 755.273 687.054L756.386 687.452C756.645 686.895 757.256 686.298 758.375 686.298C759.454 686.298 759.986 686.87 759.986 687.849V687.889C759.986 688.456 759.409 688.406 758.017 688.585C756.6 688.769 755.054 689.082 755.054 690.832C755.054 692.324 756.207 693.179 757.659 693.179ZM757.838 692.125C756.903 692.125 756.227 691.707 756.227 690.892C756.227 689.997 757.042 689.719 757.957 689.599C758.454 689.54 759.787 689.401 759.986 689.162V690.236C759.986 691.19 759.23 692.125 757.838 692.125ZM764.474 682.818H763.3V693H764.474V682.818Z" fill="white"/>
<path d="M571.831 587.864C572.89 587.864 573.636 587.302 574.079 586.114L577.33 577.384L576.047 577.364L573.939 583.449H573.86L571.752 577.364H570.479L573.303 585.04L573.084 585.636C572.657 586.8 572.13 586.909 571.275 586.69L570.976 587.724C571.096 587.784 571.434 587.864 571.831 587.864ZM581.811 585.159C583.362 585.159 584.495 584.384 584.853 583.23L583.72 582.912C583.422 583.707 582.73 584.105 581.811 584.105C580.434 584.105 579.484 583.215 579.429 581.58H584.973V581.082C584.973 578.239 583.282 577.264 581.691 577.264C579.623 577.264 578.251 578.895 578.251 581.241C578.251 583.588 579.603 585.159 581.811 585.159ZM579.429 580.565C579.509 579.377 580.349 578.318 581.691 578.318C582.964 578.318 583.779 579.273 583.779 580.565H579.429ZM592.167 579.074C591.799 577.99 590.973 577.264 589.462 577.264C587.851 577.264 586.658 578.179 586.658 579.472C586.658 580.526 587.284 581.232 588.686 581.56L589.959 581.858C590.73 582.037 591.093 582.405 591.093 582.932C591.093 583.588 590.397 584.125 589.303 584.125C588.343 584.125 587.742 583.712 587.533 582.892L586.419 583.17C586.693 584.468 587.762 585.159 589.323 585.159C591.098 585.159 592.306 584.19 592.306 582.872C592.306 581.808 591.64 581.137 590.277 580.804L589.144 580.526C588.239 580.302 587.831 579.999 587.831 579.412C587.831 578.756 588.527 578.278 589.462 578.278C590.486 578.278 590.909 578.845 591.113 579.372L592.167 579.074Z" fill="#73A97B"/>
<path d="M709.476 583.406C709.476 582.074 710.301 581.318 711.425 581.318C712.513 581.318 713.175 582.029 713.175 583.227V588H714.348V583.148C714.348 581.199 713.309 580.264 711.763 580.264C710.609 580.264 709.893 580.781 709.535 581.557H709.436V580.364H708.302V588H709.476V583.406ZM719.594 588.159C721.662 588.159 723.054 586.588 723.054 584.222C723.054 581.835 721.662 580.264 719.594 580.264C717.526 580.264 716.134 581.835 716.134 584.222C716.134 586.588 717.526 588.159 719.594 588.159ZM719.594 587.105C718.023 587.105 717.307 585.753 717.307 584.222C717.307 582.69 718.023 581.318 719.594 581.318C721.165 581.318 721.881 582.69 721.881 584.222C721.881 585.753 721.165 587.105 719.594 587.105Z" fill="#C56550"/>
<rect x="561" y="683" width="17" height="17" rx="3" fill="#369FAB"/>
<path d="M568.356 696.29H570.644V692.909H574.026V690.621H570.644V687.239H568.356V690.621H564.974V692.909H568.356V696.29Z" fill="white"/>
<path d="M724 655L729.774 645H718.226L724 655ZM695 593H722V591H695V593ZM723 594V646H725V594H723ZM722 593C722.552 593 723 593.448 723 594H725C725 592.343 723.657 591 722 591V593Z" fill="#C56550"/>
<path d="M570 655L564.226 645H575.774L570 655ZM599 593H572V591H599V593ZM571 594V646H569V594H571ZM572 593C571.448 593 571 593.448 571 594H569C569 592.343 570.343 591 572 591V593Z" fill="#73A97B"/>
<path d="M647 743L652.774 733L641.226 733L647 743ZM646 718L646 734L648 734L648 718L646 718Z" fill="#369FAB"/>
</svg>
