<svg width="862" height="584" viewBox="0 0 862 584" fill="none" xmlns="http://www.w3.org/2000/svg">
<rect x="0.5" y="0.5" width="861" height="583" fill="#111F3B" stroke="#293856"/>
<path d="M153.921 49.1911H157.929V60H160.665V49.1911H164.673V46.9091H153.921V49.1911ZM165.373 60H168.096V54.4453C168.096 53.2372 168.978 52.4062 170.18 52.4062C170.557 52.4062 171.074 52.4702 171.33 52.5533V50.1371C171.087 50.0795 170.748 50.0412 170.474 50.0412C169.374 50.0412 168.473 50.6804 168.115 51.8949H168.013V50.1818H165.373V60ZM179.034 55.8196C179.041 57.1364 178.139 57.8267 177.161 57.8267C176.132 57.8267 175.467 57.1044 175.461 55.9474V50.1818H172.738V56.4332C172.744 58.728 174.087 60.1278 176.062 60.1278C177.538 60.1278 178.6 59.3672 179.041 58.2166H179.143V60H181.757V50.1818H179.034V55.8196ZM192.104 52.9815C191.861 51.1726 190.404 50.054 187.924 50.054C185.412 50.054 183.756 51.2173 183.763 53.1094C183.756 54.5795 184.683 55.532 186.601 55.9155L188.301 56.2543C189.158 56.4268 189.547 56.7401 189.56 57.2322C189.547 57.8139 188.915 58.2294 187.962 58.2294C186.991 58.2294 186.345 57.8139 186.179 57.0149L183.501 57.1555C183.756 59.0348 185.354 60.1918 187.956 60.1918C190.5 60.1918 192.322 58.8942 192.328 56.9574C192.322 55.5384 191.395 54.6882 189.49 54.2983L187.713 53.9403C186.799 53.7422 186.46 53.429 186.467 52.956C186.46 52.3679 187.125 51.9844 187.969 51.9844C188.915 51.9844 189.477 52.5021 189.611 53.1349L192.104 52.9815ZM199.265 50.1818H197.418V47.8295H194.695V50.1818H193.352V52.2273H194.695V57.3409C194.682 59.2649 195.992 60.2173 197.967 60.1342C198.671 60.1087 199.169 59.968 199.444 59.8786L199.016 57.8523C198.881 57.8778 198.594 57.9418 198.338 57.9418C197.795 57.9418 197.418 57.7372 197.418 56.983V52.2273H199.265V50.1818ZM205.408 60.1918C207.837 60.1918 209.473 59.0092 209.857 57.1875L207.338 57.0213C207.063 57.7692 206.36 58.1591 205.453 58.1591C204.091 58.1591 203.228 57.2578 203.228 55.794V55.7876H209.914V55.0398C209.914 51.7031 207.894 50.054 205.299 50.054C202.41 50.054 200.537 52.1058 200.537 55.1357C200.537 58.2486 202.384 60.1918 205.408 60.1918ZM203.228 54.1001C203.286 52.9815 204.136 52.0866 205.344 52.0866C206.526 52.0866 207.345 52.9304 207.351 54.1001H203.228ZM215.309 60.1598C216.894 60.1598 217.719 59.2457 218.096 58.4276H218.211V60H220.896V46.9091H218.179V51.831H218.096C217.732 51.032 216.945 50.054 215.303 50.054C213.149 50.054 211.327 51.7287 211.327 55.1037C211.327 58.3892 213.072 60.1598 215.309 60.1598ZM216.172 57.9929C214.836 57.9929 214.107 56.804 214.107 55.0909C214.107 53.3906 214.823 52.2209 216.172 52.2209C217.495 52.2209 218.237 53.3395 218.237 55.0909C218.237 56.8423 217.482 57.9929 216.172 57.9929ZM229.252 53.544H223.282V55.7045H229.252V53.544ZM231.623 60H234.391V55.7557H236.718C239.728 55.7557 241.48 53.9595 241.48 51.3452C241.48 48.7436 239.76 46.9091 236.788 46.9091H231.623V60ZM234.391 53.5376V49.1719H236.257C237.855 49.1719 238.629 50.0412 238.629 51.3452C238.629 52.6428 237.855 53.5376 236.27 53.5376H234.391ZM245.762 60.1854C247.213 60.1854 248.153 59.5526 248.632 58.6385H248.709V60H251.291V53.3778C251.291 51.0384 249.31 50.054 247.124 50.054C244.772 50.054 243.225 51.179 242.848 52.9688L245.366 53.1733C245.551 52.5213 246.133 52.0419 247.111 52.0419C248.038 52.0419 248.568 52.5085 248.568 53.3139V53.3523C248.568 53.9851 247.897 54.0682 246.191 54.2344C244.247 54.4134 242.502 55.0653 242.502 57.2578C242.502 59.201 243.889 60.1854 245.762 60.1854ZM246.542 58.3061C245.705 58.3061 245.104 57.9162 245.104 57.1683C245.104 56.4013 245.737 56.0241 246.696 55.8899C247.29 55.8068 248.262 55.6662 248.588 55.4489V56.4908C248.588 57.5199 247.737 58.3061 246.542 58.3061ZM253.404 60H256.127V54.4453C256.127 53.2372 257.009 52.4062 258.211 52.4062C258.588 52.4062 259.106 52.4702 259.361 52.5533V50.1371C259.119 50.0795 258.78 50.0412 258.505 50.0412C257.405 50.0412 256.504 50.6804 256.146 51.8949H256.044V50.1818H253.404V60ZM266.484 50.1818H264.636V47.8295H261.913V50.1818H260.571V52.2273H261.913V57.3409C261.901 59.2649 263.211 60.2173 265.186 60.1342C265.889 60.1087 266.388 59.968 266.663 59.8786L266.234 57.8523C266.1 57.8778 265.813 57.9418 265.557 57.9418C265.014 57.9418 264.636 57.7372 264.636 56.983V52.2273H266.484V50.1818ZM269.939 63.6818C271.965 63.6818 273.039 62.6463 273.595 61.0611L277.411 50.1946L274.528 50.1818L272.476 57.392H272.374L270.341 50.1818H267.478L271 60.2812L270.84 60.6967C270.482 61.6172 269.798 61.6619 268.839 61.3679L268.226 63.4006C268.616 63.5668 269.248 63.6818 269.939 63.6818Z" fill="#4079A2"/>
<path d="M612.349 60H615.116V55.3594H617.136L619.616 60H622.672L619.891 54.9119C621.381 54.2727 622.205 52.9751 622.205 51.1854C622.205 48.5838 620.486 46.9091 617.513 46.9091H612.349V60ZM615.116 53.1349V49.1719H616.983C618.581 49.1719 619.354 49.8814 619.354 51.1854C619.354 52.483 618.581 53.1349 616.996 53.1349H615.116ZM628.426 60.1918C630.855 60.1918 632.492 59.0092 632.875 57.1875L630.357 57.0213C630.082 57.7692 629.379 58.1591 628.471 58.1591C627.11 58.1591 626.247 57.2578 626.247 55.794V55.7876H632.933V55.0398C632.933 51.7031 630.913 50.054 628.318 50.054C625.428 50.054 623.556 52.1058 623.556 55.1357C623.556 58.2486 625.403 60.1918 628.426 60.1918ZM626.247 54.1001C626.304 52.9815 627.154 52.0866 628.362 52.0866C629.545 52.0866 630.363 52.9304 630.369 54.1001H626.247ZM643.582 50.1818H640.699L638.666 57.2067H638.564L636.525 50.1818H633.649L637.081 60H640.149L643.582 50.1818ZM649.077 60.1918C652.056 60.1918 653.91 58.1527 653.91 55.1293C653.91 52.0866 652.056 50.054 649.077 50.054C646.099 50.054 644.245 52.0866 644.245 55.1293C644.245 58.1527 646.099 60.1918 649.077 60.1918ZM649.09 58.0824C647.716 58.0824 647.013 56.8232 647.013 55.1101C647.013 53.397 647.716 52.1314 649.09 52.1314C650.439 52.1314 651.142 53.397 651.142 55.1101C651.142 56.8232 650.439 58.0824 649.09 58.0824ZM655.68 60H658.403V56.8807L659.138 56.0433L661.817 60H665.006L661.178 54.4325L664.821 50.1818H661.695L658.55 53.9084H658.403V46.9091H655.68V60ZM670.227 60.1918C672.656 60.1918 674.292 59.0092 674.676 57.1875L672.157 57.0213C671.883 57.7692 671.18 58.1591 670.272 58.1591C668.91 58.1591 668.047 57.2578 668.047 55.794V55.7876H674.733V55.0398C674.733 51.7031 672.714 50.054 670.118 50.054C667.229 50.054 665.356 52.1058 665.356 55.1357C665.356 58.2486 667.204 60.1918 670.227 60.1918ZM668.047 54.1001C668.105 52.9815 668.955 52.0866 670.163 52.0866C671.346 52.0866 672.164 52.9304 672.17 54.1001H668.047ZM676.51 60H679.233V54.4453C679.233 53.2372 680.116 52.4062 681.317 52.4062C681.694 52.4062 682.212 52.4702 682.468 52.5533V50.1371C682.225 50.0795 681.886 50.0412 681.611 50.0412C680.512 50.0412 679.611 50.6804 679.253 51.8949H679.15V50.1818H676.51V60Z" fill="#4079A2"/>
<rect x="31.5" y="26.5" width="368" height="531" rx="8.5" stroke="#294C6F" stroke-width="3" stroke-dasharray="6 6"/>
<rect x="462.5" y="26.5" width="368" height="531" rx="8.5" stroke="#294C6F" stroke-width="3" stroke-dasharray="6 6"/>
<circle cx="216" cy="123" r="22" stroke="#7CA2C1" stroke-width="6"/>
<circle cx="216" cy="508" r="23.5" stroke="#369FAB" stroke-width="3" stroke-dasharray="6 6"/>
<circle cx="216" cy="508" r="17.5" stroke="#369FAB" stroke-width="3"/>
<rect x="94" y="201" width="244" height="50" rx="5" fill="#369FAB"/>
<rect x="105" y="215" width="33" height="21" rx="3" fill="white" stroke="#369FAB" stroke-width="2"/>
<path d="M105 216L119.813 229.186C120.969 230.215 122.717 230.196 123.85 229.143L138 216" stroke="#369FAB" stroke-width="2" stroke-linejoin="round"/>
<path d="M147.074 230H148.247V225.168C148.247 224.134 149.062 223.378 150.176 223.378C150.489 223.378 150.812 223.438 150.892 223.457V222.264C150.758 222.254 150.45 222.244 150.276 222.244C149.361 222.244 148.565 222.761 148.287 223.517H148.207V222.364H147.074V230ZM155.252 230.159C156.803 230.159 157.937 229.384 158.295 228.23L157.161 227.912C156.863 228.707 156.172 229.105 155.252 229.105C153.875 229.105 152.925 228.215 152.871 226.58H158.414V226.082C158.414 223.239 156.724 222.264 155.133 222.264C153.065 222.264 151.692 223.895 151.692 226.241C151.692 228.588 153.045 230.159 155.252 230.159ZM152.871 225.565C152.95 224.377 153.79 223.318 155.133 223.318C156.406 223.318 157.221 224.273 157.221 225.565H152.871ZM166.211 222.364H164.938L162.83 228.449H162.751L160.643 222.364H159.37L162.194 230H163.387L166.211 222.364ZM170.588 230.159C172.656 230.159 174.048 228.588 174.048 226.222C174.048 223.835 172.656 222.264 170.588 222.264C168.52 222.264 167.128 223.835 167.128 226.222C167.128 228.588 168.52 230.159 170.588 230.159ZM170.588 229.105C169.017 229.105 168.301 227.753 168.301 226.222C168.301 224.69 169.017 223.318 170.588 223.318C172.159 223.318 172.875 224.69 172.875 226.222C172.875 227.753 172.159 229.105 170.588 229.105ZM178.942 230.159C180.632 230.159 181.746 229.125 181.945 227.773H180.771C180.553 228.608 179.857 229.105 178.942 229.105C177.55 229.105 176.655 227.952 176.655 226.182C176.655 224.452 177.57 223.318 178.942 223.318C179.976 223.318 180.592 223.955 180.771 224.651H181.945C181.746 223.219 180.533 222.264 178.922 222.264C176.854 222.264 175.482 223.895 175.482 226.222C175.482 228.509 176.794 230.159 178.942 230.159ZM185.907 230.179C187.239 230.179 187.935 229.463 188.174 228.966H188.234V230H189.407V224.969C189.407 222.543 187.558 222.264 186.583 222.264C185.43 222.264 184.117 222.662 183.521 224.054L184.634 224.452C184.893 223.895 185.504 223.298 186.623 223.298C187.702 223.298 188.234 223.87 188.234 224.849V224.889C188.234 225.456 187.657 225.406 186.265 225.585C184.848 225.769 183.302 226.082 183.302 227.832C183.302 229.324 184.455 230.179 185.907 230.179ZM186.086 229.125C185.151 229.125 184.475 228.707 184.475 227.892C184.475 226.997 185.29 226.719 186.205 226.599C186.702 226.54 188.035 226.401 188.234 226.162V227.236C188.234 228.19 187.478 229.125 186.086 229.125ZM194.869 222.364H193.239V220.534H192.066V222.364H190.912V223.358H192.066V228.131C192.066 229.463 193.139 230.099 194.134 230.099C194.571 230.099 194.85 230.02 195.009 229.96L194.77 228.906C194.671 228.926 194.512 228.966 194.253 228.966C193.736 228.966 193.239 228.807 193.239 227.812V223.358H194.869V222.364ZM196.634 230H197.808V222.364H196.634V230ZM197.231 221.091C197.688 221.091 198.066 220.733 198.066 220.295C198.066 219.858 197.688 219.5 197.231 219.5C196.774 219.5 196.396 219.858 196.396 220.295C196.396 220.733 196.774 221.091 197.231 221.091ZM203.059 230.159C205.127 230.159 206.519 228.588 206.519 226.222C206.519 223.835 205.127 222.264 203.059 222.264C200.991 222.264 199.599 223.835 199.599 226.222C199.599 228.588 200.991 230.159 203.059 230.159ZM203.059 229.105C201.488 229.105 200.772 227.753 200.772 226.222C200.772 224.69 201.488 223.318 203.059 223.318C204.63 223.318 205.346 224.69 205.346 226.222C205.346 227.753 204.63 229.105 203.059 229.105ZM209.483 225.406C209.483 224.074 210.309 223.318 211.432 223.318C212.521 223.318 213.182 224.029 213.182 225.227V230H214.356V225.148C214.356 223.199 213.317 222.264 211.77 222.264C210.617 222.264 209.901 222.781 209.543 223.557H209.444V222.364H208.31V230H209.483V225.406ZM220.875 225.088H216.42V226.182H220.875V225.088ZM226.041 230.159C228.11 230.159 229.502 228.588 229.502 226.222C229.502 223.835 228.11 222.264 226.041 222.264C223.973 222.264 222.581 223.835 222.581 226.222C222.581 228.588 223.973 230.159 226.041 230.159ZM226.041 229.105C224.47 229.105 223.754 227.753 223.754 226.222C223.754 224.69 224.47 223.318 226.041 223.318C227.612 223.318 228.328 224.69 228.328 226.222C228.328 227.753 227.612 229.105 226.041 229.105ZM231.293 232.864H232.466V228.827H232.565C232.824 229.244 233.321 230.159 234.793 230.159C236.702 230.159 238.034 228.628 238.034 226.202C238.034 223.795 236.702 222.264 234.773 222.264C233.281 222.264 232.824 223.179 232.565 223.577H232.426V222.364H231.293V232.864ZM232.446 226.182C232.446 224.472 233.202 223.318 234.634 223.318C236.125 223.318 236.861 224.571 236.861 226.182C236.861 227.812 236.105 229.105 234.634 229.105C233.222 229.105 232.446 227.912 232.446 226.182ZM243.145 222.364H241.514V220.534H240.341V222.364H239.188V223.358H240.341V228.131C240.341 229.463 241.415 230.099 242.409 230.099C242.847 230.099 243.125 230.02 243.284 229.96L243.045 228.906C242.946 228.926 242.787 228.966 242.528 228.966C242.011 228.966 241.514 228.807 241.514 227.812V223.358H243.145V222.364ZM244.91 230H246.083V222.364H244.91V230ZM245.506 221.091C245.964 221.091 246.342 220.733 246.342 220.295C246.342 219.858 245.964 219.5 245.506 219.5C245.049 219.5 244.671 219.858 244.671 220.295C244.671 220.733 245.049 221.091 245.506 221.091ZM251.334 230.159C253.403 230.159 254.795 228.588 254.795 226.222C254.795 223.835 253.403 222.264 251.334 222.264C249.266 222.264 247.874 223.835 247.874 226.222C247.874 228.588 249.266 230.159 251.334 230.159ZM251.334 229.105C249.763 229.105 249.047 227.753 249.047 226.222C249.047 224.69 249.763 223.318 251.334 223.318C252.905 223.318 253.621 224.69 253.621 226.222C253.621 227.753 252.905 229.105 251.334 229.105ZM257.759 225.406C257.759 224.074 258.584 223.318 259.708 223.318C260.797 223.318 261.458 224.029 261.458 225.227V230H262.631V225.148C262.631 223.199 261.592 222.264 260.046 222.264C258.892 222.264 258.176 222.781 257.819 223.557H257.719V222.364H256.586V230H257.759V225.406ZM270.184 224.074C269.816 222.99 268.991 222.264 267.48 222.264C265.869 222.264 264.676 223.179 264.676 224.472C264.676 225.526 265.302 226.232 266.704 226.56L267.977 226.858C268.747 227.037 269.11 227.405 269.11 227.932C269.11 228.588 268.414 229.125 267.32 229.125C266.361 229.125 265.759 228.712 265.551 227.892L264.437 228.17C264.71 229.468 265.779 230.159 267.34 230.159C269.115 230.159 270.323 229.19 270.323 227.872C270.323 226.808 269.657 226.137 268.295 225.804L267.161 225.526C266.257 225.302 265.849 224.999 265.849 224.412C265.849 223.756 266.545 223.278 267.48 223.278C268.504 223.278 268.926 223.845 269.13 224.372L270.184 224.074ZM276.464 225.088H272.01V226.182H276.464V225.088ZM278.529 230H279.702V225.168C279.702 224.134 280.518 223.378 281.631 223.378C281.944 223.378 282.268 223.438 282.347 223.457V222.264C282.213 222.254 281.905 222.244 281.731 222.244C280.816 222.244 280.02 222.761 279.742 223.517H279.662V222.364H278.529V230ZM286.707 230.159C288.258 230.159 289.392 229.384 289.75 228.23L288.616 227.912C288.318 228.707 287.627 229.105 286.707 229.105C285.33 229.105 284.381 228.215 284.326 226.58H289.869V226.082C289.869 223.239 288.179 222.264 286.588 222.264C284.52 222.264 283.148 223.895 283.148 226.241C283.148 228.588 284.5 230.159 286.707 230.159ZM284.326 225.565C284.405 224.377 285.246 223.318 286.588 223.318C287.861 223.318 288.676 224.273 288.676 225.565H284.326ZM298.037 232.864V222.364H296.904V223.577H296.765C296.506 223.179 296.049 222.264 294.557 222.264C292.628 222.264 291.296 223.795 291.296 226.202C291.296 228.628 292.628 230.159 294.537 230.159C296.009 230.159 296.506 229.244 296.765 228.827H296.864V232.864H298.037ZM296.884 226.182C296.884 227.912 296.108 229.105 294.697 229.105C293.225 229.105 292.469 227.812 292.469 226.182C292.469 224.571 293.205 223.318 294.697 223.318C296.128 223.318 296.884 224.472 296.884 226.182ZM304.998 226.878C304.998 228.31 303.904 228.966 303.029 228.966C302.055 228.966 301.358 228.25 301.358 227.136V222.364H300.185V227.216C300.185 229.165 301.219 230.099 302.651 230.099C303.805 230.099 304.56 229.483 304.918 228.707H304.998V230H306.171V222.364H304.998V226.878ZM311.522 230.159C313.073 230.159 314.206 229.384 314.564 228.23L313.431 227.912C313.132 228.707 312.441 229.105 311.522 229.105C310.145 229.105 309.195 228.215 309.14 226.58H314.684V226.082C314.684 223.239 312.993 222.264 311.402 222.264C309.334 222.264 307.962 223.895 307.962 226.241C307.962 228.588 309.314 230.159 311.522 230.159ZM309.14 225.565C309.22 224.377 310.06 223.318 311.402 223.318C312.675 223.318 313.49 224.273 313.49 225.565H309.14ZM321.877 224.074C321.51 222.99 320.684 222.264 319.173 222.264C317.562 222.264 316.369 223.179 316.369 224.472C316.369 225.526 316.995 226.232 318.397 226.56L319.67 226.858C320.441 227.037 320.804 227.405 320.804 227.932C320.804 228.588 320.108 229.125 319.014 229.125C318.054 229.125 317.453 228.712 317.244 227.892L316.13 228.17C316.404 229.468 317.473 230.159 319.034 230.159C320.809 230.159 322.017 229.19 322.017 227.872C322.017 226.808 321.35 226.137 319.988 225.804L318.855 225.526C317.95 225.302 317.542 224.999 317.542 224.412C317.542 223.756 318.238 223.278 319.173 223.278C320.197 223.278 320.62 223.845 320.824 224.372L321.877 224.074ZM327.104 222.364H325.473V220.534H324.3V222.364H323.146V223.358H324.3V228.131C324.3 229.463 325.374 230.099 326.368 230.099C326.806 230.099 327.084 230.02 327.243 229.96L327.004 228.906C326.905 228.926 326.746 228.966 326.487 228.966C325.97 228.966 325.473 228.807 325.473 227.812V223.358H327.104V222.364Z" fill="white"/>
<rect x="553" y="387" width="188" height="50" rx="5" fill="#369FAB"/>
<rect x="564" y="401" width="33" height="21" rx="3" fill="white" stroke="#369FAB" stroke-width="2"/>
<path d="M564 402L578.813 415.186C579.969 416.215 581.717 416.196 582.85 415.143L597 402" stroke="#369FAB" stroke-width="2" stroke-linejoin="round"/>
<path d="M606.074 416H607.247V411.168C607.247 410.134 608.062 409.378 609.176 409.378C609.489 409.378 609.812 409.438 609.892 409.457V408.264C609.758 408.254 609.45 408.244 609.276 408.244C608.361 408.244 607.565 408.761 607.287 409.517H607.207V408.364H606.074V416ZM614.252 416.159C615.803 416.159 616.937 415.384 617.295 414.23L616.161 413.912C615.863 414.707 615.172 415.105 614.252 415.105C612.875 415.105 611.925 414.215 611.871 412.58H617.414V412.082C617.414 409.239 615.724 408.264 614.133 408.264C612.065 408.264 610.692 409.895 610.692 412.241C610.692 414.588 612.045 416.159 614.252 416.159ZM611.871 411.565C611.95 410.377 612.79 409.318 614.133 409.318C615.406 409.318 616.221 410.273 616.221 411.565H611.871ZM625.211 408.364H623.938L621.83 414.449H621.751L619.643 408.364H618.37L621.194 416H622.387L625.211 408.364ZM629.588 416.159C631.656 416.159 633.048 414.588 633.048 412.222C633.048 409.835 631.656 408.264 629.588 408.264C627.52 408.264 626.128 409.835 626.128 412.222C626.128 414.588 627.52 416.159 629.588 416.159ZM629.588 415.105C628.017 415.105 627.301 413.753 627.301 412.222C627.301 410.69 628.017 409.318 629.588 409.318C631.159 409.318 631.875 410.69 631.875 412.222C631.875 413.753 631.159 415.105 629.588 415.105ZM637.942 416.159C639.632 416.159 640.746 415.125 640.945 413.773H639.771C639.553 414.608 638.857 415.105 637.942 415.105C636.55 415.105 635.655 413.952 635.655 412.182C635.655 410.452 636.57 409.318 637.942 409.318C638.976 409.318 639.592 409.955 639.771 410.651H640.945C640.746 409.219 639.533 408.264 637.922 408.264C635.854 408.264 634.482 409.895 634.482 412.222C634.482 414.509 635.794 416.159 637.942 416.159ZM644.907 416.179C646.239 416.179 646.935 415.463 647.174 414.966H647.234V416H648.407V410.969C648.407 408.543 646.558 408.264 645.583 408.264C644.43 408.264 643.117 408.662 642.521 410.054L643.634 410.452C643.893 409.895 644.504 409.298 645.623 409.298C646.702 409.298 647.234 409.87 647.234 410.849V410.889C647.234 411.456 646.657 411.406 645.265 411.585C643.848 411.769 642.302 412.082 642.302 413.832C642.302 415.324 643.455 416.179 644.907 416.179ZM645.086 415.125C644.151 415.125 643.475 414.707 643.475 413.892C643.475 412.997 644.29 412.719 645.205 412.599C645.702 412.54 647.035 412.401 647.234 412.162V413.236C647.234 414.19 646.478 415.125 645.086 415.125ZM653.869 408.364H652.239V406.534H651.066V408.364H649.912V409.358H651.066V414.131C651.066 415.463 652.139 416.099 653.134 416.099C653.571 416.099 653.85 416.02 654.009 415.96L653.77 414.906C653.671 414.926 653.512 414.966 653.253 414.966C652.736 414.966 652.239 414.807 652.239 413.812V409.358H653.869V408.364ZM655.634 416H656.808V408.364H655.634V416ZM656.231 407.091C656.688 407.091 657.066 406.733 657.066 406.295C657.066 405.858 656.688 405.5 656.231 405.5C655.774 405.5 655.396 405.858 655.396 406.295C655.396 406.733 655.774 407.091 656.231 407.091ZM662.059 416.159C664.127 416.159 665.519 414.588 665.519 412.222C665.519 409.835 664.127 408.264 662.059 408.264C659.991 408.264 658.599 409.835 658.599 412.222C658.599 414.588 659.991 416.159 662.059 416.159ZM662.059 415.105C660.488 415.105 659.772 413.753 659.772 412.222C659.772 410.69 660.488 409.318 662.059 409.318C663.63 409.318 664.346 410.69 664.346 412.222C664.346 413.753 663.63 415.105 662.059 415.105ZM668.483 411.406C668.483 410.074 669.309 409.318 670.432 409.318C671.521 409.318 672.182 410.029 672.182 411.227V416H673.356V411.148C673.356 409.199 672.317 408.264 670.77 408.264C669.617 408.264 668.901 408.781 668.543 409.557H668.444V408.364H667.31V416H668.483V411.406ZM679.875 411.088H675.42V412.182H679.875V411.088ZM685.041 416.159C687.11 416.159 688.502 414.588 688.502 412.222C688.502 409.835 687.11 408.264 685.041 408.264C682.973 408.264 681.581 409.835 681.581 412.222C681.581 414.588 682.973 416.159 685.041 416.159ZM685.041 415.105C683.47 415.105 682.754 413.753 682.754 412.222C682.754 410.69 683.47 409.318 685.041 409.318C686.612 409.318 687.328 410.69 687.328 412.222C687.328 413.753 686.612 415.105 685.041 415.105ZM690.293 418.864H691.466V414.827H691.565C691.824 415.244 692.321 416.159 693.793 416.159C695.702 416.159 697.034 414.628 697.034 412.202C697.034 409.795 695.702 408.264 693.773 408.264C692.281 408.264 691.824 409.179 691.565 409.577H691.426V408.364H690.293V418.864ZM691.446 412.182C691.446 410.472 692.202 409.318 693.634 409.318C695.125 409.318 695.861 410.571 695.861 412.182C695.861 413.812 695.105 415.105 693.634 415.105C692.222 415.105 691.446 413.912 691.446 412.182ZM702.145 408.364H700.514V406.534H699.341V408.364H698.188V409.358H699.341V414.131C699.341 415.463 700.415 416.099 701.409 416.099C701.847 416.099 702.125 416.02 702.284 415.96L702.045 414.906C701.946 414.926 701.787 414.966 701.528 414.966C701.011 414.966 700.514 414.807 700.514 413.812V409.358H702.145V408.364ZM703.91 416H705.083V408.364H703.91V416ZM704.506 407.091C704.964 407.091 705.342 406.733 705.342 406.295C705.342 405.858 704.964 405.5 704.506 405.5C704.049 405.5 703.671 405.858 703.671 406.295C703.671 406.733 704.049 407.091 704.506 407.091ZM710.334 416.159C712.403 416.159 713.795 414.588 713.795 412.222C713.795 409.835 712.403 408.264 710.334 408.264C708.266 408.264 706.874 409.835 706.874 412.222C706.874 414.588 708.266 416.159 710.334 416.159ZM710.334 415.105C708.763 415.105 708.047 413.753 708.047 412.222C708.047 410.69 708.763 409.318 710.334 409.318C711.905 409.318 712.621 410.69 712.621 412.222C712.621 413.753 711.905 415.105 710.334 415.105ZM716.759 411.406C716.759 410.074 717.584 409.318 718.708 409.318C719.797 409.318 720.458 410.029 720.458 411.227V416H721.631V411.148C721.631 409.199 720.592 408.264 719.046 408.264C717.892 408.264 717.176 408.781 716.819 409.557H716.719V408.364H715.586V416H716.759V411.406ZM729.184 410.074C728.816 408.99 727.991 408.264 726.48 408.264C724.869 408.264 723.676 409.179 723.676 410.472C723.676 411.526 724.302 412.232 725.704 412.56L726.977 412.858C727.747 413.037 728.11 413.405 728.11 413.932C728.11 414.588 727.414 415.125 726.32 415.125C725.361 415.125 724.759 414.712 724.551 413.892L723.437 414.17C723.71 415.468 724.779 416.159 726.34 416.159C728.115 416.159 729.323 415.19 729.323 413.872C729.323 412.808 728.657 412.137 727.295 411.804L726.161 411.526C725.257 411.302 724.849 410.999 724.849 410.412C724.849 409.756 725.545 409.278 726.48 409.278C727.504 409.278 727.926 409.845 728.13 410.372L729.184 410.074Z" fill="white"/>
<rect x="525" y="201" width="244" height="50" rx="5" fill="#4079A2"/>
<rect x="536" y="215" width="33" height="21" rx="3" fill="#4079A1" stroke="white" stroke-width="2"/>
<path d="M536 216L550.813 229.186C551.969 230.215 553.717 230.196 554.85 229.143L569 216" stroke="white" stroke-width="2" stroke-linejoin="round"/>
<path d="M578.074 222H579.247V217.168C579.247 216.134 580.062 215.378 581.176 215.378C581.489 215.378 581.812 215.438 581.892 215.457V214.264C581.758 214.254 581.45 214.244 581.276 214.244C580.361 214.244 579.565 214.761 579.287 215.517H579.207V214.364H578.074V222ZM586.252 222.159C587.803 222.159 588.937 221.384 589.295 220.23L588.161 219.912C587.863 220.707 587.172 221.105 586.252 221.105C584.875 221.105 583.925 220.215 583.871 218.58H589.414V218.082C589.414 215.239 587.724 214.264 586.133 214.264C584.065 214.264 582.692 215.895 582.692 218.241C582.692 220.588 584.045 222.159 586.252 222.159ZM583.871 217.565C583.95 216.377 584.79 215.318 586.133 215.318C587.406 215.318 588.221 216.273 588.221 217.565H583.871ZM594.301 222.159C595.991 222.159 597.105 221.125 597.304 219.773H596.131C595.912 220.608 595.216 221.105 594.301 221.105C592.909 221.105 592.014 219.952 592.014 218.182C592.014 216.452 592.929 215.318 594.301 215.318C595.335 215.318 595.952 215.955 596.131 216.651H597.304C597.105 215.219 595.892 214.264 594.281 214.264C592.213 214.264 590.841 215.895 590.841 218.222C590.841 220.509 592.153 222.159 594.301 222.159ZM602.221 222.159C603.772 222.159 604.906 221.384 605.263 220.23L604.13 219.912C603.832 220.707 603.141 221.105 602.221 221.105C600.844 221.105 599.894 220.215 599.839 218.58H605.383V218.082C605.383 215.239 603.692 214.264 602.102 214.264C600.033 214.264 598.661 215.895 598.661 218.241C598.661 220.588 600.013 222.159 602.221 222.159ZM599.839 217.565C599.919 216.377 600.759 215.318 602.102 215.318C603.374 215.318 604.19 216.273 604.19 217.565H599.839ZM607.168 222H608.341V214.364H607.168V222ZM607.764 213.091C608.222 213.091 608.599 212.733 608.599 212.295C608.599 211.858 608.222 211.5 607.764 211.5C607.307 211.5 606.929 211.858 606.929 212.295C606.929 212.733 607.307 213.091 607.764 213.091ZM616.734 214.364H615.461L613.354 220.449H613.274L611.166 214.364H609.893L612.717 222H613.91L616.734 214.364ZM621.211 222.159C622.762 222.159 623.896 221.384 624.254 220.23L623.12 219.912C622.822 220.707 622.131 221.105 621.211 221.105C619.834 221.105 618.884 220.215 618.83 218.58H624.373V218.082C624.373 215.239 622.683 214.264 621.092 214.264C619.024 214.264 617.651 215.895 617.651 218.241C617.651 220.588 619.004 222.159 621.211 222.159ZM618.83 217.565C618.909 216.377 619.749 215.318 621.092 215.318C622.365 215.318 623.18 216.273 623.18 217.565H618.83ZM578.074 237H579.247V232.168C579.247 231.134 580.062 230.378 581.176 230.378C581.489 230.378 581.812 230.438 581.892 230.457V229.264C581.758 229.254 581.45 229.244 581.276 229.244C580.361 229.244 579.565 229.761 579.287 230.517H579.207V229.364H578.074V237ZM586.252 237.159C587.803 237.159 588.937 236.384 589.295 235.23L588.161 234.912C587.863 235.707 587.172 236.105 586.252 236.105C584.875 236.105 583.925 235.215 583.871 233.58H589.414V233.082C589.414 230.239 587.724 229.264 586.133 229.264C584.065 229.264 582.692 230.895 582.692 233.241C582.692 235.588 584.045 237.159 586.252 237.159ZM583.871 232.565C583.95 231.377 584.79 230.318 586.133 230.318C587.406 230.318 588.221 231.273 588.221 232.565H583.871ZM597.211 229.364H595.938L593.83 235.449H593.751L591.643 229.364H590.37L593.194 237H594.387L597.211 229.364ZM601.588 237.159C603.656 237.159 605.048 235.588 605.048 233.222C605.048 230.835 603.656 229.264 601.588 229.264C599.52 229.264 598.128 230.835 598.128 233.222C598.128 235.588 599.52 237.159 601.588 237.159ZM601.588 236.105C600.017 236.105 599.301 234.753 599.301 233.222C599.301 231.69 600.017 230.318 601.588 230.318C603.159 230.318 603.875 231.69 603.875 233.222C603.875 234.753 603.159 236.105 601.588 236.105ZM609.942 237.159C611.632 237.159 612.746 236.125 612.945 234.773H611.771C611.553 235.608 610.857 236.105 609.942 236.105C608.55 236.105 607.655 234.952 607.655 233.182C607.655 231.452 608.57 230.318 609.942 230.318C610.976 230.318 611.592 230.955 611.771 231.651H612.945C612.746 230.219 611.533 229.264 609.922 229.264C607.854 229.264 606.482 230.895 606.482 233.222C606.482 235.509 607.794 237.159 609.942 237.159ZM616.907 237.179C618.239 237.179 618.935 236.463 619.174 235.966H619.234V237H620.407V231.969C620.407 229.543 618.558 229.264 617.583 229.264C616.43 229.264 615.117 229.662 614.521 231.054L615.634 231.452C615.893 230.895 616.504 230.298 617.623 230.298C618.702 230.298 619.234 230.87 619.234 231.849V231.889C619.234 232.456 618.657 232.406 617.265 232.585C615.848 232.769 614.302 233.082 614.302 234.832C614.302 236.324 615.455 237.179 616.907 237.179ZM617.086 236.125C616.151 236.125 615.475 235.707 615.475 234.892C615.475 233.997 616.29 233.719 617.205 233.599C617.702 233.54 619.035 233.401 619.234 233.162V234.236C619.234 235.19 618.478 236.125 617.086 236.125ZM625.869 229.364H624.239V227.534H623.066V229.364H621.912V230.358H623.066V235.131C623.066 236.463 624.139 237.099 625.134 237.099C625.571 237.099 625.85 237.02 626.009 236.96L625.77 235.906C625.671 235.926 625.512 235.966 625.253 235.966C624.736 235.966 624.239 235.807 624.239 234.812V230.358H625.869V229.364ZM627.634 237H628.808V229.364H627.634V237ZM628.231 228.091C628.688 228.091 629.066 227.733 629.066 227.295C629.066 226.858 628.688 226.5 628.231 226.5C627.774 226.5 627.396 226.858 627.396 227.295C627.396 227.733 627.774 228.091 628.231 228.091ZM634.059 237.159C636.127 237.159 637.519 235.588 637.519 233.222C637.519 230.835 636.127 229.264 634.059 229.264C631.991 229.264 630.599 230.835 630.599 233.222C630.599 235.588 631.991 237.159 634.059 237.159ZM634.059 236.105C632.488 236.105 631.772 234.753 631.772 233.222C631.772 231.69 632.488 230.318 634.059 230.318C635.63 230.318 636.346 231.69 636.346 233.222C636.346 234.753 635.63 236.105 634.059 236.105ZM640.483 232.406C640.483 231.074 641.309 230.318 642.432 230.318C643.521 230.318 644.182 231.029 644.182 232.227V237H645.356V232.148C645.356 230.199 644.317 229.264 642.77 229.264C641.617 229.264 640.901 229.781 640.543 230.557H640.444V229.364H639.31V237H640.483V232.406ZM651.875 232.088H647.42V233.182H651.875V232.088ZM657.041 237.159C659.11 237.159 660.502 235.588 660.502 233.222C660.502 230.835 659.11 229.264 657.041 229.264C654.973 229.264 653.581 230.835 653.581 233.222C653.581 235.588 654.973 237.159 657.041 237.159ZM657.041 236.105C655.47 236.105 654.754 234.753 654.754 233.222C654.754 231.69 655.47 230.318 657.041 230.318C658.612 230.318 659.328 231.69 659.328 233.222C659.328 234.753 658.612 236.105 657.041 236.105ZM662.293 239.864H663.466V235.827H663.565C663.824 236.244 664.321 237.159 665.793 237.159C667.702 237.159 669.034 235.628 669.034 233.202C669.034 230.795 667.702 229.264 665.773 229.264C664.281 229.264 663.824 230.179 663.565 230.577H663.426V229.364H662.293V239.864ZM663.446 233.182C663.446 231.472 664.202 230.318 665.634 230.318C667.125 230.318 667.861 231.571 667.861 233.182C667.861 234.812 667.105 236.105 665.634 236.105C664.222 236.105 663.446 234.912 663.446 233.182ZM674.145 229.364H672.514V227.534H671.341V229.364H670.188V230.358H671.341V235.131C671.341 236.463 672.415 237.099 673.409 237.099C673.847 237.099 674.125 237.02 674.284 236.96L674.045 235.906C673.946 235.926 673.787 235.966 673.528 235.966C673.011 235.966 672.514 235.807 672.514 234.812V230.358H674.145V229.364ZM675.91 237H677.083V229.364H675.91V237ZM676.506 228.091C676.964 228.091 677.342 227.733 677.342 227.295C677.342 226.858 676.964 226.5 676.506 226.5C676.049 226.5 675.671 226.858 675.671 227.295C675.671 227.733 676.049 228.091 676.506 228.091ZM682.334 237.159C684.403 237.159 685.795 235.588 685.795 233.222C685.795 230.835 684.403 229.264 682.334 229.264C680.266 229.264 678.874 230.835 678.874 233.222C678.874 235.588 680.266 237.159 682.334 237.159ZM682.334 236.105C680.763 236.105 680.047 234.753 680.047 233.222C680.047 231.69 680.763 230.318 682.334 230.318C683.905 230.318 684.621 231.69 684.621 233.222C684.621 234.753 683.905 236.105 682.334 236.105ZM688.759 232.406C688.759 231.074 689.584 230.318 690.708 230.318C691.797 230.318 692.458 231.029 692.458 232.227V237H693.631V232.148C693.631 230.199 692.592 229.264 691.046 229.264C689.892 229.264 689.176 229.781 688.819 230.557H688.719V229.364H687.586V237H688.759V232.406ZM701.184 231.074C700.816 229.99 699.991 229.264 698.48 229.264C696.869 229.264 695.676 230.179 695.676 231.472C695.676 232.526 696.302 233.232 697.704 233.56L698.977 233.858C699.747 234.037 700.11 234.405 700.11 234.932C700.11 235.588 699.414 236.125 698.32 236.125C697.361 236.125 696.759 235.712 696.551 234.892L695.437 235.17C695.71 236.468 696.779 237.159 698.34 237.159C700.115 237.159 701.323 236.19 701.323 234.872C701.323 233.808 700.657 233.137 699.295 232.804L698.161 232.526C697.257 232.302 696.849 231.999 696.849 231.412C696.849 230.756 697.545 230.278 698.48 230.278C699.504 230.278 699.926 230.845 700.13 231.372L701.184 231.074ZM707.464 232.088H703.01V233.182H707.464V232.088ZM709.529 237H710.702V232.168C710.702 231.134 711.518 230.378 712.631 230.378C712.944 230.378 713.268 230.438 713.347 230.457V229.264C713.213 229.254 712.905 229.244 712.731 229.244C711.816 229.244 711.02 229.761 710.742 230.517H710.662V229.364H709.529V237ZM717.707 237.159C719.258 237.159 720.392 236.384 720.75 235.23L719.616 234.912C719.318 235.707 718.627 236.105 717.707 236.105C716.33 236.105 715.381 235.215 715.326 233.58H720.869V233.082C720.869 230.239 719.179 229.264 717.588 229.264C715.52 229.264 714.148 230.895 714.148 233.241C714.148 235.588 715.5 237.159 717.707 237.159ZM715.326 232.565C715.405 231.377 716.246 230.318 717.588 230.318C718.861 230.318 719.676 231.273 719.676 232.565H715.326ZM729.037 239.864V229.364H727.904V230.577H727.765C727.506 230.179 727.049 229.264 725.557 229.264C723.628 229.264 722.296 230.795 722.296 233.202C722.296 235.628 723.628 237.159 725.537 237.159C727.009 237.159 727.506 236.244 727.765 235.827H727.864V239.864H729.037ZM727.884 233.182C727.884 234.912 727.108 236.105 725.697 236.105C724.225 236.105 723.469 234.812 723.469 233.182C723.469 231.571 724.205 230.318 725.697 230.318C727.128 230.318 727.884 231.472 727.884 233.182ZM735.998 233.878C735.998 235.31 734.904 235.966 734.029 235.966C733.055 235.966 732.358 235.25 732.358 234.136V229.364H731.185V234.216C731.185 236.165 732.219 237.099 733.651 237.099C734.805 237.099 735.56 236.483 735.918 235.707H735.998V237H737.171V229.364H735.998V233.878ZM742.522 237.159C744.073 237.159 745.206 236.384 745.564 235.23L744.431 234.912C744.132 235.707 743.441 236.105 742.522 236.105C741.145 236.105 740.195 235.215 740.14 233.58H745.684V233.082C745.684 230.239 743.993 229.264 742.402 229.264C740.334 229.264 738.962 230.895 738.962 233.241C738.962 235.588 740.314 237.159 742.522 237.159ZM740.14 232.565C740.22 231.377 741.06 230.318 742.402 230.318C743.675 230.318 744.49 231.273 744.49 232.565H740.14ZM752.877 231.074C752.51 229.99 751.684 229.264 750.173 229.264C748.562 229.264 747.369 230.179 747.369 231.472C747.369 232.526 747.995 233.232 749.397 233.56L750.67 233.858C751.441 234.037 751.804 234.405 751.804 234.932C751.804 235.588 751.108 236.125 750.014 236.125C749.054 236.125 748.453 235.712 748.244 234.892L747.13 235.17C747.404 236.468 748.473 237.159 750.034 237.159C751.809 237.159 753.017 236.19 753.017 234.872C753.017 233.808 752.35 233.137 750.988 232.804L749.855 232.526C748.95 232.302 748.542 231.999 748.542 231.412C748.542 230.756 749.238 230.278 750.173 230.278C751.197 230.278 751.62 230.845 751.824 231.372L752.877 231.074ZM758.104 229.364H756.473V227.534H755.3V229.364H754.146V230.358H755.3V235.131C755.3 236.463 756.374 237.099 757.368 237.099C757.806 237.099 758.084 237.02 758.243 236.96L758.004 235.906C757.905 235.926 757.746 235.966 757.487 235.966C756.97 235.966 756.473 235.807 756.473 234.812V230.358H758.104V229.364Z" fill="white"/>
<rect x="122" y="387" width="188" height="50" rx="5" fill="#4079A2"/>
<rect x="133" y="401" width="33" height="21" rx="3" fill="#4079A1" stroke="white" stroke-width="2"/>
<path d="M133 402L147.813 415.186C148.969 416.215 150.717 416.196 151.85 415.143L166 402" stroke="white" stroke-width="2" stroke-linejoin="round"/>
<path d="M175.074 408H176.247V403.168C176.247 402.134 177.062 401.378 178.176 401.378C178.489 401.378 178.812 401.438 178.892 401.457V400.264C178.758 400.254 178.45 400.244 178.276 400.244C177.361 400.244 176.565 400.761 176.287 401.517H176.207V400.364H175.074V408ZM183.252 408.159C184.803 408.159 185.937 407.384 186.295 406.23L185.161 405.912C184.863 406.707 184.172 407.105 183.252 407.105C181.875 407.105 180.925 406.215 180.871 404.58H186.414V404.082C186.414 401.239 184.724 400.264 183.133 400.264C181.065 400.264 179.692 401.895 179.692 404.241C179.692 406.588 181.045 408.159 183.252 408.159ZM180.871 403.565C180.95 402.377 181.79 401.318 183.133 401.318C184.406 401.318 185.221 402.273 185.221 403.565H180.871ZM191.301 408.159C192.991 408.159 194.105 407.125 194.304 405.773H193.131C192.912 406.608 192.216 407.105 191.301 407.105C189.909 407.105 189.014 405.952 189.014 404.182C189.014 402.452 189.929 401.318 191.301 401.318C192.335 401.318 192.952 401.955 193.131 402.651H194.304C194.105 401.219 192.892 400.264 191.281 400.264C189.213 400.264 187.841 401.895 187.841 404.222C187.841 406.509 189.153 408.159 191.301 408.159ZM199.221 408.159C200.772 408.159 201.906 407.384 202.263 406.23L201.13 405.912C200.832 406.707 200.141 407.105 199.221 407.105C197.844 407.105 196.894 406.215 196.839 404.58H202.383V404.082C202.383 401.239 200.692 400.264 199.102 400.264C197.033 400.264 195.661 401.895 195.661 404.241C195.661 406.588 197.013 408.159 199.221 408.159ZM196.839 403.565C196.919 402.377 197.759 401.318 199.102 401.318C200.374 401.318 201.19 402.273 201.19 403.565H196.839ZM204.168 408H205.341V400.364H204.168V408ZM204.764 399.091C205.222 399.091 205.599 398.733 205.599 398.295C205.599 397.858 205.222 397.5 204.764 397.5C204.307 397.5 203.929 397.858 203.929 398.295C203.929 398.733 204.307 399.091 204.764 399.091ZM213.734 400.364H212.461L210.354 406.449H210.274L208.166 400.364H206.893L209.717 408H210.91L213.734 400.364ZM218.211 408.159C219.762 408.159 220.896 407.384 221.254 406.23L220.12 405.912C219.822 406.707 219.131 407.105 218.211 407.105C216.834 407.105 215.884 406.215 215.83 404.58H221.373V404.082C221.373 401.239 219.683 400.264 218.092 400.264C216.024 400.264 214.651 401.895 214.651 404.241C214.651 406.588 216.004 408.159 218.211 408.159ZM215.83 403.565C215.909 402.377 216.749 401.318 218.092 401.318C219.365 401.318 220.18 402.273 220.18 403.565H215.83ZM175.074 423H176.247V418.168C176.247 417.134 177.062 416.378 178.176 416.378C178.489 416.378 178.812 416.438 178.892 416.457V415.264C178.758 415.254 178.45 415.244 178.276 415.244C177.361 415.244 176.565 415.761 176.287 416.517H176.207V415.364H175.074V423ZM183.252 423.159C184.803 423.159 185.937 422.384 186.295 421.23L185.161 420.912C184.863 421.707 184.172 422.105 183.252 422.105C181.875 422.105 180.925 421.215 180.871 419.58H186.414V419.082C186.414 416.239 184.724 415.264 183.133 415.264C181.065 415.264 179.692 416.895 179.692 419.241C179.692 421.588 181.045 423.159 183.252 423.159ZM180.871 418.565C180.95 417.377 181.79 416.318 183.133 416.318C184.406 416.318 185.221 417.273 185.221 418.565H180.871ZM194.211 415.364H192.938L190.83 421.449H190.751L188.643 415.364H187.37L190.194 423H191.387L194.211 415.364ZM198.588 423.159C200.656 423.159 202.048 421.588 202.048 419.222C202.048 416.835 200.656 415.264 198.588 415.264C196.52 415.264 195.128 416.835 195.128 419.222C195.128 421.588 196.52 423.159 198.588 423.159ZM198.588 422.105C197.017 422.105 196.301 420.753 196.301 419.222C196.301 417.69 197.017 416.318 198.588 416.318C200.159 416.318 200.875 417.69 200.875 419.222C200.875 420.753 200.159 422.105 198.588 422.105ZM206.942 423.159C208.632 423.159 209.746 422.125 209.945 420.773H208.771C208.553 421.608 207.857 422.105 206.942 422.105C205.55 422.105 204.655 420.952 204.655 419.182C204.655 417.452 205.57 416.318 206.942 416.318C207.976 416.318 208.592 416.955 208.771 417.651H209.945C209.746 416.219 208.533 415.264 206.922 415.264C204.854 415.264 203.482 416.895 203.482 419.222C203.482 421.509 204.794 423.159 206.942 423.159ZM213.907 423.179C215.239 423.179 215.935 422.463 216.174 421.966H216.234V423H217.407V417.969C217.407 415.543 215.558 415.264 214.583 415.264C213.43 415.264 212.117 415.662 211.521 417.054L212.634 417.452C212.893 416.895 213.504 416.298 214.623 416.298C215.702 416.298 216.234 416.87 216.234 417.849V417.889C216.234 418.456 215.657 418.406 214.265 418.585C212.848 418.769 211.302 419.082 211.302 420.832C211.302 422.324 212.455 423.179 213.907 423.179ZM214.086 422.125C213.151 422.125 212.475 421.707 212.475 420.892C212.475 419.997 213.29 419.719 214.205 419.599C214.702 419.54 216.035 419.401 216.234 419.162V420.236C216.234 421.19 215.478 422.125 214.086 422.125ZM222.869 415.364H221.239V413.534H220.066V415.364H218.912V416.358H220.066V421.131C220.066 422.463 221.139 423.099 222.134 423.099C222.571 423.099 222.85 423.02 223.009 422.96L222.77 421.906C222.671 421.926 222.512 421.966 222.253 421.966C221.736 421.966 221.239 421.807 221.239 420.812V416.358H222.869V415.364ZM224.634 423H225.808V415.364H224.634V423ZM225.231 414.091C225.688 414.091 226.066 413.733 226.066 413.295C226.066 412.858 225.688 412.5 225.231 412.5C224.774 412.5 224.396 412.858 224.396 413.295C224.396 413.733 224.774 414.091 225.231 414.091ZM231.059 423.159C233.127 423.159 234.519 421.588 234.519 419.222C234.519 416.835 233.127 415.264 231.059 415.264C228.991 415.264 227.599 416.835 227.599 419.222C227.599 421.588 228.991 423.159 231.059 423.159ZM231.059 422.105C229.488 422.105 228.772 420.753 228.772 419.222C228.772 417.69 229.488 416.318 231.059 416.318C232.63 416.318 233.346 417.69 233.346 419.222C233.346 420.753 232.63 422.105 231.059 422.105ZM237.483 418.406C237.483 417.074 238.309 416.318 239.432 416.318C240.521 416.318 241.182 417.029 241.182 418.227V423H242.356V418.148C242.356 416.199 241.317 415.264 239.77 415.264C238.617 415.264 237.901 415.781 237.543 416.557H237.444V415.364H236.31V423H237.483V418.406ZM248.875 418.088H244.42V419.182H248.875V418.088ZM254.041 423.159C256.11 423.159 257.502 421.588 257.502 419.222C257.502 416.835 256.11 415.264 254.041 415.264C251.973 415.264 250.581 416.835 250.581 419.222C250.581 421.588 251.973 423.159 254.041 423.159ZM254.041 422.105C252.47 422.105 251.754 420.753 251.754 419.222C251.754 417.69 252.47 416.318 254.041 416.318C255.612 416.318 256.328 417.69 256.328 419.222C256.328 420.753 255.612 422.105 254.041 422.105ZM259.293 425.864H260.466V421.827H260.565C260.824 422.244 261.321 423.159 262.793 423.159C264.702 423.159 266.034 421.628 266.034 419.202C266.034 416.795 264.702 415.264 262.773 415.264C261.281 415.264 260.824 416.179 260.565 416.577H260.426V415.364H259.293V425.864ZM260.446 419.182C260.446 417.472 261.202 416.318 262.634 416.318C264.125 416.318 264.861 417.571 264.861 419.182C264.861 420.812 264.105 422.105 262.634 422.105C261.222 422.105 260.446 420.912 260.446 419.182ZM271.145 415.364H269.514V413.534H268.341V415.364H267.188V416.358H268.341V421.131C268.341 422.463 269.415 423.099 270.409 423.099C270.847 423.099 271.125 423.02 271.284 422.96L271.045 421.906C270.946 421.926 270.787 421.966 270.528 421.966C270.011 421.966 269.514 421.807 269.514 420.812V416.358H271.145V415.364ZM272.91 423H274.083V415.364H272.91V423ZM273.506 414.091C273.964 414.091 274.342 413.733 274.342 413.295C274.342 412.858 273.964 412.5 273.506 412.5C273.049 412.5 272.671 412.858 272.671 413.295C272.671 413.733 273.049 414.091 273.506 414.091ZM279.334 423.159C281.403 423.159 282.795 421.588 282.795 419.222C282.795 416.835 281.403 415.264 279.334 415.264C277.266 415.264 275.874 416.835 275.874 419.222C275.874 421.588 277.266 423.159 279.334 423.159ZM279.334 422.105C277.763 422.105 277.047 420.753 277.047 419.222C277.047 417.69 277.763 416.318 279.334 416.318C280.905 416.318 281.621 417.69 281.621 419.222C281.621 420.753 280.905 422.105 279.334 422.105ZM285.759 418.406C285.759 417.074 286.584 416.318 287.708 416.318C288.797 416.318 289.458 417.029 289.458 418.227V423H290.631V418.148C290.631 416.199 289.592 415.264 288.046 415.264C286.892 415.264 286.176 415.781 285.819 416.557H285.719V415.364H284.586V423H285.759V418.406ZM298.184 417.074C297.816 415.99 296.991 415.264 295.48 415.264C293.869 415.264 292.676 416.179 292.676 417.472C292.676 418.526 293.302 419.232 294.704 419.56L295.977 419.858C296.747 420.037 297.11 420.405 297.11 420.932C297.11 421.588 296.414 422.125 295.32 422.125C294.361 422.125 293.759 421.712 293.551 420.892L292.437 421.17C292.71 422.468 293.779 423.159 295.34 423.159C297.115 423.159 298.323 422.19 298.323 420.872C298.323 419.808 297.657 419.137 296.295 418.804L295.161 418.526C294.257 418.302 293.849 417.999 293.849 417.412C293.849 416.756 294.545 416.278 295.48 416.278C296.504 416.278 296.926 416.845 297.13 417.372L298.184 417.074Z" fill="white"/>
<rect x="599" y="293" width="96" height="50" rx="25" fill="#73A97B"/>
<path d="M629.113 311.818H627.821L631.559 322H632.832L636.571 311.818H635.278L632.256 320.389H632.136L629.113 311.818ZM639.534 322.179C640.866 322.179 641.562 321.463 641.801 320.966H641.861V322H643.034V316.969C643.034 314.543 641.184 314.264 640.21 314.264C639.057 314.264 637.744 314.662 637.148 316.054L638.261 316.452C638.52 315.895 639.131 315.298 640.25 315.298C641.329 315.298 641.861 315.87 641.861 316.849V316.889C641.861 317.456 641.284 317.406 639.892 317.585C638.475 317.769 636.929 318.082 636.929 319.832C636.929 321.324 638.082 322.179 639.534 322.179ZM639.713 321.125C638.778 321.125 638.102 320.707 638.102 319.892C638.102 318.997 638.917 318.719 639.832 318.599C640.329 318.54 641.662 318.401 641.861 318.162V319.236C641.861 320.19 641.105 321.125 639.713 321.125ZM646.349 311.818H645.175V322H646.349V311.818ZM648.498 322H649.671V314.364H648.498V322ZM649.094 313.091C649.552 313.091 649.93 312.733 649.93 312.295C649.93 311.858 649.552 311.5 649.094 311.5C648.637 311.5 648.259 311.858 648.259 312.295C648.259 312.733 648.637 313.091 649.094 313.091ZM654.703 322.159C656.175 322.159 656.672 321.244 656.931 320.827H657.07V322H658.203V311.818H657.03V315.577H656.931C656.672 315.179 656.215 314.264 654.723 314.264C652.794 314.264 651.462 315.795 651.462 318.202C651.462 320.628 652.794 322.159 654.703 322.159ZM654.863 321.105C653.391 321.105 652.635 319.812 652.635 318.182C652.635 316.571 653.371 315.318 654.863 315.318C656.294 315.318 657.05 316.472 657.05 318.182C657.05 319.912 656.275 321.105 654.863 321.105ZM662.047 319.136H663.24V319.077C663.26 317.844 663.578 317.307 664.453 316.76C665.328 316.228 665.845 315.462 665.845 314.364C665.845 312.812 664.711 311.679 662.961 311.679C661.35 311.679 660.073 312.673 659.998 314.364H661.251C661.326 313.19 662.146 312.713 662.961 312.713C663.896 312.713 664.652 313.33 664.652 314.304C664.652 315.094 664.199 315.661 663.618 316.014C662.643 316.606 662.061 317.183 662.047 319.077V319.136ZM662.683 322.08C663.175 322.08 663.578 321.677 663.578 321.185C663.578 320.692 663.175 320.29 662.683 320.29C662.191 320.29 661.788 320.692 661.788 321.185C661.788 321.677 662.191 322.08 662.683 322.08Z" fill="white"/>
<path d="M216 387L221.773 377L210.226 377L216 387ZM215 250L215 378L217 378L217 250L215 250Z" fill="#369FAB"/>
<path d="M525 226L520 223.113L520 228.887L525 226ZM338 226.5L340.033 226.5L340.033 225.5L338 225.5L338 226.5ZM344.098 226.5L348.163 226.5L348.163 225.5L344.098 225.5L344.098 226.5ZM352.228 226.5L356.293 226.5L356.293 225.5L352.228 225.5L352.228 226.5ZM360.359 226.5L364.424 226.5L364.424 225.5L360.359 225.5L360.359 226.5ZM368.489 226.5L372.554 226.5L372.554 225.5L368.489 225.5L368.489 226.5ZM376.62 226.5L380.685 226.5L380.685 225.5L376.62 225.5L376.62 226.5ZM384.75 226.5L388.815 226.5L388.815 225.5L384.75 225.5L384.75 226.5ZM392.88 226.5L396.946 226.5L396.946 225.5L392.88 225.5L392.88 226.5ZM401.011 226.5L405.076 226.5L405.076 225.5L401.011 225.5L401.011 226.5ZM409.141 226.5L413.207 226.5L413.207 225.5L409.141 225.5L409.141 226.5ZM417.272 226.5L421.337 226.5L421.337 225.5L417.272 225.5L417.272 226.5ZM425.402 226.5L429.467 226.5L429.467 225.5L425.402 225.5L425.402 226.5ZM433.533 226.5L437.598 226.5L437.598 225.5L433.533 225.5L433.533 226.5ZM441.663 226.5L445.728 226.5L445.728 225.5L441.663 225.5L441.663 226.5ZM449.793 226.5L453.859 226.5L453.859 225.5L449.793 225.5L449.793 226.5ZM457.924 226.5L461.989 226.5L461.989 225.5L457.924 225.5L457.924 226.5ZM466.054 226.5L470.12 226.5L470.12 225.5L466.054 225.5L466.054 226.5ZM474.185 226.5L478.25 226.5L478.25 225.5L474.185 225.5L474.185 226.5ZM482.315 226.5L486.38 226.5L486.38 225.5L482.315 225.5L482.315 226.5ZM490.446 226.5L494.511 226.5L494.511 225.5L490.446 225.5L490.446 226.5ZM498.576 226.5L502.641 226.5L502.641 225.5L498.576 225.5L498.576 226.5ZM506.706 226.5L510.772 226.5L510.772 225.5L506.706 225.5L506.706 226.5ZM514.837 226.5L518.902 226.5L518.902 225.5L514.837 225.5L514.837 226.5ZM525 226L515 220.226L515 231.773L525 226ZM338 227L340.033 227L340.033 225L338 225L338 227ZM344.098 227L348.163 227L348.163 225L344.098 225L344.098 227ZM352.228 227L356.293 227L356.293 225L352.228 225L352.228 227ZM360.359 227L364.424 227L364.424 225L360.359 225L360.359 227ZM368.489 227L372.554 227L372.554 225L368.489 225L368.489 227ZM376.62 227L380.685 227L380.685 225L376.62 225L376.62 227ZM384.75 227L388.815 227L388.815 225L384.75 225L384.75 227ZM392.88 227L396.946 227L396.946 225L392.88 225L392.88 227ZM401.011 227L405.076 227L405.076 225L401.011 225L401.011 227ZM409.141 227L413.207 227L413.207 225L409.141 225L409.141 227ZM417.272 227L421.337 227L421.337 225L417.272 225L417.272 227ZM425.402 227L429.467 227L429.467 225L425.402 225L425.402 227ZM433.533 227L437.598 227L437.598 225L433.533 225L433.533 227ZM441.663 227L445.728 227L445.728 225L441.663 225L441.663 227ZM449.793 227L453.859 227L453.859 225L449.793 225L449.793 227ZM457.924 227L461.989 227L461.989 225L457.924 225L457.924 227ZM466.054 227L470.12 227L470.12 225L466.054 225L466.054 227ZM474.185 227L478.25 227L478.25 225L474.185 225L474.185 227ZM482.315 227L486.38 227L486.38 225L482.315 225L482.315 227ZM490.446 227L494.511 227L494.511 225L490.446 225L490.446 227ZM498.576 227L502.641 227L502.641 225L498.576 225L498.576 227ZM506.706 227L510.772 227L510.772 225L506.706 225L506.706 227ZM514.837 227L518.902 227L518.902 225L514.837 225L514.837 227Z" fill="#369FAB"/>
<path d="M310 412L315 414.887L315 409.113L310 412ZM316.075 412.5L320.125 412.5L320.125 411.5L316.075 411.5L316.075 412.5ZM324.175 412.5L328.225 412.5L328.225 411.5L324.175 411.5L324.175 412.5ZM332.275 412.5L336.325 412.5L336.325 411.5L332.275 411.5L332.275 412.5ZM340.375 412.5L344.425 412.5L344.425 411.5L340.375 411.5L340.375 412.5ZM348.475 412.5L352.525 412.5L352.525 411.5L348.475 411.5L348.475 412.5ZM356.575 412.5L360.625 412.5L360.625 411.5L356.575 411.5L356.575 412.5ZM364.675 412.5L368.725 412.5L368.725 411.5L364.675 411.5L364.675 412.5ZM372.775 412.5L376.825 412.5L376.825 411.5L372.775 411.5L372.775 412.5ZM380.875 412.5L384.925 412.5L384.925 411.5L380.875 411.5L380.875 412.5ZM388.975 412.5L393.025 412.5L393.025 411.5L388.975 411.5L388.975 412.5ZM397.075 412.5L401.125 412.5L401.125 411.5L397.075 411.5L397.075 412.5ZM405.175 412.5L409.225 412.5L409.225 411.5L405.175 411.5L405.175 412.5ZM413.275 412.5L417.325 412.5L417.325 411.5L413.275 411.5L413.275 412.5ZM421.375 412.5L425.425 412.5L425.425 411.5L421.375 411.5L421.375 412.5ZM429.475 412.5L433.525 412.5L433.525 411.5L429.475 411.5L429.475 412.5ZM437.575 412.5L441.625 412.5L441.625 411.5L437.575 411.5L437.575 412.5ZM445.675 412.5L449.725 412.5L449.725 411.5L445.675 411.5L445.675 412.5ZM453.775 412.5L457.825 412.5L457.825 411.5L453.775 411.5L453.775 412.5ZM461.875 412.5L465.925 412.5L465.925 411.5L461.875 411.5L461.875 412.5ZM469.975 412.5L474.025 412.5L474.025 411.5L469.975 411.5L469.975 412.5ZM478.075 412.5L482.125 412.5L482.125 411.5L478.075 411.5L478.075 412.5ZM486.175 412.5L490.225 412.5L490.225 411.5L486.175 411.5L486.175 412.5ZM494.275 412.5L498.325 412.5L498.325 411.5L494.275 411.5L494.275 412.5ZM502.375 412.5L506.425 412.5L506.425 411.5L502.375 411.5L502.375 412.5ZM510.475 412.5L514.525 412.5L514.525 411.5L510.475 411.5L510.475 412.5ZM518.575 412.5L522.625 412.5L522.625 411.5L518.575 411.5L518.575 412.5ZM526.675 412.5L530.725 412.5L530.725 411.5L526.675 411.5L526.675 412.5ZM534.775 412.5L538.825 412.5L538.825 411.5L534.775 411.5L534.775 412.5ZM542.875 412.5L546.925 412.5L546.925 411.5L542.875 411.5L542.875 412.5ZM550.975 412.5L553 412.5L553 411.5L550.975 411.5L550.975 412.5ZM310 412L320 417.774L320 406.226L310 412ZM316.075 413L320.125 413L320.125 411L316.075 411L316.075 413ZM324.175 413L328.225 413L328.225 411L324.175 411L324.175 413ZM332.275 413L336.325 413L336.325 411L332.275 411L332.275 413ZM340.375 413L344.425 413L344.425 411L340.375 411L340.375 413ZM348.475 413L352.525 413L352.525 411L348.475 411L348.475 413ZM356.575 413L360.625 413L360.625 411L356.575 411L356.575 413ZM364.675 413L368.725 413L368.725 411L364.675 411L364.675 413ZM372.775 413L376.825 413L376.825 411L372.775 411L372.775 413ZM380.875 413L384.925 413L384.925 411L380.875 411L380.875 413ZM388.975 413L393.025 413L393.025 411L388.975 411L388.975 413ZM397.075 413L401.125 413L401.125 411L397.075 411L397.075 413ZM405.175 413L409.225 413L409.225 411L405.175 411L405.175 413ZM413.275 413L417.325 413L417.325 411L413.275 411L413.275 413ZM421.375 413L425.425 413L425.425 411L421.375 411L421.375 413ZM429.475 413L433.525 413L433.525 411L429.475 411L429.475 413ZM437.575 413L441.625 413L441.625 411L437.575 411L437.575 413ZM445.675 413L449.725 413L449.725 411L445.675 411L445.675 413ZM453.775 413L457.825 413L457.825 411L453.775 411L453.775 413ZM461.875 413L465.925 413L465.925 411L461.875 411L461.875 413ZM469.975 413L474.025 413L474.025 411L469.975 411L469.975 413ZM478.075 413L482.125 413L482.125 411L478.075 411L478.075 413ZM486.175 413L490.225 413L490.225 411L486.175 411L486.175 413ZM494.275 413L498.325 413L498.325 411L494.275 411L494.275 413ZM502.375 413L506.425 413L506.425 411L502.375 411L502.375 413ZM510.475 413L514.525 413L514.525 411L510.475 411L510.475 413ZM518.575 413L522.625 413L522.625 411L518.575 411L518.575 413ZM526.675 413L530.725 413L530.725 411L526.675 411L526.675 413ZM534.775 413L538.825 413L538.825 411L534.775 411L534.775 413ZM542.875 413L546.925 413L546.925 411L542.875 411L542.875 413ZM550.975 413L553 413L553 411L550.975 411L550.975 413Z" fill="#369FAB"/>
<path d="M216 201L221.774 191L210.226 191L216 201ZM215 148L215 192L217 192L217 148L215 148Z" fill="#7CA2C1"/>
<path d="M216 479L221.774 469L210.226 469L216 479ZM215 437L215 470L217 470L217 437L215 437Z" fill="#4079A2"/>
<path d="M647 293L652.774 283L641.226 283L647 293ZM646 251L646 284L648 284L648 251L646 251Z" fill="#4079A2"/>
<path d="M647 387L652.774 377L641.226 377L647 387ZM646 343L646 378L648 378L648 343L646 343Z" fill="#73A97B"/>
<path d="M751 318L741 312.226V323.774L751 318ZM695 319H742V317H695V319Z" fill="#C56550"/>
<path d="M226.163 164.912H229.365V174H230.598V164.912H233.8V163.818H226.163V164.912ZM234.751 174H235.924V169.168C235.924 168.134 236.739 167.378 237.853 167.378C238.166 167.378 238.489 167.438 238.569 167.457V166.264C238.435 166.254 238.126 166.244 237.952 166.244C237.038 166.244 236.242 166.761 235.964 167.517H235.884V166.364H234.751V174ZM244.772 170.878C244.772 172.31 243.678 172.966 242.803 172.966C241.829 172.966 241.133 172.25 241.133 171.136V166.364H239.96V171.216C239.96 173.165 240.994 174.099 242.426 174.099C243.579 174.099 244.335 173.483 244.693 172.707H244.772V174H245.945V166.364H244.772V170.878ZM253.503 168.074C253.136 166.99 252.31 166.264 250.799 166.264C249.188 166.264 247.995 167.179 247.995 168.472C247.995 169.526 248.621 170.232 250.023 170.56L251.296 170.858C252.067 171.037 252.43 171.405 252.43 171.932C252.43 172.588 251.734 173.125 250.64 173.125C249.68 173.125 249.079 172.712 248.87 171.892L247.756 172.17C248.03 173.468 249.099 174.159 250.66 174.159C252.435 174.159 253.643 173.19 253.643 171.872C253.643 170.808 252.976 170.137 251.614 169.804L250.481 169.526C249.576 169.302 249.168 168.999 249.168 168.412C249.168 167.756 249.864 167.278 250.799 167.278C251.823 167.278 252.246 167.845 252.449 168.372L253.503 168.074ZM258.73 166.364H257.099V164.534H255.926V166.364H254.772V167.358H255.926V172.131C255.926 173.463 257 174.099 257.994 174.099C258.432 174.099 258.71 174.02 258.869 173.96L258.63 172.906C258.531 172.926 258.372 172.966 258.113 172.966C257.596 172.966 257.099 172.807 257.099 171.812V167.358H258.73V166.364ZM263.614 174.159C265.166 174.159 266.299 173.384 266.657 172.23L265.524 171.912C265.225 172.707 264.534 173.105 263.614 173.105C262.237 173.105 261.288 172.215 261.233 170.58H266.776V170.082C266.776 167.239 265.086 166.264 263.495 166.264C261.427 166.264 260.055 167.895 260.055 170.241C260.055 172.588 261.407 174.159 263.614 174.159ZM261.233 169.565C261.313 168.377 262.153 167.318 263.495 167.318C264.768 167.318 265.583 168.273 265.583 169.565H261.233ZM271.445 174.159C272.916 174.159 273.413 173.244 273.672 172.827H273.811V174H274.945V163.818H273.771V167.577H273.672C273.413 167.179 272.956 166.264 271.465 166.264C269.536 166.264 268.203 167.795 268.203 170.202C268.203 172.628 269.536 174.159 271.445 174.159ZM271.604 173.105C270.132 173.105 269.377 171.812 269.377 170.182C269.377 168.571 270.112 167.318 271.604 167.318C273.036 167.318 273.791 168.472 273.791 170.182C273.791 171.912 273.016 173.105 271.604 173.105ZM281.631 169.088H277.177V170.182H281.631V169.088ZM283.855 174H285.088V170.281H287.315C289.687 170.281 290.756 168.839 290.756 167.04C290.756 165.24 289.687 163.818 287.295 163.818H283.855V174ZM285.088 169.188V164.912H287.256C288.911 164.912 289.543 165.817 289.543 167.04C289.543 168.263 288.911 169.188 287.275 169.188H285.088ZM294.83 174.179C296.162 174.179 296.858 173.463 297.097 172.966H297.157V174H298.33V168.969C298.33 166.543 296.48 166.264 295.506 166.264C294.353 166.264 293.04 166.662 292.443 168.054L293.557 168.452C293.816 167.895 294.427 167.298 295.546 167.298C296.625 167.298 297.157 167.87 297.157 168.849V168.889C297.157 169.456 296.58 169.406 295.188 169.585C293.771 169.769 292.225 170.082 292.225 171.832C292.225 173.324 293.378 174.179 294.83 174.179ZM295.009 173.125C294.074 173.125 293.398 172.707 293.398 171.892C293.398 170.997 294.213 170.719 295.128 170.599C295.625 170.54 296.958 170.401 297.157 170.162V171.236C297.157 172.19 296.401 173.125 295.009 173.125ZM300.471 174H301.645V169.168C301.645 168.134 302.46 167.378 303.574 167.378C303.887 167.378 304.21 167.438 304.29 167.457V166.264C304.155 166.254 303.847 166.244 303.673 166.244C302.758 166.244 301.963 166.761 301.684 167.517H301.605V166.364H300.471V174ZM309.48 166.364H307.849V164.534H306.676V166.364H305.522V167.358H306.676V172.131C306.676 173.463 307.75 174.099 308.744 174.099C309.182 174.099 309.46 174.02 309.619 173.96L309.38 172.906C309.281 172.926 309.122 172.966 308.863 172.966C308.346 172.966 307.849 172.807 307.849 171.812V167.358H309.48V166.364ZM312 176.864C313.059 176.864 313.805 176.302 314.248 175.114L317.499 166.384L316.216 166.364L314.108 172.449H314.029L311.921 166.364H310.648L313.472 174.04L313.253 174.636C312.826 175.8 312.299 175.909 311.444 175.69L311.145 176.724C311.265 176.784 311.603 176.864 312 176.864ZM322.989 174H324.162V166.364H322.989V174ZM323.585 165.091C324.043 165.091 324.421 164.733 324.421 164.295C324.421 163.858 324.043 163.5 323.585 163.5C323.128 163.5 322.75 163.858 322.75 164.295C322.75 164.733 323.128 165.091 323.585 165.091ZM327.484 169.406C327.484 168.074 328.31 167.318 329.433 167.318C330.522 167.318 331.183 168.029 331.183 169.227V174H332.357V169.148C332.357 167.199 331.318 166.264 329.771 166.264C328.618 166.264 327.902 166.781 327.544 167.557H327.445V166.364H326.311V174H327.484V169.406ZM334.501 174H335.674V166.364H334.501V174ZM335.097 165.091C335.555 165.091 335.932 164.733 335.932 164.295C335.932 163.858 335.555 163.5 335.097 163.5C334.64 163.5 334.262 163.858 334.262 164.295C334.262 164.733 334.64 165.091 335.097 165.091ZM341.144 166.364H339.513V164.534H338.34V166.364H337.187V167.358H338.34V172.131C338.34 173.463 339.414 174.099 340.408 174.099C340.846 174.099 341.124 174.02 341.283 173.96L341.044 172.906C340.945 172.926 340.786 172.966 340.527 172.966C340.01 172.966 339.513 172.807 339.513 171.812V167.358H341.144V166.364ZM342.909 174H344.082V166.364H342.909V174ZM343.505 165.091C343.963 165.091 344.341 164.733 344.341 164.295C344.341 163.858 343.963 163.5 343.505 163.5C343.048 163.5 342.67 163.858 342.67 164.295C342.67 164.733 343.048 165.091 343.505 165.091ZM348.478 174.179C349.811 174.179 350.507 173.463 350.745 172.966H350.805V174H351.978V168.969C351.978 166.543 350.129 166.264 349.154 166.264C348.001 166.264 346.688 166.662 346.092 168.054L347.206 168.452C347.464 167.895 348.076 167.298 349.194 167.298C350.273 167.298 350.805 167.87 350.805 168.849V168.889C350.805 169.456 350.228 169.406 348.836 169.585C347.419 169.769 345.873 170.082 345.873 171.832C345.873 173.324 347.027 174.179 348.478 174.179ZM348.657 173.125C347.723 173.125 347.046 172.707 347.046 171.892C347.046 170.997 347.862 170.719 348.777 170.599C349.274 170.54 350.606 170.401 350.805 170.162V171.236C350.805 172.19 350.049 173.125 348.657 173.125ZM357.441 166.364H355.81V164.534H354.637V166.364H353.483V167.358H354.637V172.131C354.637 173.463 355.711 174.099 356.705 174.099C357.142 174.099 357.421 174.02 357.58 173.96L357.341 172.906C357.242 172.926 357.083 172.966 356.824 172.966C356.307 172.966 355.81 172.807 355.81 171.812V167.358H357.441V166.364ZM362.325 174.159C363.877 174.159 365.01 173.384 365.368 172.23L364.234 171.912C363.936 172.707 363.245 173.105 362.325 173.105C360.948 173.105 359.999 172.215 359.944 170.58H365.487V170.082C365.487 167.239 363.797 166.264 362.206 166.264C360.138 166.264 358.766 167.895 358.766 170.241C358.766 172.588 360.118 174.159 362.325 174.159ZM359.944 169.565C360.024 168.377 360.864 167.318 362.206 167.318C363.479 167.318 364.294 168.273 364.294 169.565H359.944ZM372.681 168.074C372.313 166.99 371.488 166.264 369.977 166.264C368.366 166.264 367.173 167.179 367.173 168.472C367.173 169.526 367.799 170.232 369.201 170.56L370.474 170.858C371.244 171.037 371.607 171.405 371.607 171.932C371.607 172.588 370.911 173.125 369.818 173.125C368.858 173.125 368.256 172.712 368.048 171.892L366.934 172.17C367.207 173.468 368.276 174.159 369.837 174.159C371.612 174.159 372.82 173.19 372.82 171.872C372.82 170.808 372.154 170.137 370.792 169.804L369.658 169.526C368.754 169.302 368.346 168.999 368.346 168.412C368.346 167.756 369.042 167.278 369.977 167.278C371.001 167.278 371.423 167.845 371.627 168.372L372.681 168.074Z" fill="#7CA2C1"/>
<path d="M657.831 367.864C658.89 367.864 659.636 367.302 660.079 366.114L663.33 357.384L662.047 357.364L659.939 363.449H659.86L657.752 357.364H656.479L659.303 365.04L659.084 365.636C658.657 366.8 658.13 366.909 657.275 366.69L656.976 367.724C657.096 367.784 657.434 367.864 657.831 367.864ZM667.811 365.159C669.362 365.159 670.495 364.384 670.853 363.23L669.72 362.912C669.422 363.707 668.73 364.105 667.811 364.105C666.434 364.105 665.484 363.215 665.429 361.58H670.973V361.082C670.973 358.239 669.282 357.264 667.691 357.264C665.623 357.264 664.251 358.895 664.251 361.241C664.251 363.588 665.603 365.159 667.811 365.159ZM665.429 360.565C665.509 359.377 666.349 358.318 667.691 358.318C668.964 358.318 669.779 359.273 669.779 360.565H665.429ZM678.167 359.074C677.799 357.99 676.973 357.264 675.462 357.264C673.851 357.264 672.658 358.179 672.658 359.472C672.658 360.526 673.284 361.232 674.686 361.56L675.959 361.858C676.73 362.037 677.093 362.405 677.093 362.932C677.093 363.588 676.397 364.125 675.303 364.125C674.343 364.125 673.742 363.712 673.533 362.892L672.419 363.17C672.693 364.468 673.762 365.159 675.323 365.159C677.098 365.159 678.306 364.19 678.306 362.872C678.306 361.808 677.64 361.137 676.277 360.804L675.144 360.526C674.239 360.302 673.831 359.999 673.831 359.412C673.831 358.756 674.527 358.278 675.462 358.278C676.486 358.278 676.909 358.845 677.113 359.372L678.167 359.074Z" fill="#73A97B"/>
<path d="M710.476 308.406C710.476 307.074 711.301 306.318 712.425 306.318C713.513 306.318 714.175 307.029 714.175 308.227V313H715.348V308.148C715.348 306.199 714.309 305.264 712.763 305.264C711.609 305.264 710.893 305.781 710.535 306.557H710.436V305.364H709.302V313H710.476V308.406ZM720.594 313.159C722.662 313.159 724.054 311.588 724.054 309.222C724.054 306.835 722.662 305.264 720.594 305.264C718.526 305.264 717.134 306.835 717.134 309.222C717.134 311.588 718.526 313.159 720.594 313.159ZM720.594 312.105C719.023 312.105 718.307 310.753 718.307 309.222C718.307 307.69 719.023 306.318 720.594 306.318C722.165 306.318 722.881 307.69 722.881 309.222C722.881 310.753 722.165 312.105 720.594 312.105Z" fill="#C56550"/>
<path d="M749.458 361H750.691V357.281H752.918C755.289 357.281 756.358 355.839 756.358 354.04C756.358 352.24 755.289 350.818 752.898 350.818H749.458V361ZM750.691 356.188V351.912H752.858C754.514 351.912 755.145 352.817 755.145 354.04C755.145 355.263 754.514 356.188 752.878 356.188H750.691ZM758.185 361H759.358V356.168C759.358 355.134 760.174 354.378 761.287 354.378C761.601 354.378 761.924 354.438 762.003 354.457V353.264C761.869 353.254 761.561 353.244 761.387 353.244C760.472 353.244 759.677 353.761 759.398 354.517H759.319V353.364H758.185V361ZM766.264 361.159C768.332 361.159 769.724 359.588 769.724 357.222C769.724 354.835 768.332 353.264 766.264 353.264C764.196 353.264 762.804 354.835 762.804 357.222C762.804 359.588 764.196 361.159 766.264 361.159ZM766.264 360.105C764.693 360.105 763.977 358.753 763.977 357.222C763.977 355.69 764.693 354.318 766.264 354.318C767.835 354.318 768.551 355.69 768.551 357.222C768.551 358.753 767.835 360.105 766.264 360.105ZM771.674 361H772.808V359.827H772.947C773.206 360.244 773.703 361.159 775.174 361.159C777.083 361.159 778.416 359.628 778.416 357.202C778.416 354.795 777.083 353.264 775.154 353.264C773.663 353.264 773.206 354.179 772.947 354.577H772.848V350.818H771.674V361ZM772.828 357.182C772.828 355.472 773.583 354.318 775.015 354.318C776.507 354.318 777.243 355.571 777.243 357.182C777.243 358.812 776.487 360.105 775.015 360.105C773.603 360.105 772.828 358.912 772.828 357.182ZM781.384 350.818H780.211V361H781.384V350.818ZM786.735 361.159C788.286 361.159 789.419 360.384 789.777 359.23L788.644 358.912C788.345 359.707 787.654 360.105 786.735 360.105C785.357 360.105 784.408 359.215 784.353 357.58H789.896V357.082C789.896 354.239 788.206 353.264 786.615 353.264C784.547 353.264 783.175 354.895 783.175 357.241C783.175 359.588 784.527 361.159 786.735 361.159ZM784.353 356.565C784.433 355.377 785.273 354.318 786.615 354.318C787.888 354.318 788.703 355.273 788.703 356.565H784.353ZM791.681 361H792.855V356.227C792.855 355.109 793.67 354.318 794.585 354.318C795.475 354.318 796.096 354.9 796.096 355.77V361H797.289V356.028C797.289 355.044 797.906 354.318 798.98 354.318C799.815 354.318 800.531 354.761 800.531 355.889V361H801.704V355.889C801.704 354.094 800.74 353.264 799.377 353.264C798.284 353.264 797.483 353.766 797.09 354.557H797.011C796.633 353.741 795.967 353.264 794.963 353.264C793.968 353.264 793.232 353.741 792.914 354.557H792.815V353.364H791.681V361ZM754.393 378H755.626V374.023H757.853C757.943 374.023 758.027 374.023 758.112 374.018L760.26 378H761.691L759.39 373.794C760.687 373.352 761.294 372.293 761.294 370.94C761.294 369.141 760.22 367.818 757.833 367.818H754.393V378ZM755.626 372.909V368.912H757.794C759.444 368.912 760.081 369.717 760.081 370.94C760.081 372.163 759.444 372.909 757.814 372.909H755.626ZM766.309 378.159C767.86 378.159 768.993 377.384 769.351 376.23L768.218 375.912C767.92 376.707 767.229 377.105 766.309 377.105C764.932 377.105 763.982 376.215 763.927 374.58H769.471V374.082C769.471 371.239 767.78 370.264 766.189 370.264C764.121 370.264 762.749 371.895 762.749 374.241C762.749 376.588 764.101 378.159 766.309 378.159ZM763.927 373.565C764.007 372.377 764.847 371.318 766.189 371.318C767.462 371.318 768.278 372.273 768.278 373.565H763.927ZM771.256 380.864H772.429V376.827H772.528C772.787 377.244 773.284 378.159 774.756 378.159C776.665 378.159 777.997 376.628 777.997 374.202C777.997 371.795 776.665 370.264 774.736 370.264C773.244 370.264 772.787 371.179 772.528 371.577H772.389V370.364H771.256V380.864ZM772.409 374.182C772.409 372.472 773.165 371.318 774.596 371.318C776.088 371.318 776.824 372.571 776.824 374.182C776.824 375.812 776.068 377.105 774.596 377.105C773.184 377.105 772.409 375.912 772.409 374.182ZM782.889 378.159C784.957 378.159 786.349 376.588 786.349 374.222C786.349 371.835 784.957 370.264 782.889 370.264C780.821 370.264 779.429 371.835 779.429 374.222C779.429 376.588 780.821 378.159 782.889 378.159ZM782.889 377.105C781.318 377.105 780.602 375.753 780.602 374.222C780.602 372.69 781.318 371.318 782.889 371.318C784.46 371.318 785.176 372.69 785.176 374.222C785.176 375.753 784.46 377.105 782.889 377.105ZM788.14 378H789.314V373.168C789.314 372.134 790.129 371.378 791.243 371.378C791.556 371.378 791.879 371.438 791.958 371.457V370.264C791.824 370.254 791.516 370.244 791.342 370.244C790.427 370.244 789.632 370.761 789.353 371.517H789.274V370.364H788.14V378ZM797.149 370.364H795.518V368.534H794.345V370.364H793.191V371.358H794.345V376.131C794.345 377.463 795.419 378.099 796.413 378.099C796.85 378.099 797.129 378.02 797.288 377.96L797.049 376.906C796.95 376.926 796.791 376.966 796.532 376.966C796.015 376.966 795.518 376.807 795.518 375.812V371.358H797.149V370.364Z" fill="#C56550"/>
<circle cx="776.5" cy="318.5" r="23.5" stroke="#C56550" stroke-width="2" stroke-linecap="round" stroke-dasharray="4 4"/>
<rect x="760" y="308" width="33" height="21" rx="3" fill="#C56550" stroke="#111F3B" stroke-width="2"/>
<path d="M760 309L774.813 322.186C775.969 323.215 777.717 323.196 778.85 322.143L793 309" stroke="#111F3B" stroke-width="2" stroke-linejoin="round"/>
</svg>
