<svg width="862" height="586" viewBox="0 0 862 586" fill="none" xmlns="http://www.w3.org/2000/svg">
<rect x="0.5" y="0.5" width="861" height="585" fill="#111F3B" stroke="#293856"/>
<path d="M191.581 50.674H194.234C194.195 48.3409 192.278 46.7301 189.363 46.7301C186.493 46.7301 184.39 48.3153 184.403 50.6932C184.396 52.6236 185.758 53.7294 187.97 54.2599L189.395 54.6179C190.82 54.9631 191.613 55.3722 191.619 56.2543C191.613 57.2131 190.705 57.8651 189.299 57.8651C187.861 57.8651 186.825 57.2003 186.736 55.8899H184.058C184.128 58.7216 186.154 60.1854 189.331 60.1854C192.527 60.1854 194.406 58.6577 194.413 56.2607C194.406 54.081 192.764 52.924 190.488 52.4126L189.312 52.1314C188.174 51.8693 187.222 51.4474 187.241 50.5078C187.241 49.6641 187.989 49.044 189.344 49.044C190.667 49.044 191.479 49.6449 191.581 50.674ZM200.698 60.1918C203.127 60.1918 204.763 59.0092 205.147 57.1875L202.628 57.0213C202.353 57.7692 201.65 58.1591 200.743 58.1591C199.381 58.1591 198.518 57.2578 198.518 55.794V55.7876H205.204V55.0398C205.204 51.7031 203.184 50.054 200.589 50.054C197.7 50.054 195.827 52.1058 195.827 55.1357C195.827 58.2486 197.674 60.1918 200.698 60.1918ZM198.518 54.1001C198.576 52.9815 199.426 52.0866 200.634 52.0866C201.816 52.0866 202.635 52.9304 202.641 54.1001H198.518ZM209.704 54.3239C209.711 53.0582 210.465 52.3168 211.564 52.3168C212.657 52.3168 213.316 53.0327 213.309 54.2344V60H216.032V53.7486C216.032 51.4602 214.69 50.054 212.645 50.054C211.187 50.054 210.132 50.7699 209.691 51.9141H209.576V50.1818H206.981V60H209.704V54.3239ZM221.796 60.1598C223.382 60.1598 224.206 59.2457 224.583 58.4276H224.698V60H227.383V46.9091H224.666V51.831H224.583C224.219 51.032 223.433 50.054 221.79 50.054C219.636 50.054 217.814 51.7287 217.814 55.1037C217.814 58.3892 219.559 60.1598 221.796 60.1598ZM222.659 57.9929C221.323 57.9929 220.595 56.804 220.595 55.0909C220.595 53.3906 221.311 52.2209 222.659 52.2209C223.982 52.2209 224.724 53.3395 224.724 55.0909C224.724 56.8423 223.97 57.9929 222.659 57.9929ZM234.096 60.1918C236.525 60.1918 238.162 59.0092 238.545 57.1875L236.027 57.0213C235.752 57.7692 235.049 58.1591 234.141 58.1591C232.779 58.1591 231.917 57.2578 231.917 55.794V55.7876H238.603V55.0398C238.603 51.7031 236.583 50.054 233.988 50.054C231.098 50.054 229.225 52.1058 229.225 55.1357C229.225 58.2486 231.073 60.1918 234.096 60.1918ZM231.917 54.1001C231.974 52.9815 232.824 52.0866 234.032 52.0866C235.215 52.0866 236.033 52.9304 236.039 54.1001H231.917ZM240.38 60H243.103V54.4453C243.103 53.2372 243.985 52.4062 245.186 52.4062C245.564 52.4062 246.081 52.4702 246.337 52.5533V50.1371C246.094 50.0795 245.755 50.0412 245.48 50.0412C244.381 50.0412 243.48 50.6804 243.122 51.8949H243.02V50.1818H240.38V60Z" fill="#4079A2"/>
<path d="M610.15 60H612.918V55.3594H614.938L617.418 60H620.474L617.693 54.9119C619.182 54.2727 620.007 52.9751 620.007 51.1854C620.007 48.5838 618.288 46.9091 615.315 46.9091H610.15V60ZM612.918 53.1349V49.1719H614.785C616.383 49.1719 617.156 49.8814 617.156 51.1854C617.156 52.483 616.383 53.1349 614.797 53.1349H612.918ZM626.228 60.1918C628.657 60.1918 630.293 59.0092 630.677 57.1875L628.158 57.0213C627.884 57.7692 627.18 58.1591 626.273 58.1591C624.911 58.1591 624.048 57.2578 624.048 55.794V55.7876H630.734V55.0398C630.734 51.7031 628.715 50.054 626.119 50.054C623.23 50.054 621.357 52.1058 621.357 55.1357C621.357 58.2486 623.205 60.1918 626.228 60.1918ZM624.048 54.1001C624.106 52.9815 624.956 52.0866 626.164 52.0866C627.347 52.0866 628.165 52.9304 628.171 54.1001H624.048ZM636.948 60.1918C639.562 60.1918 641.205 58.6577 641.332 56.4013H638.763C638.603 57.4496 637.913 58.0376 636.979 58.0376C635.707 58.0376 634.883 56.9702 634.883 55.0909C634.883 53.2372 635.714 52.1761 636.979 52.1761C637.977 52.1761 638.616 52.8345 638.763 53.8125H641.332C641.217 51.5433 639.498 50.054 636.935 50.054C633.956 50.054 632.115 52.1186 632.115 55.1293C632.115 58.1143 633.924 60.1918 636.948 60.1918ZM647.55 60.1918C649.979 60.1918 651.616 59.0092 651.999 57.1875L649.481 57.0213C649.206 57.7692 648.503 58.1591 647.595 58.1591C646.234 58.1591 645.371 57.2578 645.371 55.794V55.7876H652.057V55.0398C652.057 51.7031 650.037 50.054 647.442 50.054C644.552 50.054 642.68 52.1058 642.68 55.1357C642.68 58.2486 644.527 60.1918 647.55 60.1918ZM645.371 54.1001C645.428 52.9815 646.278 52.0866 647.486 52.0866C648.669 52.0866 649.487 52.9304 649.494 54.1001H645.371ZM653.834 60H656.557V50.1818H653.834V60ZM655.202 48.9162C656.013 48.9162 656.678 48.2962 656.678 47.5355C656.678 46.7812 656.013 46.1612 655.202 46.1612C654.396 46.1612 653.731 46.7812 653.731 47.5355C653.731 48.2962 654.396 48.9162 655.202 48.9162ZM667.891 50.1818H665.009L662.976 57.2067H662.874L660.835 50.1818H657.958L661.391 60H664.459L667.891 50.1818ZM673.425 60.1918C675.854 60.1918 677.491 59.0092 677.874 57.1875L675.356 57.0213C675.081 57.7692 674.378 58.1591 673.47 58.1591C672.109 58.1591 671.246 57.2578 671.246 55.794V55.7876H677.932V55.0398C677.932 51.7031 675.912 50.054 673.317 50.054C670.427 50.054 668.555 52.1058 668.555 55.1357C668.555 58.2486 670.402 60.1918 673.425 60.1918ZM671.246 54.1001C671.303 52.9815 672.153 52.0866 673.361 52.0866C674.544 52.0866 675.362 52.9304 675.369 54.1001H671.246ZM679.709 60H682.432V54.4453C682.432 53.2372 683.314 52.4062 684.516 52.4062C684.893 52.4062 685.41 52.4702 685.666 52.5533V50.1371C685.423 50.0795 685.084 50.0412 684.81 50.0412C683.71 50.0412 682.809 50.6804 682.451 51.8949H682.349V50.1818H679.709V60Z" fill="#4079A2"/>
<rect x="31.5" y="26.5" width="368" height="533" rx="8.5" stroke="#294C6F" stroke-width="3" stroke-dasharray="6 6"/>
<rect x="462.5" y="26.5" width="368" height="533" rx="8.5" stroke="#294C6F" stroke-width="3" stroke-dasharray="6 6"/>
<circle cx="216" cy="123" r="22" stroke="#7CA2C1" stroke-width="6"/>
<circle cx="216" cy="506" r="23.5" stroke="#369FAB" stroke-width="3" stroke-dasharray="6 6"/>
<circle cx="216" cy="506" r="17.5" stroke="#369FAB" stroke-width="3"/>
<rect x="146" y="201" width="140" height="50" rx="5" fill="#369FAB"/>
<rect x="158" y="215" width="33" height="21" rx="3" fill="white" stroke="#369FAB" stroke-width="2"/>
<path d="M158 216L172.813 229.186C173.969 230.215 175.717 230.196 176.85 229.143L191 216" stroke="#369FAB" stroke-width="2" stroke-linejoin="round"/>
<path d="M203.395 222.364H201.764V220.534H200.591V222.364H199.438V223.358H200.591V228.131C200.591 229.463 201.665 230.099 202.659 230.099C203.097 230.099 203.375 230.02 203.534 229.96L203.295 228.906C203.196 228.926 203.037 228.966 202.778 228.966C202.261 228.966 201.764 228.807 201.764 227.812V223.358H203.395V222.364ZM208.279 230.159C209.831 230.159 210.964 229.384 211.322 228.23L210.189 227.912C209.89 228.707 209.199 229.105 208.279 229.105C206.902 229.105 205.953 228.215 205.898 226.58H211.441V226.082C211.441 223.239 209.751 222.264 208.16 222.264C206.092 222.264 204.72 223.895 204.72 226.241C204.72 228.588 206.072 230.159 208.279 230.159ZM205.898 225.565C205.978 224.377 206.818 223.318 208.16 223.318C209.433 223.318 210.248 224.273 210.248 225.565H205.898ZM213.226 230H214.4V225.168C214.4 224.134 215.215 223.378 216.328 223.378C216.642 223.378 216.965 223.438 217.044 223.457V222.264C216.91 222.254 216.602 222.244 216.428 222.244C215.513 222.244 214.718 222.761 214.439 223.517H214.36V222.364H213.226V230ZM218.435 230H219.608V225.227C219.608 224.109 220.424 223.318 221.339 223.318C222.229 223.318 222.85 223.9 222.85 224.77V230H224.043V225.028C224.043 224.044 224.66 223.318 225.733 223.318C226.569 223.318 227.285 223.761 227.285 224.889V230H228.458V224.889C228.458 223.094 227.493 222.264 226.131 222.264C225.037 222.264 224.237 222.766 223.844 223.557H223.765C223.387 222.741 222.721 222.264 221.716 222.264C220.722 222.264 219.986 222.741 219.668 223.557H219.569V222.364H218.435V230ZM230.603 230H231.776V222.364H230.603V230ZM231.2 221.091C231.657 221.091 232.035 220.733 232.035 220.295C232.035 219.858 231.657 219.5 231.2 219.5C230.742 219.5 230.365 219.858 230.365 220.295C230.365 220.733 230.742 221.091 231.2 221.091ZM235.099 225.406C235.099 224.074 235.924 223.318 237.048 223.318C238.136 223.318 238.798 224.029 238.798 225.227V230H239.971V225.148C239.971 223.199 238.932 222.264 237.386 222.264C236.232 222.264 235.516 222.781 235.158 223.557H235.059V222.364H233.925V230H235.099V225.406ZM244.362 230.179C245.694 230.179 246.39 229.463 246.629 228.966H246.689V230H247.862V224.969C247.862 222.543 246.013 222.264 245.038 222.264C243.885 222.264 242.572 222.662 241.976 224.054L243.089 224.452C243.348 223.895 243.959 223.298 245.078 223.298C246.157 223.298 246.689 223.87 246.689 224.849V224.889C246.689 225.456 246.112 225.406 244.72 225.585C243.303 225.769 241.757 226.082 241.757 227.832C241.757 229.324 242.91 230.179 244.362 230.179ZM244.541 229.125C243.606 229.125 242.93 228.707 242.93 227.892C242.93 226.997 243.746 226.719 244.66 226.599C245.157 226.54 246.49 226.401 246.689 226.162V227.236C246.689 228.19 245.933 229.125 244.541 229.125ZM253.325 222.364H251.694V220.534H250.521V222.364H249.367V223.358H250.521V228.131C250.521 229.463 251.594 230.099 252.589 230.099C253.026 230.099 253.305 230.02 253.464 229.96L253.225 228.906C253.126 228.926 252.967 228.966 252.708 228.966C252.191 228.966 251.694 228.807 251.694 227.812V223.358H253.325V222.364ZM255.089 230H256.263V222.364H255.089V230ZM255.686 221.091C256.143 221.091 256.521 220.733 256.521 220.295C256.521 219.858 256.143 219.5 255.686 219.5C255.229 219.5 254.851 219.858 254.851 220.295C254.851 220.733 255.229 221.091 255.686 221.091ZM261.514 230.159C263.582 230.159 264.974 228.588 264.974 226.222C264.974 223.835 263.582 222.264 261.514 222.264C259.446 222.264 258.054 223.835 258.054 226.222C258.054 228.588 259.446 230.159 261.514 230.159ZM261.514 229.105C259.943 229.105 259.227 227.753 259.227 226.222C259.227 224.69 259.943 223.318 261.514 223.318C263.085 223.318 263.801 224.69 263.801 226.222C263.801 227.753 263.085 229.105 261.514 229.105ZM267.939 225.406C267.939 224.074 268.764 223.318 269.887 223.318C270.976 223.318 271.637 224.029 271.637 225.227V230H272.811V225.148C272.811 223.199 271.772 222.264 270.225 222.264C269.072 222.264 268.356 222.781 267.998 223.557H267.899V222.364H266.765V230H267.939V225.406Z" fill="white"/>
<rect x="544" y="387" width="205" height="50" rx="5" fill="#369FAB"/>
<rect x="555" y="401" width="33" height="21" rx="3" fill="white" stroke="#369FAB" stroke-width="2"/>
<path d="M555 402L569.813 415.186C570.969 416.215 572.717 416.196 573.85 415.143L588 402" stroke="#369FAB" stroke-width="2" stroke-linejoin="round"/>
<path d="M600.395 408.364H598.764V406.534H597.591V408.364H596.438V409.358H597.591V414.131C597.591 415.463 598.665 416.099 599.659 416.099C600.097 416.099 600.375 416.02 600.534 415.96L600.295 414.906C600.196 414.926 600.037 414.966 599.778 414.966C599.261 414.966 598.764 414.807 598.764 413.812V409.358H600.395V408.364ZM605.279 416.159C606.831 416.159 607.964 415.384 608.322 414.23L607.189 413.912C606.89 414.707 606.199 415.105 605.279 415.105C603.902 415.105 602.953 414.215 602.898 412.58H608.441V412.082C608.441 409.239 606.751 408.264 605.16 408.264C603.092 408.264 601.72 409.895 601.72 412.241C601.72 414.588 603.072 416.159 605.279 416.159ZM602.898 411.565C602.978 410.377 603.818 409.318 605.16 409.318C606.433 409.318 607.248 410.273 607.248 411.565H602.898ZM610.226 416H611.4V411.168C611.4 410.134 612.215 409.378 613.328 409.378C613.642 409.378 613.965 409.438 614.044 409.457V408.264C613.91 408.254 613.602 408.244 613.428 408.244C612.513 408.244 611.718 408.761 611.439 409.517H611.36V408.364H610.226V416ZM615.435 416H616.608V411.227C616.608 410.109 617.424 409.318 618.339 409.318C619.229 409.318 619.85 409.9 619.85 410.77V416H621.043V411.028C621.043 410.044 621.66 409.318 622.733 409.318C623.569 409.318 624.285 409.761 624.285 410.889V416H625.458V410.889C625.458 409.094 624.493 408.264 623.131 408.264C622.037 408.264 621.237 408.766 620.844 409.557H620.765C620.387 408.741 619.721 408.264 618.716 408.264C617.722 408.264 616.986 408.741 616.668 409.557H616.569V408.364H615.435V416ZM627.603 416H628.776V408.364H627.603V416ZM628.2 407.091C628.657 407.091 629.035 406.733 629.035 406.295C629.035 405.858 628.657 405.5 628.2 405.5C627.742 405.5 627.365 405.858 627.365 406.295C627.365 406.733 627.742 407.091 628.2 407.091ZM632.099 411.406C632.099 410.074 632.924 409.318 634.048 409.318C635.136 409.318 635.798 410.029 635.798 411.227V416H636.971V411.148C636.971 409.199 635.932 408.264 634.386 408.264C633.232 408.264 632.516 408.781 632.158 409.557H632.059V408.364H630.925V416H632.099V411.406ZM641.362 416.179C642.694 416.179 643.39 415.463 643.629 414.966H643.689V416H644.862V410.969C644.862 408.543 643.013 408.264 642.038 408.264C640.885 408.264 639.572 408.662 638.976 410.054L640.089 410.452C640.348 409.895 640.959 409.298 642.078 409.298C643.157 409.298 643.689 409.87 643.689 410.849V410.889C643.689 411.456 643.112 411.406 641.72 411.585C640.303 411.769 638.757 412.082 638.757 413.832C638.757 415.324 639.91 416.179 641.362 416.179ZM641.541 415.125C640.606 415.125 639.93 414.707 639.93 413.892C639.93 412.997 640.746 412.719 641.66 412.599C642.157 412.54 643.49 412.401 643.689 412.162V413.236C643.689 414.19 642.933 415.125 641.541 415.125ZM650.325 408.364H648.694V406.534H647.521V408.364H646.367V409.358H647.521V414.131C647.521 415.463 648.594 416.099 649.589 416.099C650.026 416.099 650.305 416.02 650.464 415.96L650.225 414.906C650.126 414.926 649.967 414.966 649.708 414.966C649.191 414.966 648.694 414.807 648.694 413.812V409.358H650.325V408.364ZM652.089 416H653.263V408.364H652.089V416ZM652.686 407.091C653.143 407.091 653.521 406.733 653.521 406.295C653.521 405.858 653.143 405.5 652.686 405.5C652.229 405.5 651.851 405.858 651.851 406.295C651.851 406.733 652.229 407.091 652.686 407.091ZM658.514 416.159C660.582 416.159 661.974 414.588 661.974 412.222C661.974 409.835 660.582 408.264 658.514 408.264C656.446 408.264 655.054 409.835 655.054 412.222C655.054 414.588 656.446 416.159 658.514 416.159ZM658.514 415.105C656.943 415.105 656.227 413.753 656.227 412.222C656.227 410.69 656.943 409.318 658.514 409.318C660.085 409.318 660.801 410.69 660.801 412.222C660.801 413.753 660.085 415.105 658.514 415.105ZM664.939 411.406C664.939 410.074 665.764 409.318 666.887 409.318C667.976 409.318 668.637 410.029 668.637 411.227V416H669.811V411.148C669.811 409.199 668.772 408.264 667.225 408.264C666.072 408.264 665.356 408.781 664.998 409.557H664.899V408.364H663.765V416H664.939V411.406ZM676.33 411.088H671.875V412.182H676.33V411.088ZM678.394 416H679.567V411.168C679.567 410.134 680.383 409.378 681.496 409.378C681.81 409.378 682.133 409.438 682.212 409.457V408.264C682.078 408.254 681.77 408.244 681.596 408.244C680.681 408.244 679.886 408.761 679.607 409.517H679.528V408.364H678.394V416ZM686.572 416.159C688.124 416.159 689.257 415.384 689.615 414.23L688.482 413.912C688.183 414.707 687.492 415.105 686.572 415.105C685.195 415.105 684.246 414.215 684.191 412.58H689.734V412.082C689.734 409.239 688.044 408.264 686.453 408.264C684.385 408.264 683.013 409.895 683.013 412.241C683.013 414.588 684.365 416.159 686.572 416.159ZM684.191 411.565C684.271 410.377 685.111 409.318 686.453 409.318C687.726 409.318 688.541 410.273 688.541 411.565H684.191ZM696.928 410.074C696.56 408.99 695.735 408.264 694.224 408.264C692.613 408.264 691.42 409.179 691.42 410.472C691.42 411.526 692.046 412.232 693.448 412.56L694.721 412.858C695.491 413.037 695.854 413.405 695.854 413.932C695.854 414.588 695.158 415.125 694.065 415.125C693.105 415.125 692.504 414.712 692.295 413.892L691.181 414.17C691.455 415.468 692.523 416.159 694.085 416.159C695.859 416.159 697.067 415.19 697.067 413.872C697.067 412.808 696.401 412.137 695.039 411.804L693.906 411.526C693.001 411.302 692.593 410.999 692.593 410.412C692.593 409.756 693.289 409.278 694.224 409.278C695.248 409.278 695.67 409.845 695.874 410.372L696.928 410.074ZM698.834 418.864H700.007V414.827H700.106C700.365 415.244 700.862 416.159 702.334 416.159C704.243 416.159 705.575 414.628 705.575 412.202C705.575 409.795 704.243 408.264 702.314 408.264C700.822 408.264 700.365 409.179 700.106 409.577H699.967V408.364H698.834V418.864ZM699.987 412.182C699.987 410.472 700.743 409.318 702.175 409.318C703.666 409.318 704.402 410.571 704.402 412.182C704.402 413.812 703.646 415.105 702.175 415.105C700.763 415.105 699.987 413.912 699.987 412.182ZM710.467 416.159C712.535 416.159 713.927 414.588 713.927 412.222C713.927 409.835 712.535 408.264 710.467 408.264C708.399 408.264 707.007 409.835 707.007 412.222C707.007 414.588 708.399 416.159 710.467 416.159ZM710.467 415.105C708.896 415.105 708.18 413.753 708.18 412.222C708.18 410.69 708.896 409.318 710.467 409.318C712.038 409.318 712.754 410.69 712.754 412.222C712.754 413.753 712.038 415.105 710.467 415.105ZM716.892 411.406C716.892 410.074 717.717 409.318 718.841 409.318C719.929 409.318 720.591 410.029 720.591 411.227V416H721.764V411.148C721.764 409.199 720.725 408.264 719.179 408.264C718.025 408.264 717.309 408.781 716.951 409.557H716.852V408.364H715.718V416H716.892V411.406ZM729.317 410.074C728.949 408.99 728.124 408.264 726.612 408.264C725.002 408.264 723.808 409.179 723.808 410.472C723.808 411.526 724.435 412.232 725.837 412.56L727.11 412.858C727.88 413.037 728.243 413.405 728.243 413.932C728.243 414.588 727.547 415.125 726.453 415.125C725.494 415.125 724.892 414.712 724.683 413.892L723.57 414.17C723.843 415.468 724.912 416.159 726.473 416.159C728.248 416.159 729.456 415.19 729.456 413.872C729.456 412.808 728.79 412.137 727.428 411.804L726.294 411.526C725.389 411.302 724.982 410.999 724.982 410.412C724.982 409.756 725.678 409.278 726.612 409.278C727.637 409.278 728.059 409.845 728.263 410.372L729.317 410.074ZM734.424 416.159C735.975 416.159 737.109 415.384 737.467 414.23L736.333 413.912C736.035 414.707 735.344 415.105 734.424 415.105C733.047 415.105 732.097 414.215 732.043 412.58H737.586V412.082C737.586 409.239 735.896 408.264 734.305 408.264C732.237 408.264 730.864 409.895 730.864 412.241C730.864 414.588 732.217 416.159 734.424 416.159ZM732.043 411.565C732.122 410.377 732.962 409.318 734.305 409.318C735.577 409.318 736.393 410.273 736.393 411.565H732.043Z" fill="white"/>
<rect x="577" y="201" width="140" height="50" rx="5" fill="#4079A2"/>
<rect x="590" y="215" width="33" height="21" rx="3" fill="#4079A1" stroke="white" stroke-width="2"/>
<path d="M590 216L604.813 229.186C605.969 230.215 607.717 230.196 608.85 229.143L623 216" stroke="white" stroke-width="2" stroke-linejoin="round"/>
<path d="M632.074 221H633.247V216.168C633.247 215.134 634.062 214.378 635.176 214.378C635.489 214.378 635.812 214.438 635.892 214.457V213.264C635.758 213.254 635.45 213.244 635.276 213.244C634.361 213.244 633.565 213.761 633.287 214.517H633.207V213.364H632.074V221ZM640.252 221.159C641.803 221.159 642.937 220.384 643.295 219.23L642.161 218.912C641.863 219.707 641.172 220.105 640.252 220.105C638.875 220.105 637.925 219.215 637.871 217.58H643.414V217.082C643.414 214.239 641.724 213.264 640.133 213.264C638.065 213.264 636.692 214.895 636.692 217.241C636.692 219.588 638.045 221.159 640.252 221.159ZM637.871 216.565C637.95 215.377 638.79 214.318 640.133 214.318C641.406 214.318 642.221 215.273 642.221 216.565H637.871ZM648.301 221.159C649.991 221.159 651.105 220.125 651.304 218.773H650.131C649.912 219.608 649.216 220.105 648.301 220.105C646.909 220.105 646.014 218.952 646.014 217.182C646.014 215.452 646.929 214.318 648.301 214.318C649.335 214.318 649.952 214.955 650.131 215.651H651.304C651.105 214.219 649.892 213.264 648.281 213.264C646.213 213.264 644.841 214.895 644.841 217.222C644.841 219.509 646.153 221.159 648.301 221.159ZM656.221 221.159C657.772 221.159 658.906 220.384 659.263 219.23L658.13 218.912C657.832 219.707 657.141 220.105 656.221 220.105C654.844 220.105 653.894 219.215 653.839 217.58H659.383V217.082C659.383 214.239 657.692 213.264 656.102 213.264C654.033 213.264 652.661 214.895 652.661 217.241C652.661 219.588 654.013 221.159 656.221 221.159ZM653.839 216.565C653.919 215.377 654.759 214.318 656.102 214.318C657.374 214.318 658.19 215.273 658.19 216.565H653.839ZM661.168 221H662.341V213.364H661.168V221ZM661.764 212.091C662.222 212.091 662.599 211.733 662.599 211.295C662.599 210.858 662.222 210.5 661.764 210.5C661.307 210.5 660.929 210.858 660.929 211.295C660.929 211.733 661.307 212.091 661.764 212.091ZM670.734 213.364H669.461L667.354 219.449H667.274L665.166 213.364H663.893L666.717 221H667.91L670.734 213.364ZM675.211 221.159C676.762 221.159 677.896 220.384 678.254 219.23L677.12 218.912C676.822 219.707 676.131 220.105 675.211 220.105C673.834 220.105 672.884 219.215 672.83 217.58H678.373V217.082C678.373 214.239 676.683 213.264 675.092 213.264C673.024 213.264 671.651 214.895 671.651 217.241C671.651 219.588 673.004 221.159 675.211 221.159ZM672.83 216.565C672.909 215.377 673.749 214.318 675.092 214.318C676.365 214.318 677.18 215.273 677.18 216.565H672.83ZM635.395 230.364H633.764V228.534H632.591V230.364H631.438V231.358H632.591V236.131C632.591 237.463 633.665 238.099 634.659 238.099C635.097 238.099 635.375 238.02 635.534 237.96L635.295 236.906C635.196 236.926 635.037 236.966 634.778 236.966C634.261 236.966 633.764 236.807 633.764 235.812V231.358H635.395V230.364ZM640.279 238.159C641.831 238.159 642.964 237.384 643.322 236.23L642.189 235.912C641.89 236.707 641.199 237.105 640.279 237.105C638.902 237.105 637.953 236.215 637.898 234.58H643.441V234.082C643.441 231.239 641.751 230.264 640.16 230.264C638.092 230.264 636.72 231.895 636.72 234.241C636.72 236.588 638.072 238.159 640.279 238.159ZM637.898 233.565C637.978 232.377 638.818 231.318 640.16 231.318C641.433 231.318 642.248 232.273 642.248 233.565H637.898ZM645.226 238H646.4V233.168C646.4 232.134 647.215 231.378 648.328 231.378C648.642 231.378 648.965 231.438 649.044 231.457V230.264C648.91 230.254 648.602 230.244 648.428 230.244C647.513 230.244 646.718 230.761 646.439 231.517H646.36V230.364H645.226V238ZM650.435 238H651.608V233.227C651.608 232.109 652.424 231.318 653.339 231.318C654.229 231.318 654.85 231.9 654.85 232.77V238H656.043V233.028C656.043 232.044 656.66 231.318 657.733 231.318C658.569 231.318 659.285 231.761 659.285 232.889V238H660.458V232.889C660.458 231.094 659.493 230.264 658.131 230.264C657.037 230.264 656.237 230.766 655.844 231.557H655.765C655.387 230.741 654.721 230.264 653.716 230.264C652.722 230.264 651.986 230.741 651.668 231.557H651.569V230.364H650.435V238ZM662.603 238H663.776V230.364H662.603V238ZM663.2 229.091C663.657 229.091 664.035 228.733 664.035 228.295C664.035 227.858 663.657 227.5 663.2 227.5C662.742 227.5 662.365 227.858 662.365 228.295C662.365 228.733 662.742 229.091 663.2 229.091ZM667.099 233.406C667.099 232.074 667.924 231.318 669.048 231.318C670.136 231.318 670.798 232.029 670.798 233.227V238H671.971V233.148C671.971 231.199 670.932 230.264 669.386 230.264C668.232 230.264 667.516 230.781 667.158 231.557H667.059V230.364H665.925V238H667.099V233.406ZM676.362 238.179C677.694 238.179 678.39 237.463 678.629 236.966H678.689V238H679.862V232.969C679.862 230.543 678.013 230.264 677.038 230.264C675.885 230.264 674.572 230.662 673.976 232.054L675.089 232.452C675.348 231.895 675.959 231.298 677.078 231.298C678.157 231.298 678.689 231.87 678.689 232.849V232.889C678.689 233.456 678.112 233.406 676.72 233.585C675.303 233.769 673.757 234.082 673.757 235.832C673.757 237.324 674.91 238.179 676.362 238.179ZM676.541 237.125C675.606 237.125 674.93 236.707 674.93 235.892C674.93 234.997 675.746 234.719 676.66 234.599C677.157 234.54 678.49 234.401 678.689 234.162V235.236C678.689 236.19 677.933 237.125 676.541 237.125ZM685.325 230.364H683.694V228.534H682.521V230.364H681.367V231.358H682.521V236.131C682.521 237.463 683.594 238.099 684.589 238.099C685.026 238.099 685.305 238.02 685.464 237.96L685.225 236.906C685.126 236.926 684.967 236.966 684.708 236.966C684.191 236.966 683.694 236.807 683.694 235.812V231.358H685.325V230.364ZM687.089 238H688.263V230.364H687.089V238ZM687.686 229.091C688.143 229.091 688.521 228.733 688.521 228.295C688.521 227.858 688.143 227.5 687.686 227.5C687.229 227.5 686.851 227.858 686.851 228.295C686.851 228.733 687.229 229.091 687.686 229.091ZM693.514 238.159C695.582 238.159 696.974 236.588 696.974 234.222C696.974 231.835 695.582 230.264 693.514 230.264C691.446 230.264 690.054 231.835 690.054 234.222C690.054 236.588 691.446 238.159 693.514 238.159ZM693.514 237.105C691.943 237.105 691.227 235.753 691.227 234.222C691.227 232.69 691.943 231.318 693.514 231.318C695.085 231.318 695.801 232.69 695.801 234.222C695.801 235.753 695.085 237.105 693.514 237.105ZM699.939 233.406C699.939 232.074 700.764 231.318 701.887 231.318C702.976 231.318 703.637 232.029 703.637 233.227V238H704.811V233.148C704.811 231.199 703.772 230.264 702.225 230.264C701.072 230.264 700.356 230.781 699.998 231.557H699.899V230.364H698.765V238H699.939V233.406Z" fill="white"/>
<rect x="112" y="387" width="207" height="50" rx="5" fill="#4079A2"/>
<rect x="123" y="401" width="33" height="21" rx="3" fill="#4079A1" stroke="white" stroke-width="2"/>
<path d="M123 402L137.813 415.186C138.969 416.215 140.717 416.196 141.85 415.143L156 402" stroke="white" stroke-width="2" stroke-linejoin="round"/>
<path d="M167.074 408H168.247V403.168C168.247 402.134 169.062 401.378 170.176 401.378C170.489 401.378 170.812 401.438 170.892 401.457V400.264C170.758 400.254 170.45 400.244 170.276 400.244C169.361 400.244 168.565 400.761 168.287 401.517H168.207V400.364H167.074V408ZM175.252 408.159C176.803 408.159 177.937 407.384 178.295 406.23L177.161 405.912C176.863 406.707 176.172 407.105 175.252 407.105C173.875 407.105 172.925 406.215 172.871 404.58H178.414V404.082C178.414 401.239 176.724 400.264 175.133 400.264C173.065 400.264 171.692 401.895 171.692 404.241C171.692 406.588 173.045 408.159 175.252 408.159ZM172.871 403.565C172.95 402.377 173.79 401.318 175.133 401.318C176.406 401.318 177.221 402.273 177.221 403.565H172.871ZM183.301 408.159C184.991 408.159 186.105 407.125 186.304 405.773H185.131C184.912 406.608 184.216 407.105 183.301 407.105C181.909 407.105 181.014 405.952 181.014 404.182C181.014 402.452 181.929 401.318 183.301 401.318C184.335 401.318 184.952 401.955 185.131 402.651H186.304C186.105 401.219 184.892 400.264 183.281 400.264C181.213 400.264 179.841 401.895 179.841 404.222C179.841 406.509 181.153 408.159 183.301 408.159ZM191.221 408.159C192.772 408.159 193.906 407.384 194.263 406.23L193.13 405.912C192.832 406.707 192.141 407.105 191.221 407.105C189.844 407.105 188.894 406.215 188.839 404.58H194.383V404.082C194.383 401.239 192.692 400.264 191.102 400.264C189.033 400.264 187.661 401.895 187.661 404.241C187.661 406.588 189.013 408.159 191.221 408.159ZM188.839 403.565C188.919 402.377 189.759 401.318 191.102 401.318C192.374 401.318 193.19 402.273 193.19 403.565H188.839ZM196.168 408H197.341V400.364H196.168V408ZM196.764 399.091C197.222 399.091 197.599 398.733 197.599 398.295C197.599 397.858 197.222 397.5 196.764 397.5C196.307 397.5 195.929 397.858 195.929 398.295C195.929 398.733 196.307 399.091 196.764 399.091ZM205.734 400.364H204.461L202.354 406.449H202.274L200.166 400.364H198.893L201.717 408H202.91L205.734 400.364ZM210.211 408.159C211.762 408.159 212.896 407.384 213.254 406.23L212.12 405.912C211.822 406.707 211.131 407.105 210.211 407.105C208.834 407.105 207.884 406.215 207.83 404.58H213.373V404.082C213.373 401.239 211.683 400.264 210.092 400.264C208.024 400.264 206.651 401.895 206.651 404.241C206.651 406.588 208.004 408.159 210.211 408.159ZM207.83 403.565C207.909 402.377 208.749 401.318 210.092 401.318C211.365 401.318 212.18 402.273 212.18 403.565H207.83ZM170.395 417.364H168.764V415.534H167.591V417.364H166.438V418.358H167.591V423.131C167.591 424.463 168.665 425.099 169.659 425.099C170.097 425.099 170.375 425.02 170.534 424.96L170.295 423.906C170.196 423.926 170.037 423.966 169.778 423.966C169.261 423.966 168.764 423.807 168.764 422.812V418.358H170.395V417.364ZM175.279 425.159C176.831 425.159 177.964 424.384 178.322 423.23L177.189 422.912C176.89 423.707 176.199 424.105 175.279 424.105C173.902 424.105 172.953 423.215 172.898 421.58H178.441V421.082C178.441 418.239 176.751 417.264 175.16 417.264C173.092 417.264 171.72 418.895 171.72 421.241C171.72 423.588 173.072 425.159 175.279 425.159ZM172.898 420.565C172.978 419.377 173.818 418.318 175.16 418.318C176.433 418.318 177.248 419.273 177.248 420.565H172.898ZM180.226 425H181.4V420.168C181.4 419.134 182.215 418.378 183.328 418.378C183.642 418.378 183.965 418.438 184.044 418.457V417.264C183.91 417.254 183.602 417.244 183.428 417.244C182.513 417.244 181.718 417.761 181.439 418.517H181.36V417.364H180.226V425ZM185.435 425H186.608V420.227C186.608 419.109 187.424 418.318 188.339 418.318C189.229 418.318 189.85 418.9 189.85 419.77V425H191.043V420.028C191.043 419.044 191.66 418.318 192.733 418.318C193.569 418.318 194.285 418.761 194.285 419.889V425H195.458V419.889C195.458 418.094 194.493 417.264 193.131 417.264C192.037 417.264 191.237 417.766 190.844 418.557H190.765C190.387 417.741 189.721 417.264 188.716 417.264C187.722 417.264 186.986 417.741 186.668 418.557H186.569V417.364H185.435V425ZM197.603 425H198.776V417.364H197.603V425ZM198.2 416.091C198.657 416.091 199.035 415.733 199.035 415.295C199.035 414.858 198.657 414.5 198.2 414.5C197.742 414.5 197.365 414.858 197.365 415.295C197.365 415.733 197.742 416.091 198.2 416.091ZM202.099 420.406C202.099 419.074 202.924 418.318 204.048 418.318C205.136 418.318 205.798 419.029 205.798 420.227V425H206.971V420.148C206.971 418.199 205.932 417.264 204.386 417.264C203.232 417.264 202.516 417.781 202.158 418.557H202.059V417.364H200.925V425H202.099V420.406ZM211.362 425.179C212.694 425.179 213.39 424.463 213.629 423.966H213.689V425H214.862V419.969C214.862 417.543 213.013 417.264 212.038 417.264C210.885 417.264 209.572 417.662 208.976 419.054L210.089 419.452C210.348 418.895 210.959 418.298 212.078 418.298C213.157 418.298 213.689 418.87 213.689 419.849V419.889C213.689 420.456 213.112 420.406 211.72 420.585C210.303 420.769 208.757 421.082 208.757 422.832C208.757 424.324 209.91 425.179 211.362 425.179ZM211.541 424.125C210.606 424.125 209.93 423.707 209.93 422.892C209.93 421.997 210.746 421.719 211.66 421.599C212.157 421.54 213.49 421.401 213.689 421.162V422.236C213.689 423.19 212.933 424.125 211.541 424.125ZM220.325 417.364H218.694V415.534H217.521V417.364H216.367V418.358H217.521V423.131C217.521 424.463 218.594 425.099 219.589 425.099C220.026 425.099 220.305 425.02 220.464 424.96L220.225 423.906C220.126 423.926 219.967 423.966 219.708 423.966C219.191 423.966 218.694 423.807 218.694 422.812V418.358H220.325V417.364ZM222.089 425H223.263V417.364H222.089V425ZM222.686 416.091C223.143 416.091 223.521 415.733 223.521 415.295C223.521 414.858 223.143 414.5 222.686 414.5C222.229 414.5 221.851 414.858 221.851 415.295C221.851 415.733 222.229 416.091 222.686 416.091ZM228.514 425.159C230.582 425.159 231.974 423.588 231.974 421.222C231.974 418.835 230.582 417.264 228.514 417.264C226.446 417.264 225.054 418.835 225.054 421.222C225.054 423.588 226.446 425.159 228.514 425.159ZM228.514 424.105C226.943 424.105 226.227 422.753 226.227 421.222C226.227 419.69 226.943 418.318 228.514 418.318C230.085 418.318 230.801 419.69 230.801 421.222C230.801 422.753 230.085 424.105 228.514 424.105ZM234.939 420.406C234.939 419.074 235.764 418.318 236.887 418.318C237.976 418.318 238.637 419.029 238.637 420.227V425H239.811V420.148C239.811 418.199 238.772 417.264 237.225 417.264C236.072 417.264 235.356 417.781 234.998 418.557H234.899V417.364H233.765V425H234.939V420.406ZM246.33 420.088H241.875V421.182H246.33V420.088ZM248.394 425H249.567V420.168C249.567 419.134 250.383 418.378 251.496 418.378C251.81 418.378 252.133 418.438 252.212 418.457V417.264C252.078 417.254 251.77 417.244 251.596 417.244C250.681 417.244 249.886 417.761 249.607 418.517H249.528V417.364H248.394V425ZM256.572 425.159C258.124 425.159 259.257 424.384 259.615 423.23L258.482 422.912C258.183 423.707 257.492 424.105 256.572 424.105C255.195 424.105 254.246 423.215 254.191 421.58H259.734V421.082C259.734 418.239 258.044 417.264 256.453 417.264C254.385 417.264 253.013 418.895 253.013 421.241C253.013 423.588 254.365 425.159 256.572 425.159ZM254.191 420.565C254.271 419.377 255.111 418.318 256.453 418.318C257.726 418.318 258.541 419.273 258.541 420.565H254.191ZM266.928 419.074C266.56 417.99 265.735 417.264 264.224 417.264C262.613 417.264 261.42 418.179 261.42 419.472C261.42 420.526 262.046 421.232 263.448 421.56L264.721 421.858C265.491 422.037 265.854 422.405 265.854 422.932C265.854 423.588 265.158 424.125 264.065 424.125C263.105 424.125 262.504 423.712 262.295 422.892L261.181 423.17C261.455 424.468 262.523 425.159 264.085 425.159C265.859 425.159 267.067 424.19 267.067 422.872C267.067 421.808 266.401 421.137 265.039 420.804L263.906 420.526C263.001 420.302 262.593 419.999 262.593 419.412C262.593 418.756 263.289 418.278 264.224 418.278C265.248 418.278 265.67 418.845 265.874 419.372L266.928 419.074ZM268.834 427.864H270.007V423.827H270.106C270.365 424.244 270.862 425.159 272.334 425.159C274.243 425.159 275.575 423.628 275.575 421.202C275.575 418.795 274.243 417.264 272.314 417.264C270.822 417.264 270.365 418.179 270.106 418.577H269.967V417.364H268.834V427.864ZM269.987 421.182C269.987 419.472 270.743 418.318 272.175 418.318C273.666 418.318 274.402 419.571 274.402 421.182C274.402 422.812 273.646 424.105 272.175 424.105C270.763 424.105 269.987 422.912 269.987 421.182ZM280.467 425.159C282.535 425.159 283.927 423.588 283.927 421.222C283.927 418.835 282.535 417.264 280.467 417.264C278.399 417.264 277.007 418.835 277.007 421.222C277.007 423.588 278.399 425.159 280.467 425.159ZM280.467 424.105C278.896 424.105 278.18 422.753 278.18 421.222C278.18 419.69 278.896 418.318 280.467 418.318C282.038 418.318 282.754 419.69 282.754 421.222C282.754 422.753 282.038 424.105 280.467 424.105ZM286.892 420.406C286.892 419.074 287.717 418.318 288.841 418.318C289.929 418.318 290.591 419.029 290.591 420.227V425H291.764V420.148C291.764 418.199 290.725 417.264 289.179 417.264C288.025 417.264 287.309 417.781 286.951 418.557H286.852V417.364H285.718V425H286.892V420.406ZM299.317 419.074C298.949 417.99 298.124 417.264 296.612 417.264C295.002 417.264 293.808 418.179 293.808 419.472C293.808 420.526 294.435 421.232 295.837 421.56L297.11 421.858C297.88 422.037 298.243 422.405 298.243 422.932C298.243 423.588 297.547 424.125 296.453 424.125C295.494 424.125 294.892 423.712 294.683 422.892L293.57 423.17C293.843 424.468 294.912 425.159 296.473 425.159C298.248 425.159 299.456 424.19 299.456 422.872C299.456 421.808 298.79 421.137 297.428 420.804L296.294 420.526C295.389 420.302 294.982 419.999 294.982 419.412C294.982 418.756 295.678 418.278 296.612 418.278C297.637 418.278 298.059 418.845 298.263 419.372L299.317 419.074ZM304.424 425.159C305.975 425.159 307.109 424.384 307.467 423.23L306.333 422.912C306.035 423.707 305.344 424.105 304.424 424.105C303.047 424.105 302.097 423.215 302.043 421.58H307.586V421.082C307.586 418.239 305.896 417.264 304.305 417.264C302.237 417.264 300.864 418.895 300.864 421.241C300.864 423.588 302.217 425.159 304.424 425.159ZM302.043 420.565C302.122 419.377 302.962 418.318 304.305 418.318C305.577 418.318 306.393 419.273 306.393 420.565H302.043Z" fill="white"/>
<rect x="599" y="293" width="96" height="50" rx="25" fill="#73A97B"/>
<path d="M607.967 324.864H609.141V320.827H609.24C609.499 321.244 609.996 322.159 611.467 322.159C613.377 322.159 614.709 320.628 614.709 318.202C614.709 315.795 613.377 314.264 611.448 314.264C609.956 314.264 609.499 315.179 609.24 315.577H609.101V314.364H607.967V324.864ZM609.121 318.182C609.121 316.472 609.877 315.318 611.308 315.318C612.8 315.318 613.536 316.571 613.536 318.182C613.536 319.812 612.78 321.105 611.308 321.105C609.896 321.105 609.121 319.912 609.121 318.182ZM617.672 311.818H616.499V322H617.672V311.818ZM623.023 322.159C624.574 322.159 625.707 321.384 626.065 320.23L624.932 319.912C624.633 320.707 623.942 321.105 623.023 321.105C621.646 321.105 620.696 320.215 620.641 318.58H626.185V318.082C626.185 315.239 624.494 314.264 622.903 314.264C620.835 314.264 619.463 315.895 619.463 318.241C619.463 320.588 620.815 322.159 623.023 322.159ZM620.641 317.565C620.721 316.377 621.561 315.318 622.903 315.318C624.176 315.318 624.991 316.273 624.991 317.565H620.641ZM630.217 322.179C631.549 322.179 632.245 321.463 632.484 320.966H632.543V322H633.717V316.969C633.717 314.543 631.867 314.264 630.893 314.264C629.739 314.264 628.427 314.662 627.83 316.054L628.944 316.452C629.202 315.895 629.814 315.298 630.932 315.298C632.011 315.298 632.543 315.87 632.543 316.849V316.889C632.543 317.456 631.967 317.406 630.574 317.585C629.158 317.769 627.611 318.082 627.611 319.832C627.611 321.324 628.765 322.179 630.217 322.179ZM630.396 321.125C629.461 321.125 628.785 320.707 628.785 319.892C628.785 318.997 629.6 318.719 630.515 318.599C631.012 318.54 632.344 318.401 632.543 318.162V319.236C632.543 320.19 631.788 321.125 630.396 321.125ZM641.267 316.074C640.899 314.99 640.074 314.264 638.563 314.264C636.952 314.264 635.759 315.179 635.759 316.472C635.759 317.526 636.385 318.232 637.787 318.56L639.06 318.858C639.83 319.037 640.193 319.405 640.193 319.932C640.193 320.588 639.497 321.125 638.403 321.125C637.444 321.125 636.842 320.712 636.634 319.892L635.52 320.17C635.793 321.468 636.862 322.159 638.423 322.159C640.198 322.159 641.406 321.19 641.406 319.872C641.406 318.808 640.74 318.137 639.378 317.804L638.244 317.526C637.34 317.302 636.932 316.999 636.932 316.412C636.932 315.756 637.628 315.278 638.563 315.278C639.587 315.278 640.009 315.845 640.213 316.372L641.267 316.074ZM646.374 322.159C647.925 322.159 649.059 321.384 649.417 320.23L648.283 319.912C647.985 320.707 647.294 321.105 646.374 321.105C644.997 321.105 644.047 320.215 643.993 318.58H649.536V318.082C649.536 315.239 647.846 314.264 646.255 314.264C644.187 314.264 642.815 315.895 642.815 318.241C642.815 320.588 644.167 322.159 646.374 322.159ZM643.993 317.565C644.072 316.377 644.913 315.318 646.255 315.318C647.528 315.318 648.343 316.273 648.343 317.565H643.993ZM655.696 317.088H651.241V318.182H655.696V317.088ZM660.008 322.179C661.34 322.179 662.036 321.463 662.275 320.966H662.334V322H663.508V316.969C663.508 314.543 661.658 314.264 660.684 314.264C659.53 314.264 658.218 314.662 657.621 316.054L658.735 316.452C658.993 315.895 659.605 315.298 660.723 315.298C661.802 315.298 662.334 315.87 662.334 316.849V316.889C662.334 317.456 661.758 317.406 660.366 317.585C658.949 317.769 657.402 318.082 657.402 319.832C657.402 321.324 658.556 322.179 660.008 322.179ZM660.187 321.125C659.252 321.125 658.576 320.707 658.576 319.892C658.576 318.997 659.391 318.719 660.306 318.599C660.803 318.54 662.135 318.401 662.334 318.162V319.236C662.334 320.19 661.579 321.125 660.187 321.125ZM668.751 322.159C670.442 322.159 671.555 321.125 671.754 319.773H670.581C670.362 320.608 669.666 321.105 668.751 321.105C667.359 321.105 666.464 319.952 666.464 318.182C666.464 316.452 667.379 315.318 668.751 315.318C669.785 315.318 670.402 315.955 670.581 316.651H671.754C671.555 315.219 670.342 314.264 668.731 314.264C666.663 314.264 665.291 315.895 665.291 318.222C665.291 320.509 666.604 322.159 668.751 322.159ZM673.469 322H674.643V319.141L675.463 318.381L678.322 322H679.813L676.348 317.625L679.574 314.364H678.123L674.782 317.764H674.643V311.818H673.469V322ZM682.616 319.136H683.809V319.077C683.829 317.844 684.147 317.307 685.022 316.76C685.897 316.228 686.414 315.462 686.414 314.364C686.414 312.812 685.281 311.679 683.531 311.679C681.92 311.679 680.642 312.673 680.568 314.364H681.82C681.895 313.19 682.715 312.713 683.531 312.713C684.465 312.713 685.221 313.33 685.221 314.304C685.221 315.094 684.769 315.661 684.187 316.014C683.212 316.606 682.631 317.183 682.616 319.077V319.136ZM683.252 322.08C683.744 322.08 684.147 321.677 684.147 321.185C684.147 320.692 683.744 320.29 683.252 320.29C682.76 320.29 682.357 320.692 682.357 321.185C682.357 321.677 682.76 322.08 683.252 322.08Z" fill="white"/>
<rect x="168" y="293" width="96" height="50" rx="25" fill="#73A97B"/>
<path d="M176.967 324.864H178.141V320.827H178.24C178.499 321.244 178.996 322.159 180.467 322.159C182.377 322.159 183.709 320.628 183.709 318.202C183.709 315.795 182.377 314.264 180.448 314.264C178.956 314.264 178.499 315.179 178.24 315.577H178.101V314.364H176.967V324.864ZM178.121 318.182C178.121 316.472 178.877 315.318 180.308 315.318C181.8 315.318 182.536 316.571 182.536 318.182C182.536 319.812 181.78 321.105 180.308 321.105C178.896 321.105 178.121 319.912 178.121 318.182ZM186.672 311.818H185.499V322H186.672V311.818ZM192.023 322.159C193.574 322.159 194.707 321.384 195.065 320.23L193.932 319.912C193.633 320.707 192.942 321.105 192.023 321.105C190.646 321.105 189.696 320.215 189.641 318.58H195.185V318.082C195.185 315.239 193.494 314.264 191.903 314.264C189.835 314.264 188.463 315.895 188.463 318.241C188.463 320.588 189.815 322.159 192.023 322.159ZM189.641 317.565C189.721 316.377 190.561 315.318 191.903 315.318C193.176 315.318 193.991 316.273 193.991 317.565H189.641ZM199.217 322.179C200.549 322.179 201.245 321.463 201.484 320.966H201.543V322H202.717V316.969C202.717 314.543 200.867 314.264 199.893 314.264C198.739 314.264 197.427 314.662 196.83 316.054L197.944 316.452C198.202 315.895 198.814 315.298 199.932 315.298C201.011 315.298 201.543 315.87 201.543 316.849V316.889C201.543 317.456 200.967 317.406 199.574 317.585C198.158 317.769 196.611 318.082 196.611 319.832C196.611 321.324 197.765 322.179 199.217 322.179ZM199.396 321.125C198.461 321.125 197.785 320.707 197.785 319.892C197.785 318.997 198.6 318.719 199.515 318.599C200.012 318.54 201.344 318.401 201.543 318.162V319.236C201.543 320.19 200.788 321.125 199.396 321.125ZM210.267 316.074C209.899 314.99 209.074 314.264 207.563 314.264C205.952 314.264 204.759 315.179 204.759 316.472C204.759 317.526 205.385 318.232 206.787 318.56L208.06 318.858C208.83 319.037 209.193 319.405 209.193 319.932C209.193 320.588 208.497 321.125 207.403 321.125C206.444 321.125 205.842 320.712 205.634 319.892L204.52 320.17C204.793 321.468 205.862 322.159 207.423 322.159C209.198 322.159 210.406 321.19 210.406 319.872C210.406 318.808 209.74 318.137 208.378 317.804L207.244 317.526C206.34 317.302 205.932 316.999 205.932 316.412C205.932 315.756 206.628 315.278 207.563 315.278C208.587 315.278 209.009 315.845 209.213 316.372L210.267 316.074ZM215.374 322.159C216.925 322.159 218.059 321.384 218.417 320.23L217.283 319.912C216.985 320.707 216.294 321.105 215.374 321.105C213.997 321.105 213.047 320.215 212.993 318.58H218.536V318.082C218.536 315.239 216.846 314.264 215.255 314.264C213.187 314.264 211.815 315.895 211.815 318.241C211.815 320.588 213.167 322.159 215.374 322.159ZM212.993 317.565C213.072 316.377 213.913 315.318 215.255 315.318C216.528 315.318 217.343 316.273 217.343 317.565H212.993ZM224.696 317.088H220.241V318.182H224.696V317.088ZM229.008 322.179C230.34 322.179 231.036 321.463 231.275 320.966H231.334V322H232.508V316.969C232.508 314.543 230.658 314.264 229.684 314.264C228.53 314.264 227.218 314.662 226.621 316.054L227.735 316.452C227.993 315.895 228.605 315.298 229.723 315.298C230.802 315.298 231.334 315.87 231.334 316.849V316.889C231.334 317.456 230.758 317.406 229.366 317.585C227.949 317.769 226.402 318.082 226.402 319.832C226.402 321.324 227.556 322.179 229.008 322.179ZM229.187 321.125C228.252 321.125 227.576 320.707 227.576 319.892C227.576 318.997 228.391 318.719 229.306 318.599C229.803 318.54 231.135 318.401 231.334 318.162V319.236C231.334 320.19 230.579 321.125 229.187 321.125ZM237.751 322.159C239.442 322.159 240.555 321.125 240.754 319.773H239.581C239.362 320.608 238.666 321.105 237.751 321.105C236.359 321.105 235.464 319.952 235.464 318.182C235.464 316.452 236.379 315.318 237.751 315.318C238.785 315.318 239.402 315.955 239.581 316.651H240.754C240.555 315.219 239.342 314.264 237.731 314.264C235.663 314.264 234.291 315.895 234.291 318.222C234.291 320.509 235.604 322.159 237.751 322.159ZM242.469 322H243.643V319.141L244.463 318.381L247.322 322H248.813L245.348 317.625L248.574 314.364H247.123L243.782 317.764H243.643V311.818H242.469V322ZM251.616 319.136H252.809V319.077C252.829 317.844 253.147 317.307 254.022 316.76C254.897 316.228 255.414 315.462 255.414 314.364C255.414 312.812 254.281 311.679 252.531 311.679C250.92 311.679 249.642 312.673 249.568 314.364H250.82C250.895 313.19 251.715 312.713 252.531 312.713C253.465 312.713 254.221 313.33 254.221 314.304C254.221 315.094 253.769 315.661 253.187 316.014C252.212 316.606 251.631 317.183 251.616 319.077V319.136ZM252.252 322.08C252.744 322.08 253.147 321.677 253.147 321.185C253.147 320.692 252.744 320.29 252.252 320.29C251.76 320.29 251.357 320.692 251.357 321.185C251.357 321.677 251.76 322.08 252.252 322.08Z" fill="white"/>
<path d="M216 293L221.774 283L210.226 283L216 293ZM215 250L215 284L217 284L217 250L215 250Z" fill="#369FAB"/>
<path d="M577 226L572 223.113L572 228.887L577 226ZM286 226.5L288.021 226.5L288.021 225.5L286 225.5L286 226.5ZM292.063 226.5L296.104 226.5L296.104 225.5L292.062 225.5L292.063 226.5ZM300.146 226.5L304.187 226.5L304.187 225.5L300.146 225.5L300.146 226.5ZM308.229 226.5L312.271 226.5L312.271 225.5L308.229 225.5L308.229 226.5ZM316.312 226.5L320.354 226.5L320.354 225.5L316.312 225.5L316.312 226.5ZM324.396 226.5L328.438 226.5L328.437 225.5L324.396 225.5L324.396 226.5ZM332.479 226.5L336.521 226.5L336.521 225.5L332.479 225.5L332.479 226.5ZM340.563 226.5L344.604 226.5L344.604 225.5L340.563 225.5L340.563 226.5ZM348.646 226.5L352.688 226.5L352.688 225.5L348.646 225.5L348.646 226.5ZM356.729 226.5L360.771 226.5L360.771 225.5L356.729 225.5L356.729 226.5ZM364.813 226.5L368.854 226.5L368.854 225.5L364.812 225.5L364.813 226.5ZM372.896 226.5L376.937 226.5L376.937 225.5L372.896 225.5L372.896 226.5ZM380.979 226.5L385.021 226.5L385.021 225.5L380.979 225.5L380.979 226.5ZM389.062 226.5L393.104 226.5L393.104 225.5L389.062 225.5L389.062 226.5ZM397.146 226.5L401.187 226.5L401.187 225.5L397.146 225.5L397.146 226.5ZM405.229 226.5L409.271 226.5L409.271 225.5L405.229 225.5L405.229 226.5ZM413.312 226.5L417.354 226.5L417.354 225.5L413.312 225.5L413.312 226.5ZM421.396 226.5L425.437 226.5L425.437 225.5L421.396 225.5L421.396 226.5ZM429.479 226.5L433.521 226.5L433.521 225.5L429.479 225.5L429.479 226.5ZM437.563 226.5L441.604 226.5L441.604 225.5L437.562 225.5L437.563 226.5ZM445.646 226.5L449.688 226.5L449.688 225.5L445.646 225.5L445.646 226.5ZM453.729 226.5L457.771 226.5L457.771 225.5L453.729 225.5L453.729 226.5ZM461.813 226.5L465.854 226.5L465.854 225.5L461.813 225.5L461.813 226.5ZM469.896 226.5L473.938 226.5L473.938 225.5L469.896 225.5L469.896 226.5ZM477.979 226.5L482.021 226.5L482.021 225.5L477.979 225.5L477.979 226.5ZM486.063 226.5L490.104 226.5L490.104 225.5L486.063 225.5L486.063 226.5ZM494.146 226.5L498.188 226.5L498.188 225.5L494.146 225.5L494.146 226.5ZM502.229 226.5L506.271 226.5L506.271 225.5L502.229 225.5L502.229 226.5ZM510.313 226.5L514.354 226.5L514.354 225.5L510.313 225.5L510.313 226.5ZM518.396 226.5L522.438 226.5L522.438 225.5L518.396 225.5L518.396 226.5ZM526.479 226.5L530.521 226.5L530.521 225.5L526.479 225.5L526.479 226.5ZM534.563 226.5L538.604 226.5L538.604 225.5L534.563 225.5L534.563 226.5ZM542.646 226.5L546.688 226.5L546.688 225.5L542.646 225.5L542.646 226.5ZM550.729 226.5L554.771 226.5L554.771 225.5L550.729 225.5L550.729 226.5ZM558.813 226.5L562.854 226.5L562.854 225.5L558.813 225.5L558.813 226.5ZM566.896 226.5L570.938 226.5L570.938 225.5L566.896 225.5L566.896 226.5ZM577 226L567 220.226L567 231.773L577 226ZM286 227L288.021 227L288.021 225L286 225L286 227ZM292.063 227L296.104 227L296.104 225L292.062 225L292.063 227ZM300.146 227L304.187 227L304.187 225L300.146 225L300.146 227ZM308.229 227L312.271 227L312.271 225L308.229 225L308.229 227ZM316.312 227L320.354 227L320.354 225L316.312 225L316.312 227ZM324.396 227L328.438 227L328.437 225L324.396 225L324.396 227ZM332.479 227L336.521 227L336.521 225L332.479 225L332.479 227ZM340.563 227L344.604 227L344.604 225L340.563 225L340.563 227ZM348.646 227L352.688 227L352.688 225L348.646 225L348.646 227ZM356.729 227L360.771 227L360.771 225L356.729 225L356.729 227ZM364.813 227L368.854 227L368.854 225L364.812 225L364.813 227ZM372.896 227L376.937 227L376.937 225L372.896 225L372.896 227ZM380.979 227L385.021 227L385.021 225L380.979 225L380.979 227ZM389.062 227L393.104 227L393.104 225L389.062 225L389.062 227ZM397.146 227L401.187 227L401.187 225L397.146 225L397.146 227ZM405.229 227L409.271 227L409.271 225L405.229 225L405.229 227ZM413.312 227L417.354 227L417.354 225L413.312 225L413.312 227ZM421.396 227L425.437 227L425.437 225L421.396 225L421.396 227ZM429.479 227L433.521 227L433.521 225L429.479 225L429.479 227ZM437.563 227L441.604 227L441.604 225L437.562 225L437.563 227ZM445.646 227L449.688 227L449.688 225L445.646 225L445.646 227ZM453.729 227L457.771 227L457.771 225L453.729 225L453.729 227ZM461.813 227L465.854 227L465.854 225L461.813 225L461.813 227ZM469.896 227L473.938 227L473.938 225L469.896 225L469.896 227ZM477.979 227L482.021 227L482.021 225L477.979 225L477.979 227ZM486.063 227L490.104 227L490.104 225L486.063 225L486.063 227ZM494.146 227L498.188 227L498.188 225L494.146 225L494.146 227ZM502.229 227L506.271 227L506.271 225L502.229 225L502.229 227ZM510.313 227L514.354 227L514.354 225L510.313 225L510.313 227ZM518.396 227L522.438 227L522.438 225L518.396 225L518.396 227ZM526.479 227L530.521 227L530.521 225L526.479 225L526.479 227ZM534.563 227L538.604 227L538.604 225L534.563 225L534.563 227ZM542.646 227L546.688 227L546.688 225L542.646 225L542.646 227ZM550.729 227L554.771 227L554.771 225L550.729 225L550.729 227ZM558.813 227L562.854 227L562.854 225L558.813 225L558.813 227ZM566.896 227L570.938 227L570.938 225L566.896 225L566.896 227Z" fill="#369FAB"/>
<path d="M319 412L324 414.887L324 409.113L319 412ZM325.027 412.5L329.045 412.5L329.045 411.5L325.027 411.5L325.027 412.5ZM333.062 412.5L337.08 412.5L337.08 411.5L333.063 411.5L333.062 412.5ZM341.098 412.5L345.116 412.5L345.116 411.5L341.098 411.5L341.098 412.5ZM349.134 412.5L353.152 412.5L353.152 411.5L349.134 411.5L349.134 412.5ZM357.17 412.5L361.187 412.5L361.187 411.5L357.17 411.5L357.17 412.5ZM365.205 412.5L369.223 412.5L369.223 411.5L365.205 411.5L365.205 412.5ZM373.241 412.5L377.259 412.5L377.259 411.5L373.241 411.5L373.241 412.5ZM381.277 412.5L385.295 412.5L385.295 411.5L381.277 411.5L381.277 412.5ZM389.312 412.5L393.33 412.5L393.33 411.5L389.313 411.5L389.312 412.5ZM397.348 412.5L401.366 412.5L401.366 411.5L397.348 411.5L397.348 412.5ZM405.384 412.5L409.402 412.5L409.402 411.5L405.384 411.5L405.384 412.5ZM413.42 412.5L417.438 412.5L417.438 411.5L413.42 411.5L413.42 412.5ZM421.455 412.5L425.473 412.5L425.473 411.5L421.455 411.5L421.455 412.5ZM429.491 412.5L433.509 412.5L433.509 411.5L429.491 411.5L429.491 412.5ZM437.527 412.5L441.545 412.5L441.545 411.5L437.527 411.5L437.527 412.5ZM445.563 412.5L449.58 412.5L449.58 411.5L445.563 411.5L445.563 412.5ZM453.598 412.5L457.616 412.5L457.616 411.5L453.598 411.5L453.598 412.5ZM461.634 412.5L465.652 412.5L465.652 411.5L461.634 411.5L461.634 412.5ZM469.67 412.5L473.688 412.5L473.688 411.5L469.67 411.5L469.67 412.5ZM477.705 412.5L481.723 412.5L481.723 411.5L477.705 411.5L477.705 412.5ZM485.741 412.5L489.759 412.5L489.759 411.5L485.741 411.5L485.741 412.5ZM493.777 412.5L497.795 412.5L497.795 411.5L493.777 411.5L493.777 412.5ZM501.812 412.5L505.83 412.5L505.83 411.5L501.812 411.5L501.812 412.5ZM509.848 412.5L513.866 412.5L513.866 411.5L509.848 411.5L509.848 412.5ZM517.884 412.5L521.902 412.5L521.902 411.5L517.884 411.5L517.884 412.5ZM525.92 412.5L529.937 412.5L529.937 411.5L525.92 411.5L525.92 412.5ZM533.955 412.5L537.973 412.5L537.973 411.5L533.955 411.5L533.955 412.5ZM541.991 412.5L544 412.5L544 411.5L541.991 411.5L541.991 412.5ZM319 412L329 417.774L329 406.226L319 412ZM325.027 413L329.045 413L329.045 411L325.027 411L325.027 413ZM333.062 413L337.08 413L337.08 411L333.063 411L333.062 413ZM341.098 413L345.116 413L345.116 411L341.098 411L341.098 413ZM349.134 413L353.152 413L353.152 411L349.134 411L349.134 413ZM357.17 413L361.187 413L361.187 411L357.17 411L357.17 413ZM365.205 413L369.223 413L369.223 411L365.205 411L365.205 413ZM373.241 413L377.259 413L377.259 411L373.241 411L373.241 413ZM381.277 413L385.295 413L385.295 411L381.277 411L381.277 413ZM389.312 413L393.33 413L393.33 411L389.313 411L389.312 413ZM397.348 413L401.366 413L401.366 411L397.348 411L397.348 413ZM405.384 413L409.402 413L409.402 411L405.384 411L405.384 413ZM413.42 413L417.438 413L417.438 411L413.42 411L413.42 413ZM421.455 413L425.473 413L425.473 411L421.455 411L421.455 413ZM429.491 413L433.509 413L433.509 411L429.491 411L429.491 413ZM437.527 413L441.545 413L441.545 411L437.527 411L437.527 413ZM445.563 413L449.58 413L449.58 411L445.563 411L445.563 413ZM453.598 413L457.616 413L457.616 411L453.598 411L453.598 413ZM461.634 413L465.652 413L465.652 411L461.634 411L461.634 413ZM469.67 413L473.688 413L473.688 411L469.67 411L469.67 413ZM477.705 413L481.723 413L481.723 411L477.705 411L477.705 413ZM485.741 413L489.759 413L489.759 411L485.741 411L485.741 413ZM493.777 413L497.795 413L497.795 411L493.777 411L493.777 413ZM501.812 413L505.83 413L505.83 411L501.812 411L501.812 413ZM509.848 413L513.866 413L513.866 411L509.848 411L509.848 413ZM517.884 413L521.902 413L521.902 411L517.884 411L517.884 413ZM525.92 413L529.937 413L529.937 411L525.92 411L525.92 413ZM533.955 413L537.973 413L537.973 411L533.955 411L533.955 413ZM541.991 413L544 413L544 411L541.991 411L541.991 413Z" fill="#369FAB"/>
<path d="M216 201L221.774 191L210.226 191L216 201ZM215 148L215 192L217 192L217 148L215 148Z" fill="#7CA2C1"/>
<path d="M216 479L221.774 469L210.226 469L216 479ZM215 437L215 470L217 470L217 437L215 437Z" fill="#4079A2"/>
<path d="M647 293L652.774 283L641.226 283L647 293ZM646 251L646 284L648 284L648 251L646 251Z" fill="#4079A2"/>
<path d="M647 387L652.774 377L641.226 377L647 387ZM646 343L646 378L648 378L648 343L646 343Z" fill="#73A97B"/>
<path d="M216 387L221.774 377L210.226 377L216 387ZM215 343L215 378L217 378L217 343L215 343Z" fill="#73A97B"/>
<path d="M231.874 166.364H233.068C233.013 164.827 231.596 163.679 229.627 163.679C227.678 163.679 226.147 164.812 226.147 166.523C226.147 167.895 227.141 168.71 228.732 169.168L229.985 169.526C231.059 169.824 232.014 170.202 232.014 171.216C232.014 172.33 230.94 173.065 229.528 173.065C228.315 173.065 227.241 172.528 227.141 171.375H225.869C225.988 173.045 227.34 174.179 229.528 174.179C231.874 174.179 233.207 172.886 233.207 171.236C233.207 169.327 231.397 168.71 230.343 168.432L229.309 168.153C228.553 167.955 227.34 167.557 227.34 166.463C227.34 165.489 228.235 164.773 229.587 164.773C230.82 164.773 231.755 165.359 231.874 166.364ZM238.277 174.159C239.828 174.159 240.961 173.384 241.319 172.23L240.186 171.912C239.887 172.707 239.196 173.105 238.277 173.105C236.899 173.105 235.95 172.215 235.895 170.58H241.438V170.082C241.438 167.239 239.748 166.264 238.157 166.264C236.089 166.264 234.717 167.895 234.717 170.241C234.717 172.588 236.069 174.159 238.277 174.159ZM235.895 169.565C235.975 168.377 236.815 167.318 238.157 167.318C239.43 167.318 240.245 168.273 240.245 169.565H235.895ZM244.397 169.406C244.397 168.074 245.222 167.318 246.345 167.318C247.434 167.318 248.095 168.029 248.095 169.227V174H249.269V169.148C249.269 167.199 248.23 166.264 246.684 166.264C245.53 166.264 244.814 166.781 244.456 167.557H244.357V166.364H243.223V174H244.397V169.406ZM254.296 174.159C255.768 174.159 256.265 173.244 256.524 172.827H256.663V174H257.796V163.818H256.623V167.577H256.524C256.265 167.179 255.808 166.264 254.316 166.264C252.387 166.264 251.055 167.795 251.055 170.202C251.055 172.628 252.387 174.159 254.296 174.159ZM254.455 173.105C252.984 173.105 252.228 171.812 252.228 170.182C252.228 168.571 252.964 167.318 254.455 167.318C255.887 167.318 256.643 168.472 256.643 170.182C256.643 171.912 255.867 173.105 254.455 173.105ZM263.31 174.159C264.861 174.159 265.994 173.384 266.352 172.23L265.219 171.912C264.921 172.707 264.229 173.105 263.31 173.105C261.933 173.105 260.983 172.215 260.928 170.58H266.472V170.082C266.472 167.239 264.781 166.264 263.19 166.264C261.122 166.264 259.75 167.895 259.75 170.241C259.75 172.588 261.102 174.159 263.31 174.159ZM260.928 169.565C261.008 168.377 261.848 167.318 263.19 167.318C264.463 167.318 265.278 168.273 265.278 169.565H260.928ZM268.256 174H269.43V169.168C269.43 168.134 270.245 167.378 271.359 167.378C271.672 167.378 271.995 167.438 272.075 167.457V166.264C271.94 166.254 271.632 166.244 271.458 166.244C270.543 166.244 269.748 166.761 269.47 167.517H269.39V166.364H268.256V174ZM277.403 174H278.576V166.364H277.403V174ZM278 165.091C278.457 165.091 278.835 164.733 278.835 164.295C278.835 163.858 278.457 163.5 278 163.5C277.542 163.5 277.164 163.858 277.164 164.295C277.164 164.733 277.542 165.091 278 165.091ZM281.899 169.406C281.899 168.074 282.724 167.318 283.847 167.318C284.936 167.318 285.597 168.029 285.597 169.227V174H286.771V169.148C286.771 167.199 285.732 166.264 284.185 166.264C283.032 166.264 282.316 166.781 281.958 167.557H281.859V166.364H280.725V174H281.899V169.406ZM288.915 174H290.088V166.364H288.915V174ZM289.511 165.091C289.969 165.091 290.347 164.733 290.347 164.295C290.347 163.858 289.969 163.5 289.511 163.5C289.054 163.5 288.676 163.858 288.676 164.295C288.676 164.733 289.054 165.091 289.511 165.091ZM295.558 166.364H293.927V164.534H292.754V166.364H291.601V167.358H292.754V172.131C292.754 173.463 293.828 174.099 294.822 174.099C295.26 174.099 295.538 174.02 295.697 173.96L295.459 172.906C295.359 172.926 295.2 172.966 294.941 172.966C294.424 172.966 293.927 172.807 293.927 171.812V167.358H295.558V166.364ZM297.323 174H298.496V166.364H297.323V174ZM297.919 165.091C298.377 165.091 298.755 164.733 298.755 164.295C298.755 163.858 298.377 163.5 297.919 163.5C297.462 163.5 297.084 163.858 297.084 164.295C297.084 164.733 297.462 165.091 297.919 165.091ZM302.892 174.179C304.225 174.179 304.921 173.463 305.159 172.966H305.219V174H306.392V168.969C306.392 166.543 304.543 166.264 303.568 166.264C302.415 166.264 301.103 166.662 300.506 168.054L301.62 168.452C301.878 167.895 302.49 167.298 303.608 167.298C304.687 167.298 305.219 167.87 305.219 168.849V168.889C305.219 169.456 304.642 169.406 303.25 169.585C301.833 169.769 300.287 170.082 300.287 171.832C300.287 173.324 301.441 174.179 302.892 174.179ZM303.071 173.125C302.137 173.125 301.46 172.707 301.46 171.892C301.46 170.997 302.276 170.719 303.191 170.599C303.688 170.54 305.02 170.401 305.219 170.162V171.236C305.219 172.19 304.463 173.125 303.071 173.125ZM311.855 166.364H310.224V164.534H309.051V166.364H307.897V167.358H309.051V172.131C309.051 173.463 310.125 174.099 311.119 174.099C311.557 174.099 311.835 174.02 311.994 173.96L311.755 172.906C311.656 172.926 311.497 172.966 311.238 172.966C310.721 172.966 310.224 172.807 310.224 171.812V167.358H311.855V166.364ZM316.739 174.159C318.291 174.159 319.424 173.384 319.782 172.23L318.649 171.912C318.35 172.707 317.659 173.105 316.739 173.105C315.362 173.105 314.413 172.215 314.358 170.58H319.901V170.082C319.901 167.239 318.211 166.264 316.62 166.264C314.552 166.264 313.18 167.895 313.18 170.241C313.18 172.588 314.532 174.159 316.739 174.159ZM314.358 169.565C314.438 168.377 315.278 167.318 316.62 167.318C317.893 167.318 318.708 168.273 318.708 169.565H314.358ZM327.095 168.074C326.727 166.99 325.902 166.264 324.391 166.264C322.78 166.264 321.587 167.179 321.587 168.472C321.587 169.526 322.213 170.232 323.615 170.56L324.888 170.858C325.658 171.037 326.021 171.405 326.021 171.932C326.021 172.588 325.325 173.125 324.232 173.125C323.272 173.125 322.671 172.712 322.462 171.892L321.348 172.17C321.622 173.468 322.69 174.159 324.252 174.159C326.026 174.159 327.234 173.19 327.234 171.872C327.234 170.808 326.568 170.137 325.206 169.804L324.073 169.526C323.168 169.302 322.76 168.999 322.76 168.412C322.76 167.756 323.456 167.278 324.391 167.278C325.415 167.278 325.837 167.845 326.041 168.372L327.095 168.074Z" fill="#7CA2C1"/>
<path d="M657.831 367.864C658.89 367.864 659.636 367.302 660.079 366.114L663.33 357.384L662.047 357.364L659.939 363.449H659.86L657.752 357.364H656.479L659.303 365.04L659.084 365.636C658.657 366.8 658.13 366.909 657.275 366.69L656.976 367.724C657.096 367.784 657.434 367.864 657.831 367.864ZM667.811 365.159C669.362 365.159 670.495 364.384 670.853 363.23L669.72 362.912C669.422 363.707 668.73 364.105 667.811 364.105C666.434 364.105 665.484 363.215 665.429 361.58H670.973V361.082C670.973 358.239 669.282 357.264 667.691 357.264C665.623 357.264 664.251 358.895 664.251 361.241C664.251 363.588 665.603 365.159 667.811 365.159ZM665.429 360.565C665.509 359.377 666.349 358.318 667.691 358.318C668.964 358.318 669.779 359.273 669.779 360.565H665.429ZM678.167 359.074C677.799 357.99 676.973 357.264 675.462 357.264C673.851 357.264 672.658 358.179 672.658 359.472C672.658 360.526 673.284 361.232 674.686 361.56L675.959 361.858C676.73 362.037 677.093 362.405 677.093 362.932C677.093 363.588 676.397 364.125 675.303 364.125C674.343 364.125 673.742 363.712 673.533 362.892L672.419 363.17C672.693 364.468 673.762 365.159 675.323 365.159C677.098 365.159 678.306 364.19 678.306 362.872C678.306 361.808 677.64 361.137 676.277 360.804L675.144 360.526C674.239 360.302 673.831 359.999 673.831 359.412C673.831 358.756 674.527 358.278 675.462 358.278C676.486 358.278 676.909 358.845 677.113 359.372L678.167 359.074Z" fill="#73A97B"/>
<path d="M226.831 367.864C227.89 367.864 228.636 367.302 229.079 366.114L232.33 357.384L231.047 357.364L228.939 363.449H228.86L226.752 357.364H225.479L228.303 365.04L228.084 365.636C227.657 366.8 227.13 366.909 226.275 366.69L225.976 367.724C226.096 367.784 226.434 367.864 226.831 367.864ZM236.811 365.159C238.362 365.159 239.495 364.384 239.853 363.23L238.72 362.912C238.422 363.707 237.73 364.105 236.811 364.105C235.434 364.105 234.484 363.215 234.429 361.58H239.973V361.082C239.973 358.239 238.282 357.264 236.691 357.264C234.623 357.264 233.251 358.895 233.251 361.241C233.251 363.588 234.603 365.159 236.811 365.159ZM234.429 360.565C234.509 359.377 235.349 358.318 236.691 358.318C237.964 358.318 238.779 359.273 238.779 360.565H234.429ZM247.167 359.074C246.799 357.99 245.973 357.264 244.462 357.264C242.851 357.264 241.658 358.179 241.658 359.472C241.658 360.526 242.284 361.232 243.686 361.56L244.959 361.858C245.73 362.037 246.093 362.405 246.093 362.932C246.093 363.588 245.397 364.125 244.303 364.125C243.343 364.125 242.742 363.712 242.533 362.892L241.419 363.17C241.693 364.468 242.762 365.159 244.323 365.159C246.098 365.159 247.306 364.19 247.306 362.872C247.306 361.808 246.64 361.137 245.277 360.804L244.144 360.526C243.239 360.302 242.831 359.999 242.831 359.412C242.831 358.756 243.527 358.278 244.462 358.278C245.486 358.278 245.909 358.845 246.113 359.372L247.167 359.074Z" fill="#73A97B"/>
<path d="M754.476 308.406C754.476 307.074 755.301 306.318 756.425 306.318C757.513 306.318 758.175 307.029 758.175 308.227V313H759.348V308.148C759.348 306.199 758.309 305.264 756.763 305.264C755.609 305.264 754.893 305.781 754.535 306.557H754.436V305.364H753.302V313H754.476V308.406ZM764.594 313.159C766.662 313.159 768.054 311.588 768.054 309.222C768.054 306.835 766.662 305.264 764.594 305.264C762.526 305.264 761.134 306.835 761.134 309.222C761.134 311.588 762.526 313.159 764.594 313.159ZM764.594 312.105C763.023 312.105 762.307 310.753 762.307 309.222C762.307 307.69 763.023 306.318 764.594 306.318C766.165 306.318 766.881 307.69 766.881 309.222C766.881 310.753 766.165 312.105 764.594 312.105Z" fill="#C56550"/>
<path d="M86.4757 308.406C86.4757 307.074 87.301 306.318 88.4245 306.318C89.5133 306.318 90.1745 307.029 90.1745 308.227V313H91.3478V308.148C91.3478 306.199 90.3088 305.264 88.7626 305.264C87.6092 305.264 86.8933 305.781 86.5353 306.557H86.4359V305.364H85.3024V313H86.4757V308.406ZM96.5941 313.159C98.6623 313.159 100.054 311.588 100.054 309.222C100.054 306.835 98.6623 305.264 96.5941 305.264C94.5259 305.264 93.1339 306.835 93.1339 309.222C93.1339 311.588 94.5259 313.159 96.5941 313.159ZM96.5941 312.105C95.0231 312.105 94.3072 310.753 94.3072 309.222C94.3072 307.69 95.0231 306.318 96.5941 306.318C98.1651 306.318 98.881 307.69 98.881 309.222C98.881 310.753 98.1651 312.105 96.5941 312.105Z" fill="#C56550"/>
<path d="M242 506L252 511.773V500.227L242 506ZM695.07 318H767V316H695.07V318ZM768 319V504H770V319H768ZM767 505H251V507H767V505ZM768 504C768 504.552 767.552 505 767 505V507C768.657 507 770 505.657 770 504H768ZM767 318C767.552 318 768 318.448 768 319H770C770 317.343 768.657 316 767 316V318Z" fill="#C56550"/>
<path d="M190 506L180 511.773V500.227L190 506ZM168 318H86V316H168V318ZM85 319V504H83V319H85ZM86 505H181V507H86V505ZM85 504C85 504.552 85.4477 505 86 505V507C84.3431 507 83 505.657 83 504H85ZM86 318C85.4477 318 85 318.448 85 319H83C83 317.343 84.3431 316 86 316V318Z" fill="#C56550"/>
</svg>
