<svg width="100" height="112" viewBox="0 0 100 112" fill="none" xmlns="http://www.w3.org/2000/svg">
<path d="M35.2569 4.13445C44.3186 -1.37815 55.6814 -1.37815 64.7431 4.13445L86.2968 17.2465C94.8039 22.4218 100 31.6819 100 41.6673V70.3327C100 80.3182 94.8039 89.5782 86.2968 94.7534L64.7431 107.866C55.6814 113.378 44.3186 113.378 35.2569 107.866L13.7032 94.7534C5.19609 89.5782 0 80.3181 0 70.3327V41.6673C0 31.6819 5.19609 22.4218 13.7032 17.2465L35.2569 4.13445Z" fill="url(#paint0_linear)"/>
<path fill-rule="evenodd" clip-rule="evenodd" d="M25.7012 31.4302C25.7012 30.2256 26.6757 29.249 27.8779 29.249H52.3661C57.8445 29.249 62.9432 30.9069 67.1814 33.7497C68.1804 34.4197 68.4482 35.7744 67.7795 36.7755C67.1107 37.7765 65.7588 38.0448 64.7598 37.3747C61.2157 34.9976 56.9557 33.6113 52.3661 33.6113H27.8779C26.6757 33.6113 25.7012 32.6348 25.7012 31.4302ZM70.4196 39.2471C71.3707 38.5103 72.7378 38.6856 73.4731 39.6386C76.9569 44.1539 79.0309 49.8213 79.0309 55.968C79.0309 66.5797 72.8571 75.7422 63.922 80.0537C62.8389 80.5764 61.538 80.1203 61.0164 79.0349C60.4948 77.9496 60.95 76.6461 62.0332 76.1234C69.5189 72.5113 74.6775 64.8412 74.6775 55.968C74.6775 50.8206 72.9441 46.0849 70.0289 42.3067C69.2936 41.3537 69.4686 39.9839 70.4196 39.2471ZM25.7012 80.5058C25.7012 79.3012 26.6757 78.3247 27.8779 78.3247H55.6311C56.8333 78.3247 57.8079 79.3012 57.8079 80.5058C57.8079 81.7104 56.8333 82.687 55.6311 82.687H27.8779C26.6757 82.687 25.7012 81.7104 25.7012 80.5058Z" fill="white"/>
<path fill-rule="evenodd" clip-rule="evenodd" d="M30.0542 41.2446C30.0542 40.04 31.0288 39.0635 32.2309 39.0635H52.3656C58.0805 39.0635 63.131 41.9131 66.179 46.2618C66.87 47.2476 66.6326 48.608 65.6488 49.3003C64.665 49.9926 63.3074 49.7548 62.6164 48.769C60.3485 45.5333 56.6026 43.4258 52.3656 43.4258H32.2309C31.0288 43.4258 30.0542 42.4492 30.0542 41.2446ZM67.0585 53.7862C68.2607 53.7862 69.2352 54.7627 69.2352 55.9673C69.2352 65.303 61.6825 72.8712 52.3656 72.8712H32.2309C31.0288 72.8712 30.0542 71.8946 30.0542 70.69C30.0542 69.4854 31.0288 68.5089 32.2309 68.5089H52.3656C59.2781 68.5089 64.8818 62.8938 64.8818 55.9673C64.8818 54.7627 65.8563 53.7862 67.0585 53.7862Z" fill="white"/>
<path fill-rule="evenodd" clip-rule="evenodd" d="M33.3198 50.5151C33.3198 49.3105 34.2944 48.334 35.4965 48.334H51.2778C55.4854 48.334 58.8963 51.7518 58.8963 55.968C58.8963 60.1841 55.4854 63.602 51.2778 63.602C50.0756 63.602 49.1011 62.6254 49.1011 61.4208C49.1011 60.2162 50.0756 59.2397 51.2778 59.2397C53.0811 59.2397 54.5429 57.7749 54.5429 55.968C54.5429 54.1611 53.0811 52.6963 51.2778 52.6963H35.4965C34.2944 52.6963 33.3198 51.7197 33.3198 50.5151ZM33.3198 61.4208C33.3198 60.2162 34.2944 59.2397 35.4965 59.2397H43.1151C44.3173 59.2397 45.2918 60.2162 45.2918 61.4208C45.2918 62.6254 44.3173 63.602 43.1151 63.602H35.4965C34.2944 63.602 33.3198 62.6254 33.3198 61.4208Z" fill="white"/>
<defs>
<linearGradient id="paint0_linear" x1="49.9998" y1="-4.83418" x2="49.9998" y2="116.835" gradientUnits="userSpaceOnUse">
<stop stop-color="#8493AD"/>
<stop offset="1" stop-color="#1B2840"/>
</linearGradient>
</defs>
</svg>
