<svg width="862" height="200" viewBox="0 0 862 200" fill="none" xmlns="http://www.w3.org/2000/svg">
<g clip-path="url(#clip0_156_1144)">
<rect width="862" height="200" fill="#40A1AC"/>
<path d="M0 0H862V200H0V0Z" fill="#111F3B"/>
<path fill-rule="evenodd" clip-rule="evenodd" d="M861 1H1V199H861V1ZM0 0V200H862V0H0Z" fill="#111F3B"/>
<path d="M296.767 56.0909V91H290.443V56.0909H296.767Z" fill="#D7E1F4"/>
<path d="M315.445 91H303.615V56.0909H315.683C319.149 56.0909 322.127 56.7897 324.615 58.1875C327.115 59.5738 329.036 61.5682 330.377 64.1704C331.718 66.7727 332.388 69.8863 332.388 73.5113C332.388 77.1477 331.712 80.2727 330.36 82.8863C329.019 85.5 327.081 87.5057 324.547 88.9034C322.024 90.3011 318.99 91 315.445 91ZM309.939 85.5284H315.138C317.57 85.5284 319.598 85.0852 321.223 84.1988C322.848 83.3011 324.07 81.9659 324.888 80.1932C325.706 78.4091 326.115 76.1818 326.115 73.5113C326.115 70.8409 325.706 68.625 324.888 66.8636C324.07 65.0909 322.86 63.767 321.257 62.892C319.666 62.0057 317.689 61.5625 315.325 61.5625H309.939V85.5284Z" fill="#D7E1F4"/>
<path d="M338.396 91V56.0909H361.101V61.392H344.72V70.8693H359.925V76.1704H344.72V85.6988H361.237V91H338.396Z" fill="#D7E1F4"/>
<path d="M396.24 56.0909V91H390.615L374.166 67.2216H373.877V91H367.553V56.0909H373.212L389.644 79.8863H389.95V56.0909H396.24Z" fill="#D7E1F4"/>
<path d="M401.597 61.392V56.0909H429.449V61.392H418.659V91H412.387V61.392H401.597Z" fill="#D7E1F4"/>
<path d="M441.142 56.0909V91H434.818V56.0909H441.142Z" fill="#D7E1F4"/>
<path d="M446.456 61.392V56.0909H474.308V61.392H463.519V91H457.246V61.392H446.456Z" fill="#D7E1F4"/>
<path d="M477.291 56.0909H484.433L492.973 71.5341H493.314L501.854 56.0909H508.996L496.297 77.9772V91H489.99V77.9772L477.291 56.0909Z" fill="#D7E1F4"/>
<path d="M293.398 124H288.853L291.267 109.455H295.898C297.309 109.455 298.471 109.75 299.385 110.342C300.304 110.934 300.943 111.779 301.303 112.878C301.667 113.976 301.722 115.288 301.466 116.812C301.22 118.309 300.742 119.594 300.032 120.669C299.326 121.739 298.412 122.563 297.29 123.141C296.173 123.714 294.875 124 293.398 124ZM290.877 122.437H293.455C294.657 122.437 295.694 122.201 296.566 121.727C297.442 121.254 298.147 120.579 298.682 119.703C299.222 118.827 299.591 117.788 299.79 116.585C299.989 115.43 299.97 114.438 299.733 113.609C299.501 112.776 299.044 112.137 298.362 111.692C297.685 111.242 296.779 111.017 295.642 111.017H292.766L290.877 122.437Z" fill="#0FC1B7"/>
<path d="M307.546 124.227C306.499 124.227 305.635 123.995 304.953 123.531C304.272 123.062 303.796 122.409 303.526 121.571C303.256 120.728 303.213 119.748 303.398 118.631C303.583 117.513 303.95 116.528 304.499 115.676C305.048 114.819 305.732 114.151 306.551 113.673C307.371 113.19 308.27 112.949 309.25 112.949C309.818 112.949 310.365 113.044 310.891 113.233C311.416 113.422 311.871 113.73 312.255 114.156C312.638 114.578 312.906 115.136 313.057 115.832C313.209 116.528 313.199 117.385 313.029 118.403L312.915 119.114H304.506L304.733 117.665H311.438C311.547 117.049 311.518 116.5 311.353 116.017C311.192 115.534 310.91 115.153 310.507 114.874C310.11 114.594 309.605 114.455 308.995 114.455C308.365 114.455 307.778 114.625 307.233 114.966C306.689 115.302 306.234 115.728 305.87 116.244C305.505 116.756 305.278 117.276 305.188 117.807L304.989 119.057C304.847 119.961 304.868 120.681 305.053 121.216C305.242 121.751 305.571 122.137 306.04 122.374C306.509 122.606 307.096 122.722 307.801 122.722C308.251 122.722 308.666 122.66 309.044 122.537C309.423 122.409 309.762 122.22 310.06 121.969C310.358 121.713 310.609 121.396 310.813 121.017L312.347 121.472C312.086 122.021 311.719 122.504 311.246 122.92C310.777 123.332 310.228 123.654 309.598 123.886C308.973 124.114 308.289 124.227 307.546 124.227Z" fill="#0FC1B7"/>
<path d="M319.083 124.227C318.056 124.227 317.213 123.986 316.555 123.503C315.902 123.02 315.447 122.355 315.191 121.507C314.936 120.66 314.898 119.691 315.078 118.602C315.258 117.494 315.622 116.517 316.171 115.669C316.721 114.817 317.405 114.151 318.224 113.673C319.043 113.19 319.945 112.949 320.93 112.949C321.697 112.949 322.365 113.091 322.933 113.375C323.501 113.659 323.939 114.057 324.247 114.568C324.554 115.08 324.699 115.676 324.68 116.358H323.004C322.956 115.861 322.743 115.42 322.365 115.037C321.991 114.649 321.437 114.455 320.703 114.455C320.049 114.455 319.448 114.625 318.899 114.966C318.349 115.302 317.888 115.778 317.514 116.393C317.14 117.004 316.886 117.722 316.754 118.545C316.612 119.388 316.624 120.122 316.789 120.747C316.955 121.372 317.256 121.857 317.691 122.203C318.127 122.549 318.676 122.722 319.339 122.722C319.775 122.722 320.182 122.646 320.561 122.494C320.939 122.343 321.276 122.125 321.569 121.841C321.863 121.557 322.095 121.216 322.265 120.818H323.941C323.733 121.462 323.399 122.042 322.94 122.558C322.481 123.07 321.924 123.477 321.271 123.78C320.617 124.078 319.888 124.227 319.083 124.227Z" fill="#0FC1B7"/>
<path d="M330.397 124.227C329.351 124.227 328.487 123.995 327.805 123.531C327.123 123.062 326.647 122.409 326.377 121.571C326.108 120.728 326.065 119.748 326.25 118.631C326.434 117.513 326.801 116.528 327.35 115.676C327.9 114.819 328.584 114.151 329.403 113.673C330.222 113.19 331.122 112.949 332.102 112.949C332.67 112.949 333.217 113.044 333.742 113.233C334.268 113.422 334.723 113.73 335.106 114.156C335.49 114.578 335.757 115.136 335.909 115.832C336.06 116.528 336.051 117.385 335.88 118.403L335.767 119.114H327.358L327.585 117.665H334.289C334.398 117.049 334.37 116.5 334.204 116.017C334.043 115.534 333.761 115.153 333.359 114.874C332.961 114.594 332.457 114.455 331.846 114.455C331.216 114.455 330.629 114.625 330.085 114.966C329.54 115.302 329.086 115.728 328.721 116.244C328.357 116.756 328.129 117.276 328.039 117.807L327.84 119.057C327.698 119.961 327.72 120.681 327.904 121.216C328.094 121.751 328.423 122.137 328.892 122.374C329.36 122.606 329.947 122.722 330.653 122.722C331.103 122.722 331.517 122.66 331.896 122.537C332.275 122.409 332.613 122.22 332.911 121.969C333.21 121.713 333.461 121.396 333.664 121.017L335.198 121.472C334.938 122.021 334.571 122.504 334.098 122.92C333.629 123.332 333.08 123.654 332.45 123.886C331.825 124.114 331.141 124.227 330.397 124.227Z" fill="#0FC1B7"/>
<path d="M340.287 117.437L339.208 124H337.532L339.35 113.091H340.969L340.685 114.795H340.827C341.168 114.241 341.63 113.796 342.212 113.46C342.794 113.119 343.497 112.949 344.321 112.949C345.05 112.949 345.666 113.1 346.168 113.403C346.675 113.702 347.032 114.156 347.24 114.767C347.453 115.373 347.484 116.14 347.333 117.068L346.168 124H344.492L345.628 117.182C345.77 116.33 345.659 115.662 345.294 115.179C344.934 114.696 344.364 114.455 343.583 114.455C343.043 114.455 342.543 114.571 342.084 114.803C341.63 115.035 341.244 115.373 340.926 115.818C340.614 116.263 340.401 116.803 340.287 117.437Z" fill="#0FC1B7"/>
<path d="M355.793 113.091L355.566 114.511H349.913L350.14 113.091H355.793ZM352.214 110.477H353.89L352.157 120.875C352.081 121.348 352.093 121.704 352.192 121.94C352.297 122.172 352.453 122.329 352.661 122.409C352.874 122.485 353.104 122.523 353.35 122.523C353.535 122.523 353.686 122.513 353.805 122.494C353.923 122.471 354.018 122.452 354.089 122.437L354.202 123.943C354.074 123.986 353.902 124.028 353.684 124.071C353.471 124.118 353.208 124.142 352.896 124.142C352.422 124.142 351.977 124.04 351.56 123.837C351.144 123.633 350.824 123.323 350.601 122.906C350.379 122.49 350.32 121.964 350.424 121.33L352.214 110.477Z" fill="#0FC1B7"/>
<path d="M356.496 124L358.315 113.091H359.934L359.65 114.739H359.763C360.047 114.199 360.481 113.761 361.063 113.425C361.646 113.089 362.263 112.92 362.917 112.92C363.045 112.92 363.199 112.923 363.378 112.928C363.558 112.928 363.698 112.935 363.798 112.949L363.513 114.653C363.457 114.639 363.329 114.618 363.13 114.589C362.931 114.556 362.718 114.54 362.491 114.54C361.96 114.54 361.47 114.651 361.021 114.874C360.571 115.091 360.194 115.394 359.891 115.783C359.588 116.166 359.394 116.604 359.309 117.097L358.173 124H356.496Z" fill="#0FC1B7"/>
<path d="M367.159 124.256C366.467 124.256 365.861 124.125 365.34 123.865C364.82 123.6 364.434 123.219 364.183 122.722C363.932 122.22 363.863 121.614 363.977 120.903C364.086 120.278 364.296 119.772 364.609 119.384C364.921 118.991 365.3 118.683 365.745 118.46C366.195 118.233 366.678 118.065 367.194 117.956C367.715 117.842 368.233 117.755 368.75 117.693C369.422 117.608 369.969 117.542 370.39 117.494C370.812 117.447 371.129 117.369 371.342 117.26C371.555 117.151 371.685 116.964 371.733 116.699V116.642C371.846 115.946 371.754 115.404 371.456 115.016C371.157 114.623 370.625 114.426 369.858 114.426C369.062 114.426 368.397 114.601 367.862 114.952C367.327 115.302 366.931 115.676 366.676 116.074L365.198 115.506C365.587 114.843 366.051 114.327 366.59 113.957C367.13 113.583 367.696 113.323 368.288 113.176C368.88 113.025 369.45 112.949 370 112.949C370.35 112.949 370.745 112.991 371.186 113.077C371.626 113.157 372.038 113.325 372.421 113.581C372.81 113.837 373.101 114.223 373.295 114.739C373.494 115.255 373.522 115.946 373.38 116.812L372.187 124H370.511L370.767 122.523H370.681C370.53 122.759 370.298 123.013 369.985 123.283C369.678 123.553 369.287 123.782 368.813 123.972C368.345 124.161 367.793 124.256 367.159 124.256ZM367.642 122.75C368.304 122.75 368.885 122.62 369.382 122.359C369.884 122.099 370.286 121.763 370.589 121.351C370.897 120.939 371.089 120.506 371.164 120.051L371.42 118.517C371.335 118.602 371.167 118.68 370.916 118.751C370.665 118.818 370.381 118.877 370.063 118.929C369.751 118.976 369.446 119.019 369.147 119.057C368.854 119.09 368.617 119.118 368.437 119.142C367.992 119.199 367.568 119.291 367.166 119.419C366.768 119.542 366.432 119.729 366.157 119.98C365.887 120.226 365.719 120.562 365.653 120.989C365.554 121.571 365.693 122.011 366.072 122.31C366.451 122.603 366.974 122.75 367.642 122.75Z" fill="#0FC1B7"/>
<path d="M379.337 109.455L376.923 124H375.246L377.661 109.455H379.337Z" fill="#0FC1B7"/>
<path d="M379.992 124L381.811 113.091H383.487L381.669 124H379.992ZM383.16 111.244C382.833 111.244 382.552 111.133 382.315 110.91C382.083 110.688 381.967 110.42 381.967 110.108C381.967 109.795 382.083 109.528 382.315 109.305C382.552 109.083 382.833 108.972 383.16 108.972C383.487 108.972 383.766 109.083 383.998 109.305C384.235 109.528 384.353 109.795 384.353 110.108C384.353 110.42 384.235 110.688 383.998 110.91C383.766 111.133 383.487 111.244 383.16 111.244Z" fill="#0FC1B7"/>
<path d="M384.426 124L384.653 122.722L392.153 114.767L392.182 114.653H386.187L386.443 113.091H394.597L394.369 114.426L387.04 122.324L387.011 122.437H393.233L392.977 124H384.426Z" fill="#0FC1B7"/>
<path d="M399.792 124.227C398.745 124.227 397.881 123.995 397.199 123.531C396.518 123.062 396.042 122.409 395.772 121.571C395.502 120.728 395.459 119.748 395.644 118.631C395.829 117.513 396.196 116.528 396.745 115.676C397.294 114.819 397.978 114.151 398.798 113.673C399.617 113.19 400.516 112.949 401.496 112.949C402.065 112.949 402.611 113.044 403.137 113.233C403.663 113.422 404.117 113.73 404.501 114.156C404.884 114.578 405.152 115.136 405.303 115.832C405.455 116.528 405.445 117.385 405.275 118.403L405.161 119.114H396.752L396.979 117.665H403.684C403.793 117.049 403.764 116.5 403.599 116.017C403.438 115.534 403.156 115.153 402.753 114.874C402.356 114.594 401.851 114.455 401.241 114.455C400.611 114.455 400.024 114.625 399.479 114.966C398.935 115.302 398.48 115.728 398.116 116.244C397.751 116.756 397.524 117.276 397.434 117.807L397.235 119.057C397.093 119.961 397.114 120.681 397.299 121.216C397.488 121.751 397.817 122.137 398.286 122.374C398.755 122.606 399.342 122.722 400.048 122.722C400.497 122.722 400.912 122.66 401.29 122.537C401.669 122.409 402.008 122.22 402.306 121.969C402.604 121.713 402.855 121.396 403.059 121.017L404.593 121.472C404.333 122.021 403.966 122.504 403.492 122.92C403.023 123.332 402.474 123.654 401.844 123.886C401.219 124.114 400.535 124.227 399.792 124.227Z" fill="#0FC1B7"/>
<path d="M411.031 124.227C410.117 124.227 409.35 123.998 408.73 123.538C408.11 123.074 407.672 122.421 407.416 121.578C407.165 120.731 407.134 119.729 407.324 118.574C407.518 117.428 407.88 116.434 408.41 115.591C408.945 114.748 409.601 114.097 410.378 113.638C411.154 113.178 412.002 112.949 412.92 112.949C413.631 112.949 414.173 113.067 414.547 113.304C414.926 113.536 415.2 113.801 415.371 114.099C415.541 114.393 415.671 114.634 415.761 114.824H415.903L416.798 109.455H418.474L416.06 124H414.44L414.724 122.324H414.525C414.369 122.523 414.151 122.774 413.872 123.077C413.593 123.375 413.223 123.642 412.764 123.879C412.31 124.111 411.732 124.227 411.031 124.227ZM411.443 122.722C412.115 122.722 412.717 122.546 413.247 122.196C413.782 121.841 414.227 121.351 414.582 120.726C414.937 120.096 415.184 119.369 415.321 118.545C415.458 117.731 415.454 117.018 415.307 116.408C415.16 115.792 414.878 115.314 414.462 114.973C414.045 114.627 413.493 114.455 412.807 114.455C412.101 114.455 411.488 114.637 410.967 115.001C410.446 115.361 410.023 115.851 409.696 116.472C409.369 117.087 409.142 117.778 409.014 118.545C408.886 119.322 408.884 120.027 409.007 120.662C409.13 121.292 409.391 121.794 409.788 122.168C410.191 122.537 410.742 122.722 411.443 122.722Z" fill="#0FC1B7"/>
<path d="M429.376 109.455L426.962 124H425.2L427.615 109.455H429.376Z" fill="#0FC1B7"/>
<path d="M434.371 124.227C433.457 124.227 432.69 123.998 432.07 123.538C431.45 123.074 431.012 122.421 430.756 121.578C430.505 120.731 430.474 119.729 430.664 118.574C430.858 117.428 431.22 116.434 431.75 115.591C432.285 114.748 432.941 114.097 433.718 113.638C434.494 113.178 435.342 112.949 436.26 112.949C436.97 112.949 437.513 113.067 437.887 113.304C438.265 113.536 438.54 113.801 438.71 114.099C438.881 114.393 439.011 114.634 439.101 114.824H439.243L440.138 109.455H441.814L439.399 124H437.78L438.064 122.324H437.865C437.709 122.523 437.491 122.774 437.212 123.077C436.933 123.375 436.563 123.642 436.104 123.879C435.649 124.111 435.072 124.227 434.371 124.227ZM434.783 122.722C435.455 122.722 436.057 122.546 436.587 122.196C437.122 121.841 437.567 121.351 437.922 120.726C438.277 120.096 438.523 119.369 438.661 118.545C438.798 117.731 438.793 117.018 438.647 116.408C438.5 115.792 438.218 115.314 437.801 114.973C437.385 114.627 436.833 114.455 436.147 114.455C435.441 114.455 434.828 114.637 434.307 115.001C433.786 115.361 433.362 115.851 433.036 116.472C432.709 117.087 432.482 117.778 432.354 118.545C432.226 119.322 432.224 120.027 432.347 120.662C432.47 121.292 432.73 121.794 433.128 122.168C433.531 122.537 434.082 122.722 434.783 122.722Z" fill="#0FC1B7"/>
<path d="M447.233 124.227C446.187 124.227 445.323 123.995 444.641 123.531C443.959 123.062 443.483 122.409 443.213 121.571C442.943 120.728 442.901 119.748 443.085 118.631C443.27 117.513 443.637 116.528 444.186 115.676C444.736 114.819 445.42 114.151 446.239 113.673C447.058 113.19 447.958 112.949 448.938 112.949C449.506 112.949 450.053 113.044 450.578 113.233C451.104 113.422 451.558 113.73 451.942 114.156C452.326 114.578 452.593 115.136 452.745 115.832C452.896 116.528 452.887 117.385 452.716 118.403L452.603 119.114H444.193L444.421 117.665H451.125C451.234 117.049 451.206 116.5 451.04 116.017C450.879 115.534 450.597 115.153 450.195 114.874C449.797 114.594 449.293 114.455 448.682 114.455C448.052 114.455 447.465 114.625 446.921 114.966C446.376 115.302 445.922 115.728 445.557 116.244C445.192 116.756 444.965 117.276 444.875 117.807L444.676 119.057C444.534 119.961 444.556 120.681 444.74 121.216C444.93 121.751 445.259 122.137 445.728 122.374C446.196 122.606 446.783 122.722 447.489 122.722C447.939 122.722 448.353 122.66 448.732 122.537C449.111 122.409 449.449 122.22 449.747 121.969C450.046 121.713 450.297 121.396 450.5 121.017L452.034 121.472C451.774 122.021 451.407 122.504 450.934 122.92C450.465 123.332 449.916 123.654 449.286 123.886C448.661 124.114 447.977 124.227 447.233 124.227Z" fill="#0FC1B7"/>
<path d="M457.123 117.437L456.044 124H454.367L456.186 113.091H457.805L457.521 114.795H457.663C458.004 114.241 458.465 113.796 459.048 113.46C459.63 113.119 460.333 112.949 461.157 112.949C461.886 112.949 462.502 113.1 463.004 113.403C463.51 113.702 463.868 114.156 464.076 114.767C464.289 115.373 464.32 116.14 464.169 117.068L463.004 124H461.328L462.464 117.182C462.606 116.33 462.495 115.662 462.13 115.179C461.77 114.696 461.2 114.455 460.419 114.455C459.879 114.455 459.379 114.571 458.92 114.803C458.465 115.035 458.08 115.373 457.762 115.818C457.45 116.263 457.237 116.803 457.123 117.437Z" fill="#0FC1B7"/>
<path d="M472.629 113.091L472.402 114.511H466.748L466.976 113.091H472.629ZM469.05 110.477H470.726L468.993 120.875C468.917 121.348 468.929 121.704 469.028 121.94C469.132 122.172 469.289 122.329 469.497 122.409C469.71 122.485 469.94 122.523 470.186 122.523C470.371 122.523 470.522 122.513 470.641 122.494C470.759 122.471 470.854 122.452 470.925 122.437L471.038 123.943C470.91 123.986 470.738 124.028 470.52 124.071C470.307 124.118 470.044 124.142 469.731 124.142C469.258 124.142 468.813 124.04 468.396 123.837C467.98 123.633 467.66 123.323 467.437 122.906C467.215 122.49 467.156 121.964 467.26 121.33L469.05 110.477Z" fill="#0FC1B7"/>
<path d="M473.332 124L475.15 113.091H476.827L475.008 124H473.332ZM476.5 111.244C476.173 111.244 475.891 111.133 475.655 110.91C475.423 110.688 475.307 110.42 475.307 110.108C475.307 109.795 475.423 109.528 475.655 109.305C475.891 109.083 476.173 108.972 476.5 108.972C476.827 108.972 477.106 109.083 477.338 109.305C477.575 109.528 477.693 109.795 477.693 110.108C477.693 110.42 477.575 110.688 477.338 110.91C477.106 111.133 476.827 111.244 476.5 111.244Z" fill="#0FC1B7"/>
<path d="M484.641 113.091L484.414 114.511H478.76L478.987 113.091H484.641ZM481.061 110.477H482.737L481.005 120.875C480.929 121.348 480.941 121.704 481.04 121.94C481.144 122.172 481.3 122.329 481.509 122.409C481.722 122.485 481.951 122.523 482.198 122.523C482.382 122.523 482.534 122.513 482.652 122.494C482.771 122.471 482.865 122.452 482.936 122.437L483.05 123.943C482.922 123.986 482.749 124.028 482.532 124.071C482.318 124.118 482.056 124.142 481.743 124.142C481.27 124.142 480.825 124.04 480.408 123.837C479.991 123.633 479.672 123.323 479.449 122.906C479.227 122.49 479.167 121.964 479.272 121.33L481.061 110.477Z" fill="#0FC1B7"/>
<path d="M485.756 128.091C485.472 128.091 485.221 128.067 485.003 128.02C484.79 127.977 484.643 127.935 484.563 127.892L485.245 126.415C485.633 126.519 485.978 126.55 486.282 126.507C486.589 126.469 486.88 126.32 487.155 126.06C487.434 125.804 487.726 125.401 488.029 124.852L488.497 124L486.31 113.091H488.057L489.62 121.812H489.733L494.193 113.091H496.083L489.392 125.577C489.08 126.159 488.737 126.635 488.362 127.004C487.988 127.374 487.584 127.646 487.148 127.821C486.712 128.001 486.248 128.091 485.756 128.091Z" fill="#0FC1B7"/>
<path d="M508.778 113.091L508.551 114.511H502.67L502.897 113.091H508.778ZM502.84 124L504.914 111.585C505.009 110.96 505.236 110.439 505.596 110.023C505.961 109.606 506.394 109.294 506.896 109.085C507.402 108.877 507.916 108.773 508.437 108.773C508.849 108.773 509.178 108.806 509.424 108.872C509.675 108.938 509.858 109 509.971 109.057L509.261 110.506C509.176 110.477 509.062 110.442 508.92 110.399C508.783 110.357 508.593 110.335 508.352 110.335C507.798 110.335 507.376 110.475 507.088 110.754C506.799 111.034 506.605 111.443 506.505 111.983L504.517 124H502.84Z" fill="#0FC1B7"/>
<path d="M513.362 124.227C512.359 124.227 511.518 123.988 510.841 123.51C510.164 123.032 509.686 122.362 509.407 121.5C509.132 120.638 509.087 119.634 509.272 118.489C509.451 117.371 509.809 116.398 510.344 115.57C510.884 114.736 511.554 114.092 512.354 113.638C513.159 113.178 514.044 112.949 515.01 112.949C516.014 112.949 516.852 113.19 517.524 113.673C518.201 114.151 518.68 114.824 518.959 115.69C519.238 116.552 519.286 117.561 519.101 118.716C518.921 119.824 518.559 120.792 518.014 121.621C517.475 122.445 516.805 123.086 516.005 123.545C515.209 124 514.328 124.227 513.362 124.227ZM513.391 122.722C514.158 122.722 514.823 122.525 515.387 122.132C515.955 121.739 516.414 121.221 516.764 120.577C517.12 119.933 517.359 119.237 517.482 118.489C517.595 117.778 517.591 117.118 517.468 116.507C517.344 115.892 517.082 115.397 516.679 115.023C516.277 114.644 515.711 114.455 514.982 114.455C514.215 114.455 513.545 114.653 512.972 115.051C512.404 115.449 511.944 115.972 511.594 116.621C511.244 117.269 511.009 117.968 510.891 118.716C510.777 119.426 510.78 120.087 510.898 120.697C511.021 121.303 511.284 121.794 511.686 122.168C512.094 122.537 512.662 122.722 513.391 122.722Z" fill="#0FC1B7"/>
<path d="M520.793 124L522.611 113.091H524.231L523.947 114.739H524.06C524.344 114.199 524.778 113.761 525.36 113.425C525.942 113.089 526.56 112.92 527.214 112.92C527.342 112.92 527.495 112.923 527.675 112.928C527.855 112.928 527.995 112.935 528.094 112.949L527.81 114.653C527.753 114.639 527.626 114.618 527.427 114.589C527.228 114.556 527.015 114.54 526.788 114.54C526.257 114.54 525.767 114.651 525.317 114.874C524.868 115.091 524.491 115.394 524.188 115.783C523.885 116.166 523.691 116.604 523.606 117.097L522.469 124H520.793Z" fill="#0FC1B7"/>
<path d="M534.126 124L536.541 109.455H541.456C542.592 109.455 543.489 109.658 544.147 110.065C544.81 110.473 545.258 111.024 545.49 111.72C545.726 112.416 545.774 113.195 545.632 114.057C545.49 114.909 545.184 115.686 544.715 116.386C544.251 117.087 543.622 117.646 542.826 118.062C542.036 118.479 541.077 118.687 539.95 118.687H536.427L536.683 117.125H540.149C540.925 117.125 541.574 116.99 542.095 116.72C542.616 116.45 543.023 116.083 543.316 115.619C543.61 115.155 543.804 114.634 543.899 114.057C543.993 113.47 543.97 112.949 543.828 112.494C543.69 112.035 543.404 111.675 542.968 111.415C542.537 111.15 541.929 111.017 541.143 111.017H538.046L535.887 124H534.126Z" fill="#0FC1B7"/>
<path d="M551.003 124.227C549.956 124.227 549.092 123.995 548.41 123.531C547.729 123.062 547.253 122.409 546.983 121.571C546.713 120.728 546.67 119.748 546.855 118.631C547.04 117.513 547.407 116.528 547.956 115.676C548.505 114.819 549.189 114.151 550.008 113.673C550.828 113.19 551.727 112.949 552.707 112.949C553.275 112.949 553.822 113.044 554.348 113.233C554.873 113.422 555.328 113.73 555.712 114.156C556.095 114.578 556.363 115.136 556.514 115.832C556.666 116.528 556.656 117.385 556.486 118.403L556.372 119.114H547.963L548.19 117.665H554.895C555.004 117.049 554.975 116.5 554.81 116.017C554.649 115.534 554.367 115.153 553.964 114.874C553.567 114.594 553.062 114.455 552.452 114.455C551.822 114.455 551.235 114.625 550.69 114.966C550.146 115.302 549.691 115.728 549.327 116.244C548.962 116.756 548.735 117.276 548.645 117.807L548.446 119.057C548.304 119.961 548.325 120.681 548.51 121.216C548.699 121.751 549.028 122.137 549.497 122.374C549.966 122.606 550.553 122.722 551.258 122.722C551.708 122.722 552.123 122.66 552.501 122.537C552.88 122.409 553.219 122.22 553.517 121.969C553.815 121.713 554.066 121.396 554.27 121.017L555.804 121.472C555.543 122.021 555.177 122.504 554.703 122.92C554.234 123.332 553.685 123.654 553.055 123.886C552.43 124.114 551.746 124.227 551.003 124.227Z" fill="#0FC1B7"/>
<path d="M562.64 124.227C561.636 124.227 560.796 123.988 560.119 123.51C559.441 123.032 558.963 122.362 558.684 121.5C558.409 120.638 558.364 119.634 558.549 118.489C558.729 117.371 559.086 116.398 559.621 115.57C560.161 114.736 560.831 114.092 561.631 113.638C562.436 113.178 563.322 112.949 564.288 112.949C565.291 112.949 566.129 113.19 566.802 113.673C567.479 114.151 567.957 114.824 568.236 115.69C568.516 116.552 568.563 117.561 568.378 118.716C568.199 119.824 567.836 120.792 567.292 121.621C566.752 122.445 566.082 123.086 565.282 123.545C564.486 124 563.606 124.227 562.64 124.227ZM562.668 122.722C563.435 122.722 564.101 122.525 564.664 122.132C565.232 121.739 565.691 121.221 566.042 120.577C566.397 119.933 566.636 119.237 566.759 118.489C566.873 117.778 566.868 117.118 566.745 116.507C566.622 115.892 566.359 115.397 565.957 115.023C565.554 114.644 564.988 114.455 564.259 114.455C563.492 114.455 562.822 114.653 562.249 115.051C561.681 115.449 561.222 115.972 560.871 116.621C560.521 117.269 560.287 117.968 560.168 118.716C560.055 119.426 560.057 120.087 560.175 120.697C560.298 121.303 560.561 121.794 560.964 122.168C561.371 122.537 561.939 122.722 562.668 122.722Z" fill="#0FC1B7"/>
<path d="M569.389 128.091L571.903 113.091H573.522L573.238 114.824H573.437C573.589 114.634 573.797 114.393 574.062 114.099C574.332 113.801 574.694 113.536 575.149 113.304C575.608 113.067 576.193 112.949 576.903 112.949C577.822 112.949 578.591 113.178 579.211 113.638C579.831 114.097 580.269 114.748 580.525 115.591C580.781 116.434 580.814 117.428 580.625 118.574C580.435 119.729 580.073 120.731 579.538 121.578C579.003 122.421 578.349 123.074 577.578 123.538C576.806 123.998 575.965 124.227 575.056 124.227C574.356 124.227 573.813 124.111 573.43 123.879C573.046 123.642 572.767 123.375 572.592 123.077C572.417 122.774 572.282 122.523 572.187 122.324H572.045L571.079 128.091H569.389ZM572.642 118.545C572.509 119.369 572.509 120.096 572.642 120.726C572.779 121.351 573.051 121.841 573.458 122.196C573.87 122.546 574.412 122.722 575.085 122.722C575.786 122.722 576.399 122.537 576.924 122.168C577.455 121.794 577.89 121.292 578.231 120.662C578.577 120.027 578.816 119.322 578.948 118.545C579.072 117.778 579.067 117.087 578.934 116.472C578.802 115.851 578.532 115.361 578.125 115.001C577.717 114.637 577.159 114.455 576.448 114.455C575.767 114.455 575.163 114.627 574.637 114.973C574.117 115.314 573.686 115.792 573.345 116.408C573.009 117.018 572.774 117.731 572.642 118.545Z" fill="#0FC1B7"/>
<path d="M586.369 109.455L583.954 124H582.278L584.692 109.455H586.369Z" fill="#0FC1B7"/>
<path d="M591.569 124.227C590.523 124.227 589.659 123.995 588.977 123.531C588.295 123.062 587.819 122.409 587.549 121.571C587.279 120.728 587.237 119.748 587.421 118.631C587.606 117.513 587.973 116.528 588.522 115.676C589.072 114.819 589.756 114.151 590.575 113.673C591.394 113.19 592.294 112.949 593.274 112.949C593.842 112.949 594.389 113.044 594.914 113.233C595.44 113.422 595.894 113.73 596.278 114.156C596.662 114.578 596.929 115.136 597.081 115.832C597.232 116.528 597.223 117.385 597.052 118.403L596.938 119.114H588.529L588.757 117.665H595.461C595.57 117.049 595.542 116.5 595.376 116.017C595.215 115.534 594.933 115.153 594.531 114.874C594.133 114.594 593.629 114.455 593.018 114.455C592.388 114.455 591.801 114.625 591.257 114.966C590.712 115.302 590.258 115.728 589.893 116.244C589.528 116.756 589.301 117.276 589.211 117.807L589.012 119.057C588.87 119.961 588.892 120.681 589.076 121.216C589.266 121.751 589.595 122.137 590.063 122.374C590.532 122.606 591.119 122.722 591.825 122.722C592.275 122.722 592.689 122.66 593.068 122.537C593.447 122.409 593.785 122.22 594.083 121.969C594.382 121.713 594.633 121.396 594.836 121.017L596.37 121.472C596.11 122.021 595.743 122.504 595.269 122.92C594.801 123.332 594.251 123.654 593.622 123.886C592.997 124.114 592.313 124.227 591.569 124.227Z" fill="#0FC1B7"/>
<path d="M601.544 122.011L601.289 122.778C601.118 123.318 600.9 123.896 600.635 124.511C600.37 125.127 600.107 125.707 599.847 126.251C599.586 126.796 599.376 127.229 599.215 127.551H597.936C598.041 127.248 598.183 126.848 598.362 126.351C598.542 125.854 598.734 125.3 598.938 124.689C599.141 124.078 599.328 123.451 599.499 122.807L599.726 122.011H601.544Z" fill="#0FC1B7"/>
<path d="M302.318 140.841C302.063 142.356 301.573 143.665 300.848 144.768C300.124 145.867 299.238 146.714 298.192 147.311C297.146 147.903 296.012 148.199 294.79 148.199C293.531 148.199 292.458 147.891 291.573 147.276C290.692 146.655 290.062 145.779 289.684 144.648C289.309 143.511 289.25 142.167 289.506 140.614C289.762 139.098 290.252 137.792 290.976 136.693C291.701 135.59 292.588 134.742 293.639 134.151C294.691 133.554 295.832 133.256 297.063 133.256C298.313 133.256 299.376 133.566 300.252 134.186C301.132 134.802 301.76 135.678 302.134 136.814C302.513 137.946 302.574 139.288 302.318 140.841ZM300.642 140.614C300.851 139.373 300.82 138.329 300.55 137.482C300.28 136.634 299.833 135.992 299.208 135.557C298.583 135.121 297.839 134.903 296.978 134.903C296.078 134.903 295.226 135.133 294.421 135.592C293.616 136.047 292.927 136.717 292.354 137.602C291.781 138.483 291.39 139.562 291.182 140.841C290.974 142.081 291.005 143.125 291.274 143.973C291.544 144.821 291.992 145.462 292.617 145.898C293.242 146.333 293.985 146.551 294.847 146.551C295.746 146.551 296.599 146.324 297.404 145.869C298.209 145.41 298.898 144.74 299.47 143.859C300.043 142.974 300.434 141.892 300.642 140.614Z" fill="#0FC1B7"/>
<path d="M303.86 148L305.678 137.091H307.297L307.013 138.739H307.127C307.411 138.199 307.844 137.761 308.426 137.425C309.009 137.089 309.627 136.92 310.28 136.92C310.408 136.92 310.562 136.923 310.742 136.928C310.922 136.928 311.061 136.935 311.161 136.949L310.877 138.653C310.82 138.639 310.692 138.618 310.493 138.589C310.294 138.556 310.081 138.54 309.854 138.54C309.324 138.54 308.834 138.651 308.384 138.874C307.934 139.091 307.558 139.394 307.255 139.783C306.951 140.166 306.757 140.604 306.672 141.097L305.536 148H303.86Z" fill="#0FC1B7"/>
<path d="M314.73 152.318C313.915 152.318 313.233 152.214 312.684 152.006C312.135 151.802 311.695 151.532 311.363 151.196C311.032 150.865 310.781 150.509 310.61 150.131L312.116 149.193C312.23 149.392 312.376 149.619 312.556 149.875C312.736 150.135 313.009 150.36 313.373 150.55C313.742 150.744 314.261 150.841 314.929 150.841C315.804 150.841 316.572 150.628 317.23 150.202C317.888 149.776 318.295 149.108 318.451 148.199L318.792 145.983H318.65C318.499 146.182 318.288 146.428 318.018 146.722C317.748 147.01 317.386 147.268 316.931 147.496C316.477 147.718 315.894 147.83 315.184 147.83C314.299 147.83 313.541 147.621 312.911 147.205C312.282 146.788 311.83 146.182 311.555 145.386C311.285 144.591 311.245 143.625 311.434 142.489C311.619 141.371 311.974 140.398 312.5 139.57C313.03 138.736 313.683 138.092 314.46 137.638C315.236 137.178 316.084 136.949 317.002 136.949C317.713 136.949 318.257 137.067 318.636 137.304C319.019 137.536 319.299 137.801 319.474 138.099C319.649 138.393 319.782 138.634 319.872 138.824H320.042L320.326 137.091H321.946L320.099 148.312C319.943 149.25 319.604 150.012 319.083 150.599C318.563 151.191 317.923 151.625 317.166 151.899C316.408 152.178 315.596 152.318 314.73 152.318ZM315.61 146.324C316.278 146.324 316.872 146.17 317.393 145.862C317.919 145.554 318.354 145.112 318.7 144.534C319.045 143.956 319.285 143.265 319.417 142.46C319.55 141.674 319.54 140.981 319.389 140.379C319.237 139.778 318.951 139.307 318.529 138.966C318.113 138.625 317.566 138.455 316.889 138.455C316.174 138.455 315.556 138.634 315.035 138.994C314.519 139.354 314.1 139.837 313.778 140.443C313.456 141.049 313.233 141.722 313.11 142.46C312.987 143.218 312.992 143.888 313.125 144.47C313.257 145.048 313.527 145.502 313.934 145.834C314.346 146.16 314.905 146.324 315.61 146.324Z" fill="#0FC1B7"/>
<path d="M326.377 148.256C325.686 148.256 325.08 148.125 324.559 147.865C324.038 147.6 323.652 147.219 323.402 146.722C323.151 146.22 323.082 145.614 323.196 144.903C323.304 144.278 323.515 143.772 323.828 143.383C324.14 142.991 324.519 142.683 324.964 142.46C325.414 142.233 325.897 142.065 326.413 141.956C326.934 141.842 327.452 141.755 327.968 141.693C328.641 141.608 329.188 141.542 329.609 141.494C330.03 141.447 330.348 141.369 330.561 141.26C330.774 141.151 330.904 140.964 330.951 140.699V140.642C331.065 139.946 330.973 139.404 330.674 139.016C330.376 138.623 329.843 138.426 329.076 138.426C328.281 138.426 327.616 138.601 327.081 138.952C326.545 139.302 326.15 139.676 325.894 140.074L324.417 139.506C324.805 138.843 325.269 138.327 325.809 137.957C326.349 137.583 326.915 137.323 327.507 137.176C328.099 137.025 328.669 136.949 329.218 136.949C329.569 136.949 329.964 136.991 330.404 137.077C330.845 137.157 331.257 137.325 331.64 137.581C332.028 137.837 332.32 138.223 332.514 138.739C332.713 139.255 332.741 139.946 332.599 140.812L331.406 148H329.73L329.985 146.523H329.9C329.749 146.759 329.517 147.013 329.204 147.283C328.896 147.553 328.506 147.782 328.032 147.972C327.563 148.161 327.012 148.256 326.377 148.256ZM326.86 146.75C327.523 146.75 328.103 146.62 328.6 146.359C329.102 146.099 329.505 145.763 329.808 145.351C330.116 144.939 330.307 144.506 330.383 144.051L330.639 142.517C330.554 142.602 330.385 142.68 330.134 142.751C329.884 142.818 329.599 142.877 329.282 142.929C328.97 142.976 328.664 143.019 328.366 143.057C328.072 143.09 327.836 143.118 327.656 143.142C327.211 143.199 326.787 143.291 326.384 143.419C325.987 143.542 325.651 143.729 325.376 143.98C325.106 144.226 324.938 144.562 324.872 144.989C324.772 145.571 324.912 146.011 325.291 146.31C325.67 146.603 326.193 146.75 326.86 146.75Z" fill="#0FC1B7"/>
<path d="M337.221 141.437L336.141 148H334.465L336.283 137.091H337.903L337.619 138.795H337.761C338.101 138.241 338.563 137.796 339.146 137.46C339.728 137.119 340.431 136.949 341.255 136.949C341.984 136.949 342.6 137.1 343.101 137.403C343.608 137.702 343.966 138.156 344.174 138.767C344.387 139.373 344.418 140.14 344.266 141.068L343.101 148H341.425L342.562 141.182C342.704 140.33 342.592 139.662 342.228 139.179C341.868 138.696 341.297 138.455 340.516 138.455C339.976 138.455 339.477 138.571 339.018 138.803C338.563 139.035 338.177 139.373 337.86 139.818C337.547 140.263 337.334 140.803 337.221 141.437Z" fill="#0FC1B7"/>
<path d="M346.164 148L347.983 137.091H349.659L347.84 148H346.164ZM349.332 135.244C349.005 135.244 348.724 135.133 348.487 134.91C348.255 134.688 348.139 134.42 348.139 134.108C348.139 133.795 348.255 133.528 348.487 133.305C348.724 133.083 349.005 132.972 349.332 132.972C349.659 132.972 349.938 133.083 350.17 133.305C350.407 133.528 350.525 133.795 350.525 134.108C350.525 134.42 350.407 134.688 350.17 134.91C349.938 135.133 349.659 135.244 349.332 135.244Z" fill="#0FC1B7"/>
<path d="M360.058 139.534L358.467 139.96C358.41 139.705 358.311 139.458 358.169 139.222C358.032 138.98 357.819 138.784 357.53 138.632C357.246 138.476 356.857 138.398 356.365 138.398C355.697 138.398 355.117 138.552 354.625 138.859C354.132 139.162 353.851 139.548 353.78 140.017C353.709 140.429 353.803 140.758 354.064 141.004C354.324 141.25 354.76 141.452 355.371 141.608L356.933 142.006C357.871 142.247 358.538 142.609 358.936 143.092C359.338 143.571 359.476 144.193 359.348 144.96C359.244 145.585 358.971 146.144 358.531 146.636C358.091 147.129 357.527 147.517 356.841 147.801C356.154 148.085 355.39 148.227 354.547 148.227C353.425 148.227 352.539 147.986 351.891 147.503C351.242 147.015 350.896 146.31 350.854 145.386L352.53 144.989C352.572 145.571 352.781 146.011 353.155 146.31C353.534 146.603 354.064 146.75 354.746 146.75C355.527 146.75 356.178 146.584 356.699 146.253C357.22 145.917 357.516 145.514 357.587 145.045C357.658 144.662 357.582 144.342 357.359 144.087C357.141 143.831 356.763 143.639 356.223 143.511L354.49 143.085C353.524 142.844 352.847 142.474 352.459 141.977C352.075 141.48 351.947 140.855 352.075 140.102C352.179 139.487 352.445 138.942 352.871 138.469C353.302 137.995 353.841 137.624 354.49 137.354C355.143 137.084 355.854 136.949 356.621 136.949C357.7 136.949 358.507 137.186 359.043 137.659C359.578 138.128 359.916 138.753 360.058 139.534Z" fill="#0FC1B7"/>
<path d="M364.541 148.256C363.85 148.256 363.244 148.125 362.723 147.865C362.202 147.6 361.817 147.219 361.566 146.722C361.315 146.22 361.246 145.614 361.36 144.903C361.469 144.278 361.679 143.772 361.992 143.383C362.304 142.991 362.683 142.683 363.128 142.46C363.578 142.233 364.061 142.065 364.577 141.956C365.098 141.842 365.616 141.755 366.132 141.693C366.805 141.608 367.352 141.542 367.773 141.494C368.194 141.447 368.512 141.369 368.725 141.26C368.938 141.151 369.068 140.964 369.115 140.699V140.642C369.229 139.946 369.137 139.404 368.838 139.016C368.54 138.623 368.007 138.426 367.24 138.426C366.445 138.426 365.78 138.601 365.245 138.952C364.71 139.302 364.314 139.676 364.059 140.074L362.581 139.506C362.969 138.843 363.434 138.327 363.973 137.957C364.513 137.583 365.079 137.323 365.671 137.176C366.263 137.025 366.833 136.949 367.382 136.949C367.733 136.949 368.128 136.991 368.568 137.077C369.009 137.157 369.421 137.325 369.804 137.581C370.193 137.837 370.484 138.223 370.678 138.739C370.877 139.255 370.905 139.946 370.763 140.812L369.57 148H367.894L368.149 146.523H368.064C367.913 146.759 367.681 147.013 367.368 147.283C367.06 147.553 366.67 147.782 366.196 147.972C365.728 148.161 365.176 148.256 364.541 148.256ZM365.024 146.75C365.687 146.75 366.267 146.62 366.764 146.359C367.266 146.099 367.669 145.763 367.972 145.351C368.28 144.939 368.471 144.506 368.547 144.051L368.803 142.517C368.718 142.602 368.55 142.68 368.299 142.751C368.048 142.818 367.764 142.877 367.446 142.929C367.134 142.976 366.828 143.019 366.53 143.057C366.237 143.09 366 143.118 365.82 143.142C365.375 143.199 364.951 143.291 364.549 143.419C364.151 143.542 363.815 143.729 363.54 143.98C363.27 144.226 363.102 144.562 363.036 144.989C362.936 145.571 363.076 146.011 363.455 146.31C363.834 146.603 364.357 146.75 365.024 146.75Z" fill="#0FC1B7"/>
<path d="M379.192 137.091L378.964 138.511H373.311L373.538 137.091H379.192ZM375.612 134.477H377.288L375.555 144.875C375.48 145.348 375.491 145.704 375.591 145.94C375.695 146.172 375.851 146.329 376.06 146.409C376.273 146.485 376.502 146.523 376.748 146.523C376.933 146.523 377.085 146.513 377.203 146.494C377.321 146.471 377.416 146.452 377.487 146.437L377.601 147.943C377.473 147.986 377.3 148.028 377.082 148.071C376.869 148.118 376.606 148.142 376.294 148.142C375.82 148.142 375.375 148.04 374.959 147.837C374.542 147.633 374.222 147.323 374 146.906C373.777 146.49 373.718 145.964 373.822 145.33L375.612 134.477Z" fill="#0FC1B7"/>
<path d="M379.895 148L381.713 137.091H383.389L381.571 148H379.895ZM383.062 135.244C382.736 135.244 382.454 135.133 382.217 134.91C381.985 134.688 381.869 134.42 381.869 134.108C381.869 133.795 381.985 133.528 382.217 133.305C382.454 133.083 382.736 132.972 383.062 132.972C383.389 132.972 383.668 133.083 383.9 133.305C384.137 133.528 384.256 133.795 384.256 134.108C384.256 134.42 384.137 134.688 383.9 134.91C383.668 135.133 383.389 135.244 383.062 135.244Z" fill="#0FC1B7"/>
<path d="M389.144 148.227C388.14 148.227 387.3 147.988 386.622 147.51C385.945 147.032 385.467 146.362 385.188 145.5C384.913 144.638 384.868 143.634 385.053 142.489C385.233 141.371 385.59 140.398 386.125 139.57C386.665 138.736 387.335 138.092 388.135 137.638C388.94 137.178 389.826 136.949 390.791 136.949C391.795 136.949 392.633 137.19 393.306 137.673C393.983 138.151 394.461 138.824 394.74 139.69C395.02 140.552 395.067 141.561 394.882 142.716C394.702 143.824 394.34 144.792 393.796 145.621C393.256 146.445 392.586 147.086 391.786 147.545C390.99 148 390.11 148.227 389.144 148.227ZM389.172 146.722C389.939 146.722 390.604 146.525 391.168 146.132C391.736 145.739 392.195 145.221 392.546 144.577C392.901 143.933 393.14 143.237 393.263 142.489C393.377 141.778 393.372 141.118 393.249 140.507C393.126 139.892 392.863 139.397 392.46 139.023C392.058 138.644 391.492 138.455 390.763 138.455C389.996 138.455 389.326 138.653 388.753 139.051C388.185 139.449 387.726 139.972 387.375 140.621C387.025 141.269 386.791 141.968 386.672 142.716C386.559 143.426 386.561 144.087 386.679 144.697C386.802 145.303 387.065 145.794 387.468 146.168C387.875 146.537 388.443 146.722 389.172 146.722Z" fill="#0FC1B7"/>
<path d="M399.33 141.437L398.251 148H396.574L398.393 137.091H400.012L399.728 138.795H399.87C400.211 138.241 400.672 137.796 401.255 137.46C401.837 137.119 402.54 136.949 403.364 136.949C404.093 136.949 404.709 137.1 405.211 137.403C405.717 137.702 406.075 138.156 406.283 138.767C406.496 139.373 406.527 140.14 406.376 141.068L405.211 148H403.535L404.671 141.182C404.813 140.33 404.702 139.662 404.337 139.179C403.977 138.696 403.407 138.455 402.626 138.455C402.086 138.455 401.586 138.571 401.127 138.803C400.672 139.035 400.287 139.373 399.969 139.818C399.657 140.263 399.444 140.803 399.33 141.437Z" fill="#0FC1B7"/>
<path d="M417.421 139.534L415.831 139.96C415.774 139.705 415.674 139.458 415.532 139.222C415.395 138.98 415.182 138.784 414.893 138.632C414.609 138.476 414.221 138.398 413.728 138.398C413.061 138.398 412.481 138.552 411.988 138.859C411.496 139.162 411.214 139.548 411.143 140.017C411.072 140.429 411.167 140.758 411.427 141.004C411.688 141.25 412.123 141.452 412.734 141.608L414.296 142.006C415.234 142.247 415.902 142.609 416.299 143.092C416.702 143.571 416.839 144.193 416.711 144.96C416.607 145.585 416.335 146.144 415.894 146.636C415.454 147.129 414.891 147.517 414.204 147.801C413.518 148.085 412.753 148.227 411.91 148.227C410.788 148.227 409.902 147.986 409.254 147.503C408.605 147.015 408.26 146.31 408.217 145.386L409.893 144.989C409.936 145.571 410.144 146.011 410.518 146.31C410.897 146.603 411.427 146.75 412.109 146.75C412.89 146.75 413.541 146.584 414.062 146.253C414.583 145.917 414.879 145.514 414.95 145.045C415.021 144.662 414.945 144.342 414.723 144.087C414.505 143.831 414.126 143.639 413.586 143.511L411.853 143.085C410.887 142.844 410.21 142.474 409.822 141.977C409.438 141.48 409.311 140.855 409.438 140.102C409.543 139.487 409.808 138.942 410.234 138.469C410.665 137.995 411.205 137.624 411.853 137.354C412.507 137.084 413.217 136.949 413.984 136.949C415.063 136.949 415.871 137.186 416.406 137.659C416.941 138.128 417.279 138.753 417.421 139.534Z" fill="#0FC1B7"/>
<path d="M427.53 148.256C426.838 148.256 426.232 148.125 425.712 147.865C425.191 147.6 424.805 147.219 424.554 146.722C424.303 146.22 424.234 145.614 424.348 144.903C424.457 144.278 424.668 143.772 424.98 143.383C425.293 142.991 425.671 142.683 426.116 142.46C426.566 142.233 427.049 142.065 427.565 141.956C428.086 141.842 428.605 141.755 429.121 141.693C429.793 141.608 430.34 141.542 430.761 141.494C431.183 141.447 431.5 141.369 431.713 141.26C431.926 141.151 432.056 140.964 432.104 140.699V140.642C432.217 139.946 432.125 139.404 431.827 139.016C431.528 138.623 430.996 138.426 430.229 138.426C429.433 138.426 428.768 138.601 428.233 138.952C427.698 139.302 427.302 139.676 427.047 140.074L425.57 139.506C425.958 138.843 426.422 138.327 426.962 137.957C427.501 137.583 428.067 137.323 428.659 137.176C429.251 137.025 429.821 136.949 430.371 136.949C430.721 136.949 431.116 136.991 431.557 137.077C431.997 137.157 432.409 137.325 432.793 137.581C433.181 137.837 433.472 138.223 433.666 138.739C433.865 139.255 433.893 139.946 433.751 140.812L432.558 148H430.882L431.138 146.523H431.052C430.901 146.759 430.669 147.013 430.356 147.283C430.049 147.553 429.658 147.782 429.185 147.972C428.716 148.161 428.164 148.256 427.53 148.256ZM428.013 146.75C428.676 146.75 429.256 146.62 429.753 146.359C430.255 146.099 430.657 145.763 430.96 145.351C431.268 144.939 431.46 144.506 431.535 144.051L431.791 142.517C431.706 142.602 431.538 142.68 431.287 142.751C431.036 142.818 430.752 142.877 430.435 142.929C430.122 142.976 429.817 143.019 429.518 143.057C429.225 143.09 428.988 143.118 428.808 143.142C428.363 143.199 427.939 143.291 427.537 143.419C427.139 143.542 426.803 143.729 426.528 143.98C426.258 144.226 426.09 144.562 426.024 144.989C425.925 145.571 426.064 146.011 426.443 146.31C426.822 146.603 427.345 146.75 428.013 146.75Z" fill="#0FC1B7"/>
<path d="M438.373 141.437L437.294 148H435.617L437.436 137.091H439.055L438.771 138.795H438.913C439.254 138.241 439.715 137.796 440.298 137.46C440.88 137.119 441.583 136.949 442.407 136.949C443.136 136.949 443.752 137.1 444.254 137.403C444.76 137.702 445.118 138.156 445.326 138.767C445.539 139.373 445.57 140.14 445.419 141.068L444.254 148H442.578L443.714 141.182C443.856 140.33 443.745 139.662 443.38 139.179C443.02 138.696 442.45 138.455 441.669 138.455C441.129 138.455 440.629 138.571 440.17 138.803C439.715 139.035 439.33 139.373 439.012 139.818C438.7 140.263 438.487 140.803 438.373 141.437Z" fill="#0FC1B7"/>
<path d="M451.422 148.227C450.508 148.227 449.741 147.998 449.121 147.538C448.5 147.074 448.062 146.421 447.807 145.578C447.556 144.731 447.525 143.729 447.714 142.574C447.909 141.428 448.271 140.434 448.801 139.591C449.336 138.748 449.992 138.097 450.768 137.638C451.545 137.178 452.392 136.949 453.311 136.949C454.021 136.949 454.563 137.067 454.937 137.304C455.316 137.536 455.591 137.801 455.761 138.099C455.932 138.393 456.062 138.634 456.152 138.824H456.294L457.189 133.455H458.865L456.45 148H454.831L455.115 146.324H454.916C454.76 146.523 454.542 146.774 454.263 147.077C453.983 147.375 453.614 147.642 453.155 147.879C452.7 148.111 452.123 148.227 451.422 148.227ZM451.834 146.722C452.506 146.722 453.107 146.546 453.638 146.196C454.173 145.841 454.618 145.351 454.973 144.726C455.328 144.096 455.574 143.369 455.712 142.545C455.849 141.731 455.844 141.018 455.697 140.408C455.551 139.792 455.269 139.314 454.852 138.973C454.436 138.627 453.884 138.455 453.197 138.455C452.492 138.455 451.879 138.637 451.358 139.001C450.837 139.361 450.413 139.851 450.087 140.472C449.76 141.087 449.533 141.778 449.405 142.545C449.277 143.322 449.275 144.027 449.398 144.662C449.521 145.292 449.781 145.794 450.179 146.168C450.581 146.537 451.133 146.722 451.834 146.722Z" fill="#0FC1B7"/>
<path d="M466.954 135.017L467.21 133.455H478.119L477.864 135.017H473.29L471.131 148H469.369L471.528 135.017H466.954Z" fill="#0FC1B7"/>
<path d="M480.951 141.437L479.872 148H478.196L480.61 133.455H482.286L481.406 138.795H481.548C481.889 138.227 482.343 137.777 482.911 137.446C483.484 137.115 484.204 136.949 485.071 136.949C485.809 136.949 486.432 137.098 486.938 137.396C487.45 137.69 487.81 138.142 488.018 138.753C488.231 139.359 488.262 140.131 488.11 141.068L486.946 148H485.269L486.406 141.182C486.548 140.315 486.432 139.645 486.058 139.172C485.688 138.694 485.113 138.455 484.332 138.455C483.783 138.455 483.271 138.571 482.798 138.803C482.329 139.035 481.931 139.373 481.605 139.818C481.283 140.263 481.065 140.803 480.951 141.437Z" fill="#0FC1B7"/>
<path d="M490.012 148L491.83 137.091H493.506L491.688 148H490.012ZM493.18 135.244C492.853 135.244 492.571 135.133 492.334 134.91C492.102 134.688 491.986 134.42 491.986 134.108C491.986 133.795 492.102 133.528 492.334 133.305C492.571 133.083 492.853 132.972 493.18 132.972C493.506 132.972 493.786 133.083 494.018 133.305C494.254 133.528 494.373 133.795 494.373 134.108C494.373 134.42 494.254 134.688 494.018 134.91C493.786 135.133 493.506 135.244 493.18 135.244Z" fill="#0FC1B7"/>
<path d="M497.514 141.437L496.434 148H494.758L496.576 137.091H498.196L497.911 138.795H498.054C498.394 138.241 498.856 137.796 499.438 137.46C500.021 137.119 500.724 136.949 501.548 136.949C502.277 136.949 502.893 137.1 503.394 137.403C503.901 137.702 504.259 138.156 504.467 138.767C504.68 139.373 504.711 140.14 504.559 141.068L503.394 148H501.718L502.855 141.182C502.997 140.33 502.885 139.662 502.521 139.179C502.161 138.696 501.59 138.455 500.809 138.455C500.269 138.455 499.77 138.571 499.311 138.803C498.856 139.035 498.47 139.373 498.153 139.818C497.84 140.263 497.627 140.803 497.514 141.437Z" fill="#0FC1B7"/>
<path d="M510.179 152.318C509.364 152.318 508.683 152.214 508.133 152.006C507.584 151.802 507.144 151.532 506.812 151.196C506.481 150.865 506.23 150.509 506.06 150.131L507.565 149.193C507.679 149.392 507.826 149.619 508.006 149.875C508.186 150.135 508.458 150.36 508.822 150.55C509.192 150.744 509.71 150.841 510.378 150.841C511.254 150.841 512.021 150.628 512.679 150.202C513.337 149.776 513.744 149.108 513.9 148.199L514.241 145.983H514.099C513.948 146.182 513.737 146.428 513.467 146.722C513.197 147.01 512.835 147.268 512.381 147.496C511.926 147.718 511.344 147.83 510.633 147.83C509.748 147.83 508.99 147.621 508.361 147.205C507.731 146.788 507.279 146.182 507.004 145.386C506.734 144.591 506.694 143.625 506.883 142.489C507.068 141.371 507.423 140.398 507.949 139.57C508.479 138.736 509.132 138.092 509.909 137.638C510.686 137.178 511.533 136.949 512.452 136.949C513.162 136.949 513.706 137.067 514.085 137.304C514.469 137.536 514.748 137.801 514.923 138.099C515.098 138.393 515.231 138.634 515.321 138.824H515.491L515.775 137.091H517.395L515.548 148.312C515.392 149.25 515.053 150.012 514.533 150.599C514.012 151.191 513.373 151.625 512.615 151.899C511.857 152.178 511.045 152.318 510.179 152.318ZM511.06 146.324C511.727 146.324 512.321 146.17 512.842 145.862C513.368 145.554 513.803 145.112 514.149 144.534C514.495 143.956 514.734 143.265 514.866 142.46C514.999 141.674 514.989 140.981 514.838 140.379C514.686 139.778 514.4 139.307 513.979 138.966C513.562 138.625 513.015 138.455 512.338 138.455C511.623 138.455 511.005 138.634 510.484 138.994C509.968 139.354 509.549 139.837 509.227 140.443C508.905 141.049 508.683 141.722 508.56 142.46C508.436 143.218 508.441 143.888 508.574 144.47C508.706 145.048 508.976 145.502 509.383 145.834C509.795 146.16 510.354 146.324 511.06 146.324Z" fill="#0FC1B7"/>
<path d="M527.793 139.534L526.202 139.96C526.145 139.705 526.045 139.458 525.903 139.222C525.766 138.98 525.553 138.784 525.264 138.632C524.98 138.476 524.592 138.398 524.099 138.398C523.432 138.398 522.852 138.552 522.359 138.859C521.867 139.162 521.585 139.548 521.514 140.017C521.443 140.429 521.538 140.758 521.798 141.004C522.059 141.25 522.494 141.452 523.105 141.608L524.668 142.006C525.605 142.247 526.273 142.609 526.67 143.092C527.073 143.571 527.21 144.193 527.082 144.96C526.978 145.585 526.706 146.144 526.266 146.636C525.825 147.129 525.262 147.517 524.575 147.801C523.889 148.085 523.124 148.227 522.281 148.227C521.159 148.227 520.274 147.986 519.625 147.503C518.976 147.015 518.631 146.31 518.588 145.386L520.264 144.989C520.307 145.571 520.515 146.011 520.889 146.31C521.268 146.603 521.798 146.75 522.48 146.75C523.261 146.75 523.912 146.584 524.433 146.253C524.954 145.917 525.25 145.514 525.321 145.045C525.392 144.662 525.316 144.342 525.094 144.087C524.876 143.831 524.497 143.639 523.957 143.511L522.224 143.085C521.258 142.844 520.581 142.474 520.193 141.977C519.81 141.48 519.682 140.855 519.81 140.102C519.914 139.487 520.179 138.942 520.605 138.469C521.036 137.995 521.576 137.624 522.224 137.354C522.878 137.084 523.588 136.949 524.355 136.949C525.435 136.949 526.242 137.186 526.777 137.659C527.312 138.128 527.65 138.753 527.793 139.534Z" fill="#0FC1B7"/>
<path fill-rule="evenodd" clip-rule="evenodd" d="M110.024 46.3481C90.8558 57.4147 79.0479 77.8667 79.0479 100C79.0479 122.133 90.8558 142.585 110.024 153.652C129.192 164.719 152.808 164.719 171.976 153.652C191.144 142.585 202.952 122.133 202.952 100C202.952 77.8667 191.144 57.4147 171.976 46.3481C152.808 35.2814 129.192 35.2814 110.024 46.3481ZM173.476 43.75C153.38 32.1475 128.62 32.1475 108.524 43.75C88.4276 55.3525 76.0479 76.7949 76.0479 100C76.0479 123.205 88.4276 144.647 108.524 156.25C128.62 167.853 153.38 167.853 173.476 156.25C193.572 144.647 205.952 123.205 205.952 100C205.952 76.7949 193.572 55.3525 173.476 43.75Z" fill="#D7E1F4"/>
<path fill-rule="evenodd" clip-rule="evenodd" d="M115.562 73.8926C115.562 72.6057 116.604 71.5625 117.888 71.5625H144.049C149.901 71.5625 155.348 73.3336 159.876 76.3705C160.943 77.0864 161.229 78.5336 160.515 79.603C159.801 80.6725 158.356 80.9591 157.289 80.2432C153.503 77.7037 148.952 76.2227 144.049 76.2227H117.888C116.604 76.2227 115.562 75.1795 115.562 73.8926ZM163.335 82.2435C164.351 81.4564 165.812 81.6436 166.597 82.6617C170.319 87.4854 172.535 93.54 172.535 100.107C172.535 111.443 165.939 121.231 156.394 125.837C155.237 126.396 153.847 125.908 153.29 124.749C152.733 123.59 153.219 122.197 154.376 121.639C162.373 117.78 167.884 109.586 167.884 100.107C167.884 94.6075 166.032 89.5484 162.918 85.5121C162.133 84.494 162.319 83.0306 163.335 82.2435ZM115.562 126.32C115.562 125.033 116.604 123.99 117.888 123.99H147.537C148.821 123.99 149.862 125.033 149.862 126.32C149.862 127.607 148.821 128.651 147.537 128.651H117.888C116.604 128.651 115.562 127.607 115.562 126.32Z" fill="#D7E1F4"/>
<path fill-rule="evenodd" clip-rule="evenodd" d="M120.211 84.3775C120.211 83.0906 121.252 82.0474 122.536 82.0474H144.046C150.152 82.0474 155.547 85.0916 158.803 89.7374C159.541 90.7905 159.288 92.2438 158.237 92.9834C157.186 93.723 155.735 93.4689 154.997 92.4158C152.575 88.9591 148.573 86.7076 144.046 86.7076H122.536C121.252 86.7076 120.211 85.6644 120.211 84.3775ZM159.743 97.7757C161.027 97.7757 162.068 98.8189 162.068 100.106C162.068 110.079 154 118.164 144.046 118.164H122.536C121.252 118.164 120.211 117.121 120.211 115.834C120.211 114.547 121.252 113.504 122.536 113.504H144.046C151.431 113.504 157.417 107.505 157.417 100.106C157.417 98.8189 158.459 97.7757 159.743 97.7757Z" fill="#D7E1F4"/>
<path fill-rule="evenodd" clip-rule="evenodd" d="M123.701 94.2808C123.701 92.9939 124.742 91.9507 126.027 91.9507H142.886C147.381 91.9507 151.025 95.602 151.025 100.106C151.025 104.61 147.381 108.262 142.886 108.262C141.601 108.262 140.56 107.218 140.56 105.931C140.56 104.645 141.601 103.601 142.886 103.601C144.812 103.601 146.374 102.036 146.374 100.106C146.374 98.1758 144.812 96.6109 142.886 96.6109H126.027C124.742 96.6109 123.701 95.5677 123.701 94.2808ZM123.701 105.931C123.701 104.645 124.742 103.601 126.027 103.601H134.165C135.45 103.601 136.491 104.645 136.491 105.931C136.491 107.218 135.45 108.262 134.165 108.262H126.027C124.742 108.262 123.701 107.218 123.701 105.931Z" fill="#D7E1F4"/>
<path fill-rule="evenodd" clip-rule="evenodd" d="M809.429 24.0337C809.95 24.0113 810.474 24 811 24C811.526 24 812.05 24.0113 812.571 24.0337C813.123 24.0574 813.551 24.5239 813.527 25.0757C813.504 25.6275 813.037 26.0555 812.485 26.0318C811.993 26.0107 811.498 26 811 26C810.502 26 810.007 26.0107 809.515 26.0318C808.963 26.0555 808.496 25.6275 808.473 25.0757C808.449 24.5239 808.877 24.0574 809.429 24.0337ZM807.42 25.1665C807.492 25.7141 807.106 26.216 806.558 26.2874C803.56 26.6785 800.685 27.4601 797.985 28.5795C797.475 28.7911 796.89 28.549 796.679 28.0389C796.467 27.5287 796.709 26.9436 797.219 26.7321C800.079 25.5463 803.124 24.7184 806.299 24.3042C806.847 24.2328 807.349 24.6188 807.42 25.1665ZM823.474 27.2728C823.685 26.7626 824.27 26.5205 824.781 26.7321C827.708 27.946 830.44 29.5347 832.917 31.4381C833.355 31.7746 833.437 32.4024 833.1 32.8403C832.764 33.2783 832.136 33.3605 831.698 33.0239C829.358 31.2258 826.778 29.7256 824.015 28.5795C823.504 28.368 823.262 27.7829 823.474 27.2728ZM788.091 33.5192C788.465 33.9263 788.437 34.5589 788.03 34.9321C787.301 35.6008 786.601 36.3008 785.932 37.0301C785.559 37.4372 784.926 37.4647 784.519 37.0914C784.112 36.7182 784.085 36.0856 784.458 35.6786C785.166 34.9066 785.907 34.1656 786.679 33.4579C787.086 33.0847 787.718 33.1121 788.091 33.5192ZM833.909 33.5192C834.282 33.1121 834.914 33.0847 835.321 33.4579C836.093 34.1656 836.834 34.9066 837.542 35.6786C837.915 36.0856 837.888 36.7182 837.481 37.0914C837.074 37.4647 836.441 37.4372 836.068 37.0301C835.399 36.3008 834.699 35.6008 833.97 34.9321C833.563 34.5589 833.535 33.9263 833.909 33.5192ZM783.84 37.8996C784.278 38.2362 784.36 38.864 784.024 39.3019C782.226 41.6418 780.726 44.2219 779.58 46.9855C779.368 47.4956 778.783 47.7377 778.273 47.5262C777.763 47.3146 777.521 46.7295 777.732 46.2194C778.946 43.2921 780.535 40.5601 782.438 38.0832C782.775 37.6453 783.402 37.5631 783.84 37.8996ZM842.961 45.6787C843.471 45.4671 844.056 45.7092 844.268 46.2194C845.454 49.0789 846.282 52.1243 846.696 55.2993C846.767 55.847 846.381 56.3488 845.834 56.4203C845.286 56.4917 844.784 56.1057 844.713 55.558C844.321 52.5598 843.54 49.6849 842.42 46.9855C842.209 46.4753 842.451 45.8903 842.961 45.6787ZM776.076 57.4727C776.627 57.4964 777.056 57.9629 777.032 58.5147C777.011 59.0071 777 59.5023 777 60C777 60.4977 777.011 60.9929 777.032 61.4853C777.056 62.0371 776.627 62.5036 776.076 62.5273C775.524 62.551 775.057 62.1229 775.034 61.5711C775.011 61.0502 775 60.5264 775 60C775 59.4736 775.011 58.9498 775.034 58.4289C775.057 57.8771 775.524 57.449 776.076 57.4727ZM845.924 57.4727C846.476 57.449 846.943 57.8771 846.966 58.4289C846.989 58.9498 847 59.4736 847 60C847 60.5264 846.989 61.0502 846.966 61.5711C846.943 62.1229 846.476 62.551 845.924 62.5273C845.373 62.5036 844.944 62.0371 844.968 61.4853C844.989 60.9929 845 60.4977 845 60C845 59.5023 844.989 59.0071 844.968 58.5147C844.944 57.9629 845.373 57.4964 845.924 57.4727ZM776.166 63.5797C776.714 63.5083 777.216 63.8943 777.287 64.442C777.679 67.4402 778.46 70.3151 779.58 73.0145C779.791 73.5247 779.549 74.1097 779.039 74.3213C778.529 74.5329 777.944 74.2908 777.732 73.7806C776.546 70.9211 775.718 67.8757 775.304 64.7007C775.233 64.153 775.619 63.6512 776.166 63.5797ZM843.727 72.4739C844.237 72.6854 844.479 73.2705 844.268 73.7806C843.054 76.7079 841.465 79.4399 839.562 81.9168C839.225 82.3547 838.598 82.4369 838.16 82.1004C837.722 81.7638 837.64 81.136 837.976 80.6981C839.774 78.3582 841.274 75.7781 842.42 73.0145C842.632 72.5044 843.217 72.2623 843.727 72.4739ZM784.519 82.9086C784.926 82.5353 785.559 82.5628 785.932 82.9699C786.601 83.6992 787.301 84.3992 788.03 85.0679C788.437 85.4411 788.465 86.0737 788.091 86.4808C787.718 86.8879 787.086 86.9153 786.679 86.5421C785.907 85.8344 785.166 85.0934 784.458 84.3214C784.085 83.9144 784.112 83.2818 784.519 82.9086ZM837.481 82.9086C837.888 83.2818 837.915 83.9144 837.542 84.3214C836.834 85.0934 836.093 85.8344 835.321 86.5421C834.914 86.9153 834.282 86.8879 833.909 86.4808C833.535 86.0737 833.563 85.4411 833.97 85.0679C834.699 84.3992 835.399 83.6992 836.068 82.9699C836.441 82.5628 837.074 82.5353 837.481 82.9086ZM788.9 87.1597C789.236 86.7217 789.864 86.6395 790.302 86.9761C792.642 88.7742 795.222 90.2744 797.985 91.4205C798.496 91.632 798.738 92.2171 798.526 92.7272C798.315 93.2374 797.73 93.4795 797.219 93.2679C794.292 92.054 791.56 90.4653 789.083 88.5619C788.645 88.2254 788.563 87.5976 788.9 87.1597ZM825.321 91.9611C825.533 92.4713 825.291 93.0564 824.781 93.2679C821.921 94.4537 818.876 95.2816 815.701 95.6958C815.153 95.7672 814.651 95.3812 814.58 94.8335C814.508 94.2859 814.894 93.784 815.442 93.7126C818.44 93.3215 821.315 92.5399 824.015 91.4205C824.525 91.2089 825.11 91.451 825.321 91.9611ZM808.473 94.9243C808.496 94.3725 808.963 93.9445 809.515 93.9682C810.007 93.9893 810.502 94 811 94C811.498 94 811.993 93.9893 812.485 93.9682C813.037 93.9445 813.504 94.3725 813.527 94.9243C813.551 95.4761 813.123 95.9426 812.571 95.9663C812.05 95.9887 811.526 96 811 96C810.474 96 809.95 95.9887 809.429 95.9663C808.877 95.9426 808.449 95.4761 808.473 94.9243Z" fill="#D7E1F4"/>
<path fill-rule="evenodd" clip-rule="evenodd" d="M794.954 121.476C795.215 121.606 795.473 121.743 795.73 121.886C795.987 122.029 796.239 122.177 796.487 122.33C796.957 122.621 797.102 123.237 796.812 123.707C796.521 124.176 795.905 124.322 795.435 124.031C795.213 123.894 794.987 123.761 794.757 123.633C794.527 123.505 794.295 123.382 794.061 123.266C793.567 123.019 793.366 122.419 793.613 121.925C793.859 121.431 794.46 121.23 794.954 121.476ZM800.25 126.837C800.691 126.504 801.318 126.592 801.651 127.033C804.497 130.806 805.841 135.532 805.408 140.238C805.357 140.788 804.87 141.193 804.32 141.142C803.77 141.091 803.365 140.604 803.416 140.054C803.804 135.844 802.6 131.613 800.054 128.237C799.722 127.796 799.81 127.169 800.25 126.837ZM789.142 120.648C789.091 121.198 788.604 121.603 788.054 121.552C783.844 121.165 779.613 122.368 776.237 124.914C775.796 125.247 775.169 125.159 774.836 124.718C774.504 124.277 774.592 123.65 775.033 123.318C778.806 120.472 783.532 119.127 788.238 119.561C788.788 119.612 789.192 120.099 789.142 120.648ZM771.706 128.157C772.176 128.447 772.322 129.063 772.031 129.533C771.894 129.755 771.761 129.981 771.633 130.212C771.505 130.442 771.382 130.674 771.266 130.907C771.019 131.401 770.419 131.602 769.925 131.356C769.43 131.109 769.23 130.509 769.476 130.014C769.606 129.754 769.743 129.495 769.886 129.238C770.029 128.981 770.177 128.729 770.33 128.481C770.62 128.012 771.237 127.866 771.706 128.157ZM803.044 145.613C803.538 145.86 803.739 146.46 803.492 146.954C803.362 147.215 803.226 147.474 803.083 147.731C802.94 147.987 802.791 148.24 802.638 148.487C802.348 148.957 801.732 149.102 801.262 148.812C800.792 148.522 800.647 147.905 800.937 147.436C801.074 147.214 801.207 146.988 801.335 146.757C801.464 146.527 801.586 146.295 801.703 146.061C801.949 145.567 802.55 145.367 803.044 145.613ZM798.132 152.251C798.465 152.692 798.377 153.319 797.936 153.651C794.163 156.497 789.437 157.841 784.731 157.408C784.181 157.357 783.776 156.87 783.827 156.32C783.877 155.77 784.364 155.366 784.914 155.416C789.124 155.804 793.356 154.6 796.731 152.054C797.172 151.722 797.799 151.81 798.132 152.251ZM768.648 135.827C769.198 135.877 769.603 136.364 769.552 136.914C769.164 141.125 770.368 145.356 772.914 148.732C773.247 149.173 773.159 149.8 772.718 150.132C772.277 150.465 771.65 150.377 771.317 149.936C768.472 146.163 767.127 141.437 767.561 136.731C767.611 136.181 768.098 135.776 768.648 135.827ZM776.156 153.262C776.447 152.792 777.063 152.647 777.533 152.937C777.755 153.074 777.981 153.207 778.211 153.336C778.442 153.464 778.674 153.586 778.907 153.703C779.401 153.949 779.602 154.55 779.355 155.044C779.109 155.538 778.508 155.739 778.014 155.492C777.754 155.362 777.495 155.226 777.238 155.083C776.981 154.94 776.729 154.792 776.481 154.638C776.011 154.348 775.866 153.732 776.156 153.262Z" fill="#D7E1F4"/>
<path fill-rule="evenodd" clip-rule="evenodd" d="M784.954 129.108C785.098 129.085 785.243 129.065 785.389 129.048C785.535 129.031 785.681 129.017 785.826 129.007C786.101 128.988 786.34 129.195 786.36 129.471C786.379 129.746 786.171 129.985 785.896 130.005C785.766 130.014 785.635 130.026 785.504 130.041C785.373 130.056 785.243 130.074 785.115 130.095C784.842 130.139 784.585 129.954 784.541 129.682C784.497 129.409 784.682 129.152 784.954 129.108ZM788.669 129.737C788.751 129.473 789.031 129.326 789.295 129.408C791.552 130.108 793.477 131.634 794.675 133.671C794.815 133.909 794.736 134.215 794.498 134.355C794.26 134.495 793.954 134.416 793.814 134.178C792.742 132.356 791.018 130.99 788.998 130.363C788.735 130.281 788.587 130.001 788.669 129.737ZM782.353 130.469C782.493 130.707 782.414 131.014 782.176 131.154C780.354 132.226 778.988 133.95 778.361 135.969C778.279 136.232 777.999 136.38 777.735 136.298C777.472 136.216 777.324 135.936 777.406 135.672C778.107 133.416 779.632 131.49 781.669 130.292C781.907 130.152 782.213 130.231 782.353 130.469ZM777.469 138.608C777.745 138.588 777.984 138.796 778.003 139.071C778.012 139.202 778.024 139.332 778.039 139.463C778.054 139.594 778.073 139.724 778.093 139.853C778.138 140.125 777.953 140.382 777.68 140.426C777.407 140.47 777.151 140.285 777.106 140.013C777.083 139.869 777.063 139.724 777.046 139.578C777.029 139.432 777.015 139.287 777.005 139.141C776.986 138.866 777.194 138.627 777.469 138.608ZM795.286 136.543C795.558 136.498 795.815 136.683 795.859 136.956C795.882 137.1 795.903 137.245 795.92 137.391C795.936 137.537 795.95 137.682 795.96 137.828C795.979 138.103 795.772 138.342 795.496 138.361C795.221 138.381 794.982 138.173 794.963 137.897C794.953 137.767 794.941 137.637 794.926 137.506C794.911 137.375 794.893 137.245 794.872 137.116C794.828 136.844 795.013 136.587 795.286 136.543ZM795.23 140.671C795.494 140.753 795.641 141.033 795.559 141.297C794.859 143.553 793.333 145.479 791.296 146.677C791.058 146.817 790.752 146.738 790.612 146.5C790.472 146.262 790.551 145.955 790.789 145.815C792.612 144.743 793.978 143.019 794.604 141C794.686 140.736 794.966 140.589 795.23 140.671ZM778.467 142.614C778.705 142.474 779.012 142.553 779.152 142.791C780.224 144.613 781.948 145.979 783.967 146.606C784.231 146.688 784.378 146.968 784.296 147.232C784.214 147.495 783.934 147.643 783.671 147.561C781.414 146.861 779.488 145.335 778.29 143.298C778.15 143.06 778.229 142.754 778.467 142.614ZM786.606 147.498C786.587 147.223 786.794 146.984 787.07 146.964C787.2 146.955 787.33 146.943 787.461 146.928C787.592 146.913 787.722 146.895 787.851 146.874C788.124 146.83 788.38 147.015 788.425 147.287C788.469 147.56 788.284 147.817 788.011 147.861C787.867 147.884 787.722 147.904 787.576 147.921C787.43 147.938 787.285 147.952 787.14 147.962C786.864 147.981 786.625 147.773 786.606 147.498Z" fill="#D7E1F4"/>
<path fill-rule="evenodd" clip-rule="evenodd" d="M845.27 167.133C846.001 167.045 846.746 167 847.5 167C848.254 167 848.999 167.045 849.73 167.133C850.278 167.199 850.67 167.697 850.604 168.245C850.538 168.794 850.04 169.185 849.491 169.119C848.839 169.04 848.174 169 847.5 169C846.826 169 846.161 169.04 845.509 169.119C844.96 169.185 844.462 168.794 844.396 168.245C844.33 167.697 844.722 167.199 845.27 167.133ZM855.228 169.762C855.5 169.282 856.11 169.112 856.59 169.384C857.404 169.844 858.179 170.363 858.91 170.937C859.345 171.278 859.421 171.906 859.08 172.341C858.739 172.775 858.11 172.851 857.676 172.51C857.023 171.999 856.332 171.535 855.606 171.125C855.126 170.853 854.956 170.243 855.228 169.762ZM834.341 173.92C834.775 174.261 834.851 174.89 834.51 175.324C833.999 175.977 833.535 176.668 833.125 177.394C832.853 177.874 832.243 178.044 831.762 177.772C831.282 177.5 831.112 176.89 831.384 176.41C831.844 175.596 832.363 174.821 832.937 174.09C833.278 173.655 833.906 173.579 834.341 173.92ZM830.245 182.396C830.794 182.462 831.185 182.96 831.119 183.509C831.04 184.161 831 184.826 831 185.5C831 186.174 831.04 186.839 831.119 187.491C831.185 188.04 830.794 188.538 830.245 188.604C829.697 188.67 829.199 188.278 829.133 187.73C829.045 186.999 829 186.254 829 185.5C829 184.746 829.045 184.001 829.133 183.27C829.199 182.722 829.697 182.33 830.245 182.396ZM864.755 182.396C865.303 182.33 865.801 182.722 865.867 183.27C865.955 184.001 866 184.746 866 185.5C866 186.254 865.955 186.999 865.867 187.73C865.801 188.278 865.303 188.67 864.755 188.604C864.206 188.538 863.815 188.04 863.881 187.491C863.96 186.839 864 186.174 864 185.5C864 184.826 863.96 184.161 863.881 183.509C863.815 182.96 864.206 182.462 864.755 182.396ZM863.238 193.228C863.718 193.5 863.888 194.11 863.616 194.59C863.156 195.404 862.637 196.179 862.063 196.91C861.722 197.345 861.094 197.421 860.659 197.08C860.225 196.739 860.149 196.11 860.49 195.676C861.001 195.023 861.465 194.332 861.875 193.606C862.147 193.126 862.757 192.956 863.238 193.228ZM835.92 198.659C836.261 198.225 836.89 198.149 837.324 198.49C837.977 199.001 838.668 199.465 839.394 199.875C839.874 200.147 840.044 200.757 839.772 201.238C839.5 201.718 838.89 201.888 838.41 201.616C837.596 201.156 836.821 200.637 836.09 200.063C835.655 199.722 835.579 199.094 835.92 198.659ZM844.396 202.755C844.462 202.206 844.96 201.815 845.509 201.881C846.161 201.96 846.826 202 847.5 202C848.174 202 848.839 201.96 849.491 201.881C850.04 201.815 850.538 202.206 850.604 202.755C850.67 203.303 850.278 203.801 849.73 203.867C848.999 203.955 848.254 204 847.5 204C846.746 204 846.001 203.955 845.27 203.867C844.722 203.801 844.33 203.303 844.396 202.755Z" fill="#D7E1F4"/>
<path fill-rule="evenodd" clip-rule="evenodd" d="M762.174 13.6688C762.431 13.9195 762.68 14.1814 762.921 14.4545C763.163 14.7275 763.392 15.0072 763.609 15.293C763.943 15.7327 763.858 16.36 763.418 16.6942C762.978 17.0284 762.351 16.9428 762.017 16.5031C761.829 16.2565 761.631 16.0149 761.423 15.7788C761.214 15.5426 760.999 15.3164 760.777 15.1001C760.382 14.7143 760.374 14.0812 760.76 13.686C761.146 13.2907 761.779 13.2831 762.174 13.6688ZM758.215 11.9969C758.001 12.5061 757.415 12.7455 756.906 12.5316C755.167 11.8015 753.29 11.4779 751.424 11.571C750.872 11.5985 750.403 11.1737 750.375 10.6221C750.348 10.0705 750.773 9.601 751.324 9.57349C753.486 9.46563 755.663 9.84032 757.68 10.6876C758.19 10.9015 758.429 11.4877 758.215 11.9969ZM765.489 22.3755C766.041 22.348 766.51 22.7728 766.537 23.3244C766.645 25.4865 766.271 27.6629 765.423 29.6804C765.209 30.1896 764.623 30.429 764.114 30.2152C763.605 30.0013 763.366 29.4152 763.579 28.906C764.309 27.1675 764.633 25.29 764.54 23.4241C764.512 22.8725 764.937 22.403 765.489 22.3755ZM744.694 12.6931C745.028 13.1328 744.943 13.7601 744.503 14.0943C744.256 14.2817 744.015 14.4797 743.779 14.6883C743.543 14.897 743.316 15.1124 743.1 15.334C742.714 15.7293 742.081 15.7369 741.686 15.3511C741.291 14.9654 741.283 14.3323 741.669 13.937C741.919 13.6802 742.181 13.4308 742.454 13.1896C742.727 12.9483 743.007 12.7191 743.293 12.502C743.733 12.1678 744.36 12.2534 744.694 12.6931ZM762.425 32.76C762.82 33.1457 762.828 33.7788 762.442 34.1741C762.191 34.4309 761.93 34.6803 761.657 34.9215C761.383 35.1628 761.104 35.392 760.818 35.6091C760.378 35.9433 759.751 35.8577 759.417 35.418C759.083 34.9783 759.168 34.351 759.608 34.0168C759.854 33.8294 760.096 33.6314 760.332 33.4228C760.568 33.2141 760.795 32.9987 761.011 32.7771C761.397 32.3818 762.03 32.3742 762.425 32.76ZM739.997 17.8959C740.506 18.1098 740.745 18.6959 740.532 19.2051C739.801 20.9436 739.478 22.8211 739.571 24.687C739.598 25.2386 739.174 25.7081 738.622 25.7356C738.07 25.7631 737.601 25.3383 737.573 24.7867C737.466 22.6246 737.84 20.4482 738.688 18.4307C738.901 17.9215 739.488 17.6821 739.997 17.8959ZM753.735 37.489C753.763 38.0406 753.338 38.5101 752.787 38.5376C750.624 38.6455 748.448 38.2708 746.431 37.4235C745.921 37.2096 745.682 36.6234 745.896 36.1142C746.11 35.605 746.696 35.3656 747.205 35.5795C748.943 36.3096 750.821 36.6332 752.687 36.5401C753.238 36.5126 753.708 36.9374 753.735 37.489ZM740.693 31.4169C741.133 31.0827 741.76 31.1683 742.094 31.608C742.282 31.8546 742.48 32.0962 742.688 32.3323C742.897 32.5685 743.112 32.7947 743.334 33.011C743.729 33.3968 743.737 34.0299 743.351 34.4251C742.965 34.8204 742.332 34.828 741.937 34.4423C741.68 34.1916 741.431 33.9297 741.189 33.6566C740.948 33.3836 740.719 33.1039 740.502 32.8181C740.168 32.3784 740.253 31.7511 740.693 31.4169Z" fill="#D7E1F4"/>
<path fill-rule="evenodd" clip-rule="evenodd" d="M861 1H1V199H861V1ZM0 0V200H862V0H0Z" fill="#293856"/>
</g>
<defs>
<clipPath id="clip0_156_1144">
<rect width="862" height="200" fill="white"/>
</clipPath>
</defs>
</svg>
