<svg width="862" height="200" viewBox="0 0 862 200" fill="none" xmlns="http://www.w3.org/2000/svg">
<rect width="862" height="200" fill="#40A1AC"/>
<path d="M0 0H862V200H0V0Z" fill="#111F3B"/>
<path fill-rule="evenodd" clip-rule="evenodd" d="M861 1H1V199H861V1ZM0 0V200H862V0H0Z" fill="#111F3B"/>
<path fill-rule="evenodd" clip-rule="evenodd" d="M182.798 50.107C171.225 56.7886 164.096 69.1368 164.096 82.5C164.096 95.8632 171.225 108.211 182.798 114.893C194.371 121.575 208.629 121.575 220.202 114.893C231.775 108.211 238.904 95.8632 238.904 82.5C238.904 69.1368 231.775 56.7886 220.202 50.107C208.629 43.4254 194.371 43.4254 182.798 50.107ZM221.202 48.375C209.01 41.3361 193.989 41.3361 181.798 48.375C169.606 55.4139 162.096 68.4222 162.096 82.5C162.096 96.5777 169.606 109.586 181.798 116.625C193.989 123.664 209.01 123.664 221.202 116.625C233.394 109.586 240.904 96.5777 240.904 82.5C240.904 68.4222 233.394 55.4139 221.202 48.375Z" fill="#D7E1F4"/>
<path fill-rule="evenodd" clip-rule="evenodd" d="M264.442 136.982C257.29 141.111 252.885 148.742 252.885 157C252.885 165.258 257.29 172.889 264.442 177.018C271.594 181.147 280.405 181.147 287.557 177.018C294.709 172.889 299.114 165.258 299.114 157C299.114 148.742 294.709 141.111 287.557 136.982C280.405 132.853 271.594 132.853 264.442 136.982ZM288.557 135.25C280.786 130.764 271.213 130.764 263.442 135.25C255.672 139.736 250.885 148.027 250.885 157C250.885 165.973 255.672 174.264 263.442 178.75C271.213 183.236 280.786 183.236 288.557 178.75C296.327 174.264 301.114 165.973 301.114 157C301.114 148.027 296.327 139.736 288.557 135.25Z" fill="#D7E1F4"/>
<path fill-rule="evenodd" clip-rule="evenodd" d="M274.993 145C271.131 145 268 148.393 268 152.578C268 154.218 268.491 155.813 269.399 157.125L270.139 158.195C270.788 159.133 271.274 160.193 271.571 161.321L272.088 163.282C272.227 163.807 272.733 164.112 273.218 163.962C273.703 163.811 273.983 163.264 273.845 162.738L273.328 160.777C272.969 159.416 272.384 158.139 271.6 157.007L270.86 155.937C270.189 154.968 269.827 153.79 269.827 152.578C269.827 149.486 272.14 146.979 274.993 146.979H276.007C278.86 146.979 281.173 149.486 281.173 152.578C281.173 153.79 280.811 154.968 280.14 155.937L279.4 157.007C278.616 158.139 278.031 159.416 277.672 160.777L277.155 162.738C277.017 163.264 277.297 163.811 277.782 163.962C278.267 164.112 278.773 163.807 278.912 163.282L279.429 161.321C279.726 160.193 280.212 159.133 280.861 158.195L281.601 157.125C282.509 155.813 283 154.218 283 152.578C283 148.393 279.869 145 276.007 145H274.993ZM272.019 166.542C271.928 166.27 272.172 166 272.51 166H278.49C278.828 166 279.072 166.27 278.981 166.542L278.576 168.01C278.183 169.187 276.903 170 275.445 170C273.987 170 272.707 169.187 272.314 168.01L272.019 166.542Z" fill="#0FC1B7"/>
<path fill-rule="evenodd" clip-rule="evenodd" d="M692.639 127.982C688.702 130.255 686.277 134.455 686.277 139C686.277 143.545 688.702 147.745 692.639 150.018C696.575 152.291 701.425 152.291 705.361 150.018C709.297 147.745 711.722 143.545 711.722 139C711.722 134.455 709.297 130.255 705.361 127.982C701.425 125.709 696.575 125.709 692.639 127.982ZM706.361 126.25C701.806 123.62 696.194 123.62 691.639 126.25C687.083 128.88 684.277 133.74 684.277 139C684.277 144.26 687.083 149.12 691.639 151.75C696.194 154.38 701.806 154.38 706.361 151.75C710.916 149.12 713.722 144.26 713.722 139C713.722 133.74 710.916 128.88 706.361 126.25Z" fill="#D7E1F4"/>
<path fill-rule="evenodd" clip-rule="evenodd" d="M702.518 131.509H694.482V146.491H702.518V131.509ZM695.394 145.559V132.441H696.807C696.896 132.696 697.039 132.93 697.231 133.125C697.568 133.468 698.024 133.661 698.5 133.661C698.976 133.661 699.432 133.468 699.769 133.125C699.961 132.93 700.104 132.696 700.193 132.441H701.606V145.559H695.394Z" fill="#0FC1B7"/>
<path fill-rule="evenodd" clip-rule="evenodd" d="M693.882 130C693.396 130 693 130.402 693 130.9V147.1C693 147.598 693.396 148 693.882 148H703.118C703.604 148 704 147.598 704 147.1V130.9C704 130.401 703.604 130 703.118 130H693.882ZM693.912 147.068V130.932H703.088V147.068H693.912Z" fill="#0FC1B7"/>
<path opacity="0.5" fill-rule="evenodd" clip-rule="evenodd" d="M332.639 23.982C328.702 26.2547 326.277 30.4547 326.277 35C326.277 39.5453 328.702 43.7453 332.639 46.0179C336.575 48.2906 341.425 48.2906 345.361 46.0179C349.297 43.7453 351.722 39.5453 351.722 35C351.722 30.4547 349.297 26.2547 345.361 23.982C341.425 21.7094 336.575 21.7094 332.639 23.982ZM346.361 22.25C341.806 19.6201 336.194 19.6201 331.639 22.25C327.083 24.8799 324.277 29.7402 324.277 35C324.277 40.2598 327.083 45.1201 331.639 47.75C336.194 50.3799 341.806 50.3799 346.361 47.75C350.916 45.1201 353.722 40.2598 353.722 35C353.722 29.7402 350.916 24.8799 346.361 22.25Z" fill="#D7E1F4"/>
<path fill-rule="evenodd" clip-rule="evenodd" d="M400.024 46.3481C380.856 57.4147 369.048 77.8667 369.048 100C369.048 122.133 380.856 142.585 400.024 153.652C419.192 164.719 442.808 164.719 461.976 153.652C481.144 142.585 492.952 122.133 492.952 100C492.952 77.8667 481.144 57.4147 461.976 46.3481C442.808 35.2814 419.192 35.2814 400.024 46.3481ZM463.476 43.75C443.38 32.1475 418.62 32.1475 398.524 43.75C378.428 55.3525 366.048 76.7949 366.048 100C366.048 123.205 378.428 144.647 398.524 156.25C418.62 167.853 443.38 167.853 463.476 156.25C483.572 144.647 495.952 123.205 495.952 100C495.952 76.7949 483.572 55.3525 463.476 43.75Z" fill="#D7E1F4"/>
<path fill-rule="evenodd" clip-rule="evenodd" d="M405.562 73.8926C405.562 72.6057 406.604 71.5625 407.888 71.5625H434.049C439.901 71.5625 445.348 73.3336 449.876 76.3705C450.943 77.0864 451.229 78.5336 450.515 79.603C449.801 80.6725 448.356 80.9591 447.289 80.2432C443.503 77.7037 438.952 76.2227 434.049 76.2227H407.888C406.604 76.2227 405.562 75.1795 405.562 73.8926ZM453.335 82.2435C454.351 81.4564 455.812 81.6436 456.597 82.6617C460.319 87.4854 462.535 93.54 462.535 100.107C462.535 111.443 455.939 121.231 446.394 125.837C445.237 126.396 443.847 125.908 443.29 124.749C442.733 123.59 443.219 122.197 444.376 121.639C452.373 117.78 457.884 109.586 457.884 100.107C457.884 94.6075 456.032 89.5484 452.918 85.5121C452.133 84.494 452.319 83.0306 453.335 82.2435ZM405.562 126.32C405.562 125.033 406.604 123.99 407.888 123.99H437.537C438.821 123.99 439.862 125.033 439.862 126.32C439.862 127.607 438.821 128.651 437.537 128.651H407.888C406.604 128.651 405.562 127.607 405.562 126.32Z" fill="#D7E1F4"/>
<path fill-rule="evenodd" clip-rule="evenodd" d="M410.211 84.3775C410.211 83.0906 411.252 82.0474 412.536 82.0474H434.046C440.152 82.0474 445.547 85.0916 448.803 89.7374C449.541 90.7905 449.288 92.2438 448.237 92.9834C447.186 93.7231 445.735 93.4689 444.997 92.4158C442.575 88.9591 438.573 86.7076 434.046 86.7076H412.536C411.252 86.7076 410.211 85.6644 410.211 84.3775ZM449.743 97.7757C451.027 97.7757 452.068 98.8189 452.068 100.106C452.068 110.079 444 118.164 434.046 118.164H412.536C411.252 118.164 410.211 117.121 410.211 115.834C410.211 114.547 411.252 113.504 412.536 113.504H434.046C441.431 113.504 447.417 107.505 447.417 100.106C447.417 98.8189 448.459 97.7757 449.743 97.7757Z" fill="#D7E1F4"/>
<path fill-rule="evenodd" clip-rule="evenodd" d="M413.701 94.2808C413.701 92.9939 414.742 91.9507 416.027 91.9507H432.886C437.381 91.9507 441.025 95.602 441.025 100.106C441.025 104.61 437.381 108.262 432.886 108.262C431.601 108.262 430.56 107.218 430.56 105.931C430.56 104.645 431.601 103.601 432.886 103.601C434.812 103.601 436.374 102.036 436.374 100.106C436.374 98.1758 434.812 96.6109 432.886 96.6109H416.027C414.742 96.6109 413.701 95.5677 413.701 94.2808ZM413.701 105.931C413.701 104.645 414.742 103.601 416.027 103.601H424.165C425.45 103.601 426.491 104.645 426.491 105.931C426.491 107.218 425.45 108.262 424.165 108.262H416.027C414.742 108.262 413.701 107.218 413.701 105.931Z" fill="#D7E1F4"/>
<path fill-rule="evenodd" clip-rule="evenodd" d="M861 1H1V199H861V1ZM0 0V200H862V0H0Z" fill="#293856"/>
<path fill-rule="evenodd" clip-rule="evenodd" d="M242.002 86.9381C242.036 86.3869 242.511 85.9678 243.062 86.0019L245.079 86.1269C245.63 86.1611 246.049 86.6356 246.015 87.1869C245.981 87.7381 245.506 88.1573 244.955 88.1231L242.938 87.9981C242.387 87.9639 241.968 87.4894 242.002 86.9381ZM248.052 87.3131C248.086 86.7619 248.561 86.3428 249.112 86.3769L253.145 86.6269C253.696 86.6611 254.116 87.1356 254.081 87.6869C254.047 88.2381 253.573 88.6573 253.022 88.6231L248.988 88.3731C248.437 88.3389 248.018 87.8644 248.052 87.3131ZM256.119 87.8131C256.153 87.2619 256.627 86.8428 257.179 86.8769L261.212 87.1269C261.763 87.1611 262.182 87.6356 262.148 88.1869C262.114 88.7381 261.639 89.1573 261.088 89.1231L257.055 88.8731C256.504 88.8389 256.084 88.3644 256.119 87.8131ZM264.185 88.3131C264.219 87.7619 264.694 87.3428 265.245 87.3769L269.279 87.6269C269.83 87.6611 270.249 88.1356 270.215 88.6869C270.181 89.2381 269.706 89.6573 269.155 89.6231L265.122 89.3731C264.57 89.3389 264.151 88.8644 264.185 88.3131ZM272.252 88.8131C272.286 88.2619 272.761 87.8428 273.312 87.8769L277.345 88.1269C277.896 88.1611 278.316 88.6356 278.281 89.1869C278.247 89.7381 277.773 90.1573 277.222 90.1231L273.188 89.8731C272.637 89.8389 272.218 89.3644 272.252 88.8131ZM280.319 89.3131C280.353 88.7619 280.827 88.3428 281.379 88.3769L285.412 88.6269C285.963 88.6611 286.382 89.1356 286.348 89.6869C286.314 90.2381 285.839 90.6573 285.288 90.6231L281.255 90.3731C280.704 90.3389 280.284 89.8644 280.319 89.3131ZM288.385 89.8131C288.419 89.2619 288.894 88.8428 289.445 88.8769L293.479 89.1269C294.03 89.1611 294.449 89.6356 294.415 90.1869C294.381 90.7381 293.906 91.1573 293.355 91.1231L289.321 90.8731C288.77 90.8389 288.351 90.3644 288.385 89.8131ZM296.452 90.3131C296.486 89.7619 296.961 89.3428 297.512 89.3769L301.545 89.6269C302.096 89.6611 302.516 90.1356 302.481 90.6869C302.447 91.2381 301.973 91.6573 301.421 91.6231L297.388 91.3731C296.837 91.3389 296.418 90.8644 296.452 90.3131ZM304.519 90.8131C304.553 90.2619 305.027 89.8428 305.579 89.8769L309.612 90.1269C310.163 90.1611 310.582 90.6356 310.548 91.1869C310.514 91.7381 310.039 92.1573 309.488 92.1231L305.455 91.8731C304.904 91.8389 304.484 91.3644 304.519 90.8131ZM312.585 91.3131C312.619 90.7619 313.094 90.3428 313.645 90.3769L317.679 90.6269C318.23 90.6611 318.649 91.1356 318.615 91.6869C318.581 92.2381 318.106 92.6573 317.555 92.6231L313.521 92.3731C312.97 92.3389 312.551 91.8644 312.585 91.3131ZM320.652 91.8131C320.686 91.2619 321.161 90.8428 321.712 90.8769L325.745 91.1269C326.296 91.1611 326.716 91.6356 326.681 92.1869C326.647 92.7381 326.173 93.1573 325.621 93.1231L321.588 92.8731C321.037 92.8389 320.618 92.3644 320.652 91.8131ZM328.719 92.3131C328.753 91.7619 329.227 91.3428 329.779 91.3769L333.812 91.6269C334.363 91.6611 334.782 92.1356 334.748 92.6869C334.714 93.2381 334.239 93.6573 333.688 93.6231L329.655 93.3731C329.104 93.3389 328.684 92.8644 328.719 92.3131ZM336.785 92.8131C336.819 92.2619 337.294 91.8428 337.845 91.8769L341.879 92.1269C342.43 92.1611 342.849 92.6356 342.815 93.1869C342.781 93.7381 342.306 94.1573 341.755 94.1231L337.722 93.8731C337.17 93.8389 336.751 93.3644 336.785 92.8131ZM344.852 93.3131C344.886 92.7619 345.361 92.3428 345.912 92.3769L349.945 92.6269C350.496 92.6611 350.916 93.1356 350.881 93.6869C350.847 94.2381 350.373 94.6573 349.822 94.6231L345.788 94.3731C345.237 94.3389 344.818 93.8644 344.852 93.3131ZM352.919 93.8131C352.953 93.2619 353.427 92.8428 353.979 92.8769L358.012 93.1269C358.563 93.1611 358.982 93.6356 358.948 94.1869C358.914 94.7381 358.439 95.1573 357.888 95.1231L353.855 94.8731C353.304 94.8389 352.884 94.3644 352.919 93.8131ZM360.985 94.3131C361.019 93.7619 361.494 93.3428 362.045 93.3769L364.062 93.5019C364.613 93.5361 365.032 94.0106 364.998 94.5619C364.964 95.1131 364.489 95.5323 363.938 95.4981L361.922 95.3731C361.37 95.3389 360.951 94.8644 360.985 94.3131Z" fill="#D7E1F4"/>
<path fill-rule="evenodd" clip-rule="evenodd" d="M658.158 89.3623C667.095 79.4269 670.052 65.4786 665.916 52.7715C661.78 40.0645 651.179 30.5293 638.106 27.7577C625.034 24.9861 611.475 29.3992 602.539 39.3346C593.602 49.2701 590.645 63.2184 594.781 75.9254C598.917 88.6325 609.518 98.1677 622.591 100.939C635.663 103.711 649.222 99.2978 658.158 89.3623ZM622.176 102.896C635.947 105.816 650.231 101.167 659.645 90.6998C669.06 80.2331 672.175 65.539 667.818 52.1525C663.46 38.766 652.293 28.721 638.521 25.8012C624.749 22.8814 610.466 27.5305 601.052 37.9971C591.637 48.4638 588.522 63.158 592.879 76.5445C597.236 89.9309 608.404 99.976 622.176 102.896Z" fill="#D7E1F4"/>
<path fill-rule="evenodd" clip-rule="evenodd" d="M588.481 70.8025C588.59 71.3439 588.239 71.8712 587.698 71.9803L585.812 72.3602C585.271 72.4692 584.744 72.1188 584.635 71.5774C584.525 71.036 584.876 70.5086 585.417 70.3996L587.303 70.0197C587.844 69.9106 588.371 70.2611 588.481 70.8025ZM582.824 71.9421C582.933 72.4835 582.583 73.0108 582.041 73.1199L578.271 73.8796C577.729 73.9887 577.202 73.6382 577.093 73.0968C576.984 72.5554 577.334 72.0281 577.876 71.919L581.646 71.1593C582.188 71.0502 582.715 71.4007 582.824 71.9421ZM575.283 73.4615C575.392 74.0029 575.041 74.5302 574.5 74.6393L570.729 75.399C570.188 75.5081 569.66 75.1576 569.551 74.6162C569.442 74.0748 569.793 73.5475 570.334 73.4384L574.105 72.6787C574.646 72.5696 575.174 72.9201 575.283 73.4615ZM567.741 74.9809C567.85 75.5223 567.5 76.0496 566.958 76.1587L563.187 76.9184C562.646 77.0275 562.119 76.677 562.01 76.1356C561.9 75.5942 562.251 75.0669 562.792 74.9578L566.563 74.1981C567.105 74.089 567.632 74.4395 567.741 74.9809ZM560.199 76.5003C560.308 77.0417 559.958 77.5691 559.417 77.6781L555.646 78.4379C555.104 78.5469 554.577 78.1965 554.468 77.655C554.359 77.1136 554.709 76.5863 555.251 76.4772L559.022 75.7175C559.563 75.6085 560.09 75.9589 560.199 76.5003ZM552.658 78.0198C552.767 78.5612 552.416 79.0885 551.875 79.1976L548.104 79.9573C547.563 80.0664 547.035 79.7159 546.926 79.1745C546.817 78.6331 547.168 78.1057 547.709 77.9967L551.48 77.237C552.021 77.1279 552.549 77.4784 552.658 78.0198ZM545.116 79.5392C545.225 80.0806 544.875 80.6079 544.333 80.717L540.562 81.4767C540.021 81.5858 539.494 81.2353 539.385 80.6939C539.275 80.1525 539.626 79.6252 540.167 79.5161L543.938 78.7564C544.48 78.6473 545.007 78.9978 545.116 79.5392ZM537.574 81.0586C537.683 81.6 537.333 82.1273 536.792 82.2364L533.021 82.9961C532.479 83.1052 531.952 82.7547 531.843 82.2133C531.734 81.6719 532.084 81.1446 532.626 81.0355L536.397 80.2758C536.938 80.1667 537.465 80.5172 537.574 81.0586ZM530.033 82.578C530.142 83.1194 529.791 83.6468 529.25 83.7558L525.479 84.5155C524.938 84.6246 524.41 84.2741 524.301 83.7327C524.192 83.1913 524.543 82.664 525.084 82.5549L528.855 81.7952C529.396 81.6861 529.924 82.0366 530.033 82.578ZM522.491 84.0974C522.6 84.6389 522.25 85.1662 521.708 85.2752L517.937 86.035C517.396 86.144 516.869 85.7936 516.76 85.2522C516.651 84.7108 517.001 84.1834 517.542 84.0744L521.313 83.3146C521.855 83.2056 522.382 83.556 522.491 84.0974ZM514.949 85.6169C515.058 86.1583 514.708 86.6856 514.167 86.7947L510.396 87.5544C509.854 87.6635 509.327 87.313 509.218 86.7716C509.109 86.2302 509.459 85.7029 510.001 85.5938L513.772 84.8341C514.313 84.725 514.84 85.0755 514.949 85.6169ZM507.408 87.1363C507.517 87.6777 507.166 88.205 506.625 88.3141L502.854 89.0738C502.313 89.1829 501.785 88.8324 501.676 88.291C501.567 87.7496 501.918 87.2223 502.459 87.1132L506.23 86.3535C506.771 86.2444 507.299 86.5949 507.408 87.1363ZM499.866 88.6557C499.975 89.1971 499.625 89.7244 499.083 89.8335L497.198 90.2134C496.656 90.3225 496.129 89.972 496.02 89.4306C495.911 88.8892 496.261 88.3618 496.803 88.2528L498.688 87.8729C499.23 87.7638 499.757 88.1143 499.866 88.6557Z" fill="#D7E1F4"/>
<path fill-rule="evenodd" clip-rule="evenodd" d="M682.988 135.656C682.902 136.202 682.389 136.574 681.844 136.488L679.901 136.18C679.356 136.094 678.983 135.582 679.07 135.036C679.156 134.491 679.668 134.119 680.214 134.205L682.156 134.512C682.702 134.599 683.074 135.111 682.988 135.656ZM677.16 134.734C677.073 135.28 676.561 135.652 676.016 135.566L672.13 134.951C671.585 134.865 671.213 134.353 671.299 133.807C671.385 133.262 671.897 132.89 672.443 132.976L676.328 133.59C676.874 133.677 677.246 134.189 677.16 134.734ZM669.389 133.505C669.303 134.051 668.79 134.423 668.245 134.337L664.359 133.722C663.814 133.636 663.442 133.124 663.528 132.578C663.614 132.033 664.126 131.66 664.672 131.747L668.557 132.361C669.103 132.448 669.475 132.96 669.389 133.505ZM661.618 132.276C661.532 132.822 661.02 133.194 660.474 133.108L656.589 132.493C656.043 132.407 655.671 131.894 655.757 131.349C655.843 130.803 656.356 130.431 656.901 130.517L660.787 131.132C661.332 131.218 661.704 131.731 661.618 132.276ZM653.847 131.047C653.761 131.592 653.249 131.965 652.703 131.878L648.818 131.264C648.272 131.177 647.9 130.665 647.986 130.12C648.073 129.574 648.585 129.202 649.13 129.288L653.016 129.903C653.561 129.989 653.933 130.501 653.847 131.047ZM646.076 129.818C645.99 130.363 645.478 130.735 644.932 130.649L641.047 130.035C640.501 129.948 640.129 129.436 640.215 128.891C640.302 128.345 640.814 127.973 641.359 128.059L645.245 128.674C645.79 128.76 646.163 129.272 646.076 129.818ZM638.306 128.589C638.219 129.134 637.707 129.506 637.162 129.42L633.276 128.805C632.731 128.719 632.358 128.207 632.445 127.661C632.531 127.116 633.043 126.744 633.589 126.83L637.474 127.445C638.02 127.531 638.392 128.043 638.306 128.589ZM630.535 127.359C630.448 127.905 629.936 128.277 629.391 128.191L625.505 127.576C624.96 127.49 624.588 126.978 624.674 126.432C624.76 125.887 625.272 125.515 625.818 125.601L629.703 126.215C630.249 126.302 630.621 126.814 630.535 127.359ZM622.764 126.13C622.678 126.676 622.165 127.048 621.62 126.962L617.734 126.347C617.189 126.261 616.817 125.749 616.903 125.203C616.989 124.658 617.501 124.285 618.047 124.372L621.932 124.986C622.478 125.073 622.85 125.585 622.764 126.13ZM614.993 124.901C614.907 125.447 614.395 125.819 613.849 125.733L609.964 125.118C609.418 125.032 609.046 124.519 609.132 123.974C609.218 123.428 609.731 123.056 610.276 123.142L614.162 123.757C614.707 123.843 615.079 124.356 614.993 124.901ZM607.222 123.672C607.136 124.217 606.624 124.59 606.078 124.503L602.193 123.889C601.647 123.802 601.275 123.29 601.361 122.745C601.448 122.199 601.96 121.827 602.505 121.913L606.391 122.528C606.936 122.614 607.308 123.126 607.222 123.672ZM599.451 122.443C599.365 122.988 598.853 123.36 598.307 123.274L594.422 122.66C593.876 122.573 593.504 122.061 593.59 121.516C593.677 120.97 594.189 120.598 594.734 120.684L598.62 121.299C599.165 121.385 599.538 121.897 599.451 122.443ZM591.681 121.214C591.594 121.759 591.082 122.131 590.537 122.045L586.651 121.43C586.106 121.344 585.733 120.832 585.82 120.286C585.906 119.741 586.418 119.369 586.964 119.455L590.849 120.07C591.395 120.156 591.767 120.668 591.681 121.214ZM583.91 119.984C583.823 120.53 583.311 120.902 582.766 120.816L578.88 120.201C578.335 120.115 577.963 119.603 578.049 119.057C578.135 118.512 578.647 118.14 579.193 118.226L583.078 118.84C583.624 118.927 583.996 119.439 583.91 119.984ZM576.139 118.755C576.053 119.301 575.54 119.673 574.995 119.587L571.109 118.972C570.564 118.886 570.192 118.374 570.278 117.828C570.364 117.283 570.876 116.91 571.422 116.997L575.307 117.611C575.853 117.698 576.225 118.21 576.139 118.755ZM568.368 117.526C568.282 118.072 567.77 118.444 567.224 118.357L563.339 117.743C562.793 117.657 562.421 117.144 562.507 116.599C562.593 116.053 563.106 115.681 563.651 115.767L567.537 116.382C568.082 116.468 568.454 116.981 568.368 117.526ZM560.597 116.297C560.511 116.842 559.999 117.215 559.453 117.128L555.568 116.514C555.022 116.427 554.65 115.915 554.736 115.37C554.823 114.824 555.335 114.452 555.88 114.538L559.766 115.153C560.311 115.239 560.683 115.751 560.597 116.297ZM552.826 115.068C552.74 115.613 552.228 115.985 551.682 115.899L547.797 115.285C547.251 115.198 546.879 114.686 546.965 114.141C547.052 113.595 547.564 113.223 548.109 113.309L551.995 113.924C552.54 114.01 552.913 114.522 552.826 115.068ZM545.056 113.838C544.969 114.384 544.457 114.756 543.912 114.67L540.026 114.055C539.481 113.969 539.108 113.457 539.195 112.911C539.281 112.366 539.793 111.994 540.339 112.08L544.224 112.695C544.77 112.781 545.142 113.293 545.056 113.838ZM537.285 112.609C537.198 113.155 536.686 113.527 536.141 113.441L532.255 112.826C531.71 112.74 531.338 112.228 531.424 111.682C531.51 111.137 532.022 110.765 532.568 110.851L536.453 111.465C536.999 111.552 537.371 112.064 537.285 112.609ZM529.514 111.38C529.428 111.926 528.915 112.298 528.37 112.212L524.485 111.597C523.939 111.511 523.567 110.999 523.653 110.453C523.739 109.908 524.251 109.535 524.797 109.622L528.682 110.236C529.228 110.323 529.6 110.835 529.514 111.38ZM521.743 110.151C521.657 110.697 521.145 111.069 520.599 110.982L516.714 110.368C516.168 110.282 515.796 109.769 515.882 109.224C515.969 108.678 516.481 108.306 517.026 108.392L520.912 109.007C521.457 109.093 521.829 109.605 521.743 110.151ZM513.972 108.922C513.886 109.467 513.374 109.84 512.828 109.753L508.943 109.139C508.397 109.052 508.025 108.54 508.111 107.995C508.198 107.449 508.71 107.077 509.255 107.163L513.141 107.778C513.686 107.864 514.059 108.376 513.972 108.922ZM506.201 107.693C506.115 108.238 505.603 108.61 505.057 108.524L501.172 107.91C500.627 107.823 500.254 107.311 500.341 106.766C500.427 106.22 500.939 105.848 501.485 105.934L505.37 106.549C505.915 106.635 506.288 107.147 506.201 107.693ZM498.431 106.463C498.344 107.009 497.832 107.381 497.287 107.295L495.344 106.988C494.798 106.901 494.426 106.389 494.512 105.844C494.599 105.298 495.111 104.926 495.656 105.012L497.599 105.32C498.145 105.406 498.517 105.918 498.431 106.463Z" fill="#D7E1F4"/>
<path fill-rule="evenodd" clip-rule="evenodd" d="M547.779 171.184C555.586 171.739 563.096 168.087 567.48 161.604C571.864 155.12 572.457 146.79 569.034 139.751C565.611 132.713 558.693 128.035 550.886 127.48C543.079 126.925 535.569 130.577 531.184 137.06C526.8 143.544 526.208 151.874 529.631 158.913C533.054 165.951 539.972 170.629 547.779 171.184ZM527.832 159.787C531.568 167.469 539.117 172.574 547.637 173.179C556.157 173.785 564.353 169.799 569.137 162.724C573.921 155.648 574.568 146.558 570.832 138.877C567.097 131.195 559.547 126.09 551.028 125.485C542.508 124.879 534.312 128.865 529.528 135.94C524.743 143.016 524.097 152.106 527.832 159.787Z" fill="#D7E1F4"/>
<path fill-rule="evenodd" clip-rule="evenodd" d="M491.09 121.085C491.319 120.583 491.912 120.361 492.415 120.59L494.115 121.365C494.618 121.594 494.839 122.187 494.61 122.69C494.381 123.192 493.788 123.414 493.285 123.185L491.585 122.41C491.083 122.181 490.861 121.588 491.09 121.085ZM496.19 123.41C496.419 122.908 497.013 122.686 497.515 122.915L500.915 124.465C501.418 124.694 501.639 125.287 501.41 125.79C501.181 126.292 500.588 126.514 500.085 126.285L496.685 124.735C496.183 124.506 495.961 123.913 496.19 123.41ZM502.99 126.51C503.22 126.008 503.813 125.786 504.315 126.015L507.715 127.565C508.218 127.794 508.439 128.387 508.21 128.89C507.981 129.392 507.388 129.614 506.886 129.385L503.486 127.835C502.983 127.606 502.761 127.013 502.99 126.51ZM509.791 129.61C510.02 129.108 510.613 128.886 511.115 129.115L514.515 130.665C515.018 130.894 515.24 131.487 515.01 131.99C514.781 132.492 514.188 132.714 513.686 132.485L510.286 130.935C509.783 130.706 509.561 130.113 509.791 129.61ZM516.591 132.71C516.82 132.208 517.413 131.986 517.915 132.215L521.315 133.765C521.818 133.994 522.04 134.587 521.811 135.09C521.581 135.592 520.988 135.814 520.486 135.585L517.086 134.035C516.583 133.806 516.362 133.213 516.591 132.71ZM523.391 135.81C523.62 135.308 524.213 135.086 524.716 135.315L526.416 136.09C526.918 136.319 527.14 136.912 526.911 137.415C526.682 137.917 526.088 138.139 525.586 137.91L523.886 137.135C523.383 136.906 523.162 136.313 523.391 135.81Z" fill="#D7E1F4"/>
<path fill-rule="evenodd" clip-rule="evenodd" d="M298.555 145.826C298.375 145.304 298.652 144.735 299.174 144.555L301.146 143.874C301.669 143.694 302.238 143.971 302.418 144.493C302.598 145.015 302.321 145.585 301.799 145.765L299.827 146.445C299.305 146.625 298.735 146.348 298.555 145.826ZM304.472 143.784C304.292 143.262 304.569 142.693 305.091 142.513L309.035 141.152C309.557 140.972 310.127 141.249 310.307 141.771C310.487 142.293 310.21 142.862 309.688 143.042L305.743 144.404C305.221 144.584 304.652 144.307 304.472 143.784ZM312.361 141.062C312.18 140.54 312.458 139.971 312.98 139.791L316.924 138.43C317.446 138.25 318.016 138.527 318.196 139.049C318.376 139.571 318.099 140.14 317.577 140.32L313.632 141.681C313.11 141.862 312.541 141.584 312.361 141.062ZM320.25 138.34C320.069 137.818 320.347 137.249 320.869 137.069L324.813 135.707C325.335 135.527 325.904 135.804 326.085 136.327C326.265 136.849 325.988 137.418 325.465 137.598L321.521 138.959C320.999 139.139 320.43 138.862 320.25 138.34ZM328.138 135.618C327.958 135.096 328.235 134.526 328.757 134.346L332.702 132.985C333.224 132.805 333.793 133.082 333.973 133.604C334.154 134.126 333.876 134.696 333.354 134.876L329.41 136.237C328.888 136.417 328.319 136.14 328.138 135.618ZM336.027 132.896C335.847 132.374 336.124 131.804 336.646 131.624L340.591 130.263C341.113 130.083 341.682 130.36 341.862 130.882C342.042 131.404 341.765 131.973 341.243 132.154L337.299 133.515C336.777 133.695 336.207 133.418 336.027 132.896ZM343.916 130.173C343.736 129.651 344.013 129.082 344.535 128.902L348.48 127.541C349.002 127.361 349.571 127.638 349.751 128.16C349.931 128.682 349.654 129.251 349.132 129.431L345.188 130.793C344.666 130.973 344.096 130.695 343.916 130.173ZM351.805 127.451C351.625 126.929 351.902 126.36 352.424 126.18L356.369 124.819C356.891 124.638 357.46 124.916 357.64 125.438C357.82 125.96 357.543 126.529 357.021 126.709L353.076 128.07C352.554 128.25 351.985 127.973 351.805 127.451ZM359.694 124.729C359.514 124.207 359.791 123.638 360.313 123.457L364.257 122.096C364.779 121.916 365.349 122.193 365.529 122.715C365.709 123.238 365.432 123.807 364.91 123.987L360.965 125.348C360.443 125.528 359.874 125.251 359.694 124.729ZM367.583 122.007C367.403 121.485 367.68 120.915 368.202 120.735L370.174 120.055C370.696 119.875 371.265 120.152 371.446 120.674C371.626 121.196 371.348 121.765 370.826 121.945L368.854 122.626C368.332 122.806 367.763 122.529 367.583 122.007Z" fill="#D7E1F4"/>
<path opacity="0.5" fill-rule="evenodd" clip-rule="evenodd" d="M351.139 43.9923C351.419 43.5165 352.032 43.3581 352.508 43.6385L354.258 44.6697C354.734 44.9501 354.892 45.5631 354.612 46.039C354.331 46.5148 353.718 46.6732 353.242 46.3928L351.492 45.3615C351.017 45.0811 350.858 44.4681 351.139 43.9923ZM356.388 47.0861C356.669 46.6102 357.282 46.4518 357.758 46.7322L361.258 48.7947C361.733 49.0751 361.892 49.6881 361.611 50.164C361.331 50.6398 360.718 50.7982 360.242 50.5178L356.742 48.4553C356.266 48.1749 356.108 47.5619 356.388 47.0861ZM363.388 51.2111C363.669 50.7352 364.282 50.5768 364.757 50.8572L368.257 52.9197C368.733 53.2001 368.892 53.8131 368.611 54.289C368.331 54.7648 367.718 54.9232 367.242 54.6428L363.742 52.5803C363.266 52.2999 363.108 51.6869 363.388 51.2111ZM370.388 55.3361C370.669 54.8602 371.282 54.7018 371.757 54.9822L375.257 57.0447C375.733 57.3251 375.891 57.9382 375.611 58.414C375.331 58.8898 374.718 59.0482 374.242 58.7678L370.742 56.7053C370.266 56.4249 370.108 55.8119 370.388 55.3361ZM377.388 59.4611C377.668 58.9853 378.281 58.8268 378.757 59.1072L380.507 60.1385C380.983 60.4189 381.141 61.0319 380.861 61.5077C380.581 61.9835 379.968 62.1419 379.492 61.8616L377.742 60.8303C377.266 60.5499 377.108 59.9369 377.388 59.4611Z" fill="#D7E1F4"/>
<path fill-rule="evenodd" clip-rule="evenodd" d="M630.429 42.3599L611.943 61.0663L613.968 62.4158C614.479 62.7565 614.786 63.3302 614.786 63.9446V80.475C614.786 81.0838 614.293 81.5773 613.684 81.5773C613.075 81.5773 612.582 81.0838 612.582 80.475V64.1413L610.35 62.6538C609.389 62.0132 609.25 60.6552 610.062 59.8336L629.122 40.5458C629.841 39.8181 631.016 39.818 631.735 40.5458L650.749 59.7872C651.598 60.6457 651.402 62.0751 650.354 62.6738L647.698 64.191V80.475C647.698 81.0838 647.205 81.5773 646.596 81.5773C645.987 81.5773 645.494 81.0838 645.494 80.475V63.9778C645.494 63.3184 645.847 62.7096 646.419 62.3825L648.845 60.9967L630.429 42.3599ZM649.181 61.3368C649.181 61.3366 649.181 61.3364 649.181 61.3362L649.181 61.3368ZM611.573 60.8196C611.573 60.8195 611.572 60.8194 611.572 60.8192L611.369 61.125L611.572 60.8192L611.573 60.8196Z" fill="#0FC1B7"/>
<path opacity="0.5" fill-rule="evenodd" clip-rule="evenodd" d="M341.577 28.1884C339.848 26.6039 337.195 26.6039 335.466 28.1884C334.029 29.5057 333.598 31.5957 334.397 33.3739L338.521 42.5554L342.646 33.3739C343.445 31.5957 343.014 29.5057 341.577 28.1884ZM336.711 31.1744C336.711 30.1745 337.522 29.364 338.521 29.364C339.521 29.364 340.332 30.1745 340.332 31.1744C340.332 32.1742 339.521 32.9847 338.521 32.9847C337.522 32.9847 336.711 32.1742 336.711 31.1744Z" fill="#0FC1B7"/>
<path fill-rule="evenodd" clip-rule="evenodd" d="M186.759 61.9132C186.759 60.5773 187.849 59.5 189.185 59.5H202.074C203.411 59.5 204.5 60.5773 204.5 61.9132V83.6359H222.074C223.411 83.6359 224.5 84.7132 224.5 86.0491V98.5585C224.5 99.0816 224.074 99.5 223.556 99.5C223.037 99.5 222.611 99.0816 222.611 98.5585V86.0491C222.611 85.7594 222.374 85.5189 222.074 85.5189H204.5V98.5585C204.5 99.0816 204.074 99.5 203.556 99.5C203.037 99.5 202.611 99.0816 202.611 98.5585V61.9132C202.611 61.6235 202.374 61.383 202.074 61.383H189.185C188.885 61.383 188.648 61.6235 188.648 61.9132V98.5585C188.648 99.0816 188.222 99.5 187.704 99.5C187.185 99.5 186.759 99.0816 186.759 98.5585V81.3396C186.759 81.0499 186.522 80.8094 186.222 80.8094H181.926C181.626 80.8094 181.389 81.0499 181.389 81.3396V98.5585C181.389 99.0816 180.963 99.5 180.444 99.5C179.926 99.5 179.5 99.0816 179.5 98.5585V81.3396C179.5 80.0037 180.589 78.9264 181.926 78.9264H186.222C186.407 78.9264 186.586 78.9469 186.759 78.9859V61.9132ZM187.648 80.5671L187.48 80.4604C187.547 80.5552 187.604 80.658 187.648 80.767V80.5671ZM192 67.5057V64.5623H193V67.5057H192ZM198.815 64.5623V67.5057H197.815V64.5623H198.815ZM192 74.2755V71.3321H193V74.2755H192ZM198.815 71.3321V74.2755H197.815V71.3321H198.815ZM192 81.0453V78.1019H193V81.0453H192ZM211.963 89.032V91.9754H210.963V89.032H211.963ZM216.778 91.9754V89.032H217.778V91.9754H216.778ZM192.833 93.4962H197.981V98.9113H192.833V93.4962ZM193.833 94.4962V97.9113H196.981V94.4962H193.833ZM211.963 95.5074V98.4508H210.963V95.5074H211.963ZM216.778 98.4508V95.5074H217.778V98.4508H216.778Z" fill="#0FC1B7"/>
</svg>
