<svg width="862" height="200" viewBox="0 0 862 200" fill="none" xmlns="http://www.w3.org/2000/svg">
<rect width="862" height="200" fill="#40A1AC"/>
<path d="M0 0H862V200H0V0Z" fill="#111F3B"/>
<path fill-rule="evenodd" clip-rule="evenodd" d="M861 1H1V199H861V1ZM0 0V200H862V0H0Z" fill="#111F3B"/>
<path fill-rule="evenodd" clip-rule="evenodd" d="M861 1H1V199H861V1ZM0 0V200H862V0H0Z" fill="#293856"/>
<path fill-rule="evenodd" clip-rule="evenodd" d="M463.249 59.0316C463.387 58.4968 463.933 58.175 464.467 58.3129L559.531 82.8137C560.065 82.9516 560.387 83.4968 560.249 84.0316C560.112 84.5665 559.566 84.8883 559.032 84.7504L463.968 60.2496C463.433 60.1117 463.112 59.5665 463.249 59.0316Z" fill="#0FC1B7"/>
<path fill-rule="evenodd" clip-rule="evenodd" d="M397.751 59.0316C397.613 58.4968 397.067 58.175 396.533 58.3129L301.469 82.8137C300.935 82.9516 300.613 83.4968 300.751 84.0316C300.888 84.5665 301.434 84.8883 301.968 84.7504L397.032 60.2496C397.567 60.1117 397.888 59.5665 397.751 59.0316Z" fill="#0FC1B7"/>
<path fill-rule="evenodd" clip-rule="evenodd" d="M432 86C432.552 86 433 86.4477 433 87L433 112C433 112.552 432.552 113 432 113C431.448 113 431 112.552 431 112L431 87C431 86.4477 431.448 86 432 86Z" fill="#0FC1B7"/>
<path fill-rule="evenodd" clip-rule="evenodd" d="M415.18 25.5981C405.39 31.2502 399.359 41.6957 399.359 53C399.359 64.3042 405.39 74.7498 415.18 80.4019C424.97 86.054 437.031 86.054 446.821 80.4019C456.611 74.7498 462.641 64.3042 462.641 53C462.641 41.6957 456.611 31.2502 446.821 25.5981C437.031 19.9459 424.97 19.9459 415.18 25.5981ZM448.321 23C437.603 16.812 424.398 16.812 413.68 23C402.962 29.188 396.359 40.624 396.359 53C396.359 65.376 402.962 76.812 413.68 83C424.398 89.188 437.603 89.188 448.321 83C459.039 76.812 465.641 65.376 465.641 53C465.641 40.624 459.039 29.188 448.321 23Z" fill="#D7E1F4"/>
<path fill-rule="evenodd" clip-rule="evenodd" d="M417.434 39.0761C417.434 38.3897 417.989 37.8333 418.674 37.8333H432.626C435.748 37.8333 438.653 38.7779 441.067 40.3976C441.637 40.7794 441.789 41.5513 441.408 42.1216C441.027 42.692 440.257 42.8448 439.688 42.4631C437.668 41.1087 435.241 40.3188 432.626 40.3188H418.674C417.989 40.3188 417.434 39.7624 417.434 39.0761ZM442.912 43.5298C443.454 43.11 444.233 43.2099 444.652 43.7529C446.637 46.3255 447.819 49.5546 447.819 53.0568C447.819 59.1029 444.301 64.3234 439.21 66.7799C438.593 67.0777 437.852 66.8178 437.555 66.1995C437.258 65.5811 437.517 64.8384 438.134 64.5406C442.399 62.4825 445.338 58.1124 445.338 53.0568C445.338 50.124 444.351 47.4258 442.69 45.2731C442.271 44.7301 442.371 43.9496 442.912 43.5298ZM417.434 67.0375C417.434 66.3512 417.989 65.7948 418.674 65.7948H434.487C435.172 65.7948 435.727 66.3512 435.727 67.0375C435.727 67.7239 435.172 68.2803 434.487 68.2803H418.674C417.989 68.2803 417.434 67.7239 417.434 67.0375Z" fill="#D7E1F4"/>
<path fill-rule="evenodd" clip-rule="evenodd" d="M419.913 44.668C419.913 43.9817 420.468 43.4253 421.153 43.4253H432.625C435.881 43.4253 438.759 45.0489 440.496 47.5266C440.889 48.0883 440.754 48.8634 440.194 49.2578C439.633 49.6523 438.859 49.5168 438.466 48.9551C437.174 47.1115 435.039 45.9107 432.625 45.9107H421.153C420.468 45.9107 419.913 45.3543 419.913 44.668ZM440.997 51.8137C441.682 51.8137 442.237 52.3701 442.237 53.0564C442.237 58.3756 437.934 62.6876 432.625 62.6876H421.153C420.468 62.6876 419.913 62.1312 419.913 61.4449C419.913 60.7585 420.468 60.2021 421.153 60.2021H432.625C436.564 60.2021 439.757 57.0029 439.757 53.0564C439.757 52.3701 440.312 51.8137 440.997 51.8137Z" fill="#D7E1F4"/>
<path fill-rule="evenodd" clip-rule="evenodd" d="M421.774 49.9498C421.774 49.2634 422.33 48.707 423.015 48.707H432.006C434.404 48.707 436.347 50.6544 436.347 53.0566C436.347 55.4588 434.404 57.4062 432.006 57.4062C431.321 57.4062 430.766 56.8498 430.766 56.1634C430.766 55.4771 431.321 54.9207 432.006 54.9207C433.034 54.9207 433.867 54.0861 433.867 53.0566C433.867 52.0271 433.034 51.1925 432.006 51.1925H423.015C422.33 51.1925 421.774 50.6361 421.774 49.9498ZM421.774 56.1634C421.774 55.4771 422.33 54.9207 423.015 54.9207H427.355C428.04 54.9207 428.596 55.4771 428.596 56.1634C428.596 56.8498 428.04 57.4062 427.355 57.4062H423.015C422.33 57.4062 421.774 56.8498 421.774 56.1634Z" fill="#D7E1F4"/>
<path fill-rule="evenodd" clip-rule="evenodd" d="M309.068 145.201C309.069 145.201 309.066 145.205 309.059 145.214C309.064 145.205 309.068 145.201 309.068 145.201ZM308.74 145.5C308.337 145.203 307.658 144.84 306.633 144.449C304.468 143.624 301.218 142.842 297.062 142.171C288.781 140.836 277.268 140 264.5 140C251.732 140 240.219 140.836 231.938 142.171C227.782 142.842 224.532 143.624 222.367 144.449C221.342 144.84 220.663 145.203 220.26 145.5C220.663 145.797 221.342 146.16 222.367 146.551C224.532 147.376 227.782 148.158 231.938 148.829C240.219 150.164 251.732 151 264.5 151C277.268 151 288.781 150.164 297.062 148.829C301.218 148.158 304.468 147.376 306.633 146.551C307.658 146.16 308.337 145.797 308.74 145.5ZM219.932 145.201C219.932 145.201 219.936 145.205 219.941 145.214C219.934 145.205 219.931 145.201 219.932 145.201ZM219.932 145.799C219.931 145.799 219.934 145.795 219.941 145.786C219.936 145.795 219.932 145.799 219.932 145.799ZM309.059 145.786C309.066 145.795 309.069 145.799 309.068 145.799C309.068 145.799 309.064 145.795 309.059 145.786ZM264.5 153C290.181 153 311 149.642 311 145.5C311 141.358 290.181 138 264.5 138C238.819 138 218 141.358 218 145.5C218 149.642 238.819 153 264.5 153Z" fill="#D7E1F4"/>
<path fill-rule="evenodd" clip-rule="evenodd" d="M643.068 145.201C643.069 145.201 643.066 145.205 643.059 145.214C643.064 145.205 643.068 145.201 643.068 145.201ZM642.74 145.5C642.337 145.203 641.658 144.84 640.633 144.449C638.468 143.624 635.218 142.842 631.062 142.171C622.781 140.836 611.268 140 598.5 140C585.732 140 574.219 140.836 565.938 142.171C561.782 142.842 558.532 143.624 556.367 144.449C555.342 144.84 554.663 145.203 554.26 145.5C554.663 145.797 555.342 146.16 556.367 146.551C558.532 147.376 561.782 148.158 565.938 148.829C574.219 150.164 585.732 151 598.5 151C611.268 151 622.781 150.164 631.062 148.829C635.218 148.158 638.468 147.376 640.633 146.551C641.658 146.16 642.337 145.797 642.74 145.5ZM553.932 145.201C553.932 145.201 553.936 145.205 553.941 145.214C553.934 145.205 553.931 145.201 553.932 145.201ZM553.932 145.799C553.931 145.799 553.934 145.795 553.941 145.786C553.936 145.795 553.932 145.799 553.932 145.799ZM643.059 145.786C643.066 145.795 643.069 145.799 643.068 145.799C643.068 145.799 643.064 145.795 643.059 145.786ZM598.5 153C624.181 153 645 149.642 645 145.5C645 141.358 624.181 138 598.5 138C572.819 138 552 141.358 552 145.5C552 149.642 572.819 153 598.5 153Z" fill="#D7E1F4"/>
<path fill-rule="evenodd" clip-rule="evenodd" d="M432.436 124.211L407.282 149.667L410.037 151.503C410.733 151.966 411.151 152.747 411.151 153.583V176.077C411.151 176.906 410.479 177.577 409.651 177.577C408.822 177.577 408.151 176.906 408.151 176.077V153.851L405.114 151.827C403.806 150.955 403.617 149.107 404.722 147.989L430.658 121.743C431.637 120.752 433.236 120.752 434.215 121.743L460.089 147.926C461.243 149.094 460.977 151.039 459.551 151.854L455.936 153.919V176.077C455.936 176.906 455.265 177.577 454.436 177.577C453.608 177.577 452.936 176.906 452.936 176.077V153.628C452.936 152.731 453.417 151.903 454.196 151.458L457.497 149.572L432.436 124.211ZM457.955 150.035C457.955 150.034 457.954 150.034 457.954 150.034L457.955 150.035ZM406.778 149.331C406.778 149.331 406.778 149.33 406.777 149.33L406.5 149.746L406.777 149.33L406.778 149.331Z" fill="#D7E1F4"/>
<path fill-rule="evenodd" clip-rule="evenodd" d="M436.023 149.57C433.739 147.477 430.233 147.477 427.948 149.57C426.049 151.311 425.48 154.073 426.536 156.423L431.986 168.555L437.436 156.423C438.491 154.073 437.922 151.311 436.023 149.57ZM429.593 153.516C429.593 152.195 430.664 151.124 431.986 151.124C433.307 151.124 434.378 152.195 434.378 153.516C434.378 154.837 433.307 155.908 431.986 155.908C430.664 155.908 429.593 154.837 429.593 153.516Z" fill="#0FC1B7"/>
<path fill-rule="evenodd" clip-rule="evenodd" d="M410 169.848C395.142 171.1 385 173.609 385 176.5C385 180.642 405.819 184 431.5 184C457.181 184 478 180.642 478 176.5C478 173.674 468.311 171.214 454 169.935V171.943C457.709 172.278 461.093 172.692 464.062 173.171C468.218 173.842 471.468 174.624 473.633 175.449C474.658 175.84 475.337 176.203 475.74 176.5C475.337 176.797 474.658 177.16 473.633 177.551C471.468 178.376 468.218 179.158 464.062 179.829C455.781 181.164 444.268 182 431.5 182C418.732 182 407.219 181.164 398.938 179.829C394.782 179.158 391.532 178.376 389.367 177.551C388.342 177.16 387.663 176.797 387.26 176.5C387.663 176.203 388.342 175.84 389.367 175.449C391.532 174.624 394.782 173.842 398.938 173.171C402.172 172.65 405.898 172.204 410 171.855V169.848ZM476.068 176.201C476.069 176.201 476.066 176.205 476.059 176.214C476.064 176.205 476.068 176.201 476.068 176.201ZM386.932 176.201C386.932 176.201 386.936 176.205 386.941 176.214C386.934 176.205 386.931 176.201 386.932 176.201ZM386.932 176.799C386.931 176.799 386.934 176.795 386.941 176.786C386.936 176.795 386.932 176.799 386.932 176.799ZM476.059 176.786C476.066 176.795 476.069 176.799 476.068 176.799C476.068 176.799 476.064 176.795 476.059 176.786Z" fill="#D7E1F4"/>
<path d="M249.201 105.318C249.064 105.725 248.683 106 248.253 106H247.853C247.164 106 246.681 105.318 246.91 104.668L250.815 93.577C250.956 93.1768 251.334 92.9091 251.758 92.9091H253.27C253.694 92.9091 254.072 93.1766 254.213 93.5766L258.123 104.668C258.352 105.318 257.869 106 257.18 106H256.78C256.351 106 255.969 105.726 255.832 105.318L252.581 95.6422C252.571 95.6132 252.544 95.5937 252.514 95.5937C252.483 95.5937 252.456 95.6133 252.446 95.6422L249.201 105.318ZM249.056 101.82C249.056 101.294 249.482 100.867 250.008 100.867H255.006C255.533 100.867 255.959 101.294 255.959 101.82C255.959 102.346 255.533 102.772 255.006 102.772H250.008C249.482 102.772 249.056 102.346 249.056 101.82Z" fill="#0FC1B7"/>
<path d="M269.209 97.0895C268.771 97.0895 268.398 96.7943 268.184 96.4111C268.136 96.3252 268.085 96.2424 268.03 96.1626C267.847 95.8856 267.625 95.6491 267.366 95.4531C267.11 95.2571 266.816 95.1101 266.483 95.0121C266.151 94.9098 265.789 94.8587 265.397 94.8587C264.694 94.8587 264.067 95.0355 263.518 95.3892C262.968 95.7429 262.535 96.2628 262.22 96.9489C261.909 97.6307 261.753 98.4616 261.753 99.4418C261.753 100.43 261.909 101.268 262.22 101.954C262.531 102.64 262.964 103.162 263.518 103.52C264.071 103.874 264.715 104.05 265.448 104.05C266.113 104.05 266.688 103.923 267.174 103.667C267.664 103.411 268.041 103.049 268.305 102.58C268.563 102.118 268.695 101.579 268.701 100.963C268.701 100.94 268.722 100.922 268.746 100.925C268.792 100.932 268.787 101.001 268.74 101.001H265.938C265.798 101.001 265.684 100.888 265.684 100.748V100.075C265.684 99.5627 266.099 99.1477 266.611 99.1477H269.996C270.548 99.1477 270.996 99.5954 270.996 100.148V100.72C270.996 101.841 270.758 102.81 270.28 103.629C269.803 104.447 269.147 105.077 268.312 105.521C267.476 105.96 266.518 106.179 265.435 106.179C264.229 106.179 263.17 105.908 262.258 105.367C261.351 104.822 260.641 104.048 260.13 103.047C259.623 102.041 259.369 100.848 259.369 99.4673C259.369 98.4105 259.518 97.4666 259.817 96.6356C260.119 95.8047 260.541 95.0994 261.082 94.5199C261.623 93.9361 262.258 93.4929 262.987 93.1903C263.716 92.8835 264.508 92.7301 265.365 92.7301C266.089 92.7301 266.765 92.8366 267.391 93.0497C268.018 93.2585 268.574 93.5568 269.059 93.9446C269.549 94.3324 269.952 94.7926 270.268 95.3253C270.39 95.5314 270.495 95.7457 270.585 95.9684C270.813 96.5365 270.336 97.0895 269.724 97.0895H269.209Z" fill="#0FC1B7"/>
<path d="M274.289 106C273.737 106 273.289 105.552 273.289 105V93.9091C273.289 93.3568 273.737 92.9091 274.289 92.9091H280.81C281.359 92.9091 281.804 93.3541 281.804 93.903C281.804 94.452 281.359 94.897 280.81 94.897H276.661C276.109 94.897 275.661 95.3447 275.661 95.897V97.451C275.661 98.0033 276.109 98.451 276.661 98.451H280.369C280.917 98.451 281.362 98.896 281.362 99.4449C281.362 99.9939 280.917 100.439 280.369 100.439H276.661C276.109 100.439 275.661 100.887 275.661 101.439V103.012C275.661 103.564 276.109 104.012 276.661 104.012H280.861C281.41 104.012 281.855 104.457 281.855 105.006C281.855 105.555 281.41 106 280.861 106H274.289Z" fill="#0FC1B7"/>
<path d="M290.46 92.4905C291.457 92.2596 292.085 91.2616 291.789 90.2815C290.272 85.2417 287.383 80.7079 283.431 77.1957C279.015 73.2722 273.49 70.8175 267.619 70.1711C261.747 69.5248 255.82 70.7187 250.657 73.5877C245.494 76.4568 241.35 80.8592 238.797 86.1863C236.245 91.5133 235.411 97.5017 236.411 103.323C237.411 109.145 240.195 114.512 244.378 118.683C248.561 122.853 253.936 125.621 259.761 126.603C264.974 127.482 270.317 126.892 275.196 124.917C276.145 124.533 276.53 123.418 276.085 122.497C275.64 121.575 274.533 121.195 273.581 121.57C269.398 123.217 264.833 123.699 260.377 122.948C255.31 122.093 250.634 119.685 246.995 116.057C243.356 112.429 240.934 107.76 240.065 102.696C239.195 97.6315 239.92 92.4221 242.141 87.7879C244.361 83.1538 247.966 79.324 252.458 76.8281C256.949 74.3323 262.105 73.2936 267.213 73.8559C272.321 74.4182 277.127 76.5536 280.969 79.9668C284.347 82.9685 286.831 86.828 288.169 91.12C288.474 92.0972 289.463 92.7214 290.46 92.4905Z" fill="#D7E1F4"/>
<path fill-rule="evenodd" clip-rule="evenodd" d="M595.403 67.0926L595.403 67.0926C595.662 67.0312 595.927 67 596.194 67H602.344C602.511 67 602.677 67.0122 602.842 67.0364L602.454 69.676L602.842 67.0364C608.477 67.8643 611.621 71.8116 613.147 75.8911L610.593 76.8465L613.147 75.8911C614.255 78.8523 614.618 82.0899 614.574 84.8936C615.253 85.4379 615.767 86.1156 616.118 86.7922C616.815 88.1336 617.032 89.7039 616.806 91.2154C616.58 92.7264 615.912 94.1669 614.843 95.2431L612.95 93.3628L614.843 95.2431C614.36 95.7288 613.753 96.1733 613.05 96.4852C612.372 98.9998 611.395 101.336 610.103 103.353C609.984 105.78 609.98 108.63 610.12 111.057L622.288 113.691C623.925 114.046 625 115.494 625 117.063V126.551C625 128.376 623.54 130 621.563 130H575.437C573.46 130 572 128.376 572 126.551V117.063C572 115.494 573.075 114.046 574.712 113.691L587.421 110.94C587.597 108.976 587.679 106.726 587.399 104.03C585.85 101.825 584.707 99.1872 583.945 96.3355C583.373 96.0384 582.875 95.6556 582.465 95.2431C581.396 94.1669 580.728 92.7264 580.501 91.2154C580.275 89.7039 580.493 88.1336 581.189 86.7922C581.544 86.1107 582.062 85.4281 582.748 84.8819C582.743 84.5369 582.738 84.1989 582.733 83.8666L582.733 83.8646C582.729 83.6558 582.726 83.4486 582.723 83.2444C582.518 81.3684 582.432 79.1299 582.807 76.8135C583.379 73.2867 586.279 71.052 588.466 69.7908C590.839 68.4223 593.518 67.5398 595.403 67.0926ZM585.72 83.056C585.724 83.3047 585.728 83.5589 585.732 83.8182L585.732 83.8192C585.747 84.7295 585.762 85.7056 585.763 86.757C585.724 86.761 585.684 86.7661 585.645 86.7724C584.849 86.8983 584.228 87.4505 583.852 88.1753C583.475 88.8999 583.326 89.8214 583.468 90.7713C583.611 91.7212 584.022 92.5539 584.593 93.1285C585.103 93.6415 585.758 93.963 586.459 93.9367C587.19 97.4716 588.487 100.574 590.288 102.894C590.661 105.862 590.627 108.354 590.469 110.478C590.388 111.567 590.274 112.56 590.165 113.469C590.119 113.455 590.07 113.449 590.021 113.452C589.998 113.453 589.976 113.456 589.953 113.461L575.347 116.623C575.145 116.667 575 116.85 575 117.063V126.551C575 126.799 575.195 127 575.437 127H621.563C621.805 127 622 126.799 622 126.551V117.063C622 116.85 621.855 116.667 621.653 116.623L607.315 113.519C606.955 110.331 606.941 105.786 607.153 102.363C608.753 100.107 609.91 97.1993 610.576 93.9088L610.594 93.9117C611.39 94.0377 612.144 93.7033 612.715 93.1285C613.286 92.5539 613.697 91.7212 613.839 90.7713C613.981 89.8214 613.832 88.8999 613.456 88.1753C613.079 87.4505 612.458 86.8983 611.663 86.7724C611.637 86.7682 611.611 86.7646 611.585 86.7615C611.547 86.7569 611.509 86.7534 611.472 86.7509C611.51 86.3475 611.539 85.928 611.556 85.4961C611.667 82.8353 611.37 79.7021 610.337 76.9422C609.056 73.5178 606.619 70.6235 602.406 70.0045C602.385 70.0015 602.365 70 602.344 70H596.194C596.161 70 596.128 70.0039 596.096 70.0115C594.403 70.4133 592.016 71.2067 589.964 72.3897C587.939 73.5579 586.111 75.1803 585.769 77.2934C585.443 79.3025 585.521 81.3008 585.72 83.056Z" fill="#D7E1F4"/>
<path d="M515.6 71.3C515.6 74.7794 512.779 77.6 509.3 77.6C505.821 77.6 503 74.7794 503 71.3C503 67.8206 505.821 65 509.3 65C512.779 65 515.6 67.8206 515.6 71.3Z" fill="#111F3B"/>
<path fill-rule="evenodd" clip-rule="evenodd" d="M509.3 76.7209C512.294 76.7209 514.721 74.2939 514.721 71.3C514.721 68.3061 512.294 65.8791 509.3 65.8791C506.306 65.8791 503.879 68.3061 503.879 71.3C503.879 74.2939 506.306 76.7209 509.3 76.7209ZM509.3 77.6C512.779 77.6 515.6 74.7794 515.6 71.3C515.6 67.8206 512.779 65 509.3 65C505.821 65 503 67.8206 503 71.3C503 74.7794 505.821 77.6 509.3 77.6Z" fill="#0FC1B7"/>
<path fill-rule="evenodd" clip-rule="evenodd" d="M509.3 74.7209C511.189 74.7209 512.721 73.1893 512.721 71.3C512.721 69.4107 511.189 67.8791 509.3 67.8791C507.411 67.8791 505.879 69.4107 505.879 71.3C505.879 73.1893 507.411 74.7209 509.3 74.7209ZM517.6 71.3C517.6 75.884 513.884 79.6 509.3 79.6C504.716 79.6 501 75.884 501 71.3C501 66.716 504.716 63 509.3 63C513.884 63 517.6 66.716 517.6 71.3ZM514.721 71.3C514.721 74.2939 512.294 76.7209 509.3 76.7209C506.306 76.7209 503.879 74.2939 503.879 71.3C503.879 68.3061 506.306 65.8791 509.3 65.8791C512.294 65.8791 514.721 68.3061 514.721 71.3ZM515.6 71.3C515.6 74.7794 512.779 77.6 509.3 77.6C505.821 77.6 503 74.7794 503 71.3C503 67.8206 505.821 65 509.3 65C512.779 65 515.6 67.8206 515.6 71.3Z" fill="#111F3B"/>
<path fill-rule="evenodd" clip-rule="evenodd" d="M505.875 70.8596C505.711 71.0134 505.711 71.2628 505.875 71.4166L508.281 73.6642L512.371 69.8412C512.536 69.6874 512.536 69.4381 512.371 69.2843C512.207 69.1305 511.94 69.1305 511.775 69.2843L508.281 72.5503L506.471 70.8596C506.307 70.7058 506.04 70.7058 505.875 70.8596Z" fill="#0FC1B7"/>
<path d="M358.6 71.3C358.6 74.7794 355.779 77.6 352.3 77.6C348.821 77.6 346 74.7794 346 71.3C346 67.8206 348.821 65 352.3 65C355.779 65 358.6 67.8206 358.6 71.3Z" fill="#111F3B"/>
<path fill-rule="evenodd" clip-rule="evenodd" d="M352.3 76.7209C355.294 76.7209 357.721 74.2939 357.721 71.3C357.721 68.3061 355.294 65.8791 352.3 65.8791C349.306 65.8791 346.879 68.3061 346.879 71.3C346.879 74.2939 349.306 76.7209 352.3 76.7209ZM352.3 77.6C355.779 77.6 358.6 74.7794 358.6 71.3C358.6 67.8206 355.779 65 352.3 65C348.821 65 346 67.8206 346 71.3C346 74.7794 348.821 77.6 352.3 77.6Z" fill="#0FC1B7"/>
<path fill-rule="evenodd" clip-rule="evenodd" d="M352.3 74.7209C354.189 74.7209 355.721 73.1893 355.721 71.3C355.721 69.4107 354.189 67.8791 352.3 67.8791C350.411 67.8791 348.879 69.4107 348.879 71.3C348.879 73.1893 350.411 74.7209 352.3 74.7209ZM360.6 71.3C360.6 75.884 356.884 79.6 352.3 79.6C347.716 79.6 344 75.884 344 71.3C344 66.716 347.716 63 352.3 63C356.884 63 360.6 66.716 360.6 71.3ZM357.721 71.3C357.721 74.2939 355.294 76.7209 352.3 76.7209C349.306 76.7209 346.879 74.2939 346.879 71.3C346.879 68.3061 349.306 65.8791 352.3 65.8791C355.294 65.8791 357.721 68.3061 357.721 71.3ZM358.6 71.3C358.6 74.7794 355.779 77.6 352.3 77.6C348.821 77.6 346 74.7794 346 71.3C346 67.8206 348.821 65 352.3 65C355.779 65 358.6 67.8206 358.6 71.3Z" fill="#111F3B"/>
<path fill-rule="evenodd" clip-rule="evenodd" d="M348.875 70.8596C348.711 71.0134 348.711 71.2628 348.875 71.4166L351.281 73.6642L355.371 69.8412C355.536 69.6874 355.536 69.4381 355.371 69.2843C355.207 69.1305 354.94 69.1305 354.775 69.2843L351.281 72.5503L349.471 70.8596C349.307 70.7058 349.04 70.7058 348.875 70.8596Z" fill="#0FC1B7"/>
<path d="M438.6 100.3C438.6 103.779 435.779 106.6 432.3 106.6C428.821 106.6 426 103.779 426 100.3C426 96.8206 428.821 94 432.3 94C435.779 94 438.6 96.8206 438.6 100.3Z" fill="#111F3B"/>
<path fill-rule="evenodd" clip-rule="evenodd" d="M432.3 105.721C435.294 105.721 437.721 103.294 437.721 100.3C437.721 97.3061 435.294 94.8791 432.3 94.8791C429.306 94.8791 426.879 97.3061 426.879 100.3C426.879 103.294 429.306 105.721 432.3 105.721ZM432.3 106.6C435.779 106.6 438.6 103.779 438.6 100.3C438.6 96.8206 435.779 94 432.3 94C428.821 94 426 96.8206 426 100.3C426 103.779 428.821 106.6 432.3 106.6Z" fill="#0FC1B7"/>
<path fill-rule="evenodd" clip-rule="evenodd" d="M432.3 103.721C434.189 103.721 435.721 102.189 435.721 100.3C435.721 98.4107 434.189 96.8791 432.3 96.8791C430.411 96.8791 428.879 98.4107 428.879 100.3C428.879 102.189 430.411 103.721 432.3 103.721ZM440.6 100.3C440.6 104.884 436.884 108.6 432.3 108.6C427.716 108.6 424 104.884 424 100.3C424 95.716 427.716 92 432.3 92C436.884 92 440.6 95.716 440.6 100.3ZM437.721 100.3C437.721 103.294 435.294 105.721 432.3 105.721C429.306 105.721 426.879 103.294 426.879 100.3C426.879 97.3061 429.306 94.8791 432.3 94.8791C435.294 94.8791 437.721 97.3061 437.721 100.3ZM438.6 100.3C438.6 103.779 435.779 106.6 432.3 106.6C428.821 106.6 426 103.779 426 100.3C426 96.8206 428.821 94 432.3 94C435.779 94 438.6 96.8206 438.6 100.3Z" fill="#111F3B"/>
<path fill-rule="evenodd" clip-rule="evenodd" d="M428.875 99.8596C428.711 100.013 428.711 100.263 428.875 100.417L431.281 102.664L435.371 98.8412C435.536 98.6874 435.536 98.4381 435.371 98.2843C435.207 98.1305 434.94 98.1305 434.775 98.2843L431.281 101.55L429.471 99.8596C429.307 99.7058 429.04 99.7058 428.875 99.8596Z" fill="#0FC1B7"/>
</svg>
