<svg width="293" height="112" viewBox="0 0 293 112" fill="none" xmlns="http://www.w3.org/2000/svg">
<path d="M35.2569 4.13445C44.3186 -1.37815 55.6814 -1.37815 64.7431 4.13445L86.2968 17.2465C94.8039 22.4218 100 31.6819 100 41.6673V70.3327C100 80.3182 94.8039 89.5782 86.2968 94.7534L64.7431 107.866C55.6814 113.378 44.3186 113.378 35.2569 107.866L13.7032 94.7534C5.19609 89.5782 0 80.3181 0 70.3327V41.6673C0 31.6819 5.19609 22.4218 13.7032 17.2465L35.2569 4.13445Z" fill="url(#paint0_linear)"/>
<path fill-rule="evenodd" clip-rule="evenodd" d="M25.7012 31.4302C25.7012 30.2256 26.6757 29.249 27.8779 29.249H52.3661C57.8445 29.249 62.9432 30.9069 67.1814 33.7497C68.1804 34.4197 68.4482 35.7744 67.7795 36.7755C67.1107 37.7765 65.7588 38.0448 64.7598 37.3747C61.2157 34.9976 56.9557 33.6113 52.3661 33.6113H27.8779C26.6757 33.6113 25.7012 32.6348 25.7012 31.4302ZM70.4196 39.2471C71.3707 38.5103 72.7378 38.6856 73.4731 39.6386C76.9569 44.1539 79.0309 49.8213 79.0309 55.968C79.0309 66.5797 72.8571 75.7422 63.922 80.0537C62.8389 80.5764 61.538 80.1203 61.0164 79.0349C60.4948 77.9496 60.95 76.6461 62.0332 76.1234C69.5189 72.5113 74.6775 64.8412 74.6775 55.968C74.6775 50.8206 72.9441 46.0849 70.0289 42.3067C69.2936 41.3537 69.4686 39.9839 70.4196 39.2471ZM25.7012 80.5058C25.7012 79.3012 26.6757 78.3247 27.8779 78.3247H55.6311C56.8333 78.3247 57.8079 79.3012 57.8079 80.5058C57.8079 81.7104 56.8333 82.687 55.6311 82.687H27.8779C26.6757 82.687 25.7012 81.7104 25.7012 80.5058Z" fill="white"/>
<path fill-rule="evenodd" clip-rule="evenodd" d="M30.0542 41.2446C30.0542 40.04 31.0288 39.0635 32.2309 39.0635H52.3656C58.0805 39.0635 63.131 41.9131 66.179 46.2618C66.87 47.2476 66.6326 48.608 65.6488 49.3003C64.665 49.9926 63.3074 49.7548 62.6164 48.769C60.3485 45.5333 56.6026 43.4258 52.3656 43.4258H32.2309C31.0288 43.4258 30.0542 42.4492 30.0542 41.2446ZM67.0585 53.7862C68.2607 53.7862 69.2352 54.7627 69.2352 55.9673C69.2352 65.303 61.6825 72.8712 52.3656 72.8712H32.2309C31.0288 72.8712 30.0542 71.8946 30.0542 70.69C30.0542 69.4854 31.0288 68.5089 32.2309 68.5089H52.3656C59.2781 68.5089 64.8818 62.8938 64.8818 55.9673C64.8818 54.7627 65.8563 53.7862 67.0585 53.7862Z" fill="white"/>
<path fill-rule="evenodd" clip-rule="evenodd" d="M33.3198 50.5151C33.3198 49.3105 34.2944 48.334 35.4965 48.334H51.2778C55.4854 48.334 58.8963 51.7518 58.8963 55.968C58.8963 60.1841 55.4854 63.602 51.2778 63.602C50.0756 63.602 49.1011 62.6254 49.1011 61.4208C49.1011 60.2162 50.0756 59.2397 51.2778 59.2397C53.0811 59.2397 54.5429 57.7749 54.5429 55.968C54.5429 54.1611 53.0811 52.6963 51.2778 52.6963H35.4965C34.2944 52.6963 33.3198 51.7197 33.3198 50.5151ZM33.3198 61.4208C33.3198 60.2162 34.2944 59.2397 35.4965 59.2397H43.1151C44.3173 59.2397 45.2918 60.2162 45.2918 61.4208C45.2918 62.6254 44.3173 63.602 43.1151 63.602H35.4965C34.2944 63.602 33.3198 62.6254 33.3198 61.4208Z" fill="white"/>
<path d="M147.711 14.2422H143V54.8202H147.711V14.2422Z" fill="#293858"/>
<path d="M162.869 34.4977C162.869 23.1286 172.566 13.5 183.969 13.5C195.435 13.5 204.993 23.0565 204.993 34.4977C204.993 45.9388 195.371 55.4997 183.969 55.4997C172.631 55.563 162.869 45.941 162.869 34.4977ZM200.284 34.4977C200.284 25.4828 192.844 17.8087 183.969 17.8087C175.093 17.8087 167.586 25.4762 167.586 34.4977C167.586 43.5868 175.091 51.2521 183.969 51.2521C192.846 51.2521 200.284 43.5868 200.284 34.4977Z" fill="#293858"/>
<path d="M229.16 18.6167H215.305V14.249H247.667V18.6167H233.805V54.8205H229.096L229.16 18.6167Z" fill="#293858"/>
<path d="M272.376 19.8942L256.74 54.8204H251.629L268.758 16.5224C269.059 15.842 269.556 15.2629 270.188 14.8563C270.82 14.4497 271.558 14.2333 272.313 14.2337C273.07 14.2244 273.813 14.4373 274.446 14.8449C275.08 15.2526 275.575 15.8366 275.869 16.5224L293 54.8204H287.889L272.376 19.8942Z" fill="#293858"/>
<path d="M147.93 73.5909V92.5H145.077V73.5909H147.93ZM158.987 92.5H152.865V73.5909H159.181C161.039 73.5909 162.631 73.9695 163.954 74.7266C165.284 75.4775 166.302 76.5578 167.01 77.9673C167.724 79.3707 168.081 81.0542 168.081 83.0178C168.081 84.9875 167.724 86.6802 167.01 88.0959C166.296 89.5116 165.259 90.6011 163.899 91.3643C162.544 92.1214 160.907 92.5 158.987 92.5ZM155.718 90.0071H158.83C160.984 90.0071 162.597 89.4039 163.668 88.1974C164.739 86.9848 165.274 85.2583 165.274 83.0178C165.274 80.7895 164.745 79.0784 163.686 77.8842C162.634 76.6839 161.073 76.0838 159.005 76.0838H155.718V90.0071ZM172.409 92.5V73.5909H184.264V76.0469H175.262V81.8082H183.645V84.255H175.262V90.044H184.375V92.5H172.409ZM204.117 73.5909V92.5H201.495L191.883 78.6321H191.708V92.5H188.855V73.5909H191.496L201.116 87.4773H201.292V73.5909H204.117ZM208.126 76.0469V73.5909H222.76V76.0469H216.861V92.5H214.017V76.0469H208.126ZM229.627 73.5909V92.5H226.774V73.5909H229.627ZM233.63 76.0469V73.5909H248.264V76.0469H242.364V92.5H239.52V76.0469H233.63ZM250.819 73.5909H254.06L258.999 82.1868H259.202L264.142 73.5909H267.383L260.523 85.0767V92.5H257.679V85.0767L250.819 73.5909Z" fill="#909FBE"/>
<defs>
<linearGradient id="paint0_linear" x1="49.9998" y1="-4.83418" x2="49.9998" y2="116.835" gradientUnits="userSpaceOnUse">
<stop stop-color="#8493AD"/>
<stop offset="1" stop-color="#1B2840"/>
</linearGradient>
</defs>
</svg>
